G04 #@! TF.GenerationSoftware,KiCad,Pcbnew,8.0.7*
G04 #@! TF.CreationDate,2025-01-05T17:22:56+01:00*
G04 #@! TF.ProjectId,12VSupport,31325653-7570-4706-9f72-742e6b696361,1.1*
G04 #@! TF.SameCoordinates,Original*
G04 #@! TF.FileFunction,Paste,Top*
G04 #@! TF.FilePolarity,Positive*
%FSLAX46Y46*%
G04 Gerber Fmt 4.6, Leading zero omitted, Abs format (unit mm)*
G04 Created by KiCad (PCBNEW 8.0.7) date 2025-01-05 17:22:56*
%MOMM*%
%LPD*%
G01*
G04 APERTURE LIST*
G04 Aperture macros list*
%AMRoundRect*
0 Rectangle with rounded corners*
0 $1 Rounding radius*
0 $2 $3 $4 $5 $6 $7 $8 $9 X,Y pos of 4 corners*
0 Add a 4 corners polygon primitive as box body*
4,1,4,$2,$3,$4,$5,$6,$7,$8,$9,$2,$3,0*
0 Add four circle primitives for the rounded corners*
1,1,$1+$1,$2,$3*
1,1,$1+$1,$4,$5*
1,1,$1+$1,$6,$7*
1,1,$1+$1,$8,$9*
0 Add four rect primitives between the rounded corners*
20,1,$1+$1,$2,$3,$4,$5,0*
20,1,$1+$1,$4,$5,$6,$7,0*
20,1,$1+$1,$6,$7,$8,$9,0*
20,1,$1+$1,$8,$9,$2,$3,0*%
G04 Aperture macros list end*
%ADD10RoundRect,0.250000X-0.850000X-0.350000X0.850000X-0.350000X0.850000X0.350000X-0.850000X0.350000X0*%
%ADD11RoundRect,0.250000X-1.275000X-1.125000X1.275000X-1.125000X1.275000X1.125000X-1.275000X1.125000X0*%
%ADD12RoundRect,0.250000X-0.250000X-0.475000X0.250000X-0.475000X0.250000X0.475000X-0.250000X0.475000X0*%
%ADD13RoundRect,0.250000X-0.475000X0.250000X-0.475000X-0.250000X0.475000X-0.250000X0.475000X0.250000X0*%
%ADD14RoundRect,0.250000X-0.450000X0.262500X-0.450000X-0.262500X0.450000X-0.262500X0.450000X0.262500X0*%
%ADD15RoundRect,0.150000X-0.875000X-0.150000X0.875000X-0.150000X0.875000X0.150000X-0.875000X0.150000X0*%
%ADD16RoundRect,0.250000X0.262500X0.450000X-0.262500X0.450000X-0.262500X-0.450000X0.262500X-0.450000X0*%
%ADD17RoundRect,0.150000X-0.150000X0.587500X-0.150000X-0.587500X0.150000X-0.587500X0.150000X0.587500X0*%
%ADD18RoundRect,0.243750X0.456250X-0.243750X0.456250X0.243750X-0.456250X0.243750X-0.456250X-0.243750X0*%
%ADD19RoundRect,0.250000X-0.262500X-0.450000X0.262500X-0.450000X0.262500X0.450000X-0.262500X0.450000X0*%
%ADD20RoundRect,0.250000X0.450000X-0.262500X0.450000X0.262500X-0.450000X0.262500X-0.450000X-0.262500X0*%
%ADD21R,5.400000X2.900000*%
%ADD22RoundRect,0.250000X1.000000X-1.950000X1.000000X1.950000X-1.000000X1.950000X-1.000000X-1.950000X0*%
%ADD23RoundRect,0.250000X0.650000X-1.000000X0.650000X1.000000X-0.650000X1.000000X-0.650000X-1.000000X0*%
%ADD24RoundRect,0.250000X0.250000X0.475000X-0.250000X0.475000X-0.250000X-0.475000X0.250000X-0.475000X0*%
%ADD25RoundRect,0.250000X1.000000X0.650000X-1.000000X0.650000X-1.000000X-0.650000X1.000000X-0.650000X0*%
%ADD26RoundRect,0.250000X-1.500000X-0.550000X1.500000X-0.550000X1.500000X0.550000X-1.500000X0.550000X0*%
%ADD27RoundRect,0.250000X-1.950000X-1.000000X1.950000X-1.000000X1.950000X1.000000X-1.950000X1.000000X0*%
%ADD28RoundRect,0.250000X1.000000X0.900000X-1.000000X0.900000X-1.000000X-0.900000X1.000000X-0.900000X0*%
%ADD29RoundRect,0.250000X0.850000X0.350000X-0.850000X0.350000X-0.850000X-0.350000X0.850000X-0.350000X0*%
%ADD30RoundRect,0.250000X1.275000X1.125000X-1.275000X1.125000X-1.275000X-1.125000X1.275000X-1.125000X0*%
%ADD31RoundRect,0.150000X-0.825000X-0.150000X0.825000X-0.150000X0.825000X0.150000X-0.825000X0.150000X0*%
%ADD32RoundRect,0.250000X-2.050000X-0.300000X2.050000X-0.300000X2.050000X0.300000X-2.050000X0.300000X0*%
%ADD33RoundRect,0.250000X-2.025000X-2.375000X2.025000X-2.375000X2.025000X2.375000X-2.025000X2.375000X0*%
%ADD34RoundRect,0.250000X0.550000X-1.500000X0.550000X1.500000X-0.550000X1.500000X-0.550000X-1.500000X0*%
%ADD35RoundRect,0.250000X0.475000X-0.250000X0.475000X0.250000X-0.475000X0.250000X-0.475000X-0.250000X0*%
%ADD36R,2.700000X3.600000*%
%ADD37O,1.750000X4.500000*%
%ADD38RoundRect,0.243750X0.243750X0.456250X-0.243750X0.456250X-0.243750X-0.456250X0.243750X-0.456250X0*%
%ADD39RoundRect,0.250000X0.412500X0.650000X-0.412500X0.650000X-0.412500X-0.650000X0.412500X-0.650000X0*%
G04 APERTURE END LIST*
D10*
X61565500Y-72904000D03*
D11*
X66190500Y-73659000D03*
X66190500Y-76709000D03*
X69540500Y-73659000D03*
X69540500Y-76709000D03*
D10*
X61565500Y-77464000D03*
D12*
X70955500Y-46990000D03*
X72855500Y-46990000D03*
D13*
X139954000Y-129225000D03*
X139954000Y-131125000D03*
D14*
X139700000Y-142168000D03*
X139700000Y-143993000D03*
D15*
X126590000Y-119380000D03*
X126590000Y-120650000D03*
X126590000Y-121920000D03*
X126590000Y-123190000D03*
X126590000Y-124460000D03*
X126590000Y-125730000D03*
X126590000Y-127000000D03*
X126590000Y-128270000D03*
X126590000Y-129540000D03*
X126590000Y-130810000D03*
X126590000Y-132080000D03*
X126590000Y-133350000D03*
X126590000Y-134620000D03*
X126590000Y-135890000D03*
X135890000Y-135890000D03*
X135890000Y-134620000D03*
X135890000Y-133350000D03*
X135890000Y-132080000D03*
X135890000Y-130810000D03*
X135890000Y-129540000D03*
X135890000Y-128270000D03*
X135890000Y-127000000D03*
X135890000Y-125730000D03*
X135890000Y-124460000D03*
X135890000Y-123190000D03*
X135890000Y-121920000D03*
X135890000Y-120650000D03*
X135890000Y-119380000D03*
D14*
X118618000Y-150749000D03*
X118618000Y-152574000D03*
D16*
X93749500Y-51181000D03*
X91924500Y-51181000D03*
D17*
X87310000Y-83898500D03*
X85410000Y-83898500D03*
X86360000Y-85773500D03*
D18*
X136906000Y-148892500D03*
X136906000Y-147017500D03*
X124460000Y-157577000D03*
X124460000Y-155702000D03*
D12*
X70960500Y-50800000D03*
X72860500Y-50800000D03*
D14*
X121539000Y-150774000D03*
X121539000Y-152599000D03*
D19*
X136224000Y-102362000D03*
X138049000Y-102362000D03*
D20*
X56896000Y-115466500D03*
X56896000Y-113641500D03*
D19*
X78994000Y-55880000D03*
X80819000Y-55880000D03*
D21*
X122435000Y-86490000D03*
X122435000Y-96390000D03*
D19*
X130913500Y-114681000D03*
X132738500Y-114681000D03*
D12*
X132400000Y-99314000D03*
X134300000Y-99314000D03*
D17*
X78166000Y-114711000D03*
X76266000Y-114711000D03*
X77216000Y-116586000D03*
D16*
X93726000Y-54864000D03*
X91901000Y-54864000D03*
D18*
X121539000Y-157577000D03*
X121539000Y-155702000D03*
D14*
X142449000Y-142168000D03*
X142449000Y-143993000D03*
D22*
X116078000Y-53738000D03*
X116078000Y-46338000D03*
D14*
X136906000Y-142066000D03*
X136906000Y-143891000D03*
D16*
X93749500Y-47498000D03*
X91924500Y-47498000D03*
D19*
X101426000Y-47498000D03*
X103251000Y-47498000D03*
D13*
X132595000Y-81600000D03*
X132595000Y-83500000D03*
D18*
X139700000Y-148922500D03*
X139700000Y-147047500D03*
D19*
X96750500Y-47498000D03*
X98575500Y-47498000D03*
D17*
X78232000Y-122682000D03*
X76332000Y-122682000D03*
X77282000Y-124557000D03*
D23*
X76708000Y-96488000D03*
X76708000Y-92488000D03*
D14*
X76604500Y-45823500D03*
X76604500Y-47648500D03*
D12*
X75250000Y-50800000D03*
X77150000Y-50800000D03*
D18*
X127381000Y-157577000D03*
X127381000Y-155702000D03*
D24*
X120076000Y-136398000D03*
X118176000Y-136398000D03*
D25*
X87852000Y-143002000D03*
X83852000Y-143002000D03*
X122015000Y-74295000D03*
X118015000Y-74295000D03*
D14*
X130302000Y-150774000D03*
X130302000Y-152599000D03*
D20*
X79652500Y-47648500D03*
X79652500Y-45823500D03*
D17*
X87460500Y-114632500D03*
X85560500Y-114632500D03*
X86510500Y-116507500D03*
D16*
X98552000Y-51181000D03*
X96727000Y-51181000D03*
D24*
X120076000Y-121412000D03*
X118176000Y-121412000D03*
D26*
X121760000Y-102870000D03*
X127160000Y-102870000D03*
D27*
X136650000Y-76835000D03*
X145050000Y-76835000D03*
D28*
X122165000Y-80645000D03*
X117865000Y-80645000D03*
D18*
X142494000Y-148971000D03*
X142494000Y-147096000D03*
D29*
X53340000Y-117094000D03*
D30*
X48715000Y-116339000D03*
X48715000Y-113289000D03*
X45365000Y-116339000D03*
X45365000Y-113289000D03*
D29*
X53340000Y-112534000D03*
D14*
X124460000Y-150774000D03*
X124460000Y-152599000D03*
D31*
X62125500Y-46990000D03*
X62125500Y-48260000D03*
X62125500Y-49530000D03*
X62125500Y-50800000D03*
X67075500Y-50800000D03*
X67075500Y-49530000D03*
X67075500Y-48260000D03*
X67075500Y-46990000D03*
D32*
X134240000Y-88040000D03*
X134240000Y-89740000D03*
X134240000Y-91440000D03*
D33*
X140965000Y-88665000D03*
X140965000Y-94215000D03*
X145815000Y-88665000D03*
X145815000Y-94215000D03*
D32*
X134240000Y-93140000D03*
X134240000Y-94840000D03*
D34*
X105918000Y-56294000D03*
X105918000Y-50894000D03*
D18*
X118618000Y-157577000D03*
X118618000Y-155702000D03*
D35*
X54610000Y-66294000D03*
X54610000Y-64394000D03*
D36*
X117135000Y-64135000D03*
X125435000Y-64135000D03*
D18*
X130302000Y-157577000D03*
X130302000Y-155702000D03*
D14*
X127381000Y-150774000D03*
X127381000Y-152599000D03*
D37*
X128550000Y-110109000D03*
X131800000Y-110109000D03*
D38*
X143226000Y-102362000D03*
X141351000Y-102362000D03*
D25*
X57372000Y-143002000D03*
X53372000Y-143002000D03*
D20*
X79652500Y-51966500D03*
X79652500Y-50141500D03*
D31*
X83696000Y-47371000D03*
X83696000Y-48641000D03*
X83696000Y-49911000D03*
X83696000Y-51181000D03*
X83696000Y-52451000D03*
X83696000Y-53721000D03*
X83696000Y-54991000D03*
X88646000Y-54991000D03*
X88646000Y-53721000D03*
X88646000Y-52451000D03*
X88646000Y-51181000D03*
X88646000Y-49911000D03*
X88646000Y-48641000D03*
X88646000Y-47371000D03*
D12*
X85156000Y-57658000D03*
X87056000Y-57658000D03*
D39*
X100076000Y-55118000D03*
X96951000Y-55118000D03*
D23*
X130810000Y-74390000D03*
X130810000Y-70390000D03*
M02*
