%TF.GenerationSoftware,KiCad,Pcbnew,8.0.7*%
%TF.CreationDate,2025-01-05T17:22:58+01:00*%
%TF.ProjectId,12VSupport,31325653-7570-4706-9f72-742e6b696361,1.1*%
%TF.SameCoordinates,Original*%
%TF.FileFunction,Drillmap*%
%TF.FilePolarity,Positive*%
%FSLAX45Y45*%
G04 Gerber Fmt 4.5, Leading zero omitted, Abs format (unit mm)*
G04 Created by KiCad (PCBNEW 8.0.7) date 2025-01-05 17:22:58*
%MOMM*%
%LPD*%
G01*
G04 APERTURE LIST*
%ADD10C,0.050000*%
%ADD11C,0.200000*%
%ADD12C,0.100000*%
%ADD13C,0.110000*%
%ADD14C,0.132000*%
%ADD15C,0.140000*%
%ADD16C,0.160000*%
%ADD17C,0.178000*%
%ADD18C,0.320000*%
G04 APERTURE END LIST*
D10*
X14605000Y-4191000D02*
X4445000Y-4191000D01*
X4191000Y-4445000D02*
G75*
G02*
X4445000Y-4191000I254000J0D01*
G01*
X4191000Y-4445000D02*
X4191000Y-16256000D01*
X14859000Y-16256000D02*
G75*
G02*
X14605000Y-16510000I-254000J0D01*
G01*
X14859000Y-16256000D02*
X14859000Y-4445000D01*
X4445000Y-16510000D02*
G75*
G02*
X4191000Y-16256000I0J254000D01*
G01*
X14605000Y-4191000D02*
G75*
G02*
X14859000Y-4445000I0J-254000D01*
G01*
X4445000Y-16510000D02*
X14605000Y-16510000D01*
D11*
D12*
X6050600Y-4679000D02*
X6090600Y-4719000D01*
X6090600Y-4679000D02*
X6050600Y-4719000D01*
X6050600Y-4806000D02*
X6090600Y-4846000D01*
X6090600Y-4806000D02*
X6050600Y-4846000D01*
X6050600Y-4933000D02*
X6090600Y-4973000D01*
X6090600Y-4933000D02*
X6050600Y-4973000D01*
X6050600Y-5060000D02*
X6090600Y-5100000D01*
X6090600Y-5060000D02*
X6050600Y-5100000D01*
X7841300Y-7142800D02*
X7881300Y-7182800D01*
X7881300Y-7142800D02*
X7841300Y-7182800D01*
X7904800Y-12070400D02*
X7944800Y-12110400D01*
X7944800Y-12070400D02*
X7904800Y-12110400D01*
X8589500Y-4717100D02*
X8629500Y-4757100D01*
X8629500Y-4717100D02*
X8589500Y-4757100D01*
X8844600Y-6279200D02*
X8884600Y-6319200D01*
X8884600Y-6279200D02*
X8844600Y-6319200D01*
X8919865Y-11924155D02*
X8959865Y-11964155D01*
X8959865Y-11924155D02*
X8919865Y-11964155D01*
X8992668Y-11890991D02*
X9032668Y-11930991D01*
X9032668Y-11890991D02*
X8992668Y-11930991D01*
X8997000Y-5479100D02*
X9037000Y-5519100D01*
X9037000Y-5479100D02*
X8997000Y-5519100D01*
X9007000Y-11732285D02*
X9047000Y-11772285D01*
X9047000Y-11732285D02*
X9007000Y-11772285D01*
X9007000Y-11812285D02*
X9047000Y-11852285D01*
X9047000Y-11812285D02*
X9007000Y-11852285D01*
X9009700Y-4666300D02*
X9049700Y-4706300D01*
X9049700Y-4666300D02*
X9009700Y-4706300D01*
X9127000Y-6380800D02*
X9167000Y-6420800D01*
X9167000Y-6380800D02*
X9127000Y-6420800D01*
X9137000Y-4945700D02*
X9177000Y-4985700D01*
X9177000Y-4945700D02*
X9137000Y-4985700D01*
X11791000Y-8387400D02*
X11831000Y-8427400D01*
X11831000Y-8387400D02*
X11791000Y-8427400D01*
X12095800Y-13162600D02*
X12135800Y-13202600D01*
X12135800Y-13162600D02*
X12095800Y-13202600D01*
X12362500Y-13632500D02*
X12402500Y-13672500D01*
X12402500Y-13632500D02*
X12362500Y-13672500D01*
X12362500Y-13886500D02*
X12402500Y-13926500D01*
X12402500Y-13886500D02*
X12362500Y-13926500D01*
X12781600Y-13315000D02*
X12821600Y-13355000D01*
X12821600Y-13315000D02*
X12781600Y-13355000D01*
X12813200Y-11721000D02*
X12853200Y-11761000D01*
X12853200Y-11721000D02*
X12813200Y-11761000D01*
X12870500Y-13442000D02*
X12910500Y-13482000D01*
X12910500Y-13442000D02*
X12870500Y-13482000D01*
X12883200Y-11791000D02*
X12923200Y-11831000D01*
X12923200Y-11791000D02*
X12883200Y-11831000D01*
X13121640Y-14080991D02*
X13161640Y-14120991D01*
X13161640Y-14080991D02*
X13121640Y-14120991D01*
X13141200Y-12807000D02*
X13181200Y-12847000D01*
X13181200Y-12807000D02*
X13141200Y-12847000D01*
X13185407Y-14129299D02*
X13225407Y-14169299D01*
X13225407Y-14129299D02*
X13185407Y-14169299D01*
X13201200Y-12654600D02*
X13241200Y-12694600D01*
X13241200Y-12654600D02*
X13201200Y-12694600D01*
X13261200Y-12527600D02*
X13301200Y-12567600D01*
X13301200Y-12527600D02*
X13261200Y-12567600D01*
X13261200Y-14169978D02*
X13301200Y-14209978D01*
X13301200Y-14169978D02*
X13261200Y-14209978D01*
X13321200Y-12426000D02*
X13361200Y-12466000D01*
X13361200Y-12426000D02*
X13321200Y-12466000D01*
X13321200Y-14249031D02*
X13361200Y-14289031D01*
X13361200Y-14249031D02*
X13321200Y-14289031D01*
X13391200Y-12299000D02*
X13431200Y-12339000D01*
X13431200Y-12299000D02*
X13391200Y-12339000D01*
X13391200Y-14305600D02*
X13431200Y-14345600D01*
X13431200Y-14305600D02*
X13391200Y-14345600D01*
X6527400Y-4699000D02*
G75*
G02*
X6477400Y-4699000I-25000J0D01*
G01*
X6477400Y-4699000D02*
G75*
G02*
X6527400Y-4699000I25000J0D01*
G01*
X6527400Y-6502400D02*
G75*
G02*
X6477400Y-6502400I-25000J0D01*
G01*
X6477400Y-6502400D02*
G75*
G02*
X6527400Y-6502400I25000J0D01*
G01*
X6629000Y-11480800D02*
G75*
G02*
X6579000Y-11480800I-25000J0D01*
G01*
X6579000Y-11480800D02*
G75*
G02*
X6629000Y-11480800I25000J0D01*
G01*
X8051400Y-11760200D02*
G75*
G02*
X8001400Y-11760200I-25000J0D01*
G01*
X8001400Y-11760200D02*
G75*
G02*
X8051400Y-11760200I25000J0D01*
G01*
X8178400Y-11633200D02*
G75*
G02*
X8128400Y-11633200I-25000J0D01*
G01*
X8128400Y-11633200D02*
G75*
G02*
X8178400Y-11633200I25000J0D01*
G01*
X8559400Y-8242300D02*
G75*
G02*
X8509400Y-8242300I-25000J0D01*
G01*
X8509400Y-8242300D02*
G75*
G02*
X8559400Y-8242300I25000J0D01*
G01*
X8614175Y-9757575D02*
G75*
G02*
X8564175Y-9757575I-25000J0D01*
G01*
X8564175Y-9757575D02*
G75*
G02*
X8614175Y-9757575I25000J0D01*
G01*
X4459000Y-8425106D02*
X4459000Y-8475106D01*
X4434000Y-8450106D02*
X4484000Y-8450106D01*
X4459000Y-14427600D02*
X4459000Y-14477600D01*
X4434000Y-14452600D02*
X4484000Y-14452600D01*
X4529294Y-8255400D02*
X4529294Y-8305400D01*
X4504294Y-8280400D02*
X4554294Y-8280400D01*
X4529294Y-8594811D02*
X4529294Y-8644811D01*
X4504294Y-8619811D02*
X4554294Y-8619811D01*
X4529294Y-14257894D02*
X4529294Y-14307894D01*
X4504294Y-14282894D02*
X4554294Y-14282894D01*
X4529294Y-14597306D02*
X4529294Y-14647306D01*
X4504294Y-14622306D02*
X4554294Y-14622306D01*
X4699000Y-8185106D02*
X4699000Y-8235106D01*
X4674000Y-8210106D02*
X4724000Y-8210106D01*
X4699000Y-8665106D02*
X4699000Y-8715106D01*
X4674000Y-8690106D02*
X4724000Y-8690106D01*
X4699000Y-14187600D02*
X4699000Y-14237600D01*
X4674000Y-14212600D02*
X4724000Y-14212600D01*
X4699000Y-14667600D02*
X4699000Y-14717600D01*
X4674000Y-14692600D02*
X4724000Y-14692600D01*
X4868706Y-8255400D02*
X4868706Y-8305400D01*
X4843706Y-8280400D02*
X4893706Y-8280400D01*
X4868706Y-8594811D02*
X4868706Y-8644811D01*
X4843706Y-8619811D02*
X4893706Y-8619811D01*
X4868706Y-14257894D02*
X4868706Y-14307894D01*
X4843706Y-14282894D02*
X4893706Y-14282894D01*
X4868706Y-14597306D02*
X4868706Y-14647306D01*
X4843706Y-14622306D02*
X4893706Y-14622306D01*
X4939000Y-8425106D02*
X4939000Y-8475106D01*
X4914000Y-8450106D02*
X4964000Y-8450106D01*
X4939000Y-14427600D02*
X4939000Y-14477600D01*
X4914000Y-14452600D02*
X4964000Y-14452600D01*
X14111000Y-4674000D02*
X14111000Y-4724000D01*
X14086000Y-4699000D02*
X14136000Y-4699000D01*
X14111000Y-15977000D02*
X14111000Y-16027000D01*
X14086000Y-16002000D02*
X14136000Y-16002000D01*
X14181294Y-4504294D02*
X14181294Y-4554294D01*
X14156294Y-4529294D02*
X14206294Y-4529294D01*
X14181294Y-4843706D02*
X14181294Y-4893706D01*
X14156294Y-4868706D02*
X14206294Y-4868706D01*
X14181294Y-15807294D02*
X14181294Y-15857294D01*
X14156294Y-15832294D02*
X14206294Y-15832294D01*
X14181294Y-16146706D02*
X14181294Y-16196706D01*
X14156294Y-16171706D02*
X14206294Y-16171706D01*
X14351000Y-4434000D02*
X14351000Y-4484000D01*
X14326000Y-4459000D02*
X14376000Y-4459000D01*
X14351000Y-4914000D02*
X14351000Y-4964000D01*
X14326000Y-4939000D02*
X14376000Y-4939000D01*
X14351000Y-15737000D02*
X14351000Y-15787000D01*
X14326000Y-15762000D02*
X14376000Y-15762000D01*
X14351000Y-16217000D02*
X14351000Y-16267000D01*
X14326000Y-16242000D02*
X14376000Y-16242000D01*
X14520706Y-4504294D02*
X14520706Y-4554294D01*
X14495706Y-4529294D02*
X14545706Y-4529294D01*
X14520706Y-4843706D02*
X14520706Y-4893706D01*
X14495706Y-4868706D02*
X14545706Y-4868706D01*
X14520706Y-15807294D02*
X14520706Y-15857294D01*
X14495706Y-15832294D02*
X14545706Y-15832294D01*
X14520706Y-16146706D02*
X14520706Y-16196706D01*
X14495706Y-16171706D02*
X14545706Y-16171706D01*
X14591000Y-4674000D02*
X14591000Y-4724000D01*
X14566000Y-4699000D02*
X14616000Y-4699000D01*
X14591000Y-15977000D02*
X14591000Y-16027000D01*
X14566000Y-16002000D02*
X14616000Y-16002000D01*
X4542413Y-11349613D02*
X4542413Y-11307187D01*
X4499987Y-11307187D01*
X4499987Y-11349613D01*
X4542413Y-11349613D01*
X4542413Y-11654413D02*
X4542413Y-11611987D01*
X4499987Y-11611987D01*
X4499987Y-11654413D01*
X4542413Y-11654413D01*
X4847213Y-11349613D02*
X4847213Y-11307187D01*
X4804787Y-11307187D01*
X4804787Y-11349613D01*
X4847213Y-11349613D01*
X4847213Y-11654413D02*
X4847213Y-11611987D01*
X4804787Y-11611987D01*
X4804787Y-11654413D01*
X4847213Y-11654413D01*
X5685413Y-16314213D02*
X5685413Y-16271787D01*
X5642987Y-16271787D01*
X5642987Y-16314213D01*
X5685413Y-16314213D01*
X6612513Y-7373913D02*
X6612513Y-7331487D01*
X6570087Y-7331487D01*
X6570087Y-7373913D01*
X6612513Y-7373913D01*
X6612513Y-7704113D02*
X6612513Y-7661687D01*
X6570087Y-7661687D01*
X6570087Y-7704113D01*
X6612513Y-7704113D01*
X6923663Y-5145663D02*
X6923663Y-5103237D01*
X6881237Y-5103237D01*
X6881237Y-5145663D01*
X6923663Y-5145663D01*
X7018913Y-7373913D02*
X7018913Y-7331487D01*
X6976487Y-7331487D01*
X6976487Y-7373913D01*
X7018913Y-7373913D01*
X7018913Y-7704113D02*
X7018913Y-7661687D01*
X6976487Y-7661687D01*
X6976487Y-7704113D01*
X7018913Y-7704113D01*
X7133213Y-16314213D02*
X7133213Y-16271787D01*
X7090787Y-16271787D01*
X7090787Y-16314213D01*
X7133213Y-16314213D01*
X7984113Y-5329813D02*
X7984113Y-5287387D01*
X7941687Y-5287387D01*
X7941687Y-5329813D01*
X7984113Y-5329813D01*
X8301613Y-6536313D02*
X8301613Y-6493887D01*
X8259187Y-6493887D01*
X8259187Y-6536313D01*
X8301613Y-6536313D01*
X8668313Y-5242513D02*
X8668313Y-5200087D01*
X8625887Y-5200087D01*
X8625887Y-5242513D01*
X8668313Y-5242513D01*
X9266813Y-16314213D02*
X9266813Y-16271787D01*
X9224387Y-16271787D01*
X9224387Y-16314213D01*
X9266813Y-16314213D01*
X9298563Y-7634863D02*
X9298563Y-7592437D01*
X9256137Y-7592437D01*
X9256137Y-7634863D01*
X9298563Y-7634863D01*
X10613013Y-4771013D02*
X10613013Y-4728587D01*
X10570587Y-4728587D01*
X10570587Y-4771013D01*
X10613013Y-4771013D01*
X10638413Y-6980813D02*
X10638413Y-6938387D01*
X10595987Y-6938387D01*
X10595987Y-6980813D01*
X10638413Y-6980813D01*
X10638413Y-7107813D02*
X10638413Y-7065387D01*
X10595987Y-7065387D01*
X10595987Y-7107813D01*
X10638413Y-7107813D01*
X10638413Y-7234813D02*
X10638413Y-7192387D01*
X10595987Y-7192387D01*
X10595987Y-7234813D01*
X10638413Y-7234813D01*
X10867013Y-16314213D02*
X10867013Y-16271787D01*
X10824587Y-16271787D01*
X10824587Y-16314213D01*
X10867013Y-16314213D01*
X11248013Y-4656713D02*
X11248013Y-4614287D01*
X11205587Y-4614287D01*
X11205587Y-4656713D01*
X11248013Y-4656713D01*
X11552813Y-7946013D02*
X11552813Y-7903587D01*
X11510387Y-7903587D01*
X11510387Y-7946013D01*
X11552813Y-7946013D01*
X11552813Y-8085713D02*
X11552813Y-8043287D01*
X11510387Y-8043287D01*
X11510387Y-8085713D01*
X11552813Y-8085713D01*
X11803713Y-12899013D02*
X11803713Y-12856587D01*
X11761287Y-12856587D01*
X11761287Y-12899013D01*
X11803713Y-12899013D01*
X11826713Y-4852713D02*
X11826713Y-4810287D01*
X11784287Y-4810287D01*
X11784287Y-4852713D01*
X11826713Y-4852713D01*
X12258513Y-5284513D02*
X12258513Y-5242087D01*
X12216087Y-5242087D01*
X12216087Y-5284513D01*
X12258513Y-5284513D01*
X12467213Y-12848213D02*
X12467213Y-12805787D01*
X12424787Y-12805787D01*
X12424787Y-12848213D01*
X12467213Y-12848213D01*
X12797413Y-10498713D02*
X12797413Y-10456287D01*
X12754987Y-10456287D01*
X12754987Y-10498713D01*
X12797413Y-10498713D01*
X12797413Y-16314213D02*
X12797413Y-16271787D01*
X12754987Y-16271787D01*
X12754987Y-16314213D01*
X12797413Y-16314213D01*
X12949813Y-10498713D02*
X12949813Y-10456287D01*
X12907387Y-10456287D01*
X12907387Y-10498713D01*
X12949813Y-10498713D01*
X13312798Y-5779628D02*
X13312798Y-5737202D01*
X13270371Y-5737202D01*
X13270371Y-5779628D01*
X13312798Y-5779628D01*
X13457813Y-8428613D02*
X13457813Y-8386187D01*
X13415387Y-8386187D01*
X13415387Y-8428613D01*
X13457813Y-8428613D01*
X13483213Y-11552813D02*
X13483213Y-11510387D01*
X13440787Y-11510387D01*
X13440787Y-11552813D01*
X13483213Y-11552813D01*
X13609013Y-9951413D02*
X13609013Y-9908987D01*
X13566587Y-9908987D01*
X13566587Y-9951413D01*
X13609013Y-9951413D01*
X13711813Y-10498713D02*
X13711813Y-10456287D01*
X13669387Y-10456287D01*
X13669387Y-10498713D01*
X13711813Y-10498713D01*
X13829713Y-6320413D02*
X13829713Y-6277987D01*
X13787287Y-6277987D01*
X13787287Y-6320413D01*
X13829713Y-6320413D01*
X13829713Y-7008213D02*
X13829713Y-6965787D01*
X13787287Y-6965787D01*
X13787287Y-7008213D01*
X13829713Y-7008213D01*
X13838813Y-13102213D02*
X13838813Y-13059787D01*
X13796387Y-13059787D01*
X13796387Y-13102213D01*
X13838813Y-13102213D01*
X13965813Y-8428613D02*
X13965813Y-8386187D01*
X13923387Y-8386187D01*
X13923387Y-8428613D01*
X13965813Y-8428613D01*
X13991213Y-8733413D02*
X13991213Y-8690987D01*
X13948787Y-8690987D01*
X13948787Y-8733413D01*
X13991213Y-8733413D01*
X13991213Y-9165213D02*
X13991213Y-9122787D01*
X13948787Y-9122787D01*
X13948787Y-9165213D01*
X13991213Y-9165213D01*
X13991213Y-9571613D02*
X13991213Y-9529187D01*
X13948787Y-9529187D01*
X13948787Y-9571613D01*
X13991213Y-9571613D01*
X14080113Y-15527913D02*
X14080113Y-15485487D01*
X14037687Y-15485487D01*
X14037687Y-15527913D01*
X14080113Y-15527913D01*
X14353963Y-7532463D02*
X14353963Y-7490037D01*
X14311537Y-7490037D01*
X14311537Y-7532463D01*
X14353963Y-7532463D01*
X14372213Y-8733413D02*
X14372213Y-8690987D01*
X14329787Y-8690987D01*
X14329787Y-8733413D01*
X14372213Y-8733413D01*
X14372213Y-9165213D02*
X14372213Y-9122787D01*
X14329787Y-9122787D01*
X14329787Y-9165213D01*
X14372213Y-9165213D01*
X14372213Y-9571613D02*
X14372213Y-9529187D01*
X14329787Y-9529187D01*
X14329787Y-9571613D01*
X14372213Y-9571613D01*
X14526213Y-7946013D02*
X14526213Y-7903587D01*
X14483787Y-7903587D01*
X14483787Y-7946013D01*
X14526213Y-7946013D01*
X14526213Y-8225413D02*
X14526213Y-8182987D01*
X14483787Y-8182987D01*
X14483787Y-8225413D01*
X14526213Y-8225413D01*
X14672713Y-10486013D02*
X14672713Y-10443587D01*
X14630287Y-10443587D01*
X14630287Y-10486013D01*
X14672713Y-10486013D01*
X14672713Y-13241913D02*
X14672713Y-13199487D01*
X14630287Y-13199487D01*
X14630287Y-13241913D01*
X14672713Y-13241913D01*
X14672713Y-14524613D02*
X14672713Y-14482187D01*
X14630287Y-14482187D01*
X14630287Y-14524613D01*
X14672713Y-14524613D01*
X14677013Y-11552813D02*
X14677013Y-11510387D01*
X14634587Y-11510387D01*
X14634587Y-11552813D01*
X14677013Y-11552813D01*
X14727813Y-8733413D02*
X14727813Y-8690987D01*
X14685387Y-8690987D01*
X14685387Y-8733413D01*
X14727813Y-8733413D01*
X14727813Y-9165213D02*
X14727813Y-9122787D01*
X14685387Y-9122787D01*
X14685387Y-9165213D01*
X14727813Y-9165213D01*
X14727813Y-9571613D02*
X14727813Y-9529187D01*
X14685387Y-9529187D01*
X14685387Y-9571613D01*
X14727813Y-9571613D01*
X5664200Y-5247000D02*
X5704200Y-5207000D01*
X5664200Y-5167000D01*
X5624200Y-5207000D01*
X5664200Y-5247000D01*
X5664200Y-9996800D02*
X5704200Y-9956800D01*
X5664200Y-9916800D01*
X5624200Y-9956800D01*
X5664200Y-9996800D01*
X5778500Y-5132700D02*
X5818500Y-5092700D01*
X5778500Y-5052700D01*
X5738500Y-5092700D01*
X5778500Y-5132700D01*
X5816600Y-11190600D02*
X5856600Y-11150600D01*
X5816600Y-11110600D01*
X5776600Y-11150600D01*
X5816600Y-11190600D01*
X5842000Y-10033800D02*
X5882000Y-9993800D01*
X5842000Y-9953800D01*
X5802000Y-9993800D01*
X5842000Y-10033800D01*
X11010900Y-14403700D02*
X11050900Y-14363700D01*
X11010900Y-14323700D01*
X10970900Y-14363700D01*
X11010900Y-14403700D01*
X11877500Y-12605500D02*
X11957500Y-12685500D01*
X11957500Y-12605500D02*
X11877500Y-12685500D01*
X11957500Y-12645500D02*
G75*
G02*
X11877500Y-12645500I-40000J0D01*
G01*
X11877500Y-12645500D02*
G75*
G02*
X11957500Y-12645500I40000J0D01*
G01*
X11877500Y-13095500D02*
X11957500Y-13175500D01*
X11957500Y-13095500D02*
X11877500Y-13175500D01*
X11957500Y-13135500D02*
G75*
G02*
X11877500Y-13135500I-40000J0D01*
G01*
X11877500Y-13135500D02*
G75*
G02*
X11957500Y-13135500I40000J0D01*
G01*
X13608562Y-10958200D02*
X13688562Y-11038200D01*
X13688562Y-10958200D02*
X13608562Y-11038200D01*
X13688562Y-10998200D02*
G75*
G02*
X13608562Y-10998200I-40000J0D01*
G01*
X13608562Y-10998200D02*
G75*
G02*
X13688562Y-10998200I40000J0D01*
G01*
X13858562Y-10958200D02*
X13938562Y-11038200D01*
X13938562Y-10958200D02*
X13858562Y-11038200D01*
X13938562Y-10998200D02*
G75*
G02*
X13858562Y-10998200I-40000J0D01*
G01*
X13858562Y-10998200D02*
G75*
G02*
X13938562Y-10998200I40000J0D01*
G01*
X4572800Y-6497100D02*
X4672800Y-6597100D01*
X4672800Y-6497100D02*
X4572800Y-6597100D01*
X4622800Y-6497100D02*
X4622800Y-6597100D01*
X4572800Y-6547100D02*
X4672800Y-6547100D01*
X4826800Y-6497100D02*
X4926800Y-6597100D01*
X4926800Y-6497100D02*
X4826800Y-6597100D01*
X4876800Y-6497100D02*
X4876800Y-6597100D01*
X4826800Y-6547100D02*
X4926800Y-6547100D01*
X5080800Y-6497100D02*
X5180800Y-6597100D01*
X5180800Y-6497100D02*
X5080800Y-6597100D01*
X5130800Y-6497100D02*
X5130800Y-6597100D01*
X5080800Y-6547100D02*
X5180800Y-6547100D01*
X14275600Y-11482100D02*
X14375600Y-11582100D01*
X14375600Y-11482100D02*
X14275600Y-11582100D01*
X14325600Y-11482100D02*
X14325600Y-11582100D01*
X14275600Y-11532100D02*
X14375600Y-11532100D01*
X14275600Y-11736100D02*
X14375600Y-11836100D01*
X14375600Y-11736100D02*
X14275600Y-11836100D01*
X14325600Y-11736100D02*
X14325600Y-11836100D01*
X14275600Y-11786100D02*
X14375600Y-11786100D01*
X14275600Y-11990100D02*
X14375600Y-12090100D01*
X14375600Y-11990100D02*
X14275600Y-12090100D01*
X14325600Y-11990100D02*
X14325600Y-12090100D01*
X14275600Y-12040100D02*
X14375600Y-12040100D01*
X14275600Y-12244100D02*
X14375600Y-12344100D01*
X14375600Y-12244100D02*
X14275600Y-12344100D01*
X14325600Y-12244100D02*
X14325600Y-12344100D01*
X14275600Y-12294100D02*
X14375600Y-12294100D01*
X14275600Y-12498100D02*
X14375600Y-12598100D01*
X14375600Y-12498100D02*
X14275600Y-12598100D01*
X14325600Y-12498100D02*
X14325600Y-12598100D01*
X14275600Y-12548100D02*
X14375600Y-12548100D01*
D13*
X4783500Y-12466000D02*
X4893500Y-12576000D01*
X4893500Y-12466000D02*
X4783500Y-12576000D01*
X4877391Y-12559891D02*
X4877391Y-12482109D01*
X4799609Y-12482109D01*
X4799609Y-12559891D01*
X4877391Y-12559891D01*
X4783500Y-13486000D02*
X4893500Y-13596000D01*
X4893500Y-13486000D02*
X4783500Y-13596000D01*
X4877391Y-13579891D02*
X4877391Y-13502109D01*
X4799609Y-13502109D01*
X4799609Y-13579891D01*
X4877391Y-13579891D01*
X4787700Y-9443600D02*
X4897700Y-9553600D01*
X4897700Y-9443600D02*
X4787700Y-9553600D01*
X4881591Y-9537491D02*
X4881591Y-9459709D01*
X4803809Y-9459709D01*
X4803809Y-9537491D01*
X4881591Y-9537491D01*
X4787700Y-10463600D02*
X4897700Y-10573600D01*
X4897700Y-10463600D02*
X4787700Y-10573600D01*
X4881591Y-10557491D02*
X4881591Y-10479709D01*
X4803809Y-10479709D01*
X4803809Y-10557491D01*
X4881591Y-10557491D01*
X8580800Y-9418000D02*
X8690800Y-9528000D01*
X8690800Y-9418000D02*
X8580800Y-9528000D01*
X8674691Y-9511891D02*
X8674691Y-9434109D01*
X8596909Y-9434109D01*
X8596909Y-9511891D01*
X8674691Y-9511891D01*
X8580800Y-10438000D02*
X8690800Y-10548000D01*
X8690800Y-10438000D02*
X8580800Y-10548000D01*
X8674691Y-10531891D02*
X8674691Y-10454109D01*
X8596909Y-10454109D01*
X8596909Y-10531891D01*
X8674691Y-10531891D01*
X8593500Y-12466000D02*
X8703500Y-12576000D01*
X8703500Y-12466000D02*
X8593500Y-12576000D01*
X8687391Y-12559891D02*
X8687391Y-12482109D01*
X8609609Y-12482109D01*
X8609609Y-12559891D01*
X8687391Y-12559891D01*
X8593500Y-13486000D02*
X8703500Y-13596000D01*
X8703500Y-13486000D02*
X8593500Y-13596000D01*
X8687391Y-13579891D02*
X8687391Y-13502109D01*
X8609609Y-13502109D01*
X8609609Y-13579891D01*
X8687391Y-13579891D01*
D14*
X4785400Y-7193700D02*
X4917400Y-7325700D01*
X4917400Y-7193700D02*
X4785400Y-7325700D01*
X4851400Y-7325700D02*
X4917400Y-7259700D01*
X4851400Y-7193700D01*
X4785400Y-7259700D01*
X4851400Y-7325700D01*
X4785400Y-7693700D02*
X4917400Y-7825700D01*
X4917400Y-7693700D02*
X4785400Y-7825700D01*
X4851400Y-7825700D02*
X4917400Y-7759700D01*
X4851400Y-7693700D01*
X4785400Y-7759700D01*
X4851400Y-7825700D01*
D15*
X4749800Y-15278000D02*
X4749800Y-15418000D01*
X4679800Y-15348000D02*
X4819800Y-15348000D01*
X4819800Y-15348000D02*
G75*
G02*
X4679800Y-15348000I-70000J0D01*
G01*
X4679800Y-15348000D02*
G75*
G02*
X4819800Y-15348000I70000J0D01*
G01*
X5327600Y-4832200D02*
X5327600Y-4972200D01*
X5257600Y-4902200D02*
X5397600Y-4902200D01*
X5397600Y-4902200D02*
G75*
G02*
X5257600Y-4902200I-70000J0D01*
G01*
X5257600Y-4902200D02*
G75*
G02*
X5397600Y-4902200I70000J0D01*
G01*
X5327600Y-5594200D02*
X5327600Y-5734200D01*
X5257600Y-5664200D02*
X5397600Y-5664200D01*
X5397600Y-5664200D02*
G75*
G02*
X5257600Y-5664200I-70000J0D01*
G01*
X5257600Y-5664200D02*
G75*
G02*
X5397600Y-5664200I70000J0D01*
G01*
X5511800Y-15278000D02*
X5511800Y-15418000D01*
X5441800Y-15348000D02*
X5581800Y-15348000D01*
X5581800Y-15348000D02*
G75*
G02*
X5441800Y-15348000I-70000J0D01*
G01*
X5441800Y-15348000D02*
G75*
G02*
X5581800Y-15348000I70000J0D01*
G01*
X6502400Y-15278000D02*
X6502400Y-15418000D01*
X6432400Y-15348000D02*
X6572400Y-15348000D01*
X6572400Y-15348000D02*
G75*
G02*
X6432400Y-15348000I-70000J0D01*
G01*
X6432400Y-15348000D02*
G75*
G02*
X6572400Y-15348000I70000J0D01*
G01*
X7264400Y-15278000D02*
X7264400Y-15418000D01*
X7194400Y-15348000D02*
X7334400Y-15348000D01*
X7334400Y-15348000D02*
G75*
G02*
X7194400Y-15348000I-70000J0D01*
G01*
X7194400Y-15348000D02*
G75*
G02*
X7334400Y-15348000I70000J0D01*
G01*
X8255000Y-15278000D02*
X8255000Y-15418000D01*
X8185000Y-15348000D02*
X8325000Y-15348000D01*
X8325000Y-15348000D02*
G75*
G02*
X8185000Y-15348000I-70000J0D01*
G01*
X8185000Y-15348000D02*
G75*
G02*
X8325000Y-15348000I70000J0D01*
G01*
X9017000Y-15278000D02*
X9017000Y-15418000D01*
X8947000Y-15348000D02*
X9087000Y-15348000D01*
X9087000Y-15348000D02*
G75*
G02*
X8947000Y-15348000I-70000J0D01*
G01*
X8947000Y-15348000D02*
G75*
G02*
X9087000Y-15348000I70000J0D01*
G01*
X10007600Y-15278000D02*
X10007600Y-15418000D01*
X9937600Y-15348000D02*
X10077600Y-15348000D01*
X10077600Y-15348000D02*
G75*
G02*
X9937600Y-15348000I-70000J0D01*
G01*
X9937600Y-15348000D02*
G75*
G02*
X10077600Y-15348000I70000J0D01*
G01*
X10769600Y-15278000D02*
X10769600Y-15418000D01*
X10699600Y-15348000D02*
X10839600Y-15348000D01*
X10839600Y-15348000D02*
G75*
G02*
X10699600Y-15348000I-70000J0D01*
G01*
X10699600Y-15348000D02*
G75*
G02*
X10839600Y-15348000I70000J0D01*
G01*
X12700000Y-5333800D02*
X12700000Y-5473800D01*
X12630000Y-5403800D02*
X12770000Y-5403800D01*
X12770000Y-5403800D02*
G75*
G02*
X12630000Y-5403800I-70000J0D01*
G01*
X12630000Y-5403800D02*
G75*
G02*
X12770000Y-5403800I70000J0D01*
G01*
X13462000Y-5333800D02*
X13462000Y-5473800D01*
X13392000Y-5403800D02*
X13532000Y-5403800D01*
X13532000Y-5403800D02*
G75*
G02*
X13392000Y-5403800I-70000J0D01*
G01*
X13392000Y-5403800D02*
G75*
G02*
X13532000Y-5403800I70000J0D01*
G01*
D16*
X4641069Y-13087569D02*
X4641069Y-12974431D01*
X4527931Y-12974431D01*
X4527931Y-13087569D01*
X4641069Y-13087569D01*
X4664500Y-13031000D02*
G75*
G02*
X4504500Y-13031000I-80000J0D01*
G01*
X4504500Y-13031000D02*
G75*
G02*
X4664500Y-13031000I80000J0D01*
G01*
X4645269Y-10065169D02*
X4645269Y-9952031D01*
X4532131Y-9952031D01*
X4532131Y-10065169D01*
X4645269Y-10065169D01*
X4668700Y-10008600D02*
G75*
G02*
X4508700Y-10008600I-80000J0D01*
G01*
X4508700Y-10008600D02*
G75*
G02*
X4668700Y-10008600I80000J0D01*
G01*
X6161069Y-12197569D02*
X6161069Y-12084431D01*
X6047931Y-12084431D01*
X6047931Y-12197569D01*
X6161069Y-12197569D01*
X6184500Y-12141000D02*
G75*
G02*
X6024500Y-12141000I-80000J0D01*
G01*
X6024500Y-12141000D02*
G75*
G02*
X6184500Y-12141000I80000J0D01*
G01*
X6165269Y-9175169D02*
X6165269Y-9062031D01*
X6052131Y-9062031D01*
X6052131Y-9175169D01*
X6165269Y-9175169D01*
X6188700Y-9118600D02*
G75*
G02*
X6028700Y-9118600I-80000J0D01*
G01*
X6028700Y-9118600D02*
G75*
G02*
X6188700Y-9118600I80000J0D01*
G01*
X6415069Y-13977569D02*
X6415069Y-13864431D01*
X6301931Y-13864431D01*
X6301931Y-13977569D01*
X6415069Y-13977569D01*
X6438500Y-13921000D02*
G75*
G02*
X6278500Y-13921000I-80000J0D01*
G01*
X6278500Y-13921000D02*
G75*
G02*
X6438500Y-13921000I80000J0D01*
G01*
X6419269Y-10955169D02*
X6419269Y-10842031D01*
X6306131Y-10842031D01*
X6306131Y-10955169D01*
X6419269Y-10955169D01*
X6442700Y-10898600D02*
G75*
G02*
X6282700Y-10898600I-80000J0D01*
G01*
X6282700Y-10898600D02*
G75*
G02*
X6442700Y-10898600I80000J0D01*
G01*
X7175069Y-13977569D02*
X7175069Y-13864431D01*
X7061931Y-13864431D01*
X7061931Y-13977569D01*
X7175069Y-13977569D01*
X7198500Y-13921000D02*
G75*
G02*
X7038500Y-13921000I-80000J0D01*
G01*
X7038500Y-13921000D02*
G75*
G02*
X7198500Y-13921000I80000J0D01*
G01*
X7179269Y-10955169D02*
X7179269Y-10842031D01*
X7066131Y-10842031D01*
X7066131Y-10955169D01*
X7179269Y-10955169D01*
X7202700Y-10898600D02*
G75*
G02*
X7042700Y-10898600I-80000J0D01*
G01*
X7042700Y-10898600D02*
G75*
G02*
X7202700Y-10898600I80000J0D01*
G01*
X8438369Y-10039569D02*
X8438369Y-9926431D01*
X8325231Y-9926431D01*
X8325231Y-10039569D01*
X8438369Y-10039569D01*
X8461800Y-9983000D02*
G75*
G02*
X8301800Y-9983000I-80000J0D01*
G01*
X8301800Y-9983000D02*
G75*
G02*
X8461800Y-9983000I80000J0D01*
G01*
X8451069Y-13087569D02*
X8451069Y-12974431D01*
X8337931Y-12974431D01*
X8337931Y-13087569D01*
X8451069Y-13087569D01*
X8474500Y-13031000D02*
G75*
G02*
X8314500Y-13031000I-80000J0D01*
G01*
X8314500Y-13031000D02*
G75*
G02*
X8474500Y-13031000I80000J0D01*
G01*
X9958369Y-9149569D02*
X9958369Y-9036431D01*
X9845231Y-9036431D01*
X9845231Y-9149569D01*
X9958369Y-9149569D01*
X9981800Y-9093000D02*
G75*
G02*
X9821800Y-9093000I-80000J0D01*
G01*
X9821800Y-9093000D02*
G75*
G02*
X9981800Y-9093000I80000J0D01*
G01*
X9971069Y-12197569D02*
X9971069Y-12084431D01*
X9857931Y-12084431D01*
X9857931Y-12197569D01*
X9971069Y-12197569D01*
X9994500Y-12141000D02*
G75*
G02*
X9834500Y-12141000I-80000J0D01*
G01*
X9834500Y-12141000D02*
G75*
G02*
X9994500Y-12141000I80000J0D01*
G01*
X10212369Y-10929569D02*
X10212369Y-10816431D01*
X10099231Y-10816431D01*
X10099231Y-10929569D01*
X10212369Y-10929569D01*
X10235800Y-10873000D02*
G75*
G02*
X10075800Y-10873000I-80000J0D01*
G01*
X10075800Y-10873000D02*
G75*
G02*
X10235800Y-10873000I80000J0D01*
G01*
X10225069Y-13977569D02*
X10225069Y-13864431D01*
X10111931Y-13864431D01*
X10111931Y-13977569D01*
X10225069Y-13977569D01*
X10248500Y-13921000D02*
G75*
G02*
X10088500Y-13921000I-80000J0D01*
G01*
X10088500Y-13921000D02*
G75*
G02*
X10248500Y-13921000I80000J0D01*
G01*
X10972369Y-10929569D02*
X10972369Y-10816431D01*
X10859231Y-10816431D01*
X10859231Y-10929569D01*
X10972369Y-10929569D01*
X10995800Y-10873000D02*
G75*
G02*
X10835800Y-10873000I-80000J0D01*
G01*
X10835800Y-10873000D02*
G75*
G02*
X10995800Y-10873000I80000J0D01*
G01*
X10985069Y-13977569D02*
X10985069Y-13864431D01*
X10871931Y-13864431D01*
X10871931Y-13977569D01*
X10985069Y-13977569D01*
X11008500Y-13921000D02*
G75*
G02*
X10848500Y-13921000I-80000J0D01*
G01*
X10848500Y-13921000D02*
G75*
G02*
X11008500Y-13921000I80000J0D01*
G01*
D17*
X6019800Y-5778600D02*
X6108800Y-5689600D01*
X6019800Y-5600600D01*
X5930800Y-5689600D01*
X6019800Y-5778600D01*
X6108800Y-5689600D02*
G75*
G02*
X5930800Y-5689600I-89000J0D01*
G01*
X5930800Y-5689600D02*
G75*
G02*
X6108800Y-5689600I89000J0D01*
G01*
X6019800Y-6118600D02*
X6108800Y-6029600D01*
X6019800Y-5940600D01*
X5930800Y-6029600D01*
X6019800Y-6118600D01*
X6108800Y-6029600D02*
G75*
G02*
X5930800Y-6029600I-89000J0D01*
G01*
X5930800Y-6029600D02*
G75*
G02*
X6108800Y-6029600I89000J0D01*
G01*
X7340600Y-5778600D02*
X7429600Y-5689600D01*
X7340600Y-5600600D01*
X7251600Y-5689600D01*
X7340600Y-5778600D01*
X7429600Y-5689600D02*
G75*
G02*
X7251600Y-5689600I-89000J0D01*
G01*
X7251600Y-5689600D02*
G75*
G02*
X7429600Y-5689600I89000J0D01*
G01*
X7340600Y-6118600D02*
X7429600Y-6029600D01*
X7340600Y-5940600D01*
X7251600Y-6029600D01*
X7340600Y-6118600D01*
X7429600Y-6029600D02*
G75*
G02*
X7251600Y-6029600I-89000J0D01*
G01*
X7251600Y-6029600D02*
G75*
G02*
X7429600Y-6029600I89000J0D01*
G01*
X13118500Y-6268300D02*
X13207500Y-6179300D01*
X13118500Y-6090300D01*
X13029500Y-6179300D01*
X13118500Y-6268300D01*
X13207500Y-6179300D02*
G75*
G02*
X13029500Y-6179300I-89000J0D01*
G01*
X13029500Y-6179300D02*
G75*
G02*
X13207500Y-6179300I89000J0D01*
G01*
X13118500Y-6608300D02*
X13207500Y-6519300D01*
X13118500Y-6430300D01*
X13029500Y-6519300D01*
X13118500Y-6608300D01*
X13207500Y-6519300D02*
G75*
G02*
X13029500Y-6519300I-89000J0D01*
G01*
X13029500Y-6519300D02*
G75*
G02*
X13207500Y-6519300I89000J0D01*
G01*
X14439300Y-6268300D02*
X14528300Y-6179300D01*
X14439300Y-6090300D01*
X14350300Y-6179300D01*
X14439300Y-6268300D01*
X14528300Y-6179300D02*
G75*
G02*
X14350300Y-6179300I-89000J0D01*
G01*
X14350300Y-6179300D02*
G75*
G02*
X14528300Y-6179300I89000J0D01*
G01*
X14439300Y-6608300D02*
X14528300Y-6519300D01*
X14439300Y-6430300D01*
X14350300Y-6519300D01*
X14439300Y-6608300D01*
X14528300Y-6519300D02*
G75*
G02*
X14350300Y-6519300I-89000J0D01*
G01*
X14350300Y-6519300D02*
G75*
G02*
X14528300Y-6519300I89000J0D01*
G01*
D18*
X4699000Y-8290106D02*
X4699000Y-8610106D01*
X4539000Y-8450106D02*
X4859000Y-8450106D01*
X4812138Y-8563244D02*
X4812138Y-8336967D01*
X4585862Y-8336967D01*
X4585862Y-8563244D01*
X4812138Y-8563244D01*
X4699000Y-14292600D02*
X4699000Y-14612600D01*
X4539000Y-14452600D02*
X4859000Y-14452600D01*
X4812138Y-14565738D02*
X4812138Y-14339462D01*
X4585862Y-14339462D01*
X4585862Y-14565738D01*
X4812138Y-14565738D01*
X14351000Y-4539000D02*
X14351000Y-4859000D01*
X14191000Y-4699000D02*
X14511000Y-4699000D01*
X14464138Y-4812138D02*
X14464138Y-4585862D01*
X14237862Y-4585862D01*
X14237862Y-4812138D01*
X14464138Y-4812138D01*
X14351000Y-15842000D02*
X14351000Y-16162000D01*
X14191000Y-16002000D02*
X14511000Y-16002000D01*
X14464138Y-16115138D02*
X14464138Y-15888862D01*
X14237862Y-15888862D01*
X14237862Y-16115138D01*
X14464138Y-16115138D01*
D11*
X4449277Y-16823984D02*
X4449277Y-16623984D01*
X4449277Y-16623984D02*
X4496896Y-16623984D01*
X4496896Y-16623984D02*
X4525467Y-16633508D01*
X4525467Y-16633508D02*
X4544515Y-16652555D01*
X4544515Y-16652555D02*
X4554039Y-16671603D01*
X4554039Y-16671603D02*
X4563563Y-16709698D01*
X4563563Y-16709698D02*
X4563563Y-16738269D01*
X4563563Y-16738269D02*
X4554039Y-16776365D01*
X4554039Y-16776365D02*
X4544515Y-16795412D01*
X4544515Y-16795412D02*
X4525467Y-16814460D01*
X4525467Y-16814460D02*
X4496896Y-16823984D01*
X4496896Y-16823984D02*
X4449277Y-16823984D01*
X4649277Y-16823984D02*
X4649277Y-16690650D01*
X4649277Y-16728746D02*
X4658801Y-16709698D01*
X4658801Y-16709698D02*
X4668324Y-16700174D01*
X4668324Y-16700174D02*
X4687372Y-16690650D01*
X4687372Y-16690650D02*
X4706420Y-16690650D01*
X4773086Y-16823984D02*
X4773086Y-16690650D01*
X4773086Y-16623984D02*
X4763563Y-16633508D01*
X4763563Y-16633508D02*
X4773086Y-16643031D01*
X4773086Y-16643031D02*
X4782610Y-16633508D01*
X4782610Y-16633508D02*
X4773086Y-16623984D01*
X4773086Y-16623984D02*
X4773086Y-16643031D01*
X4896896Y-16823984D02*
X4877848Y-16814460D01*
X4877848Y-16814460D02*
X4868324Y-16795412D01*
X4868324Y-16795412D02*
X4868324Y-16623984D01*
X5001658Y-16823984D02*
X4982610Y-16814460D01*
X4982610Y-16814460D02*
X4973086Y-16795412D01*
X4973086Y-16795412D02*
X4973086Y-16623984D01*
X5230229Y-16823984D02*
X5230229Y-16623984D01*
X5230229Y-16623984D02*
X5296896Y-16766841D01*
X5296896Y-16766841D02*
X5363563Y-16623984D01*
X5363563Y-16623984D02*
X5363563Y-16823984D01*
X5544515Y-16823984D02*
X5544515Y-16719222D01*
X5544515Y-16719222D02*
X5534991Y-16700174D01*
X5534991Y-16700174D02*
X5515944Y-16690650D01*
X5515944Y-16690650D02*
X5477848Y-16690650D01*
X5477848Y-16690650D02*
X5458801Y-16700174D01*
X5544515Y-16814460D02*
X5525467Y-16823984D01*
X5525467Y-16823984D02*
X5477848Y-16823984D01*
X5477848Y-16823984D02*
X5458801Y-16814460D01*
X5458801Y-16814460D02*
X5449277Y-16795412D01*
X5449277Y-16795412D02*
X5449277Y-16776365D01*
X5449277Y-16776365D02*
X5458801Y-16757317D01*
X5458801Y-16757317D02*
X5477848Y-16747793D01*
X5477848Y-16747793D02*
X5525467Y-16747793D01*
X5525467Y-16747793D02*
X5544515Y-16738269D01*
X5639753Y-16690650D02*
X5639753Y-16890650D01*
X5639753Y-16700174D02*
X5658801Y-16690650D01*
X5658801Y-16690650D02*
X5696896Y-16690650D01*
X5696896Y-16690650D02*
X5715943Y-16700174D01*
X5715943Y-16700174D02*
X5725467Y-16709698D01*
X5725467Y-16709698D02*
X5734991Y-16728746D01*
X5734991Y-16728746D02*
X5734991Y-16785889D01*
X5734991Y-16785889D02*
X5725467Y-16804936D01*
X5725467Y-16804936D02*
X5715943Y-16814460D01*
X5715943Y-16814460D02*
X5696896Y-16823984D01*
X5696896Y-16823984D02*
X5658801Y-16823984D01*
X5658801Y-16823984D02*
X5639753Y-16814460D01*
X5820705Y-16804936D02*
X5830229Y-16814460D01*
X5830229Y-16814460D02*
X5820705Y-16823984D01*
X5820705Y-16823984D02*
X5811182Y-16814460D01*
X5811182Y-16814460D02*
X5820705Y-16804936D01*
X5820705Y-16804936D02*
X5820705Y-16823984D01*
X5820705Y-16700174D02*
X5830229Y-16709698D01*
X5830229Y-16709698D02*
X5820705Y-16719222D01*
X5820705Y-16719222D02*
X5811182Y-16709698D01*
X5811182Y-16709698D02*
X5820705Y-16700174D01*
X5820705Y-16700174D02*
X5820705Y-16719222D01*
D12*
X4148500Y-17132500D02*
X4188500Y-17172500D01*
X4188500Y-17132500D02*
X4148500Y-17172500D01*
D11*
X4487372Y-17043984D02*
X4506420Y-17043984D01*
X4506420Y-17043984D02*
X4525467Y-17053508D01*
X4525467Y-17053508D02*
X4534991Y-17063031D01*
X4534991Y-17063031D02*
X4544515Y-17082079D01*
X4544515Y-17082079D02*
X4554039Y-17120174D01*
X4554039Y-17120174D02*
X4554039Y-17167793D01*
X4554039Y-17167793D02*
X4544515Y-17205889D01*
X4544515Y-17205889D02*
X4534991Y-17224936D01*
X4534991Y-17224936D02*
X4525467Y-17234460D01*
X4525467Y-17234460D02*
X4506420Y-17243984D01*
X4506420Y-17243984D02*
X4487372Y-17243984D01*
X4487372Y-17243984D02*
X4468324Y-17234460D01*
X4468324Y-17234460D02*
X4458801Y-17224936D01*
X4458801Y-17224936D02*
X4449277Y-17205889D01*
X4449277Y-17205889D02*
X4439753Y-17167793D01*
X4439753Y-17167793D02*
X4439753Y-17120174D01*
X4439753Y-17120174D02*
X4449277Y-17082079D01*
X4449277Y-17082079D02*
X4458801Y-17063031D01*
X4458801Y-17063031D02*
X4468324Y-17053508D01*
X4468324Y-17053508D02*
X4487372Y-17043984D01*
X4639753Y-17224936D02*
X4649277Y-17234460D01*
X4649277Y-17234460D02*
X4639753Y-17243984D01*
X4639753Y-17243984D02*
X4630229Y-17234460D01*
X4630229Y-17234460D02*
X4639753Y-17224936D01*
X4639753Y-17224936D02*
X4639753Y-17243984D01*
X4820705Y-17110650D02*
X4820705Y-17243984D01*
X4773086Y-17034460D02*
X4725467Y-17177317D01*
X4725467Y-17177317D02*
X4849277Y-17177317D01*
X4963563Y-17043984D02*
X4982610Y-17043984D01*
X4982610Y-17043984D02*
X5001658Y-17053508D01*
X5001658Y-17053508D02*
X5011182Y-17063031D01*
X5011182Y-17063031D02*
X5020705Y-17082079D01*
X5020705Y-17082079D02*
X5030229Y-17120174D01*
X5030229Y-17120174D02*
X5030229Y-17167793D01*
X5030229Y-17167793D02*
X5020705Y-17205889D01*
X5020705Y-17205889D02*
X5011182Y-17224936D01*
X5011182Y-17224936D02*
X5001658Y-17234460D01*
X5001658Y-17234460D02*
X4982610Y-17243984D01*
X4982610Y-17243984D02*
X4963563Y-17243984D01*
X4963563Y-17243984D02*
X4944515Y-17234460D01*
X4944515Y-17234460D02*
X4934991Y-17224936D01*
X4934991Y-17224936D02*
X4925467Y-17205889D01*
X4925467Y-17205889D02*
X4915944Y-17167793D01*
X4915944Y-17167793D02*
X4915944Y-17120174D01*
X4915944Y-17120174D02*
X4925467Y-17082079D01*
X4925467Y-17082079D02*
X4934991Y-17063031D01*
X4934991Y-17063031D02*
X4944515Y-17053508D01*
X4944515Y-17053508D02*
X4963563Y-17043984D01*
X5154039Y-17043984D02*
X5173086Y-17043984D01*
X5173086Y-17043984D02*
X5192134Y-17053508D01*
X5192134Y-17053508D02*
X5201658Y-17063031D01*
X5201658Y-17063031D02*
X5211182Y-17082079D01*
X5211182Y-17082079D02*
X5220705Y-17120174D01*
X5220705Y-17120174D02*
X5220705Y-17167793D01*
X5220705Y-17167793D02*
X5211182Y-17205889D01*
X5211182Y-17205889D02*
X5201658Y-17224936D01*
X5201658Y-17224936D02*
X5192134Y-17234460D01*
X5192134Y-17234460D02*
X5173086Y-17243984D01*
X5173086Y-17243984D02*
X5154039Y-17243984D01*
X5154039Y-17243984D02*
X5134991Y-17234460D01*
X5134991Y-17234460D02*
X5125467Y-17224936D01*
X5125467Y-17224936D02*
X5115944Y-17205889D01*
X5115944Y-17205889D02*
X5106420Y-17167793D01*
X5106420Y-17167793D02*
X5106420Y-17120174D01*
X5106420Y-17120174D02*
X5115944Y-17082079D01*
X5115944Y-17082079D02*
X5125467Y-17063031D01*
X5125467Y-17063031D02*
X5134991Y-17053508D01*
X5134991Y-17053508D02*
X5154039Y-17043984D01*
X5306420Y-17243984D02*
X5306420Y-17110650D01*
X5306420Y-17129698D02*
X5315944Y-17120174D01*
X5315944Y-17120174D02*
X5334991Y-17110650D01*
X5334991Y-17110650D02*
X5363563Y-17110650D01*
X5363563Y-17110650D02*
X5382610Y-17120174D01*
X5382610Y-17120174D02*
X5392134Y-17139222D01*
X5392134Y-17139222D02*
X5392134Y-17243984D01*
X5392134Y-17139222D02*
X5401658Y-17120174D01*
X5401658Y-17120174D02*
X5420705Y-17110650D01*
X5420705Y-17110650D02*
X5449277Y-17110650D01*
X5449277Y-17110650D02*
X5468325Y-17120174D01*
X5468325Y-17120174D02*
X5477848Y-17139222D01*
X5477848Y-17139222D02*
X5477848Y-17243984D01*
X5573086Y-17243984D02*
X5573086Y-17110650D01*
X5573086Y-17129698D02*
X5582610Y-17120174D01*
X5582610Y-17120174D02*
X5601658Y-17110650D01*
X5601658Y-17110650D02*
X5630229Y-17110650D01*
X5630229Y-17110650D02*
X5649277Y-17120174D01*
X5649277Y-17120174D02*
X5658801Y-17139222D01*
X5658801Y-17139222D02*
X5658801Y-17243984D01*
X5658801Y-17139222D02*
X5668324Y-17120174D01*
X5668324Y-17120174D02*
X5687372Y-17110650D01*
X5687372Y-17110650D02*
X5715943Y-17110650D01*
X5715943Y-17110650D02*
X5734991Y-17120174D01*
X5734991Y-17120174D02*
X5744515Y-17139222D01*
X5744515Y-17139222D02*
X5744515Y-17243984D01*
X6134991Y-17034460D02*
X5963563Y-17291603D01*
X6392134Y-17043984D02*
X6411182Y-17043984D01*
X6411182Y-17043984D02*
X6430229Y-17053508D01*
X6430229Y-17053508D02*
X6439753Y-17063031D01*
X6439753Y-17063031D02*
X6449277Y-17082079D01*
X6449277Y-17082079D02*
X6458801Y-17120174D01*
X6458801Y-17120174D02*
X6458801Y-17167793D01*
X6458801Y-17167793D02*
X6449277Y-17205889D01*
X6449277Y-17205889D02*
X6439753Y-17224936D01*
X6439753Y-17224936D02*
X6430229Y-17234460D01*
X6430229Y-17234460D02*
X6411182Y-17243984D01*
X6411182Y-17243984D02*
X6392134Y-17243984D01*
X6392134Y-17243984D02*
X6373086Y-17234460D01*
X6373086Y-17234460D02*
X6363563Y-17224936D01*
X6363563Y-17224936D02*
X6354039Y-17205889D01*
X6354039Y-17205889D02*
X6344515Y-17167793D01*
X6344515Y-17167793D02*
X6344515Y-17120174D01*
X6344515Y-17120174D02*
X6354039Y-17082079D01*
X6354039Y-17082079D02*
X6363563Y-17063031D01*
X6363563Y-17063031D02*
X6373086Y-17053508D01*
X6373086Y-17053508D02*
X6392134Y-17043984D01*
X6544515Y-17224936D02*
X6554039Y-17234460D01*
X6554039Y-17234460D02*
X6544515Y-17243984D01*
X6544515Y-17243984D02*
X6534991Y-17234460D01*
X6534991Y-17234460D02*
X6544515Y-17224936D01*
X6544515Y-17224936D02*
X6544515Y-17243984D01*
X6677848Y-17043984D02*
X6696896Y-17043984D01*
X6696896Y-17043984D02*
X6715944Y-17053508D01*
X6715944Y-17053508D02*
X6725467Y-17063031D01*
X6725467Y-17063031D02*
X6734991Y-17082079D01*
X6734991Y-17082079D02*
X6744515Y-17120174D01*
X6744515Y-17120174D02*
X6744515Y-17167793D01*
X6744515Y-17167793D02*
X6734991Y-17205889D01*
X6734991Y-17205889D02*
X6725467Y-17224936D01*
X6725467Y-17224936D02*
X6715944Y-17234460D01*
X6715944Y-17234460D02*
X6696896Y-17243984D01*
X6696896Y-17243984D02*
X6677848Y-17243984D01*
X6677848Y-17243984D02*
X6658801Y-17234460D01*
X6658801Y-17234460D02*
X6649277Y-17224936D01*
X6649277Y-17224936D02*
X6639753Y-17205889D01*
X6639753Y-17205889D02*
X6630229Y-17167793D01*
X6630229Y-17167793D02*
X6630229Y-17120174D01*
X6630229Y-17120174D02*
X6639753Y-17082079D01*
X6639753Y-17082079D02*
X6649277Y-17063031D01*
X6649277Y-17063031D02*
X6658801Y-17053508D01*
X6658801Y-17053508D02*
X6677848Y-17043984D01*
X6934991Y-17243984D02*
X6820706Y-17243984D01*
X6877848Y-17243984D02*
X6877848Y-17043984D01*
X6877848Y-17043984D02*
X6858801Y-17072555D01*
X6858801Y-17072555D02*
X6839753Y-17091603D01*
X6839753Y-17091603D02*
X6820706Y-17101127D01*
X7115944Y-17043984D02*
X7020706Y-17043984D01*
X7020706Y-17043984D02*
X7011182Y-17139222D01*
X7011182Y-17139222D02*
X7020706Y-17129698D01*
X7020706Y-17129698D02*
X7039753Y-17120174D01*
X7039753Y-17120174D02*
X7087372Y-17120174D01*
X7087372Y-17120174D02*
X7106420Y-17129698D01*
X7106420Y-17129698D02*
X7115944Y-17139222D01*
X7115944Y-17139222D02*
X7125467Y-17158270D01*
X7125467Y-17158270D02*
X7125467Y-17205889D01*
X7125467Y-17205889D02*
X7115944Y-17224936D01*
X7115944Y-17224936D02*
X7106420Y-17234460D01*
X7106420Y-17234460D02*
X7087372Y-17243984D01*
X7087372Y-17243984D02*
X7039753Y-17243984D01*
X7039753Y-17243984D02*
X7020706Y-17234460D01*
X7020706Y-17234460D02*
X7011182Y-17224936D01*
X7192134Y-17043984D02*
X7325467Y-17043984D01*
X7325467Y-17043984D02*
X7239753Y-17243984D01*
X7392134Y-17043984D02*
X7392134Y-17082079D01*
X7468325Y-17043984D02*
X7468325Y-17082079D01*
X7763563Y-17320174D02*
X7754039Y-17310650D01*
X7754039Y-17310650D02*
X7734991Y-17282079D01*
X7734991Y-17282079D02*
X7725468Y-17263031D01*
X7725468Y-17263031D02*
X7715944Y-17234460D01*
X7715944Y-17234460D02*
X7706420Y-17186841D01*
X7706420Y-17186841D02*
X7706420Y-17148746D01*
X7706420Y-17148746D02*
X7715944Y-17101127D01*
X7715944Y-17101127D02*
X7725468Y-17072555D01*
X7725468Y-17072555D02*
X7734991Y-17053508D01*
X7734991Y-17053508D02*
X7754039Y-17024936D01*
X7754039Y-17024936D02*
X7763563Y-17015412D01*
X7820706Y-17043984D02*
X7944515Y-17043984D01*
X7944515Y-17043984D02*
X7877848Y-17120174D01*
X7877848Y-17120174D02*
X7906420Y-17120174D01*
X7906420Y-17120174D02*
X7925468Y-17129698D01*
X7925468Y-17129698D02*
X7934991Y-17139222D01*
X7934991Y-17139222D02*
X7944515Y-17158270D01*
X7944515Y-17158270D02*
X7944515Y-17205889D01*
X7944515Y-17205889D02*
X7934991Y-17224936D01*
X7934991Y-17224936D02*
X7925468Y-17234460D01*
X7925468Y-17234460D02*
X7906420Y-17243984D01*
X7906420Y-17243984D02*
X7849277Y-17243984D01*
X7849277Y-17243984D02*
X7830229Y-17234460D01*
X7830229Y-17234460D02*
X7820706Y-17224936D01*
X8115944Y-17110650D02*
X8115944Y-17243984D01*
X8068325Y-17034460D02*
X8020706Y-17177317D01*
X8020706Y-17177317D02*
X8144515Y-17177317D01*
X8373087Y-17243984D02*
X8373087Y-17043984D01*
X8458801Y-17243984D02*
X8458801Y-17139222D01*
X8458801Y-17139222D02*
X8449277Y-17120174D01*
X8449277Y-17120174D02*
X8430230Y-17110650D01*
X8430230Y-17110650D02*
X8401658Y-17110650D01*
X8401658Y-17110650D02*
X8382610Y-17120174D01*
X8382610Y-17120174D02*
X8373087Y-17129698D01*
X8582611Y-17243984D02*
X8563563Y-17234460D01*
X8563563Y-17234460D02*
X8554039Y-17224936D01*
X8554039Y-17224936D02*
X8544515Y-17205889D01*
X8544515Y-17205889D02*
X8544515Y-17148746D01*
X8544515Y-17148746D02*
X8554039Y-17129698D01*
X8554039Y-17129698D02*
X8563563Y-17120174D01*
X8563563Y-17120174D02*
X8582611Y-17110650D01*
X8582611Y-17110650D02*
X8611182Y-17110650D01*
X8611182Y-17110650D02*
X8630230Y-17120174D01*
X8630230Y-17120174D02*
X8639753Y-17129698D01*
X8639753Y-17129698D02*
X8649277Y-17148746D01*
X8649277Y-17148746D02*
X8649277Y-17205889D01*
X8649277Y-17205889D02*
X8639753Y-17224936D01*
X8639753Y-17224936D02*
X8630230Y-17234460D01*
X8630230Y-17234460D02*
X8611182Y-17243984D01*
X8611182Y-17243984D02*
X8582611Y-17243984D01*
X8763563Y-17243984D02*
X8744515Y-17234460D01*
X8744515Y-17234460D02*
X8734992Y-17215412D01*
X8734992Y-17215412D02*
X8734992Y-17043984D01*
X8915944Y-17234460D02*
X8896896Y-17243984D01*
X8896896Y-17243984D02*
X8858801Y-17243984D01*
X8858801Y-17243984D02*
X8839753Y-17234460D01*
X8839753Y-17234460D02*
X8830230Y-17215412D01*
X8830230Y-17215412D02*
X8830230Y-17139222D01*
X8830230Y-17139222D02*
X8839753Y-17120174D01*
X8839753Y-17120174D02*
X8858801Y-17110650D01*
X8858801Y-17110650D02*
X8896896Y-17110650D01*
X8896896Y-17110650D02*
X8915944Y-17120174D01*
X8915944Y-17120174D02*
X8925468Y-17139222D01*
X8925468Y-17139222D02*
X8925468Y-17158270D01*
X8925468Y-17158270D02*
X8830230Y-17177317D01*
X9001658Y-17234460D02*
X9020706Y-17243984D01*
X9020706Y-17243984D02*
X9058801Y-17243984D01*
X9058801Y-17243984D02*
X9077849Y-17234460D01*
X9077849Y-17234460D02*
X9087373Y-17215412D01*
X9087373Y-17215412D02*
X9087373Y-17205889D01*
X9087373Y-17205889D02*
X9077849Y-17186841D01*
X9077849Y-17186841D02*
X9058801Y-17177317D01*
X9058801Y-17177317D02*
X9030230Y-17177317D01*
X9030230Y-17177317D02*
X9011182Y-17167793D01*
X9011182Y-17167793D02*
X9001658Y-17148746D01*
X9001658Y-17148746D02*
X9001658Y-17139222D01*
X9001658Y-17139222D02*
X9011182Y-17120174D01*
X9011182Y-17120174D02*
X9030230Y-17110650D01*
X9030230Y-17110650D02*
X9058801Y-17110650D01*
X9058801Y-17110650D02*
X9077849Y-17120174D01*
X9154039Y-17320174D02*
X9163563Y-17310650D01*
X9163563Y-17310650D02*
X9182611Y-17282079D01*
X9182611Y-17282079D02*
X9192134Y-17263031D01*
X9192134Y-17263031D02*
X9201658Y-17234460D01*
X9201658Y-17234460D02*
X9211182Y-17186841D01*
X9211182Y-17186841D02*
X9211182Y-17148746D01*
X9211182Y-17148746D02*
X9201658Y-17101127D01*
X9201658Y-17101127D02*
X9192134Y-17072555D01*
X9192134Y-17072555D02*
X9182611Y-17053508D01*
X9182611Y-17053508D02*
X9163563Y-17024936D01*
X9163563Y-17024936D02*
X9154039Y-17015412D01*
D12*
X4188500Y-17416500D02*
G75*
G02*
X4138500Y-17416500I-25000J0D01*
G01*
X4138500Y-17416500D02*
G75*
G02*
X4188500Y-17416500I25000J0D01*
G01*
D11*
X4487372Y-17307984D02*
X4506420Y-17307984D01*
X4506420Y-17307984D02*
X4525467Y-17317508D01*
X4525467Y-17317508D02*
X4534991Y-17327031D01*
X4534991Y-17327031D02*
X4544515Y-17346079D01*
X4544515Y-17346079D02*
X4554039Y-17384174D01*
X4554039Y-17384174D02*
X4554039Y-17431793D01*
X4554039Y-17431793D02*
X4544515Y-17469889D01*
X4544515Y-17469889D02*
X4534991Y-17488936D01*
X4534991Y-17488936D02*
X4525467Y-17498460D01*
X4525467Y-17498460D02*
X4506420Y-17507984D01*
X4506420Y-17507984D02*
X4487372Y-17507984D01*
X4487372Y-17507984D02*
X4468324Y-17498460D01*
X4468324Y-17498460D02*
X4458801Y-17488936D01*
X4458801Y-17488936D02*
X4449277Y-17469889D01*
X4449277Y-17469889D02*
X4439753Y-17431793D01*
X4439753Y-17431793D02*
X4439753Y-17384174D01*
X4439753Y-17384174D02*
X4449277Y-17346079D01*
X4449277Y-17346079D02*
X4458801Y-17327031D01*
X4458801Y-17327031D02*
X4468324Y-17317508D01*
X4468324Y-17317508D02*
X4487372Y-17307984D01*
X4639753Y-17488936D02*
X4649277Y-17498460D01*
X4649277Y-17498460D02*
X4639753Y-17507984D01*
X4639753Y-17507984D02*
X4630229Y-17498460D01*
X4630229Y-17498460D02*
X4639753Y-17488936D01*
X4639753Y-17488936D02*
X4639753Y-17507984D01*
X4830229Y-17307984D02*
X4734991Y-17307984D01*
X4734991Y-17307984D02*
X4725467Y-17403222D01*
X4725467Y-17403222D02*
X4734991Y-17393698D01*
X4734991Y-17393698D02*
X4754039Y-17384174D01*
X4754039Y-17384174D02*
X4801658Y-17384174D01*
X4801658Y-17384174D02*
X4820705Y-17393698D01*
X4820705Y-17393698D02*
X4830229Y-17403222D01*
X4830229Y-17403222D02*
X4839753Y-17422270D01*
X4839753Y-17422270D02*
X4839753Y-17469889D01*
X4839753Y-17469889D02*
X4830229Y-17488936D01*
X4830229Y-17488936D02*
X4820705Y-17498460D01*
X4820705Y-17498460D02*
X4801658Y-17507984D01*
X4801658Y-17507984D02*
X4754039Y-17507984D01*
X4754039Y-17507984D02*
X4734991Y-17498460D01*
X4734991Y-17498460D02*
X4725467Y-17488936D01*
X4963563Y-17307984D02*
X4982610Y-17307984D01*
X4982610Y-17307984D02*
X5001658Y-17317508D01*
X5001658Y-17317508D02*
X5011182Y-17327031D01*
X5011182Y-17327031D02*
X5020705Y-17346079D01*
X5020705Y-17346079D02*
X5030229Y-17384174D01*
X5030229Y-17384174D02*
X5030229Y-17431793D01*
X5030229Y-17431793D02*
X5020705Y-17469889D01*
X5020705Y-17469889D02*
X5011182Y-17488936D01*
X5011182Y-17488936D02*
X5001658Y-17498460D01*
X5001658Y-17498460D02*
X4982610Y-17507984D01*
X4982610Y-17507984D02*
X4963563Y-17507984D01*
X4963563Y-17507984D02*
X4944515Y-17498460D01*
X4944515Y-17498460D02*
X4934991Y-17488936D01*
X4934991Y-17488936D02*
X4925467Y-17469889D01*
X4925467Y-17469889D02*
X4915944Y-17431793D01*
X4915944Y-17431793D02*
X4915944Y-17384174D01*
X4915944Y-17384174D02*
X4925467Y-17346079D01*
X4925467Y-17346079D02*
X4934991Y-17327031D01*
X4934991Y-17327031D02*
X4944515Y-17317508D01*
X4944515Y-17317508D02*
X4963563Y-17307984D01*
X5154039Y-17307984D02*
X5173086Y-17307984D01*
X5173086Y-17307984D02*
X5192134Y-17317508D01*
X5192134Y-17317508D02*
X5201658Y-17327031D01*
X5201658Y-17327031D02*
X5211182Y-17346079D01*
X5211182Y-17346079D02*
X5220705Y-17384174D01*
X5220705Y-17384174D02*
X5220705Y-17431793D01*
X5220705Y-17431793D02*
X5211182Y-17469889D01*
X5211182Y-17469889D02*
X5201658Y-17488936D01*
X5201658Y-17488936D02*
X5192134Y-17498460D01*
X5192134Y-17498460D02*
X5173086Y-17507984D01*
X5173086Y-17507984D02*
X5154039Y-17507984D01*
X5154039Y-17507984D02*
X5134991Y-17498460D01*
X5134991Y-17498460D02*
X5125467Y-17488936D01*
X5125467Y-17488936D02*
X5115944Y-17469889D01*
X5115944Y-17469889D02*
X5106420Y-17431793D01*
X5106420Y-17431793D02*
X5106420Y-17384174D01*
X5106420Y-17384174D02*
X5115944Y-17346079D01*
X5115944Y-17346079D02*
X5125467Y-17327031D01*
X5125467Y-17327031D02*
X5134991Y-17317508D01*
X5134991Y-17317508D02*
X5154039Y-17307984D01*
X5306420Y-17507984D02*
X5306420Y-17374650D01*
X5306420Y-17393698D02*
X5315944Y-17384174D01*
X5315944Y-17384174D02*
X5334991Y-17374650D01*
X5334991Y-17374650D02*
X5363563Y-17374650D01*
X5363563Y-17374650D02*
X5382610Y-17384174D01*
X5382610Y-17384174D02*
X5392134Y-17403222D01*
X5392134Y-17403222D02*
X5392134Y-17507984D01*
X5392134Y-17403222D02*
X5401658Y-17384174D01*
X5401658Y-17384174D02*
X5420705Y-17374650D01*
X5420705Y-17374650D02*
X5449277Y-17374650D01*
X5449277Y-17374650D02*
X5468325Y-17384174D01*
X5468325Y-17384174D02*
X5477848Y-17403222D01*
X5477848Y-17403222D02*
X5477848Y-17507984D01*
X5573086Y-17507984D02*
X5573086Y-17374650D01*
X5573086Y-17393698D02*
X5582610Y-17384174D01*
X5582610Y-17384174D02*
X5601658Y-17374650D01*
X5601658Y-17374650D02*
X5630229Y-17374650D01*
X5630229Y-17374650D02*
X5649277Y-17384174D01*
X5649277Y-17384174D02*
X5658801Y-17403222D01*
X5658801Y-17403222D02*
X5658801Y-17507984D01*
X5658801Y-17403222D02*
X5668324Y-17384174D01*
X5668324Y-17384174D02*
X5687372Y-17374650D01*
X5687372Y-17374650D02*
X5715943Y-17374650D01*
X5715943Y-17374650D02*
X5734991Y-17384174D01*
X5734991Y-17384174D02*
X5744515Y-17403222D01*
X5744515Y-17403222D02*
X5744515Y-17507984D01*
X6134991Y-17298460D02*
X5963563Y-17555603D01*
X6392134Y-17307984D02*
X6411182Y-17307984D01*
X6411182Y-17307984D02*
X6430229Y-17317508D01*
X6430229Y-17317508D02*
X6439753Y-17327031D01*
X6439753Y-17327031D02*
X6449277Y-17346079D01*
X6449277Y-17346079D02*
X6458801Y-17384174D01*
X6458801Y-17384174D02*
X6458801Y-17431793D01*
X6458801Y-17431793D02*
X6449277Y-17469889D01*
X6449277Y-17469889D02*
X6439753Y-17488936D01*
X6439753Y-17488936D02*
X6430229Y-17498460D01*
X6430229Y-17498460D02*
X6411182Y-17507984D01*
X6411182Y-17507984D02*
X6392134Y-17507984D01*
X6392134Y-17507984D02*
X6373086Y-17498460D01*
X6373086Y-17498460D02*
X6363563Y-17488936D01*
X6363563Y-17488936D02*
X6354039Y-17469889D01*
X6354039Y-17469889D02*
X6344515Y-17431793D01*
X6344515Y-17431793D02*
X6344515Y-17384174D01*
X6344515Y-17384174D02*
X6354039Y-17346079D01*
X6354039Y-17346079D02*
X6363563Y-17327031D01*
X6363563Y-17327031D02*
X6373086Y-17317508D01*
X6373086Y-17317508D02*
X6392134Y-17307984D01*
X6544515Y-17488936D02*
X6554039Y-17498460D01*
X6554039Y-17498460D02*
X6544515Y-17507984D01*
X6544515Y-17507984D02*
X6534991Y-17498460D01*
X6534991Y-17498460D02*
X6544515Y-17488936D01*
X6544515Y-17488936D02*
X6544515Y-17507984D01*
X6677848Y-17307984D02*
X6696896Y-17307984D01*
X6696896Y-17307984D02*
X6715944Y-17317508D01*
X6715944Y-17317508D02*
X6725467Y-17327031D01*
X6725467Y-17327031D02*
X6734991Y-17346079D01*
X6734991Y-17346079D02*
X6744515Y-17384174D01*
X6744515Y-17384174D02*
X6744515Y-17431793D01*
X6744515Y-17431793D02*
X6734991Y-17469889D01*
X6734991Y-17469889D02*
X6725467Y-17488936D01*
X6725467Y-17488936D02*
X6715944Y-17498460D01*
X6715944Y-17498460D02*
X6696896Y-17507984D01*
X6696896Y-17507984D02*
X6677848Y-17507984D01*
X6677848Y-17507984D02*
X6658801Y-17498460D01*
X6658801Y-17498460D02*
X6649277Y-17488936D01*
X6649277Y-17488936D02*
X6639753Y-17469889D01*
X6639753Y-17469889D02*
X6630229Y-17431793D01*
X6630229Y-17431793D02*
X6630229Y-17384174D01*
X6630229Y-17384174D02*
X6639753Y-17346079D01*
X6639753Y-17346079D02*
X6649277Y-17327031D01*
X6649277Y-17327031D02*
X6658801Y-17317508D01*
X6658801Y-17317508D02*
X6677848Y-17307984D01*
X6934991Y-17507984D02*
X6820706Y-17507984D01*
X6877848Y-17507984D02*
X6877848Y-17307984D01*
X6877848Y-17307984D02*
X6858801Y-17336555D01*
X6858801Y-17336555D02*
X6839753Y-17355603D01*
X6839753Y-17355603D02*
X6820706Y-17365127D01*
X7030229Y-17507984D02*
X7068325Y-17507984D01*
X7068325Y-17507984D02*
X7087372Y-17498460D01*
X7087372Y-17498460D02*
X7096896Y-17488936D01*
X7096896Y-17488936D02*
X7115944Y-17460365D01*
X7115944Y-17460365D02*
X7125467Y-17422270D01*
X7125467Y-17422270D02*
X7125467Y-17346079D01*
X7125467Y-17346079D02*
X7115944Y-17327031D01*
X7115944Y-17327031D02*
X7106420Y-17317508D01*
X7106420Y-17317508D02*
X7087372Y-17307984D01*
X7087372Y-17307984D02*
X7049277Y-17307984D01*
X7049277Y-17307984D02*
X7030229Y-17317508D01*
X7030229Y-17317508D02*
X7020706Y-17327031D01*
X7020706Y-17327031D02*
X7011182Y-17346079D01*
X7011182Y-17346079D02*
X7011182Y-17393698D01*
X7011182Y-17393698D02*
X7020706Y-17412746D01*
X7020706Y-17412746D02*
X7030229Y-17422270D01*
X7030229Y-17422270D02*
X7049277Y-17431793D01*
X7049277Y-17431793D02*
X7087372Y-17431793D01*
X7087372Y-17431793D02*
X7106420Y-17422270D01*
X7106420Y-17422270D02*
X7115944Y-17412746D01*
X7115944Y-17412746D02*
X7125467Y-17393698D01*
X7192134Y-17307984D02*
X7325467Y-17307984D01*
X7325467Y-17307984D02*
X7239753Y-17507984D01*
X7392134Y-17307984D02*
X7392134Y-17346079D01*
X7468325Y-17307984D02*
X7468325Y-17346079D01*
X7763563Y-17584174D02*
X7754039Y-17574650D01*
X7754039Y-17574650D02*
X7734991Y-17546079D01*
X7734991Y-17546079D02*
X7725468Y-17527031D01*
X7725468Y-17527031D02*
X7715944Y-17498460D01*
X7715944Y-17498460D02*
X7706420Y-17450841D01*
X7706420Y-17450841D02*
X7706420Y-17412746D01*
X7706420Y-17412746D02*
X7715944Y-17365127D01*
X7715944Y-17365127D02*
X7725468Y-17336555D01*
X7725468Y-17336555D02*
X7734991Y-17317508D01*
X7734991Y-17317508D02*
X7754039Y-17288936D01*
X7754039Y-17288936D02*
X7763563Y-17279412D01*
X7820706Y-17307984D02*
X7954039Y-17307984D01*
X7954039Y-17307984D02*
X7868325Y-17507984D01*
X8182610Y-17507984D02*
X8182610Y-17307984D01*
X8268325Y-17507984D02*
X8268325Y-17403222D01*
X8268325Y-17403222D02*
X8258801Y-17384174D01*
X8258801Y-17384174D02*
X8239753Y-17374650D01*
X8239753Y-17374650D02*
X8211182Y-17374650D01*
X8211182Y-17374650D02*
X8192134Y-17384174D01*
X8192134Y-17384174D02*
X8182610Y-17393698D01*
X8392134Y-17507984D02*
X8373087Y-17498460D01*
X8373087Y-17498460D02*
X8363563Y-17488936D01*
X8363563Y-17488936D02*
X8354039Y-17469889D01*
X8354039Y-17469889D02*
X8354039Y-17412746D01*
X8354039Y-17412746D02*
X8363563Y-17393698D01*
X8363563Y-17393698D02*
X8373087Y-17384174D01*
X8373087Y-17384174D02*
X8392134Y-17374650D01*
X8392134Y-17374650D02*
X8420706Y-17374650D01*
X8420706Y-17374650D02*
X8439753Y-17384174D01*
X8439753Y-17384174D02*
X8449277Y-17393698D01*
X8449277Y-17393698D02*
X8458801Y-17412746D01*
X8458801Y-17412746D02*
X8458801Y-17469889D01*
X8458801Y-17469889D02*
X8449277Y-17488936D01*
X8449277Y-17488936D02*
X8439753Y-17498460D01*
X8439753Y-17498460D02*
X8420706Y-17507984D01*
X8420706Y-17507984D02*
X8392134Y-17507984D01*
X8573087Y-17507984D02*
X8554039Y-17498460D01*
X8554039Y-17498460D02*
X8544515Y-17479412D01*
X8544515Y-17479412D02*
X8544515Y-17307984D01*
X8725468Y-17498460D02*
X8706420Y-17507984D01*
X8706420Y-17507984D02*
X8668325Y-17507984D01*
X8668325Y-17507984D02*
X8649277Y-17498460D01*
X8649277Y-17498460D02*
X8639753Y-17479412D01*
X8639753Y-17479412D02*
X8639753Y-17403222D01*
X8639753Y-17403222D02*
X8649277Y-17384174D01*
X8649277Y-17384174D02*
X8668325Y-17374650D01*
X8668325Y-17374650D02*
X8706420Y-17374650D01*
X8706420Y-17374650D02*
X8725468Y-17384174D01*
X8725468Y-17384174D02*
X8734992Y-17403222D01*
X8734992Y-17403222D02*
X8734992Y-17422270D01*
X8734992Y-17422270D02*
X8639753Y-17441317D01*
X8811182Y-17498460D02*
X8830230Y-17507984D01*
X8830230Y-17507984D02*
X8868325Y-17507984D01*
X8868325Y-17507984D02*
X8887373Y-17498460D01*
X8887373Y-17498460D02*
X8896896Y-17479412D01*
X8896896Y-17479412D02*
X8896896Y-17469889D01*
X8896896Y-17469889D02*
X8887373Y-17450841D01*
X8887373Y-17450841D02*
X8868325Y-17441317D01*
X8868325Y-17441317D02*
X8839753Y-17441317D01*
X8839753Y-17441317D02*
X8820706Y-17431793D01*
X8820706Y-17431793D02*
X8811182Y-17412746D01*
X8811182Y-17412746D02*
X8811182Y-17403222D01*
X8811182Y-17403222D02*
X8820706Y-17384174D01*
X8820706Y-17384174D02*
X8839753Y-17374650D01*
X8839753Y-17374650D02*
X8868325Y-17374650D01*
X8868325Y-17374650D02*
X8887373Y-17384174D01*
X8963563Y-17584174D02*
X8973087Y-17574650D01*
X8973087Y-17574650D02*
X8992134Y-17546079D01*
X8992134Y-17546079D02*
X9001658Y-17527031D01*
X9001658Y-17527031D02*
X9011182Y-17498460D01*
X9011182Y-17498460D02*
X9020706Y-17450841D01*
X9020706Y-17450841D02*
X9020706Y-17412746D01*
X9020706Y-17412746D02*
X9011182Y-17365127D01*
X9011182Y-17365127D02*
X9001658Y-17336555D01*
X9001658Y-17336555D02*
X8992134Y-17317508D01*
X8992134Y-17317508D02*
X8973087Y-17288936D01*
X8973087Y-17288936D02*
X8963563Y-17279412D01*
D12*
X4163500Y-17655500D02*
X4163500Y-17705500D01*
X4138500Y-17680500D02*
X4188500Y-17680500D01*
D11*
X4487372Y-17571984D02*
X4506420Y-17571984D01*
X4506420Y-17571984D02*
X4525467Y-17581508D01*
X4525467Y-17581508D02*
X4534991Y-17591031D01*
X4534991Y-17591031D02*
X4544515Y-17610079D01*
X4544515Y-17610079D02*
X4554039Y-17648174D01*
X4554039Y-17648174D02*
X4554039Y-17695793D01*
X4554039Y-17695793D02*
X4544515Y-17733889D01*
X4544515Y-17733889D02*
X4534991Y-17752936D01*
X4534991Y-17752936D02*
X4525467Y-17762460D01*
X4525467Y-17762460D02*
X4506420Y-17771984D01*
X4506420Y-17771984D02*
X4487372Y-17771984D01*
X4487372Y-17771984D02*
X4468324Y-17762460D01*
X4468324Y-17762460D02*
X4458801Y-17752936D01*
X4458801Y-17752936D02*
X4449277Y-17733889D01*
X4449277Y-17733889D02*
X4439753Y-17695793D01*
X4439753Y-17695793D02*
X4439753Y-17648174D01*
X4439753Y-17648174D02*
X4449277Y-17610079D01*
X4449277Y-17610079D02*
X4458801Y-17591031D01*
X4458801Y-17591031D02*
X4468324Y-17581508D01*
X4468324Y-17581508D02*
X4487372Y-17571984D01*
X4639753Y-17752936D02*
X4649277Y-17762460D01*
X4649277Y-17762460D02*
X4639753Y-17771984D01*
X4639753Y-17771984D02*
X4630229Y-17762460D01*
X4630229Y-17762460D02*
X4639753Y-17752936D01*
X4639753Y-17752936D02*
X4639753Y-17771984D01*
X4830229Y-17571984D02*
X4734991Y-17571984D01*
X4734991Y-17571984D02*
X4725467Y-17667222D01*
X4725467Y-17667222D02*
X4734991Y-17657698D01*
X4734991Y-17657698D02*
X4754039Y-17648174D01*
X4754039Y-17648174D02*
X4801658Y-17648174D01*
X4801658Y-17648174D02*
X4820705Y-17657698D01*
X4820705Y-17657698D02*
X4830229Y-17667222D01*
X4830229Y-17667222D02*
X4839753Y-17686270D01*
X4839753Y-17686270D02*
X4839753Y-17733889D01*
X4839753Y-17733889D02*
X4830229Y-17752936D01*
X4830229Y-17752936D02*
X4820705Y-17762460D01*
X4820705Y-17762460D02*
X4801658Y-17771984D01*
X4801658Y-17771984D02*
X4754039Y-17771984D01*
X4754039Y-17771984D02*
X4734991Y-17762460D01*
X4734991Y-17762460D02*
X4725467Y-17752936D01*
X4963563Y-17571984D02*
X4982610Y-17571984D01*
X4982610Y-17571984D02*
X5001658Y-17581508D01*
X5001658Y-17581508D02*
X5011182Y-17591031D01*
X5011182Y-17591031D02*
X5020705Y-17610079D01*
X5020705Y-17610079D02*
X5030229Y-17648174D01*
X5030229Y-17648174D02*
X5030229Y-17695793D01*
X5030229Y-17695793D02*
X5020705Y-17733889D01*
X5020705Y-17733889D02*
X5011182Y-17752936D01*
X5011182Y-17752936D02*
X5001658Y-17762460D01*
X5001658Y-17762460D02*
X4982610Y-17771984D01*
X4982610Y-17771984D02*
X4963563Y-17771984D01*
X4963563Y-17771984D02*
X4944515Y-17762460D01*
X4944515Y-17762460D02*
X4934991Y-17752936D01*
X4934991Y-17752936D02*
X4925467Y-17733889D01*
X4925467Y-17733889D02*
X4915944Y-17695793D01*
X4915944Y-17695793D02*
X4915944Y-17648174D01*
X4915944Y-17648174D02*
X4925467Y-17610079D01*
X4925467Y-17610079D02*
X4934991Y-17591031D01*
X4934991Y-17591031D02*
X4944515Y-17581508D01*
X4944515Y-17581508D02*
X4963563Y-17571984D01*
X5154039Y-17571984D02*
X5173086Y-17571984D01*
X5173086Y-17571984D02*
X5192134Y-17581508D01*
X5192134Y-17581508D02*
X5201658Y-17591031D01*
X5201658Y-17591031D02*
X5211182Y-17610079D01*
X5211182Y-17610079D02*
X5220705Y-17648174D01*
X5220705Y-17648174D02*
X5220705Y-17695793D01*
X5220705Y-17695793D02*
X5211182Y-17733889D01*
X5211182Y-17733889D02*
X5201658Y-17752936D01*
X5201658Y-17752936D02*
X5192134Y-17762460D01*
X5192134Y-17762460D02*
X5173086Y-17771984D01*
X5173086Y-17771984D02*
X5154039Y-17771984D01*
X5154039Y-17771984D02*
X5134991Y-17762460D01*
X5134991Y-17762460D02*
X5125467Y-17752936D01*
X5125467Y-17752936D02*
X5115944Y-17733889D01*
X5115944Y-17733889D02*
X5106420Y-17695793D01*
X5106420Y-17695793D02*
X5106420Y-17648174D01*
X5106420Y-17648174D02*
X5115944Y-17610079D01*
X5115944Y-17610079D02*
X5125467Y-17591031D01*
X5125467Y-17591031D02*
X5134991Y-17581508D01*
X5134991Y-17581508D02*
X5154039Y-17571984D01*
X5306420Y-17771984D02*
X5306420Y-17638650D01*
X5306420Y-17657698D02*
X5315944Y-17648174D01*
X5315944Y-17648174D02*
X5334991Y-17638650D01*
X5334991Y-17638650D02*
X5363563Y-17638650D01*
X5363563Y-17638650D02*
X5382610Y-17648174D01*
X5382610Y-17648174D02*
X5392134Y-17667222D01*
X5392134Y-17667222D02*
X5392134Y-17771984D01*
X5392134Y-17667222D02*
X5401658Y-17648174D01*
X5401658Y-17648174D02*
X5420705Y-17638650D01*
X5420705Y-17638650D02*
X5449277Y-17638650D01*
X5449277Y-17638650D02*
X5468325Y-17648174D01*
X5468325Y-17648174D02*
X5477848Y-17667222D01*
X5477848Y-17667222D02*
X5477848Y-17771984D01*
X5573086Y-17771984D02*
X5573086Y-17638650D01*
X5573086Y-17657698D02*
X5582610Y-17648174D01*
X5582610Y-17648174D02*
X5601658Y-17638650D01*
X5601658Y-17638650D02*
X5630229Y-17638650D01*
X5630229Y-17638650D02*
X5649277Y-17648174D01*
X5649277Y-17648174D02*
X5658801Y-17667222D01*
X5658801Y-17667222D02*
X5658801Y-17771984D01*
X5658801Y-17667222D02*
X5668324Y-17648174D01*
X5668324Y-17648174D02*
X5687372Y-17638650D01*
X5687372Y-17638650D02*
X5715943Y-17638650D01*
X5715943Y-17638650D02*
X5734991Y-17648174D01*
X5734991Y-17648174D02*
X5744515Y-17667222D01*
X5744515Y-17667222D02*
X5744515Y-17771984D01*
X6134991Y-17562460D02*
X5963563Y-17819603D01*
X6392134Y-17571984D02*
X6411182Y-17571984D01*
X6411182Y-17571984D02*
X6430229Y-17581508D01*
X6430229Y-17581508D02*
X6439753Y-17591031D01*
X6439753Y-17591031D02*
X6449277Y-17610079D01*
X6449277Y-17610079D02*
X6458801Y-17648174D01*
X6458801Y-17648174D02*
X6458801Y-17695793D01*
X6458801Y-17695793D02*
X6449277Y-17733889D01*
X6449277Y-17733889D02*
X6439753Y-17752936D01*
X6439753Y-17752936D02*
X6430229Y-17762460D01*
X6430229Y-17762460D02*
X6411182Y-17771984D01*
X6411182Y-17771984D02*
X6392134Y-17771984D01*
X6392134Y-17771984D02*
X6373086Y-17762460D01*
X6373086Y-17762460D02*
X6363563Y-17752936D01*
X6363563Y-17752936D02*
X6354039Y-17733889D01*
X6354039Y-17733889D02*
X6344515Y-17695793D01*
X6344515Y-17695793D02*
X6344515Y-17648174D01*
X6344515Y-17648174D02*
X6354039Y-17610079D01*
X6354039Y-17610079D02*
X6363563Y-17591031D01*
X6363563Y-17591031D02*
X6373086Y-17581508D01*
X6373086Y-17581508D02*
X6392134Y-17571984D01*
X6544515Y-17752936D02*
X6554039Y-17762460D01*
X6554039Y-17762460D02*
X6544515Y-17771984D01*
X6544515Y-17771984D02*
X6534991Y-17762460D01*
X6534991Y-17762460D02*
X6544515Y-17752936D01*
X6544515Y-17752936D02*
X6544515Y-17771984D01*
X6677848Y-17571984D02*
X6696896Y-17571984D01*
X6696896Y-17571984D02*
X6715944Y-17581508D01*
X6715944Y-17581508D02*
X6725467Y-17591031D01*
X6725467Y-17591031D02*
X6734991Y-17610079D01*
X6734991Y-17610079D02*
X6744515Y-17648174D01*
X6744515Y-17648174D02*
X6744515Y-17695793D01*
X6744515Y-17695793D02*
X6734991Y-17733889D01*
X6734991Y-17733889D02*
X6725467Y-17752936D01*
X6725467Y-17752936D02*
X6715944Y-17762460D01*
X6715944Y-17762460D02*
X6696896Y-17771984D01*
X6696896Y-17771984D02*
X6677848Y-17771984D01*
X6677848Y-17771984D02*
X6658801Y-17762460D01*
X6658801Y-17762460D02*
X6649277Y-17752936D01*
X6649277Y-17752936D02*
X6639753Y-17733889D01*
X6639753Y-17733889D02*
X6630229Y-17695793D01*
X6630229Y-17695793D02*
X6630229Y-17648174D01*
X6630229Y-17648174D02*
X6639753Y-17610079D01*
X6639753Y-17610079D02*
X6649277Y-17591031D01*
X6649277Y-17591031D02*
X6658801Y-17581508D01*
X6658801Y-17581508D02*
X6677848Y-17571984D01*
X6934991Y-17771984D02*
X6820706Y-17771984D01*
X6877848Y-17771984D02*
X6877848Y-17571984D01*
X6877848Y-17571984D02*
X6858801Y-17600555D01*
X6858801Y-17600555D02*
X6839753Y-17619603D01*
X6839753Y-17619603D02*
X6820706Y-17629127D01*
X7030229Y-17771984D02*
X7068325Y-17771984D01*
X7068325Y-17771984D02*
X7087372Y-17762460D01*
X7087372Y-17762460D02*
X7096896Y-17752936D01*
X7096896Y-17752936D02*
X7115944Y-17724365D01*
X7115944Y-17724365D02*
X7125467Y-17686270D01*
X7125467Y-17686270D02*
X7125467Y-17610079D01*
X7125467Y-17610079D02*
X7115944Y-17591031D01*
X7115944Y-17591031D02*
X7106420Y-17581508D01*
X7106420Y-17581508D02*
X7087372Y-17571984D01*
X7087372Y-17571984D02*
X7049277Y-17571984D01*
X7049277Y-17571984D02*
X7030229Y-17581508D01*
X7030229Y-17581508D02*
X7020706Y-17591031D01*
X7020706Y-17591031D02*
X7011182Y-17610079D01*
X7011182Y-17610079D02*
X7011182Y-17657698D01*
X7011182Y-17657698D02*
X7020706Y-17676746D01*
X7020706Y-17676746D02*
X7030229Y-17686270D01*
X7030229Y-17686270D02*
X7049277Y-17695793D01*
X7049277Y-17695793D02*
X7087372Y-17695793D01*
X7087372Y-17695793D02*
X7106420Y-17686270D01*
X7106420Y-17686270D02*
X7115944Y-17676746D01*
X7115944Y-17676746D02*
X7125467Y-17657698D01*
X7192134Y-17571984D02*
X7325467Y-17571984D01*
X7325467Y-17571984D02*
X7239753Y-17771984D01*
X7392134Y-17571984D02*
X7392134Y-17610079D01*
X7468325Y-17571984D02*
X7468325Y-17610079D01*
X7763563Y-17848174D02*
X7754039Y-17838650D01*
X7754039Y-17838650D02*
X7734991Y-17810079D01*
X7734991Y-17810079D02*
X7725468Y-17791031D01*
X7725468Y-17791031D02*
X7715944Y-17762460D01*
X7715944Y-17762460D02*
X7706420Y-17714841D01*
X7706420Y-17714841D02*
X7706420Y-17676746D01*
X7706420Y-17676746D02*
X7715944Y-17629127D01*
X7715944Y-17629127D02*
X7725468Y-17600555D01*
X7725468Y-17600555D02*
X7734991Y-17581508D01*
X7734991Y-17581508D02*
X7754039Y-17552936D01*
X7754039Y-17552936D02*
X7763563Y-17543412D01*
X7820706Y-17571984D02*
X7944515Y-17571984D01*
X7944515Y-17571984D02*
X7877848Y-17648174D01*
X7877848Y-17648174D02*
X7906420Y-17648174D01*
X7906420Y-17648174D02*
X7925468Y-17657698D01*
X7925468Y-17657698D02*
X7934991Y-17667222D01*
X7934991Y-17667222D02*
X7944515Y-17686270D01*
X7944515Y-17686270D02*
X7944515Y-17733889D01*
X7944515Y-17733889D02*
X7934991Y-17752936D01*
X7934991Y-17752936D02*
X7925468Y-17762460D01*
X7925468Y-17762460D02*
X7906420Y-17771984D01*
X7906420Y-17771984D02*
X7849277Y-17771984D01*
X7849277Y-17771984D02*
X7830229Y-17762460D01*
X7830229Y-17762460D02*
X7820706Y-17752936D01*
X8020706Y-17591031D02*
X8030229Y-17581508D01*
X8030229Y-17581508D02*
X8049277Y-17571984D01*
X8049277Y-17571984D02*
X8096896Y-17571984D01*
X8096896Y-17571984D02*
X8115944Y-17581508D01*
X8115944Y-17581508D02*
X8125468Y-17591031D01*
X8125468Y-17591031D02*
X8134991Y-17610079D01*
X8134991Y-17610079D02*
X8134991Y-17629127D01*
X8134991Y-17629127D02*
X8125468Y-17657698D01*
X8125468Y-17657698D02*
X8011182Y-17771984D01*
X8011182Y-17771984D02*
X8134991Y-17771984D01*
X8373087Y-17771984D02*
X8373087Y-17571984D01*
X8458801Y-17771984D02*
X8458801Y-17667222D01*
X8458801Y-17667222D02*
X8449277Y-17648174D01*
X8449277Y-17648174D02*
X8430230Y-17638650D01*
X8430230Y-17638650D02*
X8401658Y-17638650D01*
X8401658Y-17638650D02*
X8382610Y-17648174D01*
X8382610Y-17648174D02*
X8373087Y-17657698D01*
X8582611Y-17771984D02*
X8563563Y-17762460D01*
X8563563Y-17762460D02*
X8554039Y-17752936D01*
X8554039Y-17752936D02*
X8544515Y-17733889D01*
X8544515Y-17733889D02*
X8544515Y-17676746D01*
X8544515Y-17676746D02*
X8554039Y-17657698D01*
X8554039Y-17657698D02*
X8563563Y-17648174D01*
X8563563Y-17648174D02*
X8582611Y-17638650D01*
X8582611Y-17638650D02*
X8611182Y-17638650D01*
X8611182Y-17638650D02*
X8630230Y-17648174D01*
X8630230Y-17648174D02*
X8639753Y-17657698D01*
X8639753Y-17657698D02*
X8649277Y-17676746D01*
X8649277Y-17676746D02*
X8649277Y-17733889D01*
X8649277Y-17733889D02*
X8639753Y-17752936D01*
X8639753Y-17752936D02*
X8630230Y-17762460D01*
X8630230Y-17762460D02*
X8611182Y-17771984D01*
X8611182Y-17771984D02*
X8582611Y-17771984D01*
X8763563Y-17771984D02*
X8744515Y-17762460D01*
X8744515Y-17762460D02*
X8734992Y-17743412D01*
X8734992Y-17743412D02*
X8734992Y-17571984D01*
X8915944Y-17762460D02*
X8896896Y-17771984D01*
X8896896Y-17771984D02*
X8858801Y-17771984D01*
X8858801Y-17771984D02*
X8839753Y-17762460D01*
X8839753Y-17762460D02*
X8830230Y-17743412D01*
X8830230Y-17743412D02*
X8830230Y-17667222D01*
X8830230Y-17667222D02*
X8839753Y-17648174D01*
X8839753Y-17648174D02*
X8858801Y-17638650D01*
X8858801Y-17638650D02*
X8896896Y-17638650D01*
X8896896Y-17638650D02*
X8915944Y-17648174D01*
X8915944Y-17648174D02*
X8925468Y-17667222D01*
X8925468Y-17667222D02*
X8925468Y-17686270D01*
X8925468Y-17686270D02*
X8830230Y-17705317D01*
X9001658Y-17762460D02*
X9020706Y-17771984D01*
X9020706Y-17771984D02*
X9058801Y-17771984D01*
X9058801Y-17771984D02*
X9077849Y-17762460D01*
X9077849Y-17762460D02*
X9087373Y-17743412D01*
X9087373Y-17743412D02*
X9087373Y-17733889D01*
X9087373Y-17733889D02*
X9077849Y-17714841D01*
X9077849Y-17714841D02*
X9058801Y-17705317D01*
X9058801Y-17705317D02*
X9030230Y-17705317D01*
X9030230Y-17705317D02*
X9011182Y-17695793D01*
X9011182Y-17695793D02*
X9001658Y-17676746D01*
X9001658Y-17676746D02*
X9001658Y-17667222D01*
X9001658Y-17667222D02*
X9011182Y-17648174D01*
X9011182Y-17648174D02*
X9030230Y-17638650D01*
X9030230Y-17638650D02*
X9058801Y-17638650D01*
X9058801Y-17638650D02*
X9077849Y-17648174D01*
X9154039Y-17848174D02*
X9163563Y-17838650D01*
X9163563Y-17838650D02*
X9182611Y-17810079D01*
X9182611Y-17810079D02*
X9192134Y-17791031D01*
X9192134Y-17791031D02*
X9201658Y-17762460D01*
X9201658Y-17762460D02*
X9211182Y-17714841D01*
X9211182Y-17714841D02*
X9211182Y-17676746D01*
X9211182Y-17676746D02*
X9201658Y-17629127D01*
X9201658Y-17629127D02*
X9192134Y-17600555D01*
X9192134Y-17600555D02*
X9182611Y-17581508D01*
X9182611Y-17581508D02*
X9163563Y-17552936D01*
X9163563Y-17552936D02*
X9154039Y-17543412D01*
D12*
X4179713Y-17965713D02*
X4179713Y-17923287D01*
X4137287Y-17923287D01*
X4137287Y-17965713D01*
X4179713Y-17965713D01*
D11*
X4487372Y-17835984D02*
X4506420Y-17835984D01*
X4506420Y-17835984D02*
X4525467Y-17845508D01*
X4525467Y-17845508D02*
X4534991Y-17855031D01*
X4534991Y-17855031D02*
X4544515Y-17874079D01*
X4544515Y-17874079D02*
X4554039Y-17912174D01*
X4554039Y-17912174D02*
X4554039Y-17959793D01*
X4554039Y-17959793D02*
X4544515Y-17997889D01*
X4544515Y-17997889D02*
X4534991Y-18016936D01*
X4534991Y-18016936D02*
X4525467Y-18026460D01*
X4525467Y-18026460D02*
X4506420Y-18035984D01*
X4506420Y-18035984D02*
X4487372Y-18035984D01*
X4487372Y-18035984D02*
X4468324Y-18026460D01*
X4468324Y-18026460D02*
X4458801Y-18016936D01*
X4458801Y-18016936D02*
X4449277Y-17997889D01*
X4449277Y-17997889D02*
X4439753Y-17959793D01*
X4439753Y-17959793D02*
X4439753Y-17912174D01*
X4439753Y-17912174D02*
X4449277Y-17874079D01*
X4449277Y-17874079D02*
X4458801Y-17855031D01*
X4458801Y-17855031D02*
X4468324Y-17845508D01*
X4468324Y-17845508D02*
X4487372Y-17835984D01*
X4639753Y-18016936D02*
X4649277Y-18026460D01*
X4649277Y-18026460D02*
X4639753Y-18035984D01*
X4639753Y-18035984D02*
X4630229Y-18026460D01*
X4630229Y-18026460D02*
X4639753Y-18016936D01*
X4639753Y-18016936D02*
X4639753Y-18035984D01*
X4820705Y-17835984D02*
X4782610Y-17835984D01*
X4782610Y-17835984D02*
X4763563Y-17845508D01*
X4763563Y-17845508D02*
X4754039Y-17855031D01*
X4754039Y-17855031D02*
X4734991Y-17883603D01*
X4734991Y-17883603D02*
X4725467Y-17921698D01*
X4725467Y-17921698D02*
X4725467Y-17997889D01*
X4725467Y-17997889D02*
X4734991Y-18016936D01*
X4734991Y-18016936D02*
X4744515Y-18026460D01*
X4744515Y-18026460D02*
X4763563Y-18035984D01*
X4763563Y-18035984D02*
X4801658Y-18035984D01*
X4801658Y-18035984D02*
X4820705Y-18026460D01*
X4820705Y-18026460D02*
X4830229Y-18016936D01*
X4830229Y-18016936D02*
X4839753Y-17997889D01*
X4839753Y-17997889D02*
X4839753Y-17950270D01*
X4839753Y-17950270D02*
X4830229Y-17931222D01*
X4830229Y-17931222D02*
X4820705Y-17921698D01*
X4820705Y-17921698D02*
X4801658Y-17912174D01*
X4801658Y-17912174D02*
X4763563Y-17912174D01*
X4763563Y-17912174D02*
X4744515Y-17921698D01*
X4744515Y-17921698D02*
X4734991Y-17931222D01*
X4734991Y-17931222D02*
X4725467Y-17950270D01*
X4963563Y-17835984D02*
X4982610Y-17835984D01*
X4982610Y-17835984D02*
X5001658Y-17845508D01*
X5001658Y-17845508D02*
X5011182Y-17855031D01*
X5011182Y-17855031D02*
X5020705Y-17874079D01*
X5020705Y-17874079D02*
X5030229Y-17912174D01*
X5030229Y-17912174D02*
X5030229Y-17959793D01*
X5030229Y-17959793D02*
X5020705Y-17997889D01*
X5020705Y-17997889D02*
X5011182Y-18016936D01*
X5011182Y-18016936D02*
X5001658Y-18026460D01*
X5001658Y-18026460D02*
X4982610Y-18035984D01*
X4982610Y-18035984D02*
X4963563Y-18035984D01*
X4963563Y-18035984D02*
X4944515Y-18026460D01*
X4944515Y-18026460D02*
X4934991Y-18016936D01*
X4934991Y-18016936D02*
X4925467Y-17997889D01*
X4925467Y-17997889D02*
X4915944Y-17959793D01*
X4915944Y-17959793D02*
X4915944Y-17912174D01*
X4915944Y-17912174D02*
X4925467Y-17874079D01*
X4925467Y-17874079D02*
X4934991Y-17855031D01*
X4934991Y-17855031D02*
X4944515Y-17845508D01*
X4944515Y-17845508D02*
X4963563Y-17835984D01*
X5154039Y-17835984D02*
X5173086Y-17835984D01*
X5173086Y-17835984D02*
X5192134Y-17845508D01*
X5192134Y-17845508D02*
X5201658Y-17855031D01*
X5201658Y-17855031D02*
X5211182Y-17874079D01*
X5211182Y-17874079D02*
X5220705Y-17912174D01*
X5220705Y-17912174D02*
X5220705Y-17959793D01*
X5220705Y-17959793D02*
X5211182Y-17997889D01*
X5211182Y-17997889D02*
X5201658Y-18016936D01*
X5201658Y-18016936D02*
X5192134Y-18026460D01*
X5192134Y-18026460D02*
X5173086Y-18035984D01*
X5173086Y-18035984D02*
X5154039Y-18035984D01*
X5154039Y-18035984D02*
X5134991Y-18026460D01*
X5134991Y-18026460D02*
X5125467Y-18016936D01*
X5125467Y-18016936D02*
X5115944Y-17997889D01*
X5115944Y-17997889D02*
X5106420Y-17959793D01*
X5106420Y-17959793D02*
X5106420Y-17912174D01*
X5106420Y-17912174D02*
X5115944Y-17874079D01*
X5115944Y-17874079D02*
X5125467Y-17855031D01*
X5125467Y-17855031D02*
X5134991Y-17845508D01*
X5134991Y-17845508D02*
X5154039Y-17835984D01*
X5306420Y-18035984D02*
X5306420Y-17902650D01*
X5306420Y-17921698D02*
X5315944Y-17912174D01*
X5315944Y-17912174D02*
X5334991Y-17902650D01*
X5334991Y-17902650D02*
X5363563Y-17902650D01*
X5363563Y-17902650D02*
X5382610Y-17912174D01*
X5382610Y-17912174D02*
X5392134Y-17931222D01*
X5392134Y-17931222D02*
X5392134Y-18035984D01*
X5392134Y-17931222D02*
X5401658Y-17912174D01*
X5401658Y-17912174D02*
X5420705Y-17902650D01*
X5420705Y-17902650D02*
X5449277Y-17902650D01*
X5449277Y-17902650D02*
X5468325Y-17912174D01*
X5468325Y-17912174D02*
X5477848Y-17931222D01*
X5477848Y-17931222D02*
X5477848Y-18035984D01*
X5573086Y-18035984D02*
X5573086Y-17902650D01*
X5573086Y-17921698D02*
X5582610Y-17912174D01*
X5582610Y-17912174D02*
X5601658Y-17902650D01*
X5601658Y-17902650D02*
X5630229Y-17902650D01*
X5630229Y-17902650D02*
X5649277Y-17912174D01*
X5649277Y-17912174D02*
X5658801Y-17931222D01*
X5658801Y-17931222D02*
X5658801Y-18035984D01*
X5658801Y-17931222D02*
X5668324Y-17912174D01*
X5668324Y-17912174D02*
X5687372Y-17902650D01*
X5687372Y-17902650D02*
X5715943Y-17902650D01*
X5715943Y-17902650D02*
X5734991Y-17912174D01*
X5734991Y-17912174D02*
X5744515Y-17931222D01*
X5744515Y-17931222D02*
X5744515Y-18035984D01*
X6134991Y-17826460D02*
X5963563Y-18083603D01*
X6392134Y-17835984D02*
X6411182Y-17835984D01*
X6411182Y-17835984D02*
X6430229Y-17845508D01*
X6430229Y-17845508D02*
X6439753Y-17855031D01*
X6439753Y-17855031D02*
X6449277Y-17874079D01*
X6449277Y-17874079D02*
X6458801Y-17912174D01*
X6458801Y-17912174D02*
X6458801Y-17959793D01*
X6458801Y-17959793D02*
X6449277Y-17997889D01*
X6449277Y-17997889D02*
X6439753Y-18016936D01*
X6439753Y-18016936D02*
X6430229Y-18026460D01*
X6430229Y-18026460D02*
X6411182Y-18035984D01*
X6411182Y-18035984D02*
X6392134Y-18035984D01*
X6392134Y-18035984D02*
X6373086Y-18026460D01*
X6373086Y-18026460D02*
X6363563Y-18016936D01*
X6363563Y-18016936D02*
X6354039Y-17997889D01*
X6354039Y-17997889D02*
X6344515Y-17959793D01*
X6344515Y-17959793D02*
X6344515Y-17912174D01*
X6344515Y-17912174D02*
X6354039Y-17874079D01*
X6354039Y-17874079D02*
X6363563Y-17855031D01*
X6363563Y-17855031D02*
X6373086Y-17845508D01*
X6373086Y-17845508D02*
X6392134Y-17835984D01*
X6544515Y-18016936D02*
X6554039Y-18026460D01*
X6554039Y-18026460D02*
X6544515Y-18035984D01*
X6544515Y-18035984D02*
X6534991Y-18026460D01*
X6534991Y-18026460D02*
X6544515Y-18016936D01*
X6544515Y-18016936D02*
X6544515Y-18035984D01*
X6677848Y-17835984D02*
X6696896Y-17835984D01*
X6696896Y-17835984D02*
X6715944Y-17845508D01*
X6715944Y-17845508D02*
X6725467Y-17855031D01*
X6725467Y-17855031D02*
X6734991Y-17874079D01*
X6734991Y-17874079D02*
X6744515Y-17912174D01*
X6744515Y-17912174D02*
X6744515Y-17959793D01*
X6744515Y-17959793D02*
X6734991Y-17997889D01*
X6734991Y-17997889D02*
X6725467Y-18016936D01*
X6725467Y-18016936D02*
X6715944Y-18026460D01*
X6715944Y-18026460D02*
X6696896Y-18035984D01*
X6696896Y-18035984D02*
X6677848Y-18035984D01*
X6677848Y-18035984D02*
X6658801Y-18026460D01*
X6658801Y-18026460D02*
X6649277Y-18016936D01*
X6649277Y-18016936D02*
X6639753Y-17997889D01*
X6639753Y-17997889D02*
X6630229Y-17959793D01*
X6630229Y-17959793D02*
X6630229Y-17912174D01*
X6630229Y-17912174D02*
X6639753Y-17874079D01*
X6639753Y-17874079D02*
X6649277Y-17855031D01*
X6649277Y-17855031D02*
X6658801Y-17845508D01*
X6658801Y-17845508D02*
X6677848Y-17835984D01*
X6820706Y-17855031D02*
X6830229Y-17845508D01*
X6830229Y-17845508D02*
X6849277Y-17835984D01*
X6849277Y-17835984D02*
X6896896Y-17835984D01*
X6896896Y-17835984D02*
X6915944Y-17845508D01*
X6915944Y-17845508D02*
X6925467Y-17855031D01*
X6925467Y-17855031D02*
X6934991Y-17874079D01*
X6934991Y-17874079D02*
X6934991Y-17893127D01*
X6934991Y-17893127D02*
X6925467Y-17921698D01*
X6925467Y-17921698D02*
X6811182Y-18035984D01*
X6811182Y-18035984D02*
X6934991Y-18035984D01*
X7001658Y-17835984D02*
X7125467Y-17835984D01*
X7125467Y-17835984D02*
X7058801Y-17912174D01*
X7058801Y-17912174D02*
X7087372Y-17912174D01*
X7087372Y-17912174D02*
X7106420Y-17921698D01*
X7106420Y-17921698D02*
X7115944Y-17931222D01*
X7115944Y-17931222D02*
X7125467Y-17950270D01*
X7125467Y-17950270D02*
X7125467Y-17997889D01*
X7125467Y-17997889D02*
X7115944Y-18016936D01*
X7115944Y-18016936D02*
X7106420Y-18026460D01*
X7106420Y-18026460D02*
X7087372Y-18035984D01*
X7087372Y-18035984D02*
X7030229Y-18035984D01*
X7030229Y-18035984D02*
X7011182Y-18026460D01*
X7011182Y-18026460D02*
X7001658Y-18016936D01*
X7296896Y-17835984D02*
X7258801Y-17835984D01*
X7258801Y-17835984D02*
X7239753Y-17845508D01*
X7239753Y-17845508D02*
X7230229Y-17855031D01*
X7230229Y-17855031D02*
X7211182Y-17883603D01*
X7211182Y-17883603D02*
X7201658Y-17921698D01*
X7201658Y-17921698D02*
X7201658Y-17997889D01*
X7201658Y-17997889D02*
X7211182Y-18016936D01*
X7211182Y-18016936D02*
X7220706Y-18026460D01*
X7220706Y-18026460D02*
X7239753Y-18035984D01*
X7239753Y-18035984D02*
X7277848Y-18035984D01*
X7277848Y-18035984D02*
X7296896Y-18026460D01*
X7296896Y-18026460D02*
X7306420Y-18016936D01*
X7306420Y-18016936D02*
X7315944Y-17997889D01*
X7315944Y-17997889D02*
X7315944Y-17950270D01*
X7315944Y-17950270D02*
X7306420Y-17931222D01*
X7306420Y-17931222D02*
X7296896Y-17921698D01*
X7296896Y-17921698D02*
X7277848Y-17912174D01*
X7277848Y-17912174D02*
X7239753Y-17912174D01*
X7239753Y-17912174D02*
X7220706Y-17921698D01*
X7220706Y-17921698D02*
X7211182Y-17931222D01*
X7211182Y-17931222D02*
X7201658Y-17950270D01*
X7392134Y-17835984D02*
X7392134Y-17874079D01*
X7468325Y-17835984D02*
X7468325Y-17874079D01*
X7763563Y-18112174D02*
X7754039Y-18102650D01*
X7754039Y-18102650D02*
X7734991Y-18074079D01*
X7734991Y-18074079D02*
X7725468Y-18055031D01*
X7725468Y-18055031D02*
X7715944Y-18026460D01*
X7715944Y-18026460D02*
X7706420Y-17978841D01*
X7706420Y-17978841D02*
X7706420Y-17940746D01*
X7706420Y-17940746D02*
X7715944Y-17893127D01*
X7715944Y-17893127D02*
X7725468Y-17864555D01*
X7725468Y-17864555D02*
X7734991Y-17845508D01*
X7734991Y-17845508D02*
X7754039Y-17816936D01*
X7754039Y-17816936D02*
X7763563Y-17807412D01*
X7934991Y-17835984D02*
X7839753Y-17835984D01*
X7839753Y-17835984D02*
X7830229Y-17931222D01*
X7830229Y-17931222D02*
X7839753Y-17921698D01*
X7839753Y-17921698D02*
X7858801Y-17912174D01*
X7858801Y-17912174D02*
X7906420Y-17912174D01*
X7906420Y-17912174D02*
X7925468Y-17921698D01*
X7925468Y-17921698D02*
X7934991Y-17931222D01*
X7934991Y-17931222D02*
X7944515Y-17950270D01*
X7944515Y-17950270D02*
X7944515Y-17997889D01*
X7944515Y-17997889D02*
X7934991Y-18016936D01*
X7934991Y-18016936D02*
X7925468Y-18026460D01*
X7925468Y-18026460D02*
X7906420Y-18035984D01*
X7906420Y-18035984D02*
X7858801Y-18035984D01*
X7858801Y-18035984D02*
X7839753Y-18026460D01*
X7839753Y-18026460D02*
X7830229Y-18016936D01*
X8011182Y-17835984D02*
X8144515Y-17835984D01*
X8144515Y-17835984D02*
X8058801Y-18035984D01*
X8373087Y-18035984D02*
X8373087Y-17835984D01*
X8458801Y-18035984D02*
X8458801Y-17931222D01*
X8458801Y-17931222D02*
X8449277Y-17912174D01*
X8449277Y-17912174D02*
X8430230Y-17902650D01*
X8430230Y-17902650D02*
X8401658Y-17902650D01*
X8401658Y-17902650D02*
X8382610Y-17912174D01*
X8382610Y-17912174D02*
X8373087Y-17921698D01*
X8582611Y-18035984D02*
X8563563Y-18026460D01*
X8563563Y-18026460D02*
X8554039Y-18016936D01*
X8554039Y-18016936D02*
X8544515Y-17997889D01*
X8544515Y-17997889D02*
X8544515Y-17940746D01*
X8544515Y-17940746D02*
X8554039Y-17921698D01*
X8554039Y-17921698D02*
X8563563Y-17912174D01*
X8563563Y-17912174D02*
X8582611Y-17902650D01*
X8582611Y-17902650D02*
X8611182Y-17902650D01*
X8611182Y-17902650D02*
X8630230Y-17912174D01*
X8630230Y-17912174D02*
X8639753Y-17921698D01*
X8639753Y-17921698D02*
X8649277Y-17940746D01*
X8649277Y-17940746D02*
X8649277Y-17997889D01*
X8649277Y-17997889D02*
X8639753Y-18016936D01*
X8639753Y-18016936D02*
X8630230Y-18026460D01*
X8630230Y-18026460D02*
X8611182Y-18035984D01*
X8611182Y-18035984D02*
X8582611Y-18035984D01*
X8763563Y-18035984D02*
X8744515Y-18026460D01*
X8744515Y-18026460D02*
X8734992Y-18007412D01*
X8734992Y-18007412D02*
X8734992Y-17835984D01*
X8915944Y-18026460D02*
X8896896Y-18035984D01*
X8896896Y-18035984D02*
X8858801Y-18035984D01*
X8858801Y-18035984D02*
X8839753Y-18026460D01*
X8839753Y-18026460D02*
X8830230Y-18007412D01*
X8830230Y-18007412D02*
X8830230Y-17931222D01*
X8830230Y-17931222D02*
X8839753Y-17912174D01*
X8839753Y-17912174D02*
X8858801Y-17902650D01*
X8858801Y-17902650D02*
X8896896Y-17902650D01*
X8896896Y-17902650D02*
X8915944Y-17912174D01*
X8915944Y-17912174D02*
X8925468Y-17931222D01*
X8925468Y-17931222D02*
X8925468Y-17950270D01*
X8925468Y-17950270D02*
X8830230Y-17969317D01*
X9001658Y-18026460D02*
X9020706Y-18035984D01*
X9020706Y-18035984D02*
X9058801Y-18035984D01*
X9058801Y-18035984D02*
X9077849Y-18026460D01*
X9077849Y-18026460D02*
X9087373Y-18007412D01*
X9087373Y-18007412D02*
X9087373Y-17997889D01*
X9087373Y-17997889D02*
X9077849Y-17978841D01*
X9077849Y-17978841D02*
X9058801Y-17969317D01*
X9058801Y-17969317D02*
X9030230Y-17969317D01*
X9030230Y-17969317D02*
X9011182Y-17959793D01*
X9011182Y-17959793D02*
X9001658Y-17940746D01*
X9001658Y-17940746D02*
X9001658Y-17931222D01*
X9001658Y-17931222D02*
X9011182Y-17912174D01*
X9011182Y-17912174D02*
X9030230Y-17902650D01*
X9030230Y-17902650D02*
X9058801Y-17902650D01*
X9058801Y-17902650D02*
X9077849Y-17912174D01*
X9154039Y-18112174D02*
X9163563Y-18102650D01*
X9163563Y-18102650D02*
X9182611Y-18074079D01*
X9182611Y-18074079D02*
X9192134Y-18055031D01*
X9192134Y-18055031D02*
X9201658Y-18026460D01*
X9201658Y-18026460D02*
X9211182Y-17978841D01*
X9211182Y-17978841D02*
X9211182Y-17940746D01*
X9211182Y-17940746D02*
X9201658Y-17893127D01*
X9201658Y-17893127D02*
X9192134Y-17864555D01*
X9192134Y-17864555D02*
X9182611Y-17845508D01*
X9182611Y-17845508D02*
X9163563Y-17816936D01*
X9163563Y-17816936D02*
X9154039Y-17807412D01*
D12*
X4148500Y-18248500D02*
X4188500Y-18208500D01*
X4148500Y-18168500D01*
X4108500Y-18208500D01*
X4148500Y-18248500D01*
D11*
X4487372Y-18099984D02*
X4506420Y-18099984D01*
X4506420Y-18099984D02*
X4525467Y-18109508D01*
X4525467Y-18109508D02*
X4534991Y-18119031D01*
X4534991Y-18119031D02*
X4544515Y-18138079D01*
X4544515Y-18138079D02*
X4554039Y-18176174D01*
X4554039Y-18176174D02*
X4554039Y-18223793D01*
X4554039Y-18223793D02*
X4544515Y-18261889D01*
X4544515Y-18261889D02*
X4534991Y-18280936D01*
X4534991Y-18280936D02*
X4525467Y-18290460D01*
X4525467Y-18290460D02*
X4506420Y-18299984D01*
X4506420Y-18299984D02*
X4487372Y-18299984D01*
X4487372Y-18299984D02*
X4468324Y-18290460D01*
X4468324Y-18290460D02*
X4458801Y-18280936D01*
X4458801Y-18280936D02*
X4449277Y-18261889D01*
X4449277Y-18261889D02*
X4439753Y-18223793D01*
X4439753Y-18223793D02*
X4439753Y-18176174D01*
X4439753Y-18176174D02*
X4449277Y-18138079D01*
X4449277Y-18138079D02*
X4458801Y-18119031D01*
X4458801Y-18119031D02*
X4468324Y-18109508D01*
X4468324Y-18109508D02*
X4487372Y-18099984D01*
X4639753Y-18280936D02*
X4649277Y-18290460D01*
X4649277Y-18290460D02*
X4639753Y-18299984D01*
X4639753Y-18299984D02*
X4630229Y-18290460D01*
X4630229Y-18290460D02*
X4639753Y-18280936D01*
X4639753Y-18280936D02*
X4639753Y-18299984D01*
X4763563Y-18185698D02*
X4744515Y-18176174D01*
X4744515Y-18176174D02*
X4734991Y-18166650D01*
X4734991Y-18166650D02*
X4725467Y-18147603D01*
X4725467Y-18147603D02*
X4725467Y-18138079D01*
X4725467Y-18138079D02*
X4734991Y-18119031D01*
X4734991Y-18119031D02*
X4744515Y-18109508D01*
X4744515Y-18109508D02*
X4763563Y-18099984D01*
X4763563Y-18099984D02*
X4801658Y-18099984D01*
X4801658Y-18099984D02*
X4820705Y-18109508D01*
X4820705Y-18109508D02*
X4830229Y-18119031D01*
X4830229Y-18119031D02*
X4839753Y-18138079D01*
X4839753Y-18138079D02*
X4839753Y-18147603D01*
X4839753Y-18147603D02*
X4830229Y-18166650D01*
X4830229Y-18166650D02*
X4820705Y-18176174D01*
X4820705Y-18176174D02*
X4801658Y-18185698D01*
X4801658Y-18185698D02*
X4763563Y-18185698D01*
X4763563Y-18185698D02*
X4744515Y-18195222D01*
X4744515Y-18195222D02*
X4734991Y-18204746D01*
X4734991Y-18204746D02*
X4725467Y-18223793D01*
X4725467Y-18223793D02*
X4725467Y-18261889D01*
X4725467Y-18261889D02*
X4734991Y-18280936D01*
X4734991Y-18280936D02*
X4744515Y-18290460D01*
X4744515Y-18290460D02*
X4763563Y-18299984D01*
X4763563Y-18299984D02*
X4801658Y-18299984D01*
X4801658Y-18299984D02*
X4820705Y-18290460D01*
X4820705Y-18290460D02*
X4830229Y-18280936D01*
X4830229Y-18280936D02*
X4839753Y-18261889D01*
X4839753Y-18261889D02*
X4839753Y-18223793D01*
X4839753Y-18223793D02*
X4830229Y-18204746D01*
X4830229Y-18204746D02*
X4820705Y-18195222D01*
X4820705Y-18195222D02*
X4801658Y-18185698D01*
X4963563Y-18099984D02*
X4982610Y-18099984D01*
X4982610Y-18099984D02*
X5001658Y-18109508D01*
X5001658Y-18109508D02*
X5011182Y-18119031D01*
X5011182Y-18119031D02*
X5020705Y-18138079D01*
X5020705Y-18138079D02*
X5030229Y-18176174D01*
X5030229Y-18176174D02*
X5030229Y-18223793D01*
X5030229Y-18223793D02*
X5020705Y-18261889D01*
X5020705Y-18261889D02*
X5011182Y-18280936D01*
X5011182Y-18280936D02*
X5001658Y-18290460D01*
X5001658Y-18290460D02*
X4982610Y-18299984D01*
X4982610Y-18299984D02*
X4963563Y-18299984D01*
X4963563Y-18299984D02*
X4944515Y-18290460D01*
X4944515Y-18290460D02*
X4934991Y-18280936D01*
X4934991Y-18280936D02*
X4925467Y-18261889D01*
X4925467Y-18261889D02*
X4915944Y-18223793D01*
X4915944Y-18223793D02*
X4915944Y-18176174D01*
X4915944Y-18176174D02*
X4925467Y-18138079D01*
X4925467Y-18138079D02*
X4934991Y-18119031D01*
X4934991Y-18119031D02*
X4944515Y-18109508D01*
X4944515Y-18109508D02*
X4963563Y-18099984D01*
X5154039Y-18099984D02*
X5173086Y-18099984D01*
X5173086Y-18099984D02*
X5192134Y-18109508D01*
X5192134Y-18109508D02*
X5201658Y-18119031D01*
X5201658Y-18119031D02*
X5211182Y-18138079D01*
X5211182Y-18138079D02*
X5220705Y-18176174D01*
X5220705Y-18176174D02*
X5220705Y-18223793D01*
X5220705Y-18223793D02*
X5211182Y-18261889D01*
X5211182Y-18261889D02*
X5201658Y-18280936D01*
X5201658Y-18280936D02*
X5192134Y-18290460D01*
X5192134Y-18290460D02*
X5173086Y-18299984D01*
X5173086Y-18299984D02*
X5154039Y-18299984D01*
X5154039Y-18299984D02*
X5134991Y-18290460D01*
X5134991Y-18290460D02*
X5125467Y-18280936D01*
X5125467Y-18280936D02*
X5115944Y-18261889D01*
X5115944Y-18261889D02*
X5106420Y-18223793D01*
X5106420Y-18223793D02*
X5106420Y-18176174D01*
X5106420Y-18176174D02*
X5115944Y-18138079D01*
X5115944Y-18138079D02*
X5125467Y-18119031D01*
X5125467Y-18119031D02*
X5134991Y-18109508D01*
X5134991Y-18109508D02*
X5154039Y-18099984D01*
X5306420Y-18299984D02*
X5306420Y-18166650D01*
X5306420Y-18185698D02*
X5315944Y-18176174D01*
X5315944Y-18176174D02*
X5334991Y-18166650D01*
X5334991Y-18166650D02*
X5363563Y-18166650D01*
X5363563Y-18166650D02*
X5382610Y-18176174D01*
X5382610Y-18176174D02*
X5392134Y-18195222D01*
X5392134Y-18195222D02*
X5392134Y-18299984D01*
X5392134Y-18195222D02*
X5401658Y-18176174D01*
X5401658Y-18176174D02*
X5420705Y-18166650D01*
X5420705Y-18166650D02*
X5449277Y-18166650D01*
X5449277Y-18166650D02*
X5468325Y-18176174D01*
X5468325Y-18176174D02*
X5477848Y-18195222D01*
X5477848Y-18195222D02*
X5477848Y-18299984D01*
X5573086Y-18299984D02*
X5573086Y-18166650D01*
X5573086Y-18185698D02*
X5582610Y-18176174D01*
X5582610Y-18176174D02*
X5601658Y-18166650D01*
X5601658Y-18166650D02*
X5630229Y-18166650D01*
X5630229Y-18166650D02*
X5649277Y-18176174D01*
X5649277Y-18176174D02*
X5658801Y-18195222D01*
X5658801Y-18195222D02*
X5658801Y-18299984D01*
X5658801Y-18195222D02*
X5668324Y-18176174D01*
X5668324Y-18176174D02*
X5687372Y-18166650D01*
X5687372Y-18166650D02*
X5715943Y-18166650D01*
X5715943Y-18166650D02*
X5734991Y-18176174D01*
X5734991Y-18176174D02*
X5744515Y-18195222D01*
X5744515Y-18195222D02*
X5744515Y-18299984D01*
X6134991Y-18090460D02*
X5963563Y-18347603D01*
X6392134Y-18099984D02*
X6411182Y-18099984D01*
X6411182Y-18099984D02*
X6430229Y-18109508D01*
X6430229Y-18109508D02*
X6439753Y-18119031D01*
X6439753Y-18119031D02*
X6449277Y-18138079D01*
X6449277Y-18138079D02*
X6458801Y-18176174D01*
X6458801Y-18176174D02*
X6458801Y-18223793D01*
X6458801Y-18223793D02*
X6449277Y-18261889D01*
X6449277Y-18261889D02*
X6439753Y-18280936D01*
X6439753Y-18280936D02*
X6430229Y-18290460D01*
X6430229Y-18290460D02*
X6411182Y-18299984D01*
X6411182Y-18299984D02*
X6392134Y-18299984D01*
X6392134Y-18299984D02*
X6373086Y-18290460D01*
X6373086Y-18290460D02*
X6363563Y-18280936D01*
X6363563Y-18280936D02*
X6354039Y-18261889D01*
X6354039Y-18261889D02*
X6344515Y-18223793D01*
X6344515Y-18223793D02*
X6344515Y-18176174D01*
X6344515Y-18176174D02*
X6354039Y-18138079D01*
X6354039Y-18138079D02*
X6363563Y-18119031D01*
X6363563Y-18119031D02*
X6373086Y-18109508D01*
X6373086Y-18109508D02*
X6392134Y-18099984D01*
X6544515Y-18280936D02*
X6554039Y-18290460D01*
X6554039Y-18290460D02*
X6544515Y-18299984D01*
X6544515Y-18299984D02*
X6534991Y-18290460D01*
X6534991Y-18290460D02*
X6544515Y-18280936D01*
X6544515Y-18280936D02*
X6544515Y-18299984D01*
X6677848Y-18099984D02*
X6696896Y-18099984D01*
X6696896Y-18099984D02*
X6715944Y-18109508D01*
X6715944Y-18109508D02*
X6725467Y-18119031D01*
X6725467Y-18119031D02*
X6734991Y-18138079D01*
X6734991Y-18138079D02*
X6744515Y-18176174D01*
X6744515Y-18176174D02*
X6744515Y-18223793D01*
X6744515Y-18223793D02*
X6734991Y-18261889D01*
X6734991Y-18261889D02*
X6725467Y-18280936D01*
X6725467Y-18280936D02*
X6715944Y-18290460D01*
X6715944Y-18290460D02*
X6696896Y-18299984D01*
X6696896Y-18299984D02*
X6677848Y-18299984D01*
X6677848Y-18299984D02*
X6658801Y-18290460D01*
X6658801Y-18290460D02*
X6649277Y-18280936D01*
X6649277Y-18280936D02*
X6639753Y-18261889D01*
X6639753Y-18261889D02*
X6630229Y-18223793D01*
X6630229Y-18223793D02*
X6630229Y-18176174D01*
X6630229Y-18176174D02*
X6639753Y-18138079D01*
X6639753Y-18138079D02*
X6649277Y-18119031D01*
X6649277Y-18119031D02*
X6658801Y-18109508D01*
X6658801Y-18109508D02*
X6677848Y-18099984D01*
X6811182Y-18099984D02*
X6934991Y-18099984D01*
X6934991Y-18099984D02*
X6868325Y-18176174D01*
X6868325Y-18176174D02*
X6896896Y-18176174D01*
X6896896Y-18176174D02*
X6915944Y-18185698D01*
X6915944Y-18185698D02*
X6925467Y-18195222D01*
X6925467Y-18195222D02*
X6934991Y-18214270D01*
X6934991Y-18214270D02*
X6934991Y-18261889D01*
X6934991Y-18261889D02*
X6925467Y-18280936D01*
X6925467Y-18280936D02*
X6915944Y-18290460D01*
X6915944Y-18290460D02*
X6896896Y-18299984D01*
X6896896Y-18299984D02*
X6839753Y-18299984D01*
X6839753Y-18299984D02*
X6820706Y-18290460D01*
X6820706Y-18290460D02*
X6811182Y-18280936D01*
X7125467Y-18299984D02*
X7011182Y-18299984D01*
X7068325Y-18299984D02*
X7068325Y-18099984D01*
X7068325Y-18099984D02*
X7049277Y-18128555D01*
X7049277Y-18128555D02*
X7030229Y-18147603D01*
X7030229Y-18147603D02*
X7011182Y-18157127D01*
X7306420Y-18099984D02*
X7211182Y-18099984D01*
X7211182Y-18099984D02*
X7201658Y-18195222D01*
X7201658Y-18195222D02*
X7211182Y-18185698D01*
X7211182Y-18185698D02*
X7230229Y-18176174D01*
X7230229Y-18176174D02*
X7277848Y-18176174D01*
X7277848Y-18176174D02*
X7296896Y-18185698D01*
X7296896Y-18185698D02*
X7306420Y-18195222D01*
X7306420Y-18195222D02*
X7315944Y-18214270D01*
X7315944Y-18214270D02*
X7315944Y-18261889D01*
X7315944Y-18261889D02*
X7306420Y-18280936D01*
X7306420Y-18280936D02*
X7296896Y-18290460D01*
X7296896Y-18290460D02*
X7277848Y-18299984D01*
X7277848Y-18299984D02*
X7230229Y-18299984D01*
X7230229Y-18299984D02*
X7211182Y-18290460D01*
X7211182Y-18290460D02*
X7201658Y-18280936D01*
X7392134Y-18099984D02*
X7392134Y-18138079D01*
X7468325Y-18099984D02*
X7468325Y-18138079D01*
X7763563Y-18376174D02*
X7754039Y-18366650D01*
X7754039Y-18366650D02*
X7734991Y-18338079D01*
X7734991Y-18338079D02*
X7725468Y-18319031D01*
X7725468Y-18319031D02*
X7715944Y-18290460D01*
X7715944Y-18290460D02*
X7706420Y-18242841D01*
X7706420Y-18242841D02*
X7706420Y-18204746D01*
X7706420Y-18204746D02*
X7715944Y-18157127D01*
X7715944Y-18157127D02*
X7725468Y-18128555D01*
X7725468Y-18128555D02*
X7734991Y-18109508D01*
X7734991Y-18109508D02*
X7754039Y-18080936D01*
X7754039Y-18080936D02*
X7763563Y-18071412D01*
X7925468Y-18099984D02*
X7887372Y-18099984D01*
X7887372Y-18099984D02*
X7868325Y-18109508D01*
X7868325Y-18109508D02*
X7858801Y-18119031D01*
X7858801Y-18119031D02*
X7839753Y-18147603D01*
X7839753Y-18147603D02*
X7830229Y-18185698D01*
X7830229Y-18185698D02*
X7830229Y-18261889D01*
X7830229Y-18261889D02*
X7839753Y-18280936D01*
X7839753Y-18280936D02*
X7849277Y-18290460D01*
X7849277Y-18290460D02*
X7868325Y-18299984D01*
X7868325Y-18299984D02*
X7906420Y-18299984D01*
X7906420Y-18299984D02*
X7925468Y-18290460D01*
X7925468Y-18290460D02*
X7934991Y-18280936D01*
X7934991Y-18280936D02*
X7944515Y-18261889D01*
X7944515Y-18261889D02*
X7944515Y-18214270D01*
X7944515Y-18214270D02*
X7934991Y-18195222D01*
X7934991Y-18195222D02*
X7925468Y-18185698D01*
X7925468Y-18185698D02*
X7906420Y-18176174D01*
X7906420Y-18176174D02*
X7868325Y-18176174D01*
X7868325Y-18176174D02*
X7849277Y-18185698D01*
X7849277Y-18185698D02*
X7839753Y-18195222D01*
X7839753Y-18195222D02*
X7830229Y-18214270D01*
X8182610Y-18299984D02*
X8182610Y-18099984D01*
X8268325Y-18299984D02*
X8268325Y-18195222D01*
X8268325Y-18195222D02*
X8258801Y-18176174D01*
X8258801Y-18176174D02*
X8239753Y-18166650D01*
X8239753Y-18166650D02*
X8211182Y-18166650D01*
X8211182Y-18166650D02*
X8192134Y-18176174D01*
X8192134Y-18176174D02*
X8182610Y-18185698D01*
X8392134Y-18299984D02*
X8373087Y-18290460D01*
X8373087Y-18290460D02*
X8363563Y-18280936D01*
X8363563Y-18280936D02*
X8354039Y-18261889D01*
X8354039Y-18261889D02*
X8354039Y-18204746D01*
X8354039Y-18204746D02*
X8363563Y-18185698D01*
X8363563Y-18185698D02*
X8373087Y-18176174D01*
X8373087Y-18176174D02*
X8392134Y-18166650D01*
X8392134Y-18166650D02*
X8420706Y-18166650D01*
X8420706Y-18166650D02*
X8439753Y-18176174D01*
X8439753Y-18176174D02*
X8449277Y-18185698D01*
X8449277Y-18185698D02*
X8458801Y-18204746D01*
X8458801Y-18204746D02*
X8458801Y-18261889D01*
X8458801Y-18261889D02*
X8449277Y-18280936D01*
X8449277Y-18280936D02*
X8439753Y-18290460D01*
X8439753Y-18290460D02*
X8420706Y-18299984D01*
X8420706Y-18299984D02*
X8392134Y-18299984D01*
X8573087Y-18299984D02*
X8554039Y-18290460D01*
X8554039Y-18290460D02*
X8544515Y-18271412D01*
X8544515Y-18271412D02*
X8544515Y-18099984D01*
X8725468Y-18290460D02*
X8706420Y-18299984D01*
X8706420Y-18299984D02*
X8668325Y-18299984D01*
X8668325Y-18299984D02*
X8649277Y-18290460D01*
X8649277Y-18290460D02*
X8639753Y-18271412D01*
X8639753Y-18271412D02*
X8639753Y-18195222D01*
X8639753Y-18195222D02*
X8649277Y-18176174D01*
X8649277Y-18176174D02*
X8668325Y-18166650D01*
X8668325Y-18166650D02*
X8706420Y-18166650D01*
X8706420Y-18166650D02*
X8725468Y-18176174D01*
X8725468Y-18176174D02*
X8734992Y-18195222D01*
X8734992Y-18195222D02*
X8734992Y-18214270D01*
X8734992Y-18214270D02*
X8639753Y-18233317D01*
X8811182Y-18290460D02*
X8830230Y-18299984D01*
X8830230Y-18299984D02*
X8868325Y-18299984D01*
X8868325Y-18299984D02*
X8887373Y-18290460D01*
X8887373Y-18290460D02*
X8896896Y-18271412D01*
X8896896Y-18271412D02*
X8896896Y-18261889D01*
X8896896Y-18261889D02*
X8887373Y-18242841D01*
X8887373Y-18242841D02*
X8868325Y-18233317D01*
X8868325Y-18233317D02*
X8839753Y-18233317D01*
X8839753Y-18233317D02*
X8820706Y-18223793D01*
X8820706Y-18223793D02*
X8811182Y-18204746D01*
X8811182Y-18204746D02*
X8811182Y-18195222D01*
X8811182Y-18195222D02*
X8820706Y-18176174D01*
X8820706Y-18176174D02*
X8839753Y-18166650D01*
X8839753Y-18166650D02*
X8868325Y-18166650D01*
X8868325Y-18166650D02*
X8887373Y-18176174D01*
X8963563Y-18376174D02*
X8973087Y-18366650D01*
X8973087Y-18366650D02*
X8992134Y-18338079D01*
X8992134Y-18338079D02*
X9001658Y-18319031D01*
X9001658Y-18319031D02*
X9011182Y-18290460D01*
X9011182Y-18290460D02*
X9020706Y-18242841D01*
X9020706Y-18242841D02*
X9020706Y-18204746D01*
X9020706Y-18204746D02*
X9011182Y-18157127D01*
X9011182Y-18157127D02*
X9001658Y-18128555D01*
X9001658Y-18128555D02*
X8992134Y-18109508D01*
X8992134Y-18109508D02*
X8973087Y-18080936D01*
X8973087Y-18080936D02*
X8963563Y-18071412D01*
D12*
X4108500Y-18432500D02*
X4188500Y-18512500D01*
X4188500Y-18432500D02*
X4108500Y-18512500D01*
X4188500Y-18472500D02*
G75*
G02*
X4108500Y-18472500I-40000J0D01*
G01*
X4108500Y-18472500D02*
G75*
G02*
X4188500Y-18472500I40000J0D01*
G01*
D11*
X4487372Y-18363984D02*
X4506420Y-18363984D01*
X4506420Y-18363984D02*
X4525467Y-18373508D01*
X4525467Y-18373508D02*
X4534991Y-18383031D01*
X4534991Y-18383031D02*
X4544515Y-18402079D01*
X4544515Y-18402079D02*
X4554039Y-18440174D01*
X4554039Y-18440174D02*
X4554039Y-18487793D01*
X4554039Y-18487793D02*
X4544515Y-18525889D01*
X4544515Y-18525889D02*
X4534991Y-18544936D01*
X4534991Y-18544936D02*
X4525467Y-18554460D01*
X4525467Y-18554460D02*
X4506420Y-18563984D01*
X4506420Y-18563984D02*
X4487372Y-18563984D01*
X4487372Y-18563984D02*
X4468324Y-18554460D01*
X4468324Y-18554460D02*
X4458801Y-18544936D01*
X4458801Y-18544936D02*
X4449277Y-18525889D01*
X4449277Y-18525889D02*
X4439753Y-18487793D01*
X4439753Y-18487793D02*
X4439753Y-18440174D01*
X4439753Y-18440174D02*
X4449277Y-18402079D01*
X4449277Y-18402079D02*
X4458801Y-18383031D01*
X4458801Y-18383031D02*
X4468324Y-18373508D01*
X4468324Y-18373508D02*
X4487372Y-18363984D01*
X4639753Y-18544936D02*
X4649277Y-18554460D01*
X4649277Y-18554460D02*
X4639753Y-18563984D01*
X4639753Y-18563984D02*
X4630229Y-18554460D01*
X4630229Y-18554460D02*
X4639753Y-18544936D01*
X4639753Y-18544936D02*
X4639753Y-18563984D01*
X4763563Y-18449698D02*
X4744515Y-18440174D01*
X4744515Y-18440174D02*
X4734991Y-18430650D01*
X4734991Y-18430650D02*
X4725467Y-18411603D01*
X4725467Y-18411603D02*
X4725467Y-18402079D01*
X4725467Y-18402079D02*
X4734991Y-18383031D01*
X4734991Y-18383031D02*
X4744515Y-18373508D01*
X4744515Y-18373508D02*
X4763563Y-18363984D01*
X4763563Y-18363984D02*
X4801658Y-18363984D01*
X4801658Y-18363984D02*
X4820705Y-18373508D01*
X4820705Y-18373508D02*
X4830229Y-18383031D01*
X4830229Y-18383031D02*
X4839753Y-18402079D01*
X4839753Y-18402079D02*
X4839753Y-18411603D01*
X4839753Y-18411603D02*
X4830229Y-18430650D01*
X4830229Y-18430650D02*
X4820705Y-18440174D01*
X4820705Y-18440174D02*
X4801658Y-18449698D01*
X4801658Y-18449698D02*
X4763563Y-18449698D01*
X4763563Y-18449698D02*
X4744515Y-18459222D01*
X4744515Y-18459222D02*
X4734991Y-18468746D01*
X4734991Y-18468746D02*
X4725467Y-18487793D01*
X4725467Y-18487793D02*
X4725467Y-18525889D01*
X4725467Y-18525889D02*
X4734991Y-18544936D01*
X4734991Y-18544936D02*
X4744515Y-18554460D01*
X4744515Y-18554460D02*
X4763563Y-18563984D01*
X4763563Y-18563984D02*
X4801658Y-18563984D01*
X4801658Y-18563984D02*
X4820705Y-18554460D01*
X4820705Y-18554460D02*
X4830229Y-18544936D01*
X4830229Y-18544936D02*
X4839753Y-18525889D01*
X4839753Y-18525889D02*
X4839753Y-18487793D01*
X4839753Y-18487793D02*
X4830229Y-18468746D01*
X4830229Y-18468746D02*
X4820705Y-18459222D01*
X4820705Y-18459222D02*
X4801658Y-18449698D01*
X4963563Y-18363984D02*
X4982610Y-18363984D01*
X4982610Y-18363984D02*
X5001658Y-18373508D01*
X5001658Y-18373508D02*
X5011182Y-18383031D01*
X5011182Y-18383031D02*
X5020705Y-18402079D01*
X5020705Y-18402079D02*
X5030229Y-18440174D01*
X5030229Y-18440174D02*
X5030229Y-18487793D01*
X5030229Y-18487793D02*
X5020705Y-18525889D01*
X5020705Y-18525889D02*
X5011182Y-18544936D01*
X5011182Y-18544936D02*
X5001658Y-18554460D01*
X5001658Y-18554460D02*
X4982610Y-18563984D01*
X4982610Y-18563984D02*
X4963563Y-18563984D01*
X4963563Y-18563984D02*
X4944515Y-18554460D01*
X4944515Y-18554460D02*
X4934991Y-18544936D01*
X4934991Y-18544936D02*
X4925467Y-18525889D01*
X4925467Y-18525889D02*
X4915944Y-18487793D01*
X4915944Y-18487793D02*
X4915944Y-18440174D01*
X4915944Y-18440174D02*
X4925467Y-18402079D01*
X4925467Y-18402079D02*
X4934991Y-18383031D01*
X4934991Y-18383031D02*
X4944515Y-18373508D01*
X4944515Y-18373508D02*
X4963563Y-18363984D01*
X5154039Y-18363984D02*
X5173086Y-18363984D01*
X5173086Y-18363984D02*
X5192134Y-18373508D01*
X5192134Y-18373508D02*
X5201658Y-18383031D01*
X5201658Y-18383031D02*
X5211182Y-18402079D01*
X5211182Y-18402079D02*
X5220705Y-18440174D01*
X5220705Y-18440174D02*
X5220705Y-18487793D01*
X5220705Y-18487793D02*
X5211182Y-18525889D01*
X5211182Y-18525889D02*
X5201658Y-18544936D01*
X5201658Y-18544936D02*
X5192134Y-18554460D01*
X5192134Y-18554460D02*
X5173086Y-18563984D01*
X5173086Y-18563984D02*
X5154039Y-18563984D01*
X5154039Y-18563984D02*
X5134991Y-18554460D01*
X5134991Y-18554460D02*
X5125467Y-18544936D01*
X5125467Y-18544936D02*
X5115944Y-18525889D01*
X5115944Y-18525889D02*
X5106420Y-18487793D01*
X5106420Y-18487793D02*
X5106420Y-18440174D01*
X5106420Y-18440174D02*
X5115944Y-18402079D01*
X5115944Y-18402079D02*
X5125467Y-18383031D01*
X5125467Y-18383031D02*
X5134991Y-18373508D01*
X5134991Y-18373508D02*
X5154039Y-18363984D01*
X5306420Y-18563984D02*
X5306420Y-18430650D01*
X5306420Y-18449698D02*
X5315944Y-18440174D01*
X5315944Y-18440174D02*
X5334991Y-18430650D01*
X5334991Y-18430650D02*
X5363563Y-18430650D01*
X5363563Y-18430650D02*
X5382610Y-18440174D01*
X5382610Y-18440174D02*
X5392134Y-18459222D01*
X5392134Y-18459222D02*
X5392134Y-18563984D01*
X5392134Y-18459222D02*
X5401658Y-18440174D01*
X5401658Y-18440174D02*
X5420705Y-18430650D01*
X5420705Y-18430650D02*
X5449277Y-18430650D01*
X5449277Y-18430650D02*
X5468325Y-18440174D01*
X5468325Y-18440174D02*
X5477848Y-18459222D01*
X5477848Y-18459222D02*
X5477848Y-18563984D01*
X5573086Y-18563984D02*
X5573086Y-18430650D01*
X5573086Y-18449698D02*
X5582610Y-18440174D01*
X5582610Y-18440174D02*
X5601658Y-18430650D01*
X5601658Y-18430650D02*
X5630229Y-18430650D01*
X5630229Y-18430650D02*
X5649277Y-18440174D01*
X5649277Y-18440174D02*
X5658801Y-18459222D01*
X5658801Y-18459222D02*
X5658801Y-18563984D01*
X5658801Y-18459222D02*
X5668324Y-18440174D01*
X5668324Y-18440174D02*
X5687372Y-18430650D01*
X5687372Y-18430650D02*
X5715943Y-18430650D01*
X5715943Y-18430650D02*
X5734991Y-18440174D01*
X5734991Y-18440174D02*
X5744515Y-18459222D01*
X5744515Y-18459222D02*
X5744515Y-18563984D01*
X6134991Y-18354460D02*
X5963563Y-18611603D01*
X6392134Y-18363984D02*
X6411182Y-18363984D01*
X6411182Y-18363984D02*
X6430229Y-18373508D01*
X6430229Y-18373508D02*
X6439753Y-18383031D01*
X6439753Y-18383031D02*
X6449277Y-18402079D01*
X6449277Y-18402079D02*
X6458801Y-18440174D01*
X6458801Y-18440174D02*
X6458801Y-18487793D01*
X6458801Y-18487793D02*
X6449277Y-18525889D01*
X6449277Y-18525889D02*
X6439753Y-18544936D01*
X6439753Y-18544936D02*
X6430229Y-18554460D01*
X6430229Y-18554460D02*
X6411182Y-18563984D01*
X6411182Y-18563984D02*
X6392134Y-18563984D01*
X6392134Y-18563984D02*
X6373086Y-18554460D01*
X6373086Y-18554460D02*
X6363563Y-18544936D01*
X6363563Y-18544936D02*
X6354039Y-18525889D01*
X6354039Y-18525889D02*
X6344515Y-18487793D01*
X6344515Y-18487793D02*
X6344515Y-18440174D01*
X6344515Y-18440174D02*
X6354039Y-18402079D01*
X6354039Y-18402079D02*
X6363563Y-18383031D01*
X6363563Y-18383031D02*
X6373086Y-18373508D01*
X6373086Y-18373508D02*
X6392134Y-18363984D01*
X6544515Y-18544936D02*
X6554039Y-18554460D01*
X6554039Y-18554460D02*
X6544515Y-18563984D01*
X6544515Y-18563984D02*
X6534991Y-18554460D01*
X6534991Y-18554460D02*
X6544515Y-18544936D01*
X6544515Y-18544936D02*
X6544515Y-18563984D01*
X6677848Y-18363984D02*
X6696896Y-18363984D01*
X6696896Y-18363984D02*
X6715944Y-18373508D01*
X6715944Y-18373508D02*
X6725467Y-18383031D01*
X6725467Y-18383031D02*
X6734991Y-18402079D01*
X6734991Y-18402079D02*
X6744515Y-18440174D01*
X6744515Y-18440174D02*
X6744515Y-18487793D01*
X6744515Y-18487793D02*
X6734991Y-18525889D01*
X6734991Y-18525889D02*
X6725467Y-18544936D01*
X6725467Y-18544936D02*
X6715944Y-18554460D01*
X6715944Y-18554460D02*
X6696896Y-18563984D01*
X6696896Y-18563984D02*
X6677848Y-18563984D01*
X6677848Y-18563984D02*
X6658801Y-18554460D01*
X6658801Y-18554460D02*
X6649277Y-18544936D01*
X6649277Y-18544936D02*
X6639753Y-18525889D01*
X6639753Y-18525889D02*
X6630229Y-18487793D01*
X6630229Y-18487793D02*
X6630229Y-18440174D01*
X6630229Y-18440174D02*
X6639753Y-18402079D01*
X6639753Y-18402079D02*
X6649277Y-18383031D01*
X6649277Y-18383031D02*
X6658801Y-18373508D01*
X6658801Y-18373508D02*
X6677848Y-18363984D01*
X6811182Y-18363984D02*
X6934991Y-18363984D01*
X6934991Y-18363984D02*
X6868325Y-18440174D01*
X6868325Y-18440174D02*
X6896896Y-18440174D01*
X6896896Y-18440174D02*
X6915944Y-18449698D01*
X6915944Y-18449698D02*
X6925467Y-18459222D01*
X6925467Y-18459222D02*
X6934991Y-18478270D01*
X6934991Y-18478270D02*
X6934991Y-18525889D01*
X6934991Y-18525889D02*
X6925467Y-18544936D01*
X6925467Y-18544936D02*
X6915944Y-18554460D01*
X6915944Y-18554460D02*
X6896896Y-18563984D01*
X6896896Y-18563984D02*
X6839753Y-18563984D01*
X6839753Y-18563984D02*
X6820706Y-18554460D01*
X6820706Y-18554460D02*
X6811182Y-18544936D01*
X7125467Y-18563984D02*
X7011182Y-18563984D01*
X7068325Y-18563984D02*
X7068325Y-18363984D01*
X7068325Y-18363984D02*
X7049277Y-18392555D01*
X7049277Y-18392555D02*
X7030229Y-18411603D01*
X7030229Y-18411603D02*
X7011182Y-18421127D01*
X7306420Y-18363984D02*
X7211182Y-18363984D01*
X7211182Y-18363984D02*
X7201658Y-18459222D01*
X7201658Y-18459222D02*
X7211182Y-18449698D01*
X7211182Y-18449698D02*
X7230229Y-18440174D01*
X7230229Y-18440174D02*
X7277848Y-18440174D01*
X7277848Y-18440174D02*
X7296896Y-18449698D01*
X7296896Y-18449698D02*
X7306420Y-18459222D01*
X7306420Y-18459222D02*
X7315944Y-18478270D01*
X7315944Y-18478270D02*
X7315944Y-18525889D01*
X7315944Y-18525889D02*
X7306420Y-18544936D01*
X7306420Y-18544936D02*
X7296896Y-18554460D01*
X7296896Y-18554460D02*
X7277848Y-18563984D01*
X7277848Y-18563984D02*
X7230229Y-18563984D01*
X7230229Y-18563984D02*
X7211182Y-18554460D01*
X7211182Y-18554460D02*
X7201658Y-18544936D01*
X7392134Y-18363984D02*
X7392134Y-18402079D01*
X7468325Y-18363984D02*
X7468325Y-18402079D01*
X7763563Y-18640174D02*
X7754039Y-18630650D01*
X7754039Y-18630650D02*
X7734991Y-18602079D01*
X7734991Y-18602079D02*
X7725468Y-18583031D01*
X7725468Y-18583031D02*
X7715944Y-18554460D01*
X7715944Y-18554460D02*
X7706420Y-18506841D01*
X7706420Y-18506841D02*
X7706420Y-18468746D01*
X7706420Y-18468746D02*
X7715944Y-18421127D01*
X7715944Y-18421127D02*
X7725468Y-18392555D01*
X7725468Y-18392555D02*
X7734991Y-18373508D01*
X7734991Y-18373508D02*
X7754039Y-18344936D01*
X7754039Y-18344936D02*
X7763563Y-18335412D01*
X7925468Y-18430650D02*
X7925468Y-18563984D01*
X7877848Y-18354460D02*
X7830229Y-18497317D01*
X7830229Y-18497317D02*
X7954039Y-18497317D01*
X8182610Y-18563984D02*
X8182610Y-18363984D01*
X8268325Y-18563984D02*
X8268325Y-18459222D01*
X8268325Y-18459222D02*
X8258801Y-18440174D01*
X8258801Y-18440174D02*
X8239753Y-18430650D01*
X8239753Y-18430650D02*
X8211182Y-18430650D01*
X8211182Y-18430650D02*
X8192134Y-18440174D01*
X8192134Y-18440174D02*
X8182610Y-18449698D01*
X8392134Y-18563984D02*
X8373087Y-18554460D01*
X8373087Y-18554460D02*
X8363563Y-18544936D01*
X8363563Y-18544936D02*
X8354039Y-18525889D01*
X8354039Y-18525889D02*
X8354039Y-18468746D01*
X8354039Y-18468746D02*
X8363563Y-18449698D01*
X8363563Y-18449698D02*
X8373087Y-18440174D01*
X8373087Y-18440174D02*
X8392134Y-18430650D01*
X8392134Y-18430650D02*
X8420706Y-18430650D01*
X8420706Y-18430650D02*
X8439753Y-18440174D01*
X8439753Y-18440174D02*
X8449277Y-18449698D01*
X8449277Y-18449698D02*
X8458801Y-18468746D01*
X8458801Y-18468746D02*
X8458801Y-18525889D01*
X8458801Y-18525889D02*
X8449277Y-18544936D01*
X8449277Y-18544936D02*
X8439753Y-18554460D01*
X8439753Y-18554460D02*
X8420706Y-18563984D01*
X8420706Y-18563984D02*
X8392134Y-18563984D01*
X8573087Y-18563984D02*
X8554039Y-18554460D01*
X8554039Y-18554460D02*
X8544515Y-18535412D01*
X8544515Y-18535412D02*
X8544515Y-18363984D01*
X8725468Y-18554460D02*
X8706420Y-18563984D01*
X8706420Y-18563984D02*
X8668325Y-18563984D01*
X8668325Y-18563984D02*
X8649277Y-18554460D01*
X8649277Y-18554460D02*
X8639753Y-18535412D01*
X8639753Y-18535412D02*
X8639753Y-18459222D01*
X8639753Y-18459222D02*
X8649277Y-18440174D01*
X8649277Y-18440174D02*
X8668325Y-18430650D01*
X8668325Y-18430650D02*
X8706420Y-18430650D01*
X8706420Y-18430650D02*
X8725468Y-18440174D01*
X8725468Y-18440174D02*
X8734992Y-18459222D01*
X8734992Y-18459222D02*
X8734992Y-18478270D01*
X8734992Y-18478270D02*
X8639753Y-18497317D01*
X8811182Y-18554460D02*
X8830230Y-18563984D01*
X8830230Y-18563984D02*
X8868325Y-18563984D01*
X8868325Y-18563984D02*
X8887373Y-18554460D01*
X8887373Y-18554460D02*
X8896896Y-18535412D01*
X8896896Y-18535412D02*
X8896896Y-18525889D01*
X8896896Y-18525889D02*
X8887373Y-18506841D01*
X8887373Y-18506841D02*
X8868325Y-18497317D01*
X8868325Y-18497317D02*
X8839753Y-18497317D01*
X8839753Y-18497317D02*
X8820706Y-18487793D01*
X8820706Y-18487793D02*
X8811182Y-18468746D01*
X8811182Y-18468746D02*
X8811182Y-18459222D01*
X8811182Y-18459222D02*
X8820706Y-18440174D01*
X8820706Y-18440174D02*
X8839753Y-18430650D01*
X8839753Y-18430650D02*
X8868325Y-18430650D01*
X8868325Y-18430650D02*
X8887373Y-18440174D01*
X8963563Y-18640174D02*
X8973087Y-18630650D01*
X8973087Y-18630650D02*
X8992134Y-18602079D01*
X8992134Y-18602079D02*
X9001658Y-18583031D01*
X9001658Y-18583031D02*
X9011182Y-18554460D01*
X9011182Y-18554460D02*
X9020706Y-18506841D01*
X9020706Y-18506841D02*
X9020706Y-18468746D01*
X9020706Y-18468746D02*
X9011182Y-18421127D01*
X9011182Y-18421127D02*
X9001658Y-18392555D01*
X9001658Y-18392555D02*
X8992134Y-18373508D01*
X8992134Y-18373508D02*
X8973087Y-18344936D01*
X8973087Y-18344936D02*
X8963563Y-18335412D01*
D12*
X4088500Y-18686500D02*
X4188500Y-18786500D01*
X4188500Y-18686500D02*
X4088500Y-18786500D01*
X4138500Y-18686500D02*
X4138500Y-18786500D01*
X4088500Y-18736500D02*
X4188500Y-18736500D01*
D11*
X4554039Y-18827984D02*
X4439753Y-18827984D01*
X4496896Y-18827984D02*
X4496896Y-18627984D01*
X4496896Y-18627984D02*
X4477848Y-18656555D01*
X4477848Y-18656555D02*
X4458801Y-18675603D01*
X4458801Y-18675603D02*
X4439753Y-18685127D01*
X4639753Y-18808936D02*
X4649277Y-18818460D01*
X4649277Y-18818460D02*
X4639753Y-18827984D01*
X4639753Y-18827984D02*
X4630229Y-18818460D01*
X4630229Y-18818460D02*
X4639753Y-18808936D01*
X4639753Y-18808936D02*
X4639753Y-18827984D01*
X4773086Y-18627984D02*
X4792134Y-18627984D01*
X4792134Y-18627984D02*
X4811182Y-18637508D01*
X4811182Y-18637508D02*
X4820705Y-18647031D01*
X4820705Y-18647031D02*
X4830229Y-18666079D01*
X4830229Y-18666079D02*
X4839753Y-18704174D01*
X4839753Y-18704174D02*
X4839753Y-18751793D01*
X4839753Y-18751793D02*
X4830229Y-18789889D01*
X4830229Y-18789889D02*
X4820705Y-18808936D01*
X4820705Y-18808936D02*
X4811182Y-18818460D01*
X4811182Y-18818460D02*
X4792134Y-18827984D01*
X4792134Y-18827984D02*
X4773086Y-18827984D01*
X4773086Y-18827984D02*
X4754039Y-18818460D01*
X4754039Y-18818460D02*
X4744515Y-18808936D01*
X4744515Y-18808936D02*
X4734991Y-18789889D01*
X4734991Y-18789889D02*
X4725467Y-18751793D01*
X4725467Y-18751793D02*
X4725467Y-18704174D01*
X4725467Y-18704174D02*
X4734991Y-18666079D01*
X4734991Y-18666079D02*
X4744515Y-18647031D01*
X4744515Y-18647031D02*
X4754039Y-18637508D01*
X4754039Y-18637508D02*
X4773086Y-18627984D01*
X4963563Y-18627984D02*
X4982610Y-18627984D01*
X4982610Y-18627984D02*
X5001658Y-18637508D01*
X5001658Y-18637508D02*
X5011182Y-18647031D01*
X5011182Y-18647031D02*
X5020705Y-18666079D01*
X5020705Y-18666079D02*
X5030229Y-18704174D01*
X5030229Y-18704174D02*
X5030229Y-18751793D01*
X5030229Y-18751793D02*
X5020705Y-18789889D01*
X5020705Y-18789889D02*
X5011182Y-18808936D01*
X5011182Y-18808936D02*
X5001658Y-18818460D01*
X5001658Y-18818460D02*
X4982610Y-18827984D01*
X4982610Y-18827984D02*
X4963563Y-18827984D01*
X4963563Y-18827984D02*
X4944515Y-18818460D01*
X4944515Y-18818460D02*
X4934991Y-18808936D01*
X4934991Y-18808936D02*
X4925467Y-18789889D01*
X4925467Y-18789889D02*
X4915944Y-18751793D01*
X4915944Y-18751793D02*
X4915944Y-18704174D01*
X4915944Y-18704174D02*
X4925467Y-18666079D01*
X4925467Y-18666079D02*
X4934991Y-18647031D01*
X4934991Y-18647031D02*
X4944515Y-18637508D01*
X4944515Y-18637508D02*
X4963563Y-18627984D01*
X5154039Y-18627984D02*
X5173086Y-18627984D01*
X5173086Y-18627984D02*
X5192134Y-18637508D01*
X5192134Y-18637508D02*
X5201658Y-18647031D01*
X5201658Y-18647031D02*
X5211182Y-18666079D01*
X5211182Y-18666079D02*
X5220705Y-18704174D01*
X5220705Y-18704174D02*
X5220705Y-18751793D01*
X5220705Y-18751793D02*
X5211182Y-18789889D01*
X5211182Y-18789889D02*
X5201658Y-18808936D01*
X5201658Y-18808936D02*
X5192134Y-18818460D01*
X5192134Y-18818460D02*
X5173086Y-18827984D01*
X5173086Y-18827984D02*
X5154039Y-18827984D01*
X5154039Y-18827984D02*
X5134991Y-18818460D01*
X5134991Y-18818460D02*
X5125467Y-18808936D01*
X5125467Y-18808936D02*
X5115944Y-18789889D01*
X5115944Y-18789889D02*
X5106420Y-18751793D01*
X5106420Y-18751793D02*
X5106420Y-18704174D01*
X5106420Y-18704174D02*
X5115944Y-18666079D01*
X5115944Y-18666079D02*
X5125467Y-18647031D01*
X5125467Y-18647031D02*
X5134991Y-18637508D01*
X5134991Y-18637508D02*
X5154039Y-18627984D01*
X5306420Y-18827984D02*
X5306420Y-18694650D01*
X5306420Y-18713698D02*
X5315944Y-18704174D01*
X5315944Y-18704174D02*
X5334991Y-18694650D01*
X5334991Y-18694650D02*
X5363563Y-18694650D01*
X5363563Y-18694650D02*
X5382610Y-18704174D01*
X5382610Y-18704174D02*
X5392134Y-18723222D01*
X5392134Y-18723222D02*
X5392134Y-18827984D01*
X5392134Y-18723222D02*
X5401658Y-18704174D01*
X5401658Y-18704174D02*
X5420705Y-18694650D01*
X5420705Y-18694650D02*
X5449277Y-18694650D01*
X5449277Y-18694650D02*
X5468325Y-18704174D01*
X5468325Y-18704174D02*
X5477848Y-18723222D01*
X5477848Y-18723222D02*
X5477848Y-18827984D01*
X5573086Y-18827984D02*
X5573086Y-18694650D01*
X5573086Y-18713698D02*
X5582610Y-18704174D01*
X5582610Y-18704174D02*
X5601658Y-18694650D01*
X5601658Y-18694650D02*
X5630229Y-18694650D01*
X5630229Y-18694650D02*
X5649277Y-18704174D01*
X5649277Y-18704174D02*
X5658801Y-18723222D01*
X5658801Y-18723222D02*
X5658801Y-18827984D01*
X5658801Y-18723222D02*
X5668324Y-18704174D01*
X5668324Y-18704174D02*
X5687372Y-18694650D01*
X5687372Y-18694650D02*
X5715943Y-18694650D01*
X5715943Y-18694650D02*
X5734991Y-18704174D01*
X5734991Y-18704174D02*
X5744515Y-18723222D01*
X5744515Y-18723222D02*
X5744515Y-18827984D01*
X6134991Y-18618460D02*
X5963563Y-18875603D01*
X6392134Y-18627984D02*
X6411182Y-18627984D01*
X6411182Y-18627984D02*
X6430229Y-18637508D01*
X6430229Y-18637508D02*
X6439753Y-18647031D01*
X6439753Y-18647031D02*
X6449277Y-18666079D01*
X6449277Y-18666079D02*
X6458801Y-18704174D01*
X6458801Y-18704174D02*
X6458801Y-18751793D01*
X6458801Y-18751793D02*
X6449277Y-18789889D01*
X6449277Y-18789889D02*
X6439753Y-18808936D01*
X6439753Y-18808936D02*
X6430229Y-18818460D01*
X6430229Y-18818460D02*
X6411182Y-18827984D01*
X6411182Y-18827984D02*
X6392134Y-18827984D01*
X6392134Y-18827984D02*
X6373086Y-18818460D01*
X6373086Y-18818460D02*
X6363563Y-18808936D01*
X6363563Y-18808936D02*
X6354039Y-18789889D01*
X6354039Y-18789889D02*
X6344515Y-18751793D01*
X6344515Y-18751793D02*
X6344515Y-18704174D01*
X6344515Y-18704174D02*
X6354039Y-18666079D01*
X6354039Y-18666079D02*
X6363563Y-18647031D01*
X6363563Y-18647031D02*
X6373086Y-18637508D01*
X6373086Y-18637508D02*
X6392134Y-18627984D01*
X6544515Y-18808936D02*
X6554039Y-18818460D01*
X6554039Y-18818460D02*
X6544515Y-18827984D01*
X6544515Y-18827984D02*
X6534991Y-18818460D01*
X6534991Y-18818460D02*
X6544515Y-18808936D01*
X6544515Y-18808936D02*
X6544515Y-18827984D01*
X6677848Y-18627984D02*
X6696896Y-18627984D01*
X6696896Y-18627984D02*
X6715944Y-18637508D01*
X6715944Y-18637508D02*
X6725467Y-18647031D01*
X6725467Y-18647031D02*
X6734991Y-18666079D01*
X6734991Y-18666079D02*
X6744515Y-18704174D01*
X6744515Y-18704174D02*
X6744515Y-18751793D01*
X6744515Y-18751793D02*
X6734991Y-18789889D01*
X6734991Y-18789889D02*
X6725467Y-18808936D01*
X6725467Y-18808936D02*
X6715944Y-18818460D01*
X6715944Y-18818460D02*
X6696896Y-18827984D01*
X6696896Y-18827984D02*
X6677848Y-18827984D01*
X6677848Y-18827984D02*
X6658801Y-18818460D01*
X6658801Y-18818460D02*
X6649277Y-18808936D01*
X6649277Y-18808936D02*
X6639753Y-18789889D01*
X6639753Y-18789889D02*
X6630229Y-18751793D01*
X6630229Y-18751793D02*
X6630229Y-18704174D01*
X6630229Y-18704174D02*
X6639753Y-18666079D01*
X6639753Y-18666079D02*
X6649277Y-18647031D01*
X6649277Y-18647031D02*
X6658801Y-18637508D01*
X6658801Y-18637508D02*
X6677848Y-18627984D01*
X6811182Y-18627984D02*
X6934991Y-18627984D01*
X6934991Y-18627984D02*
X6868325Y-18704174D01*
X6868325Y-18704174D02*
X6896896Y-18704174D01*
X6896896Y-18704174D02*
X6915944Y-18713698D01*
X6915944Y-18713698D02*
X6925467Y-18723222D01*
X6925467Y-18723222D02*
X6934991Y-18742270D01*
X6934991Y-18742270D02*
X6934991Y-18789889D01*
X6934991Y-18789889D02*
X6925467Y-18808936D01*
X6925467Y-18808936D02*
X6915944Y-18818460D01*
X6915944Y-18818460D02*
X6896896Y-18827984D01*
X6896896Y-18827984D02*
X6839753Y-18827984D01*
X6839753Y-18827984D02*
X6820706Y-18818460D01*
X6820706Y-18818460D02*
X6811182Y-18808936D01*
X7030229Y-18827984D02*
X7068325Y-18827984D01*
X7068325Y-18827984D02*
X7087372Y-18818460D01*
X7087372Y-18818460D02*
X7096896Y-18808936D01*
X7096896Y-18808936D02*
X7115944Y-18780365D01*
X7115944Y-18780365D02*
X7125467Y-18742270D01*
X7125467Y-18742270D02*
X7125467Y-18666079D01*
X7125467Y-18666079D02*
X7115944Y-18647031D01*
X7115944Y-18647031D02*
X7106420Y-18637508D01*
X7106420Y-18637508D02*
X7087372Y-18627984D01*
X7087372Y-18627984D02*
X7049277Y-18627984D01*
X7049277Y-18627984D02*
X7030229Y-18637508D01*
X7030229Y-18637508D02*
X7020706Y-18647031D01*
X7020706Y-18647031D02*
X7011182Y-18666079D01*
X7011182Y-18666079D02*
X7011182Y-18713698D01*
X7011182Y-18713698D02*
X7020706Y-18732746D01*
X7020706Y-18732746D02*
X7030229Y-18742270D01*
X7030229Y-18742270D02*
X7049277Y-18751793D01*
X7049277Y-18751793D02*
X7087372Y-18751793D01*
X7087372Y-18751793D02*
X7106420Y-18742270D01*
X7106420Y-18742270D02*
X7115944Y-18732746D01*
X7115944Y-18732746D02*
X7125467Y-18713698D01*
X7296896Y-18694650D02*
X7296896Y-18827984D01*
X7249277Y-18618460D02*
X7201658Y-18761317D01*
X7201658Y-18761317D02*
X7325467Y-18761317D01*
X7392134Y-18627984D02*
X7392134Y-18666079D01*
X7468325Y-18627984D02*
X7468325Y-18666079D01*
X7763563Y-18904174D02*
X7754039Y-18894650D01*
X7754039Y-18894650D02*
X7734991Y-18866079D01*
X7734991Y-18866079D02*
X7725468Y-18847031D01*
X7725468Y-18847031D02*
X7715944Y-18818460D01*
X7715944Y-18818460D02*
X7706420Y-18770841D01*
X7706420Y-18770841D02*
X7706420Y-18732746D01*
X7706420Y-18732746D02*
X7715944Y-18685127D01*
X7715944Y-18685127D02*
X7725468Y-18656555D01*
X7725468Y-18656555D02*
X7734991Y-18637508D01*
X7734991Y-18637508D02*
X7754039Y-18608936D01*
X7754039Y-18608936D02*
X7763563Y-18599412D01*
X7868325Y-18713698D02*
X7849277Y-18704174D01*
X7849277Y-18704174D02*
X7839753Y-18694650D01*
X7839753Y-18694650D02*
X7830229Y-18675603D01*
X7830229Y-18675603D02*
X7830229Y-18666079D01*
X7830229Y-18666079D02*
X7839753Y-18647031D01*
X7839753Y-18647031D02*
X7849277Y-18637508D01*
X7849277Y-18637508D02*
X7868325Y-18627984D01*
X7868325Y-18627984D02*
X7906420Y-18627984D01*
X7906420Y-18627984D02*
X7925468Y-18637508D01*
X7925468Y-18637508D02*
X7934991Y-18647031D01*
X7934991Y-18647031D02*
X7944515Y-18666079D01*
X7944515Y-18666079D02*
X7944515Y-18675603D01*
X7944515Y-18675603D02*
X7934991Y-18694650D01*
X7934991Y-18694650D02*
X7925468Y-18704174D01*
X7925468Y-18704174D02*
X7906420Y-18713698D01*
X7906420Y-18713698D02*
X7868325Y-18713698D01*
X7868325Y-18713698D02*
X7849277Y-18723222D01*
X7849277Y-18723222D02*
X7839753Y-18732746D01*
X7839753Y-18732746D02*
X7830229Y-18751793D01*
X7830229Y-18751793D02*
X7830229Y-18789889D01*
X7830229Y-18789889D02*
X7839753Y-18808936D01*
X7839753Y-18808936D02*
X7849277Y-18818460D01*
X7849277Y-18818460D02*
X7868325Y-18827984D01*
X7868325Y-18827984D02*
X7906420Y-18827984D01*
X7906420Y-18827984D02*
X7925468Y-18818460D01*
X7925468Y-18818460D02*
X7934991Y-18808936D01*
X7934991Y-18808936D02*
X7944515Y-18789889D01*
X7944515Y-18789889D02*
X7944515Y-18751793D01*
X7944515Y-18751793D02*
X7934991Y-18732746D01*
X7934991Y-18732746D02*
X7925468Y-18723222D01*
X7925468Y-18723222D02*
X7906420Y-18713698D01*
X8182610Y-18827984D02*
X8182610Y-18627984D01*
X8268325Y-18827984D02*
X8268325Y-18723222D01*
X8268325Y-18723222D02*
X8258801Y-18704174D01*
X8258801Y-18704174D02*
X8239753Y-18694650D01*
X8239753Y-18694650D02*
X8211182Y-18694650D01*
X8211182Y-18694650D02*
X8192134Y-18704174D01*
X8192134Y-18704174D02*
X8182610Y-18713698D01*
X8392134Y-18827984D02*
X8373087Y-18818460D01*
X8373087Y-18818460D02*
X8363563Y-18808936D01*
X8363563Y-18808936D02*
X8354039Y-18789889D01*
X8354039Y-18789889D02*
X8354039Y-18732746D01*
X8354039Y-18732746D02*
X8363563Y-18713698D01*
X8363563Y-18713698D02*
X8373087Y-18704174D01*
X8373087Y-18704174D02*
X8392134Y-18694650D01*
X8392134Y-18694650D02*
X8420706Y-18694650D01*
X8420706Y-18694650D02*
X8439753Y-18704174D01*
X8439753Y-18704174D02*
X8449277Y-18713698D01*
X8449277Y-18713698D02*
X8458801Y-18732746D01*
X8458801Y-18732746D02*
X8458801Y-18789889D01*
X8458801Y-18789889D02*
X8449277Y-18808936D01*
X8449277Y-18808936D02*
X8439753Y-18818460D01*
X8439753Y-18818460D02*
X8420706Y-18827984D01*
X8420706Y-18827984D02*
X8392134Y-18827984D01*
X8573087Y-18827984D02*
X8554039Y-18818460D01*
X8554039Y-18818460D02*
X8544515Y-18799412D01*
X8544515Y-18799412D02*
X8544515Y-18627984D01*
X8725468Y-18818460D02*
X8706420Y-18827984D01*
X8706420Y-18827984D02*
X8668325Y-18827984D01*
X8668325Y-18827984D02*
X8649277Y-18818460D01*
X8649277Y-18818460D02*
X8639753Y-18799412D01*
X8639753Y-18799412D02*
X8639753Y-18723222D01*
X8639753Y-18723222D02*
X8649277Y-18704174D01*
X8649277Y-18704174D02*
X8668325Y-18694650D01*
X8668325Y-18694650D02*
X8706420Y-18694650D01*
X8706420Y-18694650D02*
X8725468Y-18704174D01*
X8725468Y-18704174D02*
X8734992Y-18723222D01*
X8734992Y-18723222D02*
X8734992Y-18742270D01*
X8734992Y-18742270D02*
X8639753Y-18761317D01*
X8811182Y-18818460D02*
X8830230Y-18827984D01*
X8830230Y-18827984D02*
X8868325Y-18827984D01*
X8868325Y-18827984D02*
X8887373Y-18818460D01*
X8887373Y-18818460D02*
X8896896Y-18799412D01*
X8896896Y-18799412D02*
X8896896Y-18789889D01*
X8896896Y-18789889D02*
X8887373Y-18770841D01*
X8887373Y-18770841D02*
X8868325Y-18761317D01*
X8868325Y-18761317D02*
X8839753Y-18761317D01*
X8839753Y-18761317D02*
X8820706Y-18751793D01*
X8820706Y-18751793D02*
X8811182Y-18732746D01*
X8811182Y-18732746D02*
X8811182Y-18723222D01*
X8811182Y-18723222D02*
X8820706Y-18704174D01*
X8820706Y-18704174D02*
X8839753Y-18694650D01*
X8839753Y-18694650D02*
X8868325Y-18694650D01*
X8868325Y-18694650D02*
X8887373Y-18704174D01*
X8963563Y-18904174D02*
X8973087Y-18894650D01*
X8973087Y-18894650D02*
X8992134Y-18866079D01*
X8992134Y-18866079D02*
X9001658Y-18847031D01*
X9001658Y-18847031D02*
X9011182Y-18818460D01*
X9011182Y-18818460D02*
X9020706Y-18770841D01*
X9020706Y-18770841D02*
X9020706Y-18732746D01*
X9020706Y-18732746D02*
X9011182Y-18685127D01*
X9011182Y-18685127D02*
X9001658Y-18656555D01*
X9001658Y-18656555D02*
X8992134Y-18637508D01*
X8992134Y-18637508D02*
X8973087Y-18608936D01*
X8973087Y-18608936D02*
X8963563Y-18599412D01*
D13*
X4078500Y-18945500D02*
X4188500Y-19055500D01*
X4188500Y-18945500D02*
X4078500Y-19055500D01*
X4172391Y-19039391D02*
X4172391Y-18961609D01*
X4094609Y-18961609D01*
X4094609Y-19039391D01*
X4172391Y-19039391D01*
D11*
X4554039Y-19091984D02*
X4439753Y-19091984D01*
X4496896Y-19091984D02*
X4496896Y-18891984D01*
X4496896Y-18891984D02*
X4477848Y-18920555D01*
X4477848Y-18920555D02*
X4458801Y-18939603D01*
X4458801Y-18939603D02*
X4439753Y-18949127D01*
X4639753Y-19072936D02*
X4649277Y-19082460D01*
X4649277Y-19082460D02*
X4639753Y-19091984D01*
X4639753Y-19091984D02*
X4630229Y-19082460D01*
X4630229Y-19082460D02*
X4639753Y-19072936D01*
X4639753Y-19072936D02*
X4639753Y-19091984D01*
X4839753Y-19091984D02*
X4725467Y-19091984D01*
X4782610Y-19091984D02*
X4782610Y-18891984D01*
X4782610Y-18891984D02*
X4763563Y-18920555D01*
X4763563Y-18920555D02*
X4744515Y-18939603D01*
X4744515Y-18939603D02*
X4725467Y-18949127D01*
X4963563Y-18891984D02*
X4982610Y-18891984D01*
X4982610Y-18891984D02*
X5001658Y-18901508D01*
X5001658Y-18901508D02*
X5011182Y-18911031D01*
X5011182Y-18911031D02*
X5020705Y-18930079D01*
X5020705Y-18930079D02*
X5030229Y-18968174D01*
X5030229Y-18968174D02*
X5030229Y-19015793D01*
X5030229Y-19015793D02*
X5020705Y-19053889D01*
X5020705Y-19053889D02*
X5011182Y-19072936D01*
X5011182Y-19072936D02*
X5001658Y-19082460D01*
X5001658Y-19082460D02*
X4982610Y-19091984D01*
X4982610Y-19091984D02*
X4963563Y-19091984D01*
X4963563Y-19091984D02*
X4944515Y-19082460D01*
X4944515Y-19082460D02*
X4934991Y-19072936D01*
X4934991Y-19072936D02*
X4925467Y-19053889D01*
X4925467Y-19053889D02*
X4915944Y-19015793D01*
X4915944Y-19015793D02*
X4915944Y-18968174D01*
X4915944Y-18968174D02*
X4925467Y-18930079D01*
X4925467Y-18930079D02*
X4934991Y-18911031D01*
X4934991Y-18911031D02*
X4944515Y-18901508D01*
X4944515Y-18901508D02*
X4963563Y-18891984D01*
X5154039Y-18891984D02*
X5173086Y-18891984D01*
X5173086Y-18891984D02*
X5192134Y-18901508D01*
X5192134Y-18901508D02*
X5201658Y-18911031D01*
X5201658Y-18911031D02*
X5211182Y-18930079D01*
X5211182Y-18930079D02*
X5220705Y-18968174D01*
X5220705Y-18968174D02*
X5220705Y-19015793D01*
X5220705Y-19015793D02*
X5211182Y-19053889D01*
X5211182Y-19053889D02*
X5201658Y-19072936D01*
X5201658Y-19072936D02*
X5192134Y-19082460D01*
X5192134Y-19082460D02*
X5173086Y-19091984D01*
X5173086Y-19091984D02*
X5154039Y-19091984D01*
X5154039Y-19091984D02*
X5134991Y-19082460D01*
X5134991Y-19082460D02*
X5125467Y-19072936D01*
X5125467Y-19072936D02*
X5115944Y-19053889D01*
X5115944Y-19053889D02*
X5106420Y-19015793D01*
X5106420Y-19015793D02*
X5106420Y-18968174D01*
X5106420Y-18968174D02*
X5115944Y-18930079D01*
X5115944Y-18930079D02*
X5125467Y-18911031D01*
X5125467Y-18911031D02*
X5134991Y-18901508D01*
X5134991Y-18901508D02*
X5154039Y-18891984D01*
X5306420Y-19091984D02*
X5306420Y-18958650D01*
X5306420Y-18977698D02*
X5315944Y-18968174D01*
X5315944Y-18968174D02*
X5334991Y-18958650D01*
X5334991Y-18958650D02*
X5363563Y-18958650D01*
X5363563Y-18958650D02*
X5382610Y-18968174D01*
X5382610Y-18968174D02*
X5392134Y-18987222D01*
X5392134Y-18987222D02*
X5392134Y-19091984D01*
X5392134Y-18987222D02*
X5401658Y-18968174D01*
X5401658Y-18968174D02*
X5420705Y-18958650D01*
X5420705Y-18958650D02*
X5449277Y-18958650D01*
X5449277Y-18958650D02*
X5468325Y-18968174D01*
X5468325Y-18968174D02*
X5477848Y-18987222D01*
X5477848Y-18987222D02*
X5477848Y-19091984D01*
X5573086Y-19091984D02*
X5573086Y-18958650D01*
X5573086Y-18977698D02*
X5582610Y-18968174D01*
X5582610Y-18968174D02*
X5601658Y-18958650D01*
X5601658Y-18958650D02*
X5630229Y-18958650D01*
X5630229Y-18958650D02*
X5649277Y-18968174D01*
X5649277Y-18968174D02*
X5658801Y-18987222D01*
X5658801Y-18987222D02*
X5658801Y-19091984D01*
X5658801Y-18987222D02*
X5668324Y-18968174D01*
X5668324Y-18968174D02*
X5687372Y-18958650D01*
X5687372Y-18958650D02*
X5715943Y-18958650D01*
X5715943Y-18958650D02*
X5734991Y-18968174D01*
X5734991Y-18968174D02*
X5744515Y-18987222D01*
X5744515Y-18987222D02*
X5744515Y-19091984D01*
X6134991Y-18882460D02*
X5963563Y-19139603D01*
X6392134Y-18891984D02*
X6411182Y-18891984D01*
X6411182Y-18891984D02*
X6430229Y-18901508D01*
X6430229Y-18901508D02*
X6439753Y-18911031D01*
X6439753Y-18911031D02*
X6449277Y-18930079D01*
X6449277Y-18930079D02*
X6458801Y-18968174D01*
X6458801Y-18968174D02*
X6458801Y-19015793D01*
X6458801Y-19015793D02*
X6449277Y-19053889D01*
X6449277Y-19053889D02*
X6439753Y-19072936D01*
X6439753Y-19072936D02*
X6430229Y-19082460D01*
X6430229Y-19082460D02*
X6411182Y-19091984D01*
X6411182Y-19091984D02*
X6392134Y-19091984D01*
X6392134Y-19091984D02*
X6373086Y-19082460D01*
X6373086Y-19082460D02*
X6363563Y-19072936D01*
X6363563Y-19072936D02*
X6354039Y-19053889D01*
X6354039Y-19053889D02*
X6344515Y-19015793D01*
X6344515Y-19015793D02*
X6344515Y-18968174D01*
X6344515Y-18968174D02*
X6354039Y-18930079D01*
X6354039Y-18930079D02*
X6363563Y-18911031D01*
X6363563Y-18911031D02*
X6373086Y-18901508D01*
X6373086Y-18901508D02*
X6392134Y-18891984D01*
X6544515Y-19072936D02*
X6554039Y-19082460D01*
X6554039Y-19082460D02*
X6544515Y-19091984D01*
X6544515Y-19091984D02*
X6534991Y-19082460D01*
X6534991Y-19082460D02*
X6544515Y-19072936D01*
X6544515Y-19072936D02*
X6544515Y-19091984D01*
X6677848Y-18891984D02*
X6696896Y-18891984D01*
X6696896Y-18891984D02*
X6715944Y-18901508D01*
X6715944Y-18901508D02*
X6725467Y-18911031D01*
X6725467Y-18911031D02*
X6734991Y-18930079D01*
X6734991Y-18930079D02*
X6744515Y-18968174D01*
X6744515Y-18968174D02*
X6744515Y-19015793D01*
X6744515Y-19015793D02*
X6734991Y-19053889D01*
X6734991Y-19053889D02*
X6725467Y-19072936D01*
X6725467Y-19072936D02*
X6715944Y-19082460D01*
X6715944Y-19082460D02*
X6696896Y-19091984D01*
X6696896Y-19091984D02*
X6677848Y-19091984D01*
X6677848Y-19091984D02*
X6658801Y-19082460D01*
X6658801Y-19082460D02*
X6649277Y-19072936D01*
X6649277Y-19072936D02*
X6639753Y-19053889D01*
X6639753Y-19053889D02*
X6630229Y-19015793D01*
X6630229Y-19015793D02*
X6630229Y-18968174D01*
X6630229Y-18968174D02*
X6639753Y-18930079D01*
X6639753Y-18930079D02*
X6649277Y-18911031D01*
X6649277Y-18911031D02*
X6658801Y-18901508D01*
X6658801Y-18901508D02*
X6677848Y-18891984D01*
X6915944Y-18958650D02*
X6915944Y-19091984D01*
X6868325Y-18882460D02*
X6820706Y-19025317D01*
X6820706Y-19025317D02*
X6944515Y-19025317D01*
X7001658Y-18891984D02*
X7125467Y-18891984D01*
X7125467Y-18891984D02*
X7058801Y-18968174D01*
X7058801Y-18968174D02*
X7087372Y-18968174D01*
X7087372Y-18968174D02*
X7106420Y-18977698D01*
X7106420Y-18977698D02*
X7115944Y-18987222D01*
X7115944Y-18987222D02*
X7125467Y-19006270D01*
X7125467Y-19006270D02*
X7125467Y-19053889D01*
X7125467Y-19053889D02*
X7115944Y-19072936D01*
X7115944Y-19072936D02*
X7106420Y-19082460D01*
X7106420Y-19082460D02*
X7087372Y-19091984D01*
X7087372Y-19091984D02*
X7030229Y-19091984D01*
X7030229Y-19091984D02*
X7011182Y-19082460D01*
X7011182Y-19082460D02*
X7001658Y-19072936D01*
X7192134Y-18891984D02*
X7315944Y-18891984D01*
X7315944Y-18891984D02*
X7249277Y-18968174D01*
X7249277Y-18968174D02*
X7277848Y-18968174D01*
X7277848Y-18968174D02*
X7296896Y-18977698D01*
X7296896Y-18977698D02*
X7306420Y-18987222D01*
X7306420Y-18987222D02*
X7315944Y-19006270D01*
X7315944Y-19006270D02*
X7315944Y-19053889D01*
X7315944Y-19053889D02*
X7306420Y-19072936D01*
X7306420Y-19072936D02*
X7296896Y-19082460D01*
X7296896Y-19082460D02*
X7277848Y-19091984D01*
X7277848Y-19091984D02*
X7220706Y-19091984D01*
X7220706Y-19091984D02*
X7201658Y-19082460D01*
X7201658Y-19082460D02*
X7192134Y-19072936D01*
X7392134Y-18891984D02*
X7392134Y-18930079D01*
X7468325Y-18891984D02*
X7468325Y-18930079D01*
X7763563Y-19168174D02*
X7754039Y-19158650D01*
X7754039Y-19158650D02*
X7734991Y-19130079D01*
X7734991Y-19130079D02*
X7725468Y-19111031D01*
X7725468Y-19111031D02*
X7715944Y-19082460D01*
X7715944Y-19082460D02*
X7706420Y-19034841D01*
X7706420Y-19034841D02*
X7706420Y-18996746D01*
X7706420Y-18996746D02*
X7715944Y-18949127D01*
X7715944Y-18949127D02*
X7725468Y-18920555D01*
X7725468Y-18920555D02*
X7734991Y-18901508D01*
X7734991Y-18901508D02*
X7754039Y-18872936D01*
X7754039Y-18872936D02*
X7763563Y-18863412D01*
X7868325Y-18977698D02*
X7849277Y-18968174D01*
X7849277Y-18968174D02*
X7839753Y-18958650D01*
X7839753Y-18958650D02*
X7830229Y-18939603D01*
X7830229Y-18939603D02*
X7830229Y-18930079D01*
X7830229Y-18930079D02*
X7839753Y-18911031D01*
X7839753Y-18911031D02*
X7849277Y-18901508D01*
X7849277Y-18901508D02*
X7868325Y-18891984D01*
X7868325Y-18891984D02*
X7906420Y-18891984D01*
X7906420Y-18891984D02*
X7925468Y-18901508D01*
X7925468Y-18901508D02*
X7934991Y-18911031D01*
X7934991Y-18911031D02*
X7944515Y-18930079D01*
X7944515Y-18930079D02*
X7944515Y-18939603D01*
X7944515Y-18939603D02*
X7934991Y-18958650D01*
X7934991Y-18958650D02*
X7925468Y-18968174D01*
X7925468Y-18968174D02*
X7906420Y-18977698D01*
X7906420Y-18977698D02*
X7868325Y-18977698D01*
X7868325Y-18977698D02*
X7849277Y-18987222D01*
X7849277Y-18987222D02*
X7839753Y-18996746D01*
X7839753Y-18996746D02*
X7830229Y-19015793D01*
X7830229Y-19015793D02*
X7830229Y-19053889D01*
X7830229Y-19053889D02*
X7839753Y-19072936D01*
X7839753Y-19072936D02*
X7849277Y-19082460D01*
X7849277Y-19082460D02*
X7868325Y-19091984D01*
X7868325Y-19091984D02*
X7906420Y-19091984D01*
X7906420Y-19091984D02*
X7925468Y-19082460D01*
X7925468Y-19082460D02*
X7934991Y-19072936D01*
X7934991Y-19072936D02*
X7944515Y-19053889D01*
X7944515Y-19053889D02*
X7944515Y-19015793D01*
X7944515Y-19015793D02*
X7934991Y-18996746D01*
X7934991Y-18996746D02*
X7925468Y-18987222D01*
X7925468Y-18987222D02*
X7906420Y-18977698D01*
X8182610Y-19091984D02*
X8182610Y-18891984D01*
X8268325Y-19091984D02*
X8268325Y-18987222D01*
X8268325Y-18987222D02*
X8258801Y-18968174D01*
X8258801Y-18968174D02*
X8239753Y-18958650D01*
X8239753Y-18958650D02*
X8211182Y-18958650D01*
X8211182Y-18958650D02*
X8192134Y-18968174D01*
X8192134Y-18968174D02*
X8182610Y-18977698D01*
X8392134Y-19091984D02*
X8373087Y-19082460D01*
X8373087Y-19082460D02*
X8363563Y-19072936D01*
X8363563Y-19072936D02*
X8354039Y-19053889D01*
X8354039Y-19053889D02*
X8354039Y-18996746D01*
X8354039Y-18996746D02*
X8363563Y-18977698D01*
X8363563Y-18977698D02*
X8373087Y-18968174D01*
X8373087Y-18968174D02*
X8392134Y-18958650D01*
X8392134Y-18958650D02*
X8420706Y-18958650D01*
X8420706Y-18958650D02*
X8439753Y-18968174D01*
X8439753Y-18968174D02*
X8449277Y-18977698D01*
X8449277Y-18977698D02*
X8458801Y-18996746D01*
X8458801Y-18996746D02*
X8458801Y-19053889D01*
X8458801Y-19053889D02*
X8449277Y-19072936D01*
X8449277Y-19072936D02*
X8439753Y-19082460D01*
X8439753Y-19082460D02*
X8420706Y-19091984D01*
X8420706Y-19091984D02*
X8392134Y-19091984D01*
X8573087Y-19091984D02*
X8554039Y-19082460D01*
X8554039Y-19082460D02*
X8544515Y-19063412D01*
X8544515Y-19063412D02*
X8544515Y-18891984D01*
X8725468Y-19082460D02*
X8706420Y-19091984D01*
X8706420Y-19091984D02*
X8668325Y-19091984D01*
X8668325Y-19091984D02*
X8649277Y-19082460D01*
X8649277Y-19082460D02*
X8639753Y-19063412D01*
X8639753Y-19063412D02*
X8639753Y-18987222D01*
X8639753Y-18987222D02*
X8649277Y-18968174D01*
X8649277Y-18968174D02*
X8668325Y-18958650D01*
X8668325Y-18958650D02*
X8706420Y-18958650D01*
X8706420Y-18958650D02*
X8725468Y-18968174D01*
X8725468Y-18968174D02*
X8734992Y-18987222D01*
X8734992Y-18987222D02*
X8734992Y-19006270D01*
X8734992Y-19006270D02*
X8639753Y-19025317D01*
X8811182Y-19082460D02*
X8830230Y-19091984D01*
X8830230Y-19091984D02*
X8868325Y-19091984D01*
X8868325Y-19091984D02*
X8887373Y-19082460D01*
X8887373Y-19082460D02*
X8896896Y-19063412D01*
X8896896Y-19063412D02*
X8896896Y-19053889D01*
X8896896Y-19053889D02*
X8887373Y-19034841D01*
X8887373Y-19034841D02*
X8868325Y-19025317D01*
X8868325Y-19025317D02*
X8839753Y-19025317D01*
X8839753Y-19025317D02*
X8820706Y-19015793D01*
X8820706Y-19015793D02*
X8811182Y-18996746D01*
X8811182Y-18996746D02*
X8811182Y-18987222D01*
X8811182Y-18987222D02*
X8820706Y-18968174D01*
X8820706Y-18968174D02*
X8839753Y-18958650D01*
X8839753Y-18958650D02*
X8868325Y-18958650D01*
X8868325Y-18958650D02*
X8887373Y-18968174D01*
X8963563Y-19168174D02*
X8973087Y-19158650D01*
X8973087Y-19158650D02*
X8992134Y-19130079D01*
X8992134Y-19130079D02*
X9001658Y-19111031D01*
X9001658Y-19111031D02*
X9011182Y-19082460D01*
X9011182Y-19082460D02*
X9020706Y-19034841D01*
X9020706Y-19034841D02*
X9020706Y-18996746D01*
X9020706Y-18996746D02*
X9011182Y-18949127D01*
X9011182Y-18949127D02*
X9001658Y-18920555D01*
X9001658Y-18920555D02*
X8992134Y-18901508D01*
X8992134Y-18901508D02*
X8973087Y-18872936D01*
X8973087Y-18872936D02*
X8963563Y-18863412D01*
D14*
X4056500Y-19198500D02*
X4188500Y-19330500D01*
X4188500Y-19198500D02*
X4056500Y-19330500D01*
X4122500Y-19330500D02*
X4188500Y-19264500D01*
X4122500Y-19198500D01*
X4056500Y-19264500D01*
X4122500Y-19330500D01*
D11*
X4554039Y-19355984D02*
X4439753Y-19355984D01*
X4496896Y-19355984D02*
X4496896Y-19155984D01*
X4496896Y-19155984D02*
X4477848Y-19184555D01*
X4477848Y-19184555D02*
X4458801Y-19203603D01*
X4458801Y-19203603D02*
X4439753Y-19213127D01*
X4639753Y-19336936D02*
X4649277Y-19346460D01*
X4649277Y-19346460D02*
X4639753Y-19355984D01*
X4639753Y-19355984D02*
X4630229Y-19346460D01*
X4630229Y-19346460D02*
X4639753Y-19336936D01*
X4639753Y-19336936D02*
X4639753Y-19355984D01*
X4715944Y-19155984D02*
X4839753Y-19155984D01*
X4839753Y-19155984D02*
X4773086Y-19232174D01*
X4773086Y-19232174D02*
X4801658Y-19232174D01*
X4801658Y-19232174D02*
X4820705Y-19241698D01*
X4820705Y-19241698D02*
X4830229Y-19251222D01*
X4830229Y-19251222D02*
X4839753Y-19270270D01*
X4839753Y-19270270D02*
X4839753Y-19317889D01*
X4839753Y-19317889D02*
X4830229Y-19336936D01*
X4830229Y-19336936D02*
X4820705Y-19346460D01*
X4820705Y-19346460D02*
X4801658Y-19355984D01*
X4801658Y-19355984D02*
X4744515Y-19355984D01*
X4744515Y-19355984D02*
X4725467Y-19346460D01*
X4725467Y-19346460D02*
X4715944Y-19336936D01*
X4915944Y-19175031D02*
X4925467Y-19165508D01*
X4925467Y-19165508D02*
X4944515Y-19155984D01*
X4944515Y-19155984D02*
X4992134Y-19155984D01*
X4992134Y-19155984D02*
X5011182Y-19165508D01*
X5011182Y-19165508D02*
X5020705Y-19175031D01*
X5020705Y-19175031D02*
X5030229Y-19194079D01*
X5030229Y-19194079D02*
X5030229Y-19213127D01*
X5030229Y-19213127D02*
X5020705Y-19241698D01*
X5020705Y-19241698D02*
X4906420Y-19355984D01*
X4906420Y-19355984D02*
X5030229Y-19355984D01*
X5154039Y-19155984D02*
X5173086Y-19155984D01*
X5173086Y-19155984D02*
X5192134Y-19165508D01*
X5192134Y-19165508D02*
X5201658Y-19175031D01*
X5201658Y-19175031D02*
X5211182Y-19194079D01*
X5211182Y-19194079D02*
X5220705Y-19232174D01*
X5220705Y-19232174D02*
X5220705Y-19279793D01*
X5220705Y-19279793D02*
X5211182Y-19317889D01*
X5211182Y-19317889D02*
X5201658Y-19336936D01*
X5201658Y-19336936D02*
X5192134Y-19346460D01*
X5192134Y-19346460D02*
X5173086Y-19355984D01*
X5173086Y-19355984D02*
X5154039Y-19355984D01*
X5154039Y-19355984D02*
X5134991Y-19346460D01*
X5134991Y-19346460D02*
X5125467Y-19336936D01*
X5125467Y-19336936D02*
X5115944Y-19317889D01*
X5115944Y-19317889D02*
X5106420Y-19279793D01*
X5106420Y-19279793D02*
X5106420Y-19232174D01*
X5106420Y-19232174D02*
X5115944Y-19194079D01*
X5115944Y-19194079D02*
X5125467Y-19175031D01*
X5125467Y-19175031D02*
X5134991Y-19165508D01*
X5134991Y-19165508D02*
X5154039Y-19155984D01*
X5306420Y-19355984D02*
X5306420Y-19222650D01*
X5306420Y-19241698D02*
X5315944Y-19232174D01*
X5315944Y-19232174D02*
X5334991Y-19222650D01*
X5334991Y-19222650D02*
X5363563Y-19222650D01*
X5363563Y-19222650D02*
X5382610Y-19232174D01*
X5382610Y-19232174D02*
X5392134Y-19251222D01*
X5392134Y-19251222D02*
X5392134Y-19355984D01*
X5392134Y-19251222D02*
X5401658Y-19232174D01*
X5401658Y-19232174D02*
X5420705Y-19222650D01*
X5420705Y-19222650D02*
X5449277Y-19222650D01*
X5449277Y-19222650D02*
X5468325Y-19232174D01*
X5468325Y-19232174D02*
X5477848Y-19251222D01*
X5477848Y-19251222D02*
X5477848Y-19355984D01*
X5573086Y-19355984D02*
X5573086Y-19222650D01*
X5573086Y-19241698D02*
X5582610Y-19232174D01*
X5582610Y-19232174D02*
X5601658Y-19222650D01*
X5601658Y-19222650D02*
X5630229Y-19222650D01*
X5630229Y-19222650D02*
X5649277Y-19232174D01*
X5649277Y-19232174D02*
X5658801Y-19251222D01*
X5658801Y-19251222D02*
X5658801Y-19355984D01*
X5658801Y-19251222D02*
X5668324Y-19232174D01*
X5668324Y-19232174D02*
X5687372Y-19222650D01*
X5687372Y-19222650D02*
X5715943Y-19222650D01*
X5715943Y-19222650D02*
X5734991Y-19232174D01*
X5734991Y-19232174D02*
X5744515Y-19251222D01*
X5744515Y-19251222D02*
X5744515Y-19355984D01*
X6134991Y-19146460D02*
X5963563Y-19403603D01*
X6392134Y-19155984D02*
X6411182Y-19155984D01*
X6411182Y-19155984D02*
X6430229Y-19165508D01*
X6430229Y-19165508D02*
X6439753Y-19175031D01*
X6439753Y-19175031D02*
X6449277Y-19194079D01*
X6449277Y-19194079D02*
X6458801Y-19232174D01*
X6458801Y-19232174D02*
X6458801Y-19279793D01*
X6458801Y-19279793D02*
X6449277Y-19317889D01*
X6449277Y-19317889D02*
X6439753Y-19336936D01*
X6439753Y-19336936D02*
X6430229Y-19346460D01*
X6430229Y-19346460D02*
X6411182Y-19355984D01*
X6411182Y-19355984D02*
X6392134Y-19355984D01*
X6392134Y-19355984D02*
X6373086Y-19346460D01*
X6373086Y-19346460D02*
X6363563Y-19336936D01*
X6363563Y-19336936D02*
X6354039Y-19317889D01*
X6354039Y-19317889D02*
X6344515Y-19279793D01*
X6344515Y-19279793D02*
X6344515Y-19232174D01*
X6344515Y-19232174D02*
X6354039Y-19194079D01*
X6354039Y-19194079D02*
X6363563Y-19175031D01*
X6363563Y-19175031D02*
X6373086Y-19165508D01*
X6373086Y-19165508D02*
X6392134Y-19155984D01*
X6544515Y-19336936D02*
X6554039Y-19346460D01*
X6554039Y-19346460D02*
X6544515Y-19355984D01*
X6544515Y-19355984D02*
X6534991Y-19346460D01*
X6534991Y-19346460D02*
X6544515Y-19336936D01*
X6544515Y-19336936D02*
X6544515Y-19355984D01*
X6677848Y-19155984D02*
X6696896Y-19155984D01*
X6696896Y-19155984D02*
X6715944Y-19165508D01*
X6715944Y-19165508D02*
X6725467Y-19175031D01*
X6725467Y-19175031D02*
X6734991Y-19194079D01*
X6734991Y-19194079D02*
X6744515Y-19232174D01*
X6744515Y-19232174D02*
X6744515Y-19279793D01*
X6744515Y-19279793D02*
X6734991Y-19317889D01*
X6734991Y-19317889D02*
X6725467Y-19336936D01*
X6725467Y-19336936D02*
X6715944Y-19346460D01*
X6715944Y-19346460D02*
X6696896Y-19355984D01*
X6696896Y-19355984D02*
X6677848Y-19355984D01*
X6677848Y-19355984D02*
X6658801Y-19346460D01*
X6658801Y-19346460D02*
X6649277Y-19336936D01*
X6649277Y-19336936D02*
X6639753Y-19317889D01*
X6639753Y-19317889D02*
X6630229Y-19279793D01*
X6630229Y-19279793D02*
X6630229Y-19232174D01*
X6630229Y-19232174D02*
X6639753Y-19194079D01*
X6639753Y-19194079D02*
X6649277Y-19175031D01*
X6649277Y-19175031D02*
X6658801Y-19165508D01*
X6658801Y-19165508D02*
X6677848Y-19155984D01*
X6925467Y-19155984D02*
X6830229Y-19155984D01*
X6830229Y-19155984D02*
X6820706Y-19251222D01*
X6820706Y-19251222D02*
X6830229Y-19241698D01*
X6830229Y-19241698D02*
X6849277Y-19232174D01*
X6849277Y-19232174D02*
X6896896Y-19232174D01*
X6896896Y-19232174D02*
X6915944Y-19241698D01*
X6915944Y-19241698D02*
X6925467Y-19251222D01*
X6925467Y-19251222D02*
X6934991Y-19270270D01*
X6934991Y-19270270D02*
X6934991Y-19317889D01*
X6934991Y-19317889D02*
X6925467Y-19336936D01*
X6925467Y-19336936D02*
X6915944Y-19346460D01*
X6915944Y-19346460D02*
X6896896Y-19355984D01*
X6896896Y-19355984D02*
X6849277Y-19355984D01*
X6849277Y-19355984D02*
X6830229Y-19346460D01*
X6830229Y-19346460D02*
X6820706Y-19336936D01*
X7011182Y-19175031D02*
X7020706Y-19165508D01*
X7020706Y-19165508D02*
X7039753Y-19155984D01*
X7039753Y-19155984D02*
X7087372Y-19155984D01*
X7087372Y-19155984D02*
X7106420Y-19165508D01*
X7106420Y-19165508D02*
X7115944Y-19175031D01*
X7115944Y-19175031D02*
X7125467Y-19194079D01*
X7125467Y-19194079D02*
X7125467Y-19213127D01*
X7125467Y-19213127D02*
X7115944Y-19241698D01*
X7115944Y-19241698D02*
X7001658Y-19355984D01*
X7001658Y-19355984D02*
X7125467Y-19355984D01*
X7249277Y-19155984D02*
X7268325Y-19155984D01*
X7268325Y-19155984D02*
X7287372Y-19165508D01*
X7287372Y-19165508D02*
X7296896Y-19175031D01*
X7296896Y-19175031D02*
X7306420Y-19194079D01*
X7306420Y-19194079D02*
X7315944Y-19232174D01*
X7315944Y-19232174D02*
X7315944Y-19279793D01*
X7315944Y-19279793D02*
X7306420Y-19317889D01*
X7306420Y-19317889D02*
X7296896Y-19336936D01*
X7296896Y-19336936D02*
X7287372Y-19346460D01*
X7287372Y-19346460D02*
X7268325Y-19355984D01*
X7268325Y-19355984D02*
X7249277Y-19355984D01*
X7249277Y-19355984D02*
X7230229Y-19346460D01*
X7230229Y-19346460D02*
X7220706Y-19336936D01*
X7220706Y-19336936D02*
X7211182Y-19317889D01*
X7211182Y-19317889D02*
X7201658Y-19279793D01*
X7201658Y-19279793D02*
X7201658Y-19232174D01*
X7201658Y-19232174D02*
X7211182Y-19194079D01*
X7211182Y-19194079D02*
X7220706Y-19175031D01*
X7220706Y-19175031D02*
X7230229Y-19165508D01*
X7230229Y-19165508D02*
X7249277Y-19155984D01*
X7392134Y-19155984D02*
X7392134Y-19194079D01*
X7468325Y-19155984D02*
X7468325Y-19194079D01*
X7763563Y-19432174D02*
X7754039Y-19422650D01*
X7754039Y-19422650D02*
X7734991Y-19394079D01*
X7734991Y-19394079D02*
X7725468Y-19375031D01*
X7725468Y-19375031D02*
X7715944Y-19346460D01*
X7715944Y-19346460D02*
X7706420Y-19298841D01*
X7706420Y-19298841D02*
X7706420Y-19260746D01*
X7706420Y-19260746D02*
X7715944Y-19213127D01*
X7715944Y-19213127D02*
X7725468Y-19184555D01*
X7725468Y-19184555D02*
X7734991Y-19165508D01*
X7734991Y-19165508D02*
X7754039Y-19136936D01*
X7754039Y-19136936D02*
X7763563Y-19127412D01*
X7830229Y-19175031D02*
X7839753Y-19165508D01*
X7839753Y-19165508D02*
X7858801Y-19155984D01*
X7858801Y-19155984D02*
X7906420Y-19155984D01*
X7906420Y-19155984D02*
X7925468Y-19165508D01*
X7925468Y-19165508D02*
X7934991Y-19175031D01*
X7934991Y-19175031D02*
X7944515Y-19194079D01*
X7944515Y-19194079D02*
X7944515Y-19213127D01*
X7944515Y-19213127D02*
X7934991Y-19241698D01*
X7934991Y-19241698D02*
X7820706Y-19355984D01*
X7820706Y-19355984D02*
X7944515Y-19355984D01*
X8182610Y-19355984D02*
X8182610Y-19155984D01*
X8268325Y-19355984D02*
X8268325Y-19251222D01*
X8268325Y-19251222D02*
X8258801Y-19232174D01*
X8258801Y-19232174D02*
X8239753Y-19222650D01*
X8239753Y-19222650D02*
X8211182Y-19222650D01*
X8211182Y-19222650D02*
X8192134Y-19232174D01*
X8192134Y-19232174D02*
X8182610Y-19241698D01*
X8392134Y-19355984D02*
X8373087Y-19346460D01*
X8373087Y-19346460D02*
X8363563Y-19336936D01*
X8363563Y-19336936D02*
X8354039Y-19317889D01*
X8354039Y-19317889D02*
X8354039Y-19260746D01*
X8354039Y-19260746D02*
X8363563Y-19241698D01*
X8363563Y-19241698D02*
X8373087Y-19232174D01*
X8373087Y-19232174D02*
X8392134Y-19222650D01*
X8392134Y-19222650D02*
X8420706Y-19222650D01*
X8420706Y-19222650D02*
X8439753Y-19232174D01*
X8439753Y-19232174D02*
X8449277Y-19241698D01*
X8449277Y-19241698D02*
X8458801Y-19260746D01*
X8458801Y-19260746D02*
X8458801Y-19317889D01*
X8458801Y-19317889D02*
X8449277Y-19336936D01*
X8449277Y-19336936D02*
X8439753Y-19346460D01*
X8439753Y-19346460D02*
X8420706Y-19355984D01*
X8420706Y-19355984D02*
X8392134Y-19355984D01*
X8573087Y-19355984D02*
X8554039Y-19346460D01*
X8554039Y-19346460D02*
X8544515Y-19327412D01*
X8544515Y-19327412D02*
X8544515Y-19155984D01*
X8725468Y-19346460D02*
X8706420Y-19355984D01*
X8706420Y-19355984D02*
X8668325Y-19355984D01*
X8668325Y-19355984D02*
X8649277Y-19346460D01*
X8649277Y-19346460D02*
X8639753Y-19327412D01*
X8639753Y-19327412D02*
X8639753Y-19251222D01*
X8639753Y-19251222D02*
X8649277Y-19232174D01*
X8649277Y-19232174D02*
X8668325Y-19222650D01*
X8668325Y-19222650D02*
X8706420Y-19222650D01*
X8706420Y-19222650D02*
X8725468Y-19232174D01*
X8725468Y-19232174D02*
X8734992Y-19251222D01*
X8734992Y-19251222D02*
X8734992Y-19270270D01*
X8734992Y-19270270D02*
X8639753Y-19289317D01*
X8811182Y-19346460D02*
X8830230Y-19355984D01*
X8830230Y-19355984D02*
X8868325Y-19355984D01*
X8868325Y-19355984D02*
X8887373Y-19346460D01*
X8887373Y-19346460D02*
X8896896Y-19327412D01*
X8896896Y-19327412D02*
X8896896Y-19317889D01*
X8896896Y-19317889D02*
X8887373Y-19298841D01*
X8887373Y-19298841D02*
X8868325Y-19289317D01*
X8868325Y-19289317D02*
X8839753Y-19289317D01*
X8839753Y-19289317D02*
X8820706Y-19279793D01*
X8820706Y-19279793D02*
X8811182Y-19260746D01*
X8811182Y-19260746D02*
X8811182Y-19251222D01*
X8811182Y-19251222D02*
X8820706Y-19232174D01*
X8820706Y-19232174D02*
X8839753Y-19222650D01*
X8839753Y-19222650D02*
X8868325Y-19222650D01*
X8868325Y-19222650D02*
X8887373Y-19232174D01*
X8963563Y-19432174D02*
X8973087Y-19422650D01*
X8973087Y-19422650D02*
X8992134Y-19394079D01*
X8992134Y-19394079D02*
X9001658Y-19375031D01*
X9001658Y-19375031D02*
X9011182Y-19346460D01*
X9011182Y-19346460D02*
X9020706Y-19298841D01*
X9020706Y-19298841D02*
X9020706Y-19260746D01*
X9020706Y-19260746D02*
X9011182Y-19213127D01*
X9011182Y-19213127D02*
X9001658Y-19184555D01*
X9001658Y-19184555D02*
X8992134Y-19165508D01*
X8992134Y-19165508D02*
X8973087Y-19136936D01*
X8973087Y-19136936D02*
X8963563Y-19127412D01*
D15*
X4118500Y-19458500D02*
X4118500Y-19598500D01*
X4048500Y-19528500D02*
X4188500Y-19528500D01*
X4188500Y-19528500D02*
G75*
G02*
X4048500Y-19528500I-70000J0D01*
G01*
X4048500Y-19528500D02*
G75*
G02*
X4188500Y-19528500I70000J0D01*
G01*
D11*
X4554039Y-19619984D02*
X4439753Y-19619984D01*
X4496896Y-19619984D02*
X4496896Y-19419984D01*
X4496896Y-19419984D02*
X4477848Y-19448555D01*
X4477848Y-19448555D02*
X4458801Y-19467603D01*
X4458801Y-19467603D02*
X4439753Y-19477127D01*
X4639753Y-19600936D02*
X4649277Y-19610460D01*
X4649277Y-19610460D02*
X4639753Y-19619984D01*
X4639753Y-19619984D02*
X4630229Y-19610460D01*
X4630229Y-19610460D02*
X4639753Y-19600936D01*
X4639753Y-19600936D02*
X4639753Y-19619984D01*
X4820705Y-19486650D02*
X4820705Y-19619984D01*
X4773086Y-19410460D02*
X4725467Y-19553317D01*
X4725467Y-19553317D02*
X4849277Y-19553317D01*
X4963563Y-19419984D02*
X4982610Y-19419984D01*
X4982610Y-19419984D02*
X5001658Y-19429508D01*
X5001658Y-19429508D02*
X5011182Y-19439031D01*
X5011182Y-19439031D02*
X5020705Y-19458079D01*
X5020705Y-19458079D02*
X5030229Y-19496174D01*
X5030229Y-19496174D02*
X5030229Y-19543793D01*
X5030229Y-19543793D02*
X5020705Y-19581889D01*
X5020705Y-19581889D02*
X5011182Y-19600936D01*
X5011182Y-19600936D02*
X5001658Y-19610460D01*
X5001658Y-19610460D02*
X4982610Y-19619984D01*
X4982610Y-19619984D02*
X4963563Y-19619984D01*
X4963563Y-19619984D02*
X4944515Y-19610460D01*
X4944515Y-19610460D02*
X4934991Y-19600936D01*
X4934991Y-19600936D02*
X4925467Y-19581889D01*
X4925467Y-19581889D02*
X4915944Y-19543793D01*
X4915944Y-19543793D02*
X4915944Y-19496174D01*
X4915944Y-19496174D02*
X4925467Y-19458079D01*
X4925467Y-19458079D02*
X4934991Y-19439031D01*
X4934991Y-19439031D02*
X4944515Y-19429508D01*
X4944515Y-19429508D02*
X4963563Y-19419984D01*
X5154039Y-19419984D02*
X5173086Y-19419984D01*
X5173086Y-19419984D02*
X5192134Y-19429508D01*
X5192134Y-19429508D02*
X5201658Y-19439031D01*
X5201658Y-19439031D02*
X5211182Y-19458079D01*
X5211182Y-19458079D02*
X5220705Y-19496174D01*
X5220705Y-19496174D02*
X5220705Y-19543793D01*
X5220705Y-19543793D02*
X5211182Y-19581889D01*
X5211182Y-19581889D02*
X5201658Y-19600936D01*
X5201658Y-19600936D02*
X5192134Y-19610460D01*
X5192134Y-19610460D02*
X5173086Y-19619984D01*
X5173086Y-19619984D02*
X5154039Y-19619984D01*
X5154039Y-19619984D02*
X5134991Y-19610460D01*
X5134991Y-19610460D02*
X5125467Y-19600936D01*
X5125467Y-19600936D02*
X5115944Y-19581889D01*
X5115944Y-19581889D02*
X5106420Y-19543793D01*
X5106420Y-19543793D02*
X5106420Y-19496174D01*
X5106420Y-19496174D02*
X5115944Y-19458079D01*
X5115944Y-19458079D02*
X5125467Y-19439031D01*
X5125467Y-19439031D02*
X5134991Y-19429508D01*
X5134991Y-19429508D02*
X5154039Y-19419984D01*
X5306420Y-19619984D02*
X5306420Y-19486650D01*
X5306420Y-19505698D02*
X5315944Y-19496174D01*
X5315944Y-19496174D02*
X5334991Y-19486650D01*
X5334991Y-19486650D02*
X5363563Y-19486650D01*
X5363563Y-19486650D02*
X5382610Y-19496174D01*
X5382610Y-19496174D02*
X5392134Y-19515222D01*
X5392134Y-19515222D02*
X5392134Y-19619984D01*
X5392134Y-19515222D02*
X5401658Y-19496174D01*
X5401658Y-19496174D02*
X5420705Y-19486650D01*
X5420705Y-19486650D02*
X5449277Y-19486650D01*
X5449277Y-19486650D02*
X5468325Y-19496174D01*
X5468325Y-19496174D02*
X5477848Y-19515222D01*
X5477848Y-19515222D02*
X5477848Y-19619984D01*
X5573086Y-19619984D02*
X5573086Y-19486650D01*
X5573086Y-19505698D02*
X5582610Y-19496174D01*
X5582610Y-19496174D02*
X5601658Y-19486650D01*
X5601658Y-19486650D02*
X5630229Y-19486650D01*
X5630229Y-19486650D02*
X5649277Y-19496174D01*
X5649277Y-19496174D02*
X5658801Y-19515222D01*
X5658801Y-19515222D02*
X5658801Y-19619984D01*
X5658801Y-19515222D02*
X5668324Y-19496174D01*
X5668324Y-19496174D02*
X5687372Y-19486650D01*
X5687372Y-19486650D02*
X5715943Y-19486650D01*
X5715943Y-19486650D02*
X5734991Y-19496174D01*
X5734991Y-19496174D02*
X5744515Y-19515222D01*
X5744515Y-19515222D02*
X5744515Y-19619984D01*
X6134991Y-19410460D02*
X5963563Y-19667603D01*
X6392134Y-19419984D02*
X6411182Y-19419984D01*
X6411182Y-19419984D02*
X6430229Y-19429508D01*
X6430229Y-19429508D02*
X6439753Y-19439031D01*
X6439753Y-19439031D02*
X6449277Y-19458079D01*
X6449277Y-19458079D02*
X6458801Y-19496174D01*
X6458801Y-19496174D02*
X6458801Y-19543793D01*
X6458801Y-19543793D02*
X6449277Y-19581889D01*
X6449277Y-19581889D02*
X6439753Y-19600936D01*
X6439753Y-19600936D02*
X6430229Y-19610460D01*
X6430229Y-19610460D02*
X6411182Y-19619984D01*
X6411182Y-19619984D02*
X6392134Y-19619984D01*
X6392134Y-19619984D02*
X6373086Y-19610460D01*
X6373086Y-19610460D02*
X6363563Y-19600936D01*
X6363563Y-19600936D02*
X6354039Y-19581889D01*
X6354039Y-19581889D02*
X6344515Y-19543793D01*
X6344515Y-19543793D02*
X6344515Y-19496174D01*
X6344515Y-19496174D02*
X6354039Y-19458079D01*
X6354039Y-19458079D02*
X6363563Y-19439031D01*
X6363563Y-19439031D02*
X6373086Y-19429508D01*
X6373086Y-19429508D02*
X6392134Y-19419984D01*
X6544515Y-19600936D02*
X6554039Y-19610460D01*
X6554039Y-19610460D02*
X6544515Y-19619984D01*
X6544515Y-19619984D02*
X6534991Y-19610460D01*
X6534991Y-19610460D02*
X6544515Y-19600936D01*
X6544515Y-19600936D02*
X6544515Y-19619984D01*
X6677848Y-19419984D02*
X6696896Y-19419984D01*
X6696896Y-19419984D02*
X6715944Y-19429508D01*
X6715944Y-19429508D02*
X6725467Y-19439031D01*
X6725467Y-19439031D02*
X6734991Y-19458079D01*
X6734991Y-19458079D02*
X6744515Y-19496174D01*
X6744515Y-19496174D02*
X6744515Y-19543793D01*
X6744515Y-19543793D02*
X6734991Y-19581889D01*
X6734991Y-19581889D02*
X6725467Y-19600936D01*
X6725467Y-19600936D02*
X6715944Y-19610460D01*
X6715944Y-19610460D02*
X6696896Y-19619984D01*
X6696896Y-19619984D02*
X6677848Y-19619984D01*
X6677848Y-19619984D02*
X6658801Y-19610460D01*
X6658801Y-19610460D02*
X6649277Y-19600936D01*
X6649277Y-19600936D02*
X6639753Y-19581889D01*
X6639753Y-19581889D02*
X6630229Y-19543793D01*
X6630229Y-19543793D02*
X6630229Y-19496174D01*
X6630229Y-19496174D02*
X6639753Y-19458079D01*
X6639753Y-19458079D02*
X6649277Y-19439031D01*
X6649277Y-19439031D02*
X6658801Y-19429508D01*
X6658801Y-19429508D02*
X6677848Y-19419984D01*
X6925467Y-19419984D02*
X6830229Y-19419984D01*
X6830229Y-19419984D02*
X6820706Y-19515222D01*
X6820706Y-19515222D02*
X6830229Y-19505698D01*
X6830229Y-19505698D02*
X6849277Y-19496174D01*
X6849277Y-19496174D02*
X6896896Y-19496174D01*
X6896896Y-19496174D02*
X6915944Y-19505698D01*
X6915944Y-19505698D02*
X6925467Y-19515222D01*
X6925467Y-19515222D02*
X6934991Y-19534270D01*
X6934991Y-19534270D02*
X6934991Y-19581889D01*
X6934991Y-19581889D02*
X6925467Y-19600936D01*
X6925467Y-19600936D02*
X6915944Y-19610460D01*
X6915944Y-19610460D02*
X6896896Y-19619984D01*
X6896896Y-19619984D02*
X6849277Y-19619984D01*
X6849277Y-19619984D02*
X6830229Y-19610460D01*
X6830229Y-19610460D02*
X6820706Y-19600936D01*
X7115944Y-19419984D02*
X7020706Y-19419984D01*
X7020706Y-19419984D02*
X7011182Y-19515222D01*
X7011182Y-19515222D02*
X7020706Y-19505698D01*
X7020706Y-19505698D02*
X7039753Y-19496174D01*
X7039753Y-19496174D02*
X7087372Y-19496174D01*
X7087372Y-19496174D02*
X7106420Y-19505698D01*
X7106420Y-19505698D02*
X7115944Y-19515222D01*
X7115944Y-19515222D02*
X7125467Y-19534270D01*
X7125467Y-19534270D02*
X7125467Y-19581889D01*
X7125467Y-19581889D02*
X7115944Y-19600936D01*
X7115944Y-19600936D02*
X7106420Y-19610460D01*
X7106420Y-19610460D02*
X7087372Y-19619984D01*
X7087372Y-19619984D02*
X7039753Y-19619984D01*
X7039753Y-19619984D02*
X7020706Y-19610460D01*
X7020706Y-19610460D02*
X7011182Y-19600936D01*
X7315944Y-19619984D02*
X7201658Y-19619984D01*
X7258801Y-19619984D02*
X7258801Y-19419984D01*
X7258801Y-19419984D02*
X7239753Y-19448555D01*
X7239753Y-19448555D02*
X7220706Y-19467603D01*
X7220706Y-19467603D02*
X7201658Y-19477127D01*
X7392134Y-19419984D02*
X7392134Y-19458079D01*
X7468325Y-19419984D02*
X7468325Y-19458079D01*
X7763563Y-19696174D02*
X7754039Y-19686650D01*
X7754039Y-19686650D02*
X7734991Y-19658079D01*
X7734991Y-19658079D02*
X7725468Y-19639031D01*
X7725468Y-19639031D02*
X7715944Y-19610460D01*
X7715944Y-19610460D02*
X7706420Y-19562841D01*
X7706420Y-19562841D02*
X7706420Y-19524746D01*
X7706420Y-19524746D02*
X7715944Y-19477127D01*
X7715944Y-19477127D02*
X7725468Y-19448555D01*
X7725468Y-19448555D02*
X7734991Y-19429508D01*
X7734991Y-19429508D02*
X7754039Y-19400936D01*
X7754039Y-19400936D02*
X7763563Y-19391412D01*
X7944515Y-19619984D02*
X7830229Y-19619984D01*
X7887372Y-19619984D02*
X7887372Y-19419984D01*
X7887372Y-19419984D02*
X7868325Y-19448555D01*
X7868325Y-19448555D02*
X7849277Y-19467603D01*
X7849277Y-19467603D02*
X7830229Y-19477127D01*
X8020706Y-19439031D02*
X8030229Y-19429508D01*
X8030229Y-19429508D02*
X8049277Y-19419984D01*
X8049277Y-19419984D02*
X8096896Y-19419984D01*
X8096896Y-19419984D02*
X8115944Y-19429508D01*
X8115944Y-19429508D02*
X8125468Y-19439031D01*
X8125468Y-19439031D02*
X8134991Y-19458079D01*
X8134991Y-19458079D02*
X8134991Y-19477127D01*
X8134991Y-19477127D02*
X8125468Y-19505698D01*
X8125468Y-19505698D02*
X8011182Y-19619984D01*
X8011182Y-19619984D02*
X8134991Y-19619984D01*
X8373087Y-19619984D02*
X8373087Y-19419984D01*
X8458801Y-19619984D02*
X8458801Y-19515222D01*
X8458801Y-19515222D02*
X8449277Y-19496174D01*
X8449277Y-19496174D02*
X8430230Y-19486650D01*
X8430230Y-19486650D02*
X8401658Y-19486650D01*
X8401658Y-19486650D02*
X8382610Y-19496174D01*
X8382610Y-19496174D02*
X8373087Y-19505698D01*
X8582611Y-19619984D02*
X8563563Y-19610460D01*
X8563563Y-19610460D02*
X8554039Y-19600936D01*
X8554039Y-19600936D02*
X8544515Y-19581889D01*
X8544515Y-19581889D02*
X8544515Y-19524746D01*
X8544515Y-19524746D02*
X8554039Y-19505698D01*
X8554039Y-19505698D02*
X8563563Y-19496174D01*
X8563563Y-19496174D02*
X8582611Y-19486650D01*
X8582611Y-19486650D02*
X8611182Y-19486650D01*
X8611182Y-19486650D02*
X8630230Y-19496174D01*
X8630230Y-19496174D02*
X8639753Y-19505698D01*
X8639753Y-19505698D02*
X8649277Y-19524746D01*
X8649277Y-19524746D02*
X8649277Y-19581889D01*
X8649277Y-19581889D02*
X8639753Y-19600936D01*
X8639753Y-19600936D02*
X8630230Y-19610460D01*
X8630230Y-19610460D02*
X8611182Y-19619984D01*
X8611182Y-19619984D02*
X8582611Y-19619984D01*
X8763563Y-19619984D02*
X8744515Y-19610460D01*
X8744515Y-19610460D02*
X8734992Y-19591412D01*
X8734992Y-19591412D02*
X8734992Y-19419984D01*
X8915944Y-19610460D02*
X8896896Y-19619984D01*
X8896896Y-19619984D02*
X8858801Y-19619984D01*
X8858801Y-19619984D02*
X8839753Y-19610460D01*
X8839753Y-19610460D02*
X8830230Y-19591412D01*
X8830230Y-19591412D02*
X8830230Y-19515222D01*
X8830230Y-19515222D02*
X8839753Y-19496174D01*
X8839753Y-19496174D02*
X8858801Y-19486650D01*
X8858801Y-19486650D02*
X8896896Y-19486650D01*
X8896896Y-19486650D02*
X8915944Y-19496174D01*
X8915944Y-19496174D02*
X8925468Y-19515222D01*
X8925468Y-19515222D02*
X8925468Y-19534270D01*
X8925468Y-19534270D02*
X8830230Y-19553317D01*
X9001658Y-19610460D02*
X9020706Y-19619984D01*
X9020706Y-19619984D02*
X9058801Y-19619984D01*
X9058801Y-19619984D02*
X9077849Y-19610460D01*
X9077849Y-19610460D02*
X9087373Y-19591412D01*
X9087373Y-19591412D02*
X9087373Y-19581889D01*
X9087373Y-19581889D02*
X9077849Y-19562841D01*
X9077849Y-19562841D02*
X9058801Y-19553317D01*
X9058801Y-19553317D02*
X9030230Y-19553317D01*
X9030230Y-19553317D02*
X9011182Y-19543793D01*
X9011182Y-19543793D02*
X9001658Y-19524746D01*
X9001658Y-19524746D02*
X9001658Y-19515222D01*
X9001658Y-19515222D02*
X9011182Y-19496174D01*
X9011182Y-19496174D02*
X9030230Y-19486650D01*
X9030230Y-19486650D02*
X9058801Y-19486650D01*
X9058801Y-19486650D02*
X9077849Y-19496174D01*
X9154039Y-19696174D02*
X9163563Y-19686650D01*
X9163563Y-19686650D02*
X9182611Y-19658079D01*
X9182611Y-19658079D02*
X9192134Y-19639031D01*
X9192134Y-19639031D02*
X9201658Y-19610460D01*
X9201658Y-19610460D02*
X9211182Y-19562841D01*
X9211182Y-19562841D02*
X9211182Y-19524746D01*
X9211182Y-19524746D02*
X9201658Y-19477127D01*
X9201658Y-19477127D02*
X9192134Y-19448555D01*
X9192134Y-19448555D02*
X9182611Y-19429508D01*
X9182611Y-19429508D02*
X9163563Y-19400936D01*
X9163563Y-19400936D02*
X9154039Y-19391412D01*
D16*
X4165069Y-19849069D02*
X4165069Y-19735931D01*
X4051931Y-19735931D01*
X4051931Y-19849069D01*
X4165069Y-19849069D01*
X4188500Y-19792500D02*
G75*
G02*
X4028500Y-19792500I-80000J0D01*
G01*
X4028500Y-19792500D02*
G75*
G02*
X4188500Y-19792500I80000J0D01*
G01*
D11*
X4554039Y-19883984D02*
X4439753Y-19883984D01*
X4496896Y-19883984D02*
X4496896Y-19683984D01*
X4496896Y-19683984D02*
X4477848Y-19712555D01*
X4477848Y-19712555D02*
X4458801Y-19731603D01*
X4458801Y-19731603D02*
X4439753Y-19741127D01*
X4639753Y-19864936D02*
X4649277Y-19874460D01*
X4649277Y-19874460D02*
X4639753Y-19883984D01*
X4639753Y-19883984D02*
X4630229Y-19874460D01*
X4630229Y-19874460D02*
X4639753Y-19864936D01*
X4639753Y-19864936D02*
X4639753Y-19883984D01*
X4820705Y-19683984D02*
X4782610Y-19683984D01*
X4782610Y-19683984D02*
X4763563Y-19693508D01*
X4763563Y-19693508D02*
X4754039Y-19703031D01*
X4754039Y-19703031D02*
X4734991Y-19731603D01*
X4734991Y-19731603D02*
X4725467Y-19769698D01*
X4725467Y-19769698D02*
X4725467Y-19845889D01*
X4725467Y-19845889D02*
X4734991Y-19864936D01*
X4734991Y-19864936D02*
X4744515Y-19874460D01*
X4744515Y-19874460D02*
X4763563Y-19883984D01*
X4763563Y-19883984D02*
X4801658Y-19883984D01*
X4801658Y-19883984D02*
X4820705Y-19874460D01*
X4820705Y-19874460D02*
X4830229Y-19864936D01*
X4830229Y-19864936D02*
X4839753Y-19845889D01*
X4839753Y-19845889D02*
X4839753Y-19798270D01*
X4839753Y-19798270D02*
X4830229Y-19779222D01*
X4830229Y-19779222D02*
X4820705Y-19769698D01*
X4820705Y-19769698D02*
X4801658Y-19760174D01*
X4801658Y-19760174D02*
X4763563Y-19760174D01*
X4763563Y-19760174D02*
X4744515Y-19769698D01*
X4744515Y-19769698D02*
X4734991Y-19779222D01*
X4734991Y-19779222D02*
X4725467Y-19798270D01*
X4963563Y-19683984D02*
X4982610Y-19683984D01*
X4982610Y-19683984D02*
X5001658Y-19693508D01*
X5001658Y-19693508D02*
X5011182Y-19703031D01*
X5011182Y-19703031D02*
X5020705Y-19722079D01*
X5020705Y-19722079D02*
X5030229Y-19760174D01*
X5030229Y-19760174D02*
X5030229Y-19807793D01*
X5030229Y-19807793D02*
X5020705Y-19845889D01*
X5020705Y-19845889D02*
X5011182Y-19864936D01*
X5011182Y-19864936D02*
X5001658Y-19874460D01*
X5001658Y-19874460D02*
X4982610Y-19883984D01*
X4982610Y-19883984D02*
X4963563Y-19883984D01*
X4963563Y-19883984D02*
X4944515Y-19874460D01*
X4944515Y-19874460D02*
X4934991Y-19864936D01*
X4934991Y-19864936D02*
X4925467Y-19845889D01*
X4925467Y-19845889D02*
X4915944Y-19807793D01*
X4915944Y-19807793D02*
X4915944Y-19760174D01*
X4915944Y-19760174D02*
X4925467Y-19722079D01*
X4925467Y-19722079D02*
X4934991Y-19703031D01*
X4934991Y-19703031D02*
X4944515Y-19693508D01*
X4944515Y-19693508D02*
X4963563Y-19683984D01*
X5154039Y-19683984D02*
X5173086Y-19683984D01*
X5173086Y-19683984D02*
X5192134Y-19693508D01*
X5192134Y-19693508D02*
X5201658Y-19703031D01*
X5201658Y-19703031D02*
X5211182Y-19722079D01*
X5211182Y-19722079D02*
X5220705Y-19760174D01*
X5220705Y-19760174D02*
X5220705Y-19807793D01*
X5220705Y-19807793D02*
X5211182Y-19845889D01*
X5211182Y-19845889D02*
X5201658Y-19864936D01*
X5201658Y-19864936D02*
X5192134Y-19874460D01*
X5192134Y-19874460D02*
X5173086Y-19883984D01*
X5173086Y-19883984D02*
X5154039Y-19883984D01*
X5154039Y-19883984D02*
X5134991Y-19874460D01*
X5134991Y-19874460D02*
X5125467Y-19864936D01*
X5125467Y-19864936D02*
X5115944Y-19845889D01*
X5115944Y-19845889D02*
X5106420Y-19807793D01*
X5106420Y-19807793D02*
X5106420Y-19760174D01*
X5106420Y-19760174D02*
X5115944Y-19722079D01*
X5115944Y-19722079D02*
X5125467Y-19703031D01*
X5125467Y-19703031D02*
X5134991Y-19693508D01*
X5134991Y-19693508D02*
X5154039Y-19683984D01*
X5306420Y-19883984D02*
X5306420Y-19750650D01*
X5306420Y-19769698D02*
X5315944Y-19760174D01*
X5315944Y-19760174D02*
X5334991Y-19750650D01*
X5334991Y-19750650D02*
X5363563Y-19750650D01*
X5363563Y-19750650D02*
X5382610Y-19760174D01*
X5382610Y-19760174D02*
X5392134Y-19779222D01*
X5392134Y-19779222D02*
X5392134Y-19883984D01*
X5392134Y-19779222D02*
X5401658Y-19760174D01*
X5401658Y-19760174D02*
X5420705Y-19750650D01*
X5420705Y-19750650D02*
X5449277Y-19750650D01*
X5449277Y-19750650D02*
X5468325Y-19760174D01*
X5468325Y-19760174D02*
X5477848Y-19779222D01*
X5477848Y-19779222D02*
X5477848Y-19883984D01*
X5573086Y-19883984D02*
X5573086Y-19750650D01*
X5573086Y-19769698D02*
X5582610Y-19760174D01*
X5582610Y-19760174D02*
X5601658Y-19750650D01*
X5601658Y-19750650D02*
X5630229Y-19750650D01*
X5630229Y-19750650D02*
X5649277Y-19760174D01*
X5649277Y-19760174D02*
X5658801Y-19779222D01*
X5658801Y-19779222D02*
X5658801Y-19883984D01*
X5658801Y-19779222D02*
X5668324Y-19760174D01*
X5668324Y-19760174D02*
X5687372Y-19750650D01*
X5687372Y-19750650D02*
X5715943Y-19750650D01*
X5715943Y-19750650D02*
X5734991Y-19760174D01*
X5734991Y-19760174D02*
X5744515Y-19779222D01*
X5744515Y-19779222D02*
X5744515Y-19883984D01*
X6134991Y-19674460D02*
X5963563Y-19931603D01*
X6392134Y-19683984D02*
X6411182Y-19683984D01*
X6411182Y-19683984D02*
X6430229Y-19693508D01*
X6430229Y-19693508D02*
X6439753Y-19703031D01*
X6439753Y-19703031D02*
X6449277Y-19722079D01*
X6449277Y-19722079D02*
X6458801Y-19760174D01*
X6458801Y-19760174D02*
X6458801Y-19807793D01*
X6458801Y-19807793D02*
X6449277Y-19845889D01*
X6449277Y-19845889D02*
X6439753Y-19864936D01*
X6439753Y-19864936D02*
X6430229Y-19874460D01*
X6430229Y-19874460D02*
X6411182Y-19883984D01*
X6411182Y-19883984D02*
X6392134Y-19883984D01*
X6392134Y-19883984D02*
X6373086Y-19874460D01*
X6373086Y-19874460D02*
X6363563Y-19864936D01*
X6363563Y-19864936D02*
X6354039Y-19845889D01*
X6354039Y-19845889D02*
X6344515Y-19807793D01*
X6344515Y-19807793D02*
X6344515Y-19760174D01*
X6344515Y-19760174D02*
X6354039Y-19722079D01*
X6354039Y-19722079D02*
X6363563Y-19703031D01*
X6363563Y-19703031D02*
X6373086Y-19693508D01*
X6373086Y-19693508D02*
X6392134Y-19683984D01*
X6544515Y-19864936D02*
X6554039Y-19874460D01*
X6554039Y-19874460D02*
X6544515Y-19883984D01*
X6544515Y-19883984D02*
X6534991Y-19874460D01*
X6534991Y-19874460D02*
X6544515Y-19864936D01*
X6544515Y-19864936D02*
X6544515Y-19883984D01*
X6677848Y-19683984D02*
X6696896Y-19683984D01*
X6696896Y-19683984D02*
X6715944Y-19693508D01*
X6715944Y-19693508D02*
X6725467Y-19703031D01*
X6725467Y-19703031D02*
X6734991Y-19722079D01*
X6734991Y-19722079D02*
X6744515Y-19760174D01*
X6744515Y-19760174D02*
X6744515Y-19807793D01*
X6744515Y-19807793D02*
X6734991Y-19845889D01*
X6734991Y-19845889D02*
X6725467Y-19864936D01*
X6725467Y-19864936D02*
X6715944Y-19874460D01*
X6715944Y-19874460D02*
X6696896Y-19883984D01*
X6696896Y-19883984D02*
X6677848Y-19883984D01*
X6677848Y-19883984D02*
X6658801Y-19874460D01*
X6658801Y-19874460D02*
X6649277Y-19864936D01*
X6649277Y-19864936D02*
X6639753Y-19845889D01*
X6639753Y-19845889D02*
X6630229Y-19807793D01*
X6630229Y-19807793D02*
X6630229Y-19760174D01*
X6630229Y-19760174D02*
X6639753Y-19722079D01*
X6639753Y-19722079D02*
X6649277Y-19703031D01*
X6649277Y-19703031D02*
X6658801Y-19693508D01*
X6658801Y-19693508D02*
X6677848Y-19683984D01*
X6915944Y-19683984D02*
X6877848Y-19683984D01*
X6877848Y-19683984D02*
X6858801Y-19693508D01*
X6858801Y-19693508D02*
X6849277Y-19703031D01*
X6849277Y-19703031D02*
X6830229Y-19731603D01*
X6830229Y-19731603D02*
X6820706Y-19769698D01*
X6820706Y-19769698D02*
X6820706Y-19845889D01*
X6820706Y-19845889D02*
X6830229Y-19864936D01*
X6830229Y-19864936D02*
X6839753Y-19874460D01*
X6839753Y-19874460D02*
X6858801Y-19883984D01*
X6858801Y-19883984D02*
X6896896Y-19883984D01*
X6896896Y-19883984D02*
X6915944Y-19874460D01*
X6915944Y-19874460D02*
X6925467Y-19864936D01*
X6925467Y-19864936D02*
X6934991Y-19845889D01*
X6934991Y-19845889D02*
X6934991Y-19798270D01*
X6934991Y-19798270D02*
X6925467Y-19779222D01*
X6925467Y-19779222D02*
X6915944Y-19769698D01*
X6915944Y-19769698D02*
X6896896Y-19760174D01*
X6896896Y-19760174D02*
X6858801Y-19760174D01*
X6858801Y-19760174D02*
X6839753Y-19769698D01*
X6839753Y-19769698D02*
X6830229Y-19779222D01*
X6830229Y-19779222D02*
X6820706Y-19798270D01*
X7001658Y-19683984D02*
X7125467Y-19683984D01*
X7125467Y-19683984D02*
X7058801Y-19760174D01*
X7058801Y-19760174D02*
X7087372Y-19760174D01*
X7087372Y-19760174D02*
X7106420Y-19769698D01*
X7106420Y-19769698D02*
X7115944Y-19779222D01*
X7115944Y-19779222D02*
X7125467Y-19798270D01*
X7125467Y-19798270D02*
X7125467Y-19845889D01*
X7125467Y-19845889D02*
X7115944Y-19864936D01*
X7115944Y-19864936D02*
X7106420Y-19874460D01*
X7106420Y-19874460D02*
X7087372Y-19883984D01*
X7087372Y-19883984D02*
X7030229Y-19883984D01*
X7030229Y-19883984D02*
X7011182Y-19874460D01*
X7011182Y-19874460D02*
X7001658Y-19864936D01*
X7249277Y-19683984D02*
X7268325Y-19683984D01*
X7268325Y-19683984D02*
X7287372Y-19693508D01*
X7287372Y-19693508D02*
X7296896Y-19703031D01*
X7296896Y-19703031D02*
X7306420Y-19722079D01*
X7306420Y-19722079D02*
X7315944Y-19760174D01*
X7315944Y-19760174D02*
X7315944Y-19807793D01*
X7315944Y-19807793D02*
X7306420Y-19845889D01*
X7306420Y-19845889D02*
X7296896Y-19864936D01*
X7296896Y-19864936D02*
X7287372Y-19874460D01*
X7287372Y-19874460D02*
X7268325Y-19883984D01*
X7268325Y-19883984D02*
X7249277Y-19883984D01*
X7249277Y-19883984D02*
X7230229Y-19874460D01*
X7230229Y-19874460D02*
X7220706Y-19864936D01*
X7220706Y-19864936D02*
X7211182Y-19845889D01*
X7211182Y-19845889D02*
X7201658Y-19807793D01*
X7201658Y-19807793D02*
X7201658Y-19760174D01*
X7201658Y-19760174D02*
X7211182Y-19722079D01*
X7211182Y-19722079D02*
X7220706Y-19703031D01*
X7220706Y-19703031D02*
X7230229Y-19693508D01*
X7230229Y-19693508D02*
X7249277Y-19683984D01*
X7392134Y-19683984D02*
X7392134Y-19722079D01*
X7468325Y-19683984D02*
X7468325Y-19722079D01*
X7763563Y-19960174D02*
X7754039Y-19950650D01*
X7754039Y-19950650D02*
X7734991Y-19922079D01*
X7734991Y-19922079D02*
X7725468Y-19903031D01*
X7725468Y-19903031D02*
X7715944Y-19874460D01*
X7715944Y-19874460D02*
X7706420Y-19826841D01*
X7706420Y-19826841D02*
X7706420Y-19788746D01*
X7706420Y-19788746D02*
X7715944Y-19741127D01*
X7715944Y-19741127D02*
X7725468Y-19712555D01*
X7725468Y-19712555D02*
X7734991Y-19693508D01*
X7734991Y-19693508D02*
X7754039Y-19664936D01*
X7754039Y-19664936D02*
X7763563Y-19655412D01*
X7944515Y-19883984D02*
X7830229Y-19883984D01*
X7887372Y-19883984D02*
X7887372Y-19683984D01*
X7887372Y-19683984D02*
X7868325Y-19712555D01*
X7868325Y-19712555D02*
X7849277Y-19731603D01*
X7849277Y-19731603D02*
X7830229Y-19741127D01*
X8115944Y-19683984D02*
X8077848Y-19683984D01*
X8077848Y-19683984D02*
X8058801Y-19693508D01*
X8058801Y-19693508D02*
X8049277Y-19703031D01*
X8049277Y-19703031D02*
X8030229Y-19731603D01*
X8030229Y-19731603D02*
X8020706Y-19769698D01*
X8020706Y-19769698D02*
X8020706Y-19845889D01*
X8020706Y-19845889D02*
X8030229Y-19864936D01*
X8030229Y-19864936D02*
X8039753Y-19874460D01*
X8039753Y-19874460D02*
X8058801Y-19883984D01*
X8058801Y-19883984D02*
X8096896Y-19883984D01*
X8096896Y-19883984D02*
X8115944Y-19874460D01*
X8115944Y-19874460D02*
X8125468Y-19864936D01*
X8125468Y-19864936D02*
X8134991Y-19845889D01*
X8134991Y-19845889D02*
X8134991Y-19798270D01*
X8134991Y-19798270D02*
X8125468Y-19779222D01*
X8125468Y-19779222D02*
X8115944Y-19769698D01*
X8115944Y-19769698D02*
X8096896Y-19760174D01*
X8096896Y-19760174D02*
X8058801Y-19760174D01*
X8058801Y-19760174D02*
X8039753Y-19769698D01*
X8039753Y-19769698D02*
X8030229Y-19779222D01*
X8030229Y-19779222D02*
X8020706Y-19798270D01*
X8373087Y-19883984D02*
X8373087Y-19683984D01*
X8458801Y-19883984D02*
X8458801Y-19779222D01*
X8458801Y-19779222D02*
X8449277Y-19760174D01*
X8449277Y-19760174D02*
X8430230Y-19750650D01*
X8430230Y-19750650D02*
X8401658Y-19750650D01*
X8401658Y-19750650D02*
X8382610Y-19760174D01*
X8382610Y-19760174D02*
X8373087Y-19769698D01*
X8582611Y-19883984D02*
X8563563Y-19874460D01*
X8563563Y-19874460D02*
X8554039Y-19864936D01*
X8554039Y-19864936D02*
X8544515Y-19845889D01*
X8544515Y-19845889D02*
X8544515Y-19788746D01*
X8544515Y-19788746D02*
X8554039Y-19769698D01*
X8554039Y-19769698D02*
X8563563Y-19760174D01*
X8563563Y-19760174D02*
X8582611Y-19750650D01*
X8582611Y-19750650D02*
X8611182Y-19750650D01*
X8611182Y-19750650D02*
X8630230Y-19760174D01*
X8630230Y-19760174D02*
X8639753Y-19769698D01*
X8639753Y-19769698D02*
X8649277Y-19788746D01*
X8649277Y-19788746D02*
X8649277Y-19845889D01*
X8649277Y-19845889D02*
X8639753Y-19864936D01*
X8639753Y-19864936D02*
X8630230Y-19874460D01*
X8630230Y-19874460D02*
X8611182Y-19883984D01*
X8611182Y-19883984D02*
X8582611Y-19883984D01*
X8763563Y-19883984D02*
X8744515Y-19874460D01*
X8744515Y-19874460D02*
X8734992Y-19855412D01*
X8734992Y-19855412D02*
X8734992Y-19683984D01*
X8915944Y-19874460D02*
X8896896Y-19883984D01*
X8896896Y-19883984D02*
X8858801Y-19883984D01*
X8858801Y-19883984D02*
X8839753Y-19874460D01*
X8839753Y-19874460D02*
X8830230Y-19855412D01*
X8830230Y-19855412D02*
X8830230Y-19779222D01*
X8830230Y-19779222D02*
X8839753Y-19760174D01*
X8839753Y-19760174D02*
X8858801Y-19750650D01*
X8858801Y-19750650D02*
X8896896Y-19750650D01*
X8896896Y-19750650D02*
X8915944Y-19760174D01*
X8915944Y-19760174D02*
X8925468Y-19779222D01*
X8925468Y-19779222D02*
X8925468Y-19798270D01*
X8925468Y-19798270D02*
X8830230Y-19817317D01*
X9001658Y-19874460D02*
X9020706Y-19883984D01*
X9020706Y-19883984D02*
X9058801Y-19883984D01*
X9058801Y-19883984D02*
X9077849Y-19874460D01*
X9077849Y-19874460D02*
X9087373Y-19855412D01*
X9087373Y-19855412D02*
X9087373Y-19845889D01*
X9087373Y-19845889D02*
X9077849Y-19826841D01*
X9077849Y-19826841D02*
X9058801Y-19817317D01*
X9058801Y-19817317D02*
X9030230Y-19817317D01*
X9030230Y-19817317D02*
X9011182Y-19807793D01*
X9011182Y-19807793D02*
X9001658Y-19788746D01*
X9001658Y-19788746D02*
X9001658Y-19779222D01*
X9001658Y-19779222D02*
X9011182Y-19760174D01*
X9011182Y-19760174D02*
X9030230Y-19750650D01*
X9030230Y-19750650D02*
X9058801Y-19750650D01*
X9058801Y-19750650D02*
X9077849Y-19760174D01*
X9154039Y-19960174D02*
X9163563Y-19950650D01*
X9163563Y-19950650D02*
X9182611Y-19922079D01*
X9182611Y-19922079D02*
X9192134Y-19903031D01*
X9192134Y-19903031D02*
X9201658Y-19874460D01*
X9201658Y-19874460D02*
X9211182Y-19826841D01*
X9211182Y-19826841D02*
X9211182Y-19788746D01*
X9211182Y-19788746D02*
X9201658Y-19741127D01*
X9201658Y-19741127D02*
X9192134Y-19712555D01*
X9192134Y-19712555D02*
X9182611Y-19693508D01*
X9182611Y-19693508D02*
X9163563Y-19664936D01*
X9163563Y-19664936D02*
X9154039Y-19655412D01*
D17*
X4099500Y-20161500D02*
X4188500Y-20072500D01*
X4099500Y-19983500D01*
X4010500Y-20072500D01*
X4099500Y-20161500D01*
X4188500Y-20072500D02*
G75*
G02*
X4010500Y-20072500I-89000J0D01*
G01*
X4010500Y-20072500D02*
G75*
G02*
X4188500Y-20072500I89000J0D01*
G01*
D11*
X4554039Y-20163984D02*
X4439753Y-20163984D01*
X4496896Y-20163984D02*
X4496896Y-19963984D01*
X4496896Y-19963984D02*
X4477848Y-19992555D01*
X4477848Y-19992555D02*
X4458801Y-20011603D01*
X4458801Y-20011603D02*
X4439753Y-20021127D01*
X4639753Y-20144936D02*
X4649277Y-20154460D01*
X4649277Y-20154460D02*
X4639753Y-20163984D01*
X4639753Y-20163984D02*
X4630229Y-20154460D01*
X4630229Y-20154460D02*
X4639753Y-20144936D01*
X4639753Y-20144936D02*
X4639753Y-20163984D01*
X4715944Y-19963984D02*
X4849277Y-19963984D01*
X4849277Y-19963984D02*
X4763563Y-20163984D01*
X4954039Y-20049698D02*
X4934991Y-20040174D01*
X4934991Y-20040174D02*
X4925467Y-20030650D01*
X4925467Y-20030650D02*
X4915944Y-20011603D01*
X4915944Y-20011603D02*
X4915944Y-20002079D01*
X4915944Y-20002079D02*
X4925467Y-19983031D01*
X4925467Y-19983031D02*
X4934991Y-19973508D01*
X4934991Y-19973508D02*
X4954039Y-19963984D01*
X4954039Y-19963984D02*
X4992134Y-19963984D01*
X4992134Y-19963984D02*
X5011182Y-19973508D01*
X5011182Y-19973508D02*
X5020705Y-19983031D01*
X5020705Y-19983031D02*
X5030229Y-20002079D01*
X5030229Y-20002079D02*
X5030229Y-20011603D01*
X5030229Y-20011603D02*
X5020705Y-20030650D01*
X5020705Y-20030650D02*
X5011182Y-20040174D01*
X5011182Y-20040174D02*
X4992134Y-20049698D01*
X4992134Y-20049698D02*
X4954039Y-20049698D01*
X4954039Y-20049698D02*
X4934991Y-20059222D01*
X4934991Y-20059222D02*
X4925467Y-20068746D01*
X4925467Y-20068746D02*
X4915944Y-20087793D01*
X4915944Y-20087793D02*
X4915944Y-20125889D01*
X4915944Y-20125889D02*
X4925467Y-20144936D01*
X4925467Y-20144936D02*
X4934991Y-20154460D01*
X4934991Y-20154460D02*
X4954039Y-20163984D01*
X4954039Y-20163984D02*
X4992134Y-20163984D01*
X4992134Y-20163984D02*
X5011182Y-20154460D01*
X5011182Y-20154460D02*
X5020705Y-20144936D01*
X5020705Y-20144936D02*
X5030229Y-20125889D01*
X5030229Y-20125889D02*
X5030229Y-20087793D01*
X5030229Y-20087793D02*
X5020705Y-20068746D01*
X5020705Y-20068746D02*
X5011182Y-20059222D01*
X5011182Y-20059222D02*
X4992134Y-20049698D01*
X5154039Y-19963984D02*
X5173086Y-19963984D01*
X5173086Y-19963984D02*
X5192134Y-19973508D01*
X5192134Y-19973508D02*
X5201658Y-19983031D01*
X5201658Y-19983031D02*
X5211182Y-20002079D01*
X5211182Y-20002079D02*
X5220705Y-20040174D01*
X5220705Y-20040174D02*
X5220705Y-20087793D01*
X5220705Y-20087793D02*
X5211182Y-20125889D01*
X5211182Y-20125889D02*
X5201658Y-20144936D01*
X5201658Y-20144936D02*
X5192134Y-20154460D01*
X5192134Y-20154460D02*
X5173086Y-20163984D01*
X5173086Y-20163984D02*
X5154039Y-20163984D01*
X5154039Y-20163984D02*
X5134991Y-20154460D01*
X5134991Y-20154460D02*
X5125467Y-20144936D01*
X5125467Y-20144936D02*
X5115944Y-20125889D01*
X5115944Y-20125889D02*
X5106420Y-20087793D01*
X5106420Y-20087793D02*
X5106420Y-20040174D01*
X5106420Y-20040174D02*
X5115944Y-20002079D01*
X5115944Y-20002079D02*
X5125467Y-19983031D01*
X5125467Y-19983031D02*
X5134991Y-19973508D01*
X5134991Y-19973508D02*
X5154039Y-19963984D01*
X5306420Y-20163984D02*
X5306420Y-20030650D01*
X5306420Y-20049698D02*
X5315944Y-20040174D01*
X5315944Y-20040174D02*
X5334991Y-20030650D01*
X5334991Y-20030650D02*
X5363563Y-20030650D01*
X5363563Y-20030650D02*
X5382610Y-20040174D01*
X5382610Y-20040174D02*
X5392134Y-20059222D01*
X5392134Y-20059222D02*
X5392134Y-20163984D01*
X5392134Y-20059222D02*
X5401658Y-20040174D01*
X5401658Y-20040174D02*
X5420705Y-20030650D01*
X5420705Y-20030650D02*
X5449277Y-20030650D01*
X5449277Y-20030650D02*
X5468325Y-20040174D01*
X5468325Y-20040174D02*
X5477848Y-20059222D01*
X5477848Y-20059222D02*
X5477848Y-20163984D01*
X5573086Y-20163984D02*
X5573086Y-20030650D01*
X5573086Y-20049698D02*
X5582610Y-20040174D01*
X5582610Y-20040174D02*
X5601658Y-20030650D01*
X5601658Y-20030650D02*
X5630229Y-20030650D01*
X5630229Y-20030650D02*
X5649277Y-20040174D01*
X5649277Y-20040174D02*
X5658801Y-20059222D01*
X5658801Y-20059222D02*
X5658801Y-20163984D01*
X5658801Y-20059222D02*
X5668324Y-20040174D01*
X5668324Y-20040174D02*
X5687372Y-20030650D01*
X5687372Y-20030650D02*
X5715943Y-20030650D01*
X5715943Y-20030650D02*
X5734991Y-20040174D01*
X5734991Y-20040174D02*
X5744515Y-20059222D01*
X5744515Y-20059222D02*
X5744515Y-20163984D01*
X6134991Y-19954460D02*
X5963563Y-20211603D01*
X6392134Y-19963984D02*
X6411182Y-19963984D01*
X6411182Y-19963984D02*
X6430229Y-19973508D01*
X6430229Y-19973508D02*
X6439753Y-19983031D01*
X6439753Y-19983031D02*
X6449277Y-20002079D01*
X6449277Y-20002079D02*
X6458801Y-20040174D01*
X6458801Y-20040174D02*
X6458801Y-20087793D01*
X6458801Y-20087793D02*
X6449277Y-20125889D01*
X6449277Y-20125889D02*
X6439753Y-20144936D01*
X6439753Y-20144936D02*
X6430229Y-20154460D01*
X6430229Y-20154460D02*
X6411182Y-20163984D01*
X6411182Y-20163984D02*
X6392134Y-20163984D01*
X6392134Y-20163984D02*
X6373086Y-20154460D01*
X6373086Y-20154460D02*
X6363563Y-20144936D01*
X6363563Y-20144936D02*
X6354039Y-20125889D01*
X6354039Y-20125889D02*
X6344515Y-20087793D01*
X6344515Y-20087793D02*
X6344515Y-20040174D01*
X6344515Y-20040174D02*
X6354039Y-20002079D01*
X6354039Y-20002079D02*
X6363563Y-19983031D01*
X6363563Y-19983031D02*
X6373086Y-19973508D01*
X6373086Y-19973508D02*
X6392134Y-19963984D01*
X6544515Y-20144936D02*
X6554039Y-20154460D01*
X6554039Y-20154460D02*
X6544515Y-20163984D01*
X6544515Y-20163984D02*
X6534991Y-20154460D01*
X6534991Y-20154460D02*
X6544515Y-20144936D01*
X6544515Y-20144936D02*
X6544515Y-20163984D01*
X6677848Y-19963984D02*
X6696896Y-19963984D01*
X6696896Y-19963984D02*
X6715944Y-19973508D01*
X6715944Y-19973508D02*
X6725467Y-19983031D01*
X6725467Y-19983031D02*
X6734991Y-20002079D01*
X6734991Y-20002079D02*
X6744515Y-20040174D01*
X6744515Y-20040174D02*
X6744515Y-20087793D01*
X6744515Y-20087793D02*
X6734991Y-20125889D01*
X6734991Y-20125889D02*
X6725467Y-20144936D01*
X6725467Y-20144936D02*
X6715944Y-20154460D01*
X6715944Y-20154460D02*
X6696896Y-20163984D01*
X6696896Y-20163984D02*
X6677848Y-20163984D01*
X6677848Y-20163984D02*
X6658801Y-20154460D01*
X6658801Y-20154460D02*
X6649277Y-20144936D01*
X6649277Y-20144936D02*
X6639753Y-20125889D01*
X6639753Y-20125889D02*
X6630229Y-20087793D01*
X6630229Y-20087793D02*
X6630229Y-20040174D01*
X6630229Y-20040174D02*
X6639753Y-20002079D01*
X6639753Y-20002079D02*
X6649277Y-19983031D01*
X6649277Y-19983031D02*
X6658801Y-19973508D01*
X6658801Y-19973508D02*
X6677848Y-19963984D01*
X6811182Y-19963984D02*
X6944515Y-19963984D01*
X6944515Y-19963984D02*
X6858801Y-20163984D01*
X7058801Y-19963984D02*
X7077848Y-19963984D01*
X7077848Y-19963984D02*
X7096896Y-19973508D01*
X7096896Y-19973508D02*
X7106420Y-19983031D01*
X7106420Y-19983031D02*
X7115944Y-20002079D01*
X7115944Y-20002079D02*
X7125467Y-20040174D01*
X7125467Y-20040174D02*
X7125467Y-20087793D01*
X7125467Y-20087793D02*
X7115944Y-20125889D01*
X7115944Y-20125889D02*
X7106420Y-20144936D01*
X7106420Y-20144936D02*
X7096896Y-20154460D01*
X7096896Y-20154460D02*
X7077848Y-20163984D01*
X7077848Y-20163984D02*
X7058801Y-20163984D01*
X7058801Y-20163984D02*
X7039753Y-20154460D01*
X7039753Y-20154460D02*
X7030229Y-20144936D01*
X7030229Y-20144936D02*
X7020706Y-20125889D01*
X7020706Y-20125889D02*
X7011182Y-20087793D01*
X7011182Y-20087793D02*
X7011182Y-20040174D01*
X7011182Y-20040174D02*
X7020706Y-20002079D01*
X7020706Y-20002079D02*
X7030229Y-19983031D01*
X7030229Y-19983031D02*
X7039753Y-19973508D01*
X7039753Y-19973508D02*
X7058801Y-19963984D01*
X7315944Y-20163984D02*
X7201658Y-20163984D01*
X7258801Y-20163984D02*
X7258801Y-19963984D01*
X7258801Y-19963984D02*
X7239753Y-19992555D01*
X7239753Y-19992555D02*
X7220706Y-20011603D01*
X7220706Y-20011603D02*
X7201658Y-20021127D01*
X7392134Y-19963984D02*
X7392134Y-20002079D01*
X7468325Y-19963984D02*
X7468325Y-20002079D01*
X7763563Y-20240174D02*
X7754039Y-20230650D01*
X7754039Y-20230650D02*
X7734991Y-20202079D01*
X7734991Y-20202079D02*
X7725468Y-20183031D01*
X7725468Y-20183031D02*
X7715944Y-20154460D01*
X7715944Y-20154460D02*
X7706420Y-20106841D01*
X7706420Y-20106841D02*
X7706420Y-20068746D01*
X7706420Y-20068746D02*
X7715944Y-20021127D01*
X7715944Y-20021127D02*
X7725468Y-19992555D01*
X7725468Y-19992555D02*
X7734991Y-19973508D01*
X7734991Y-19973508D02*
X7754039Y-19944936D01*
X7754039Y-19944936D02*
X7763563Y-19935412D01*
X7868325Y-20049698D02*
X7849277Y-20040174D01*
X7849277Y-20040174D02*
X7839753Y-20030650D01*
X7839753Y-20030650D02*
X7830229Y-20011603D01*
X7830229Y-20011603D02*
X7830229Y-20002079D01*
X7830229Y-20002079D02*
X7839753Y-19983031D01*
X7839753Y-19983031D02*
X7849277Y-19973508D01*
X7849277Y-19973508D02*
X7868325Y-19963984D01*
X7868325Y-19963984D02*
X7906420Y-19963984D01*
X7906420Y-19963984D02*
X7925468Y-19973508D01*
X7925468Y-19973508D02*
X7934991Y-19983031D01*
X7934991Y-19983031D02*
X7944515Y-20002079D01*
X7944515Y-20002079D02*
X7944515Y-20011603D01*
X7944515Y-20011603D02*
X7934991Y-20030650D01*
X7934991Y-20030650D02*
X7925468Y-20040174D01*
X7925468Y-20040174D02*
X7906420Y-20049698D01*
X7906420Y-20049698D02*
X7868325Y-20049698D01*
X7868325Y-20049698D02*
X7849277Y-20059222D01*
X7849277Y-20059222D02*
X7839753Y-20068746D01*
X7839753Y-20068746D02*
X7830229Y-20087793D01*
X7830229Y-20087793D02*
X7830229Y-20125889D01*
X7830229Y-20125889D02*
X7839753Y-20144936D01*
X7839753Y-20144936D02*
X7849277Y-20154460D01*
X7849277Y-20154460D02*
X7868325Y-20163984D01*
X7868325Y-20163984D02*
X7906420Y-20163984D01*
X7906420Y-20163984D02*
X7925468Y-20154460D01*
X7925468Y-20154460D02*
X7934991Y-20144936D01*
X7934991Y-20144936D02*
X7944515Y-20125889D01*
X7944515Y-20125889D02*
X7944515Y-20087793D01*
X7944515Y-20087793D02*
X7934991Y-20068746D01*
X7934991Y-20068746D02*
X7925468Y-20059222D01*
X7925468Y-20059222D02*
X7906420Y-20049698D01*
X8182610Y-20163984D02*
X8182610Y-19963984D01*
X8268325Y-20163984D02*
X8268325Y-20059222D01*
X8268325Y-20059222D02*
X8258801Y-20040174D01*
X8258801Y-20040174D02*
X8239753Y-20030650D01*
X8239753Y-20030650D02*
X8211182Y-20030650D01*
X8211182Y-20030650D02*
X8192134Y-20040174D01*
X8192134Y-20040174D02*
X8182610Y-20049698D01*
X8392134Y-20163984D02*
X8373087Y-20154460D01*
X8373087Y-20154460D02*
X8363563Y-20144936D01*
X8363563Y-20144936D02*
X8354039Y-20125889D01*
X8354039Y-20125889D02*
X8354039Y-20068746D01*
X8354039Y-20068746D02*
X8363563Y-20049698D01*
X8363563Y-20049698D02*
X8373087Y-20040174D01*
X8373087Y-20040174D02*
X8392134Y-20030650D01*
X8392134Y-20030650D02*
X8420706Y-20030650D01*
X8420706Y-20030650D02*
X8439753Y-20040174D01*
X8439753Y-20040174D02*
X8449277Y-20049698D01*
X8449277Y-20049698D02*
X8458801Y-20068746D01*
X8458801Y-20068746D02*
X8458801Y-20125889D01*
X8458801Y-20125889D02*
X8449277Y-20144936D01*
X8449277Y-20144936D02*
X8439753Y-20154460D01*
X8439753Y-20154460D02*
X8420706Y-20163984D01*
X8420706Y-20163984D02*
X8392134Y-20163984D01*
X8573087Y-20163984D02*
X8554039Y-20154460D01*
X8554039Y-20154460D02*
X8544515Y-20135412D01*
X8544515Y-20135412D02*
X8544515Y-19963984D01*
X8725468Y-20154460D02*
X8706420Y-20163984D01*
X8706420Y-20163984D02*
X8668325Y-20163984D01*
X8668325Y-20163984D02*
X8649277Y-20154460D01*
X8649277Y-20154460D02*
X8639753Y-20135412D01*
X8639753Y-20135412D02*
X8639753Y-20059222D01*
X8639753Y-20059222D02*
X8649277Y-20040174D01*
X8649277Y-20040174D02*
X8668325Y-20030650D01*
X8668325Y-20030650D02*
X8706420Y-20030650D01*
X8706420Y-20030650D02*
X8725468Y-20040174D01*
X8725468Y-20040174D02*
X8734992Y-20059222D01*
X8734992Y-20059222D02*
X8734992Y-20078270D01*
X8734992Y-20078270D02*
X8639753Y-20097317D01*
X8811182Y-20154460D02*
X8830230Y-20163984D01*
X8830230Y-20163984D02*
X8868325Y-20163984D01*
X8868325Y-20163984D02*
X8887373Y-20154460D01*
X8887373Y-20154460D02*
X8896896Y-20135412D01*
X8896896Y-20135412D02*
X8896896Y-20125889D01*
X8896896Y-20125889D02*
X8887373Y-20106841D01*
X8887373Y-20106841D02*
X8868325Y-20097317D01*
X8868325Y-20097317D02*
X8839753Y-20097317D01*
X8839753Y-20097317D02*
X8820706Y-20087793D01*
X8820706Y-20087793D02*
X8811182Y-20068746D01*
X8811182Y-20068746D02*
X8811182Y-20059222D01*
X8811182Y-20059222D02*
X8820706Y-20040174D01*
X8820706Y-20040174D02*
X8839753Y-20030650D01*
X8839753Y-20030650D02*
X8868325Y-20030650D01*
X8868325Y-20030650D02*
X8887373Y-20040174D01*
X8963563Y-20240174D02*
X8973087Y-20230650D01*
X8973087Y-20230650D02*
X8992134Y-20202079D01*
X8992134Y-20202079D02*
X9001658Y-20183031D01*
X9001658Y-20183031D02*
X9011182Y-20154460D01*
X9011182Y-20154460D02*
X9020706Y-20106841D01*
X9020706Y-20106841D02*
X9020706Y-20068746D01*
X9020706Y-20068746D02*
X9011182Y-20021127D01*
X9011182Y-20021127D02*
X9001658Y-19992555D01*
X9001658Y-19992555D02*
X8992134Y-19973508D01*
X8992134Y-19973508D02*
X8973087Y-19944936D01*
X8973087Y-19944936D02*
X8963563Y-19935412D01*
X4088500Y-20270500D02*
X4088500Y-20470500D01*
X3988500Y-20370500D02*
X4188500Y-20370500D01*
X4159211Y-20441211D02*
X4159211Y-20299789D01*
X4017789Y-20299789D01*
X4017789Y-20441211D01*
X4159211Y-20441211D01*
X4430229Y-20261984D02*
X4554039Y-20261984D01*
X4554039Y-20261984D02*
X4487372Y-20338174D01*
X4487372Y-20338174D02*
X4515944Y-20338174D01*
X4515944Y-20338174D02*
X4534991Y-20347698D01*
X4534991Y-20347698D02*
X4544515Y-20357222D01*
X4544515Y-20357222D02*
X4554039Y-20376270D01*
X4554039Y-20376270D02*
X4554039Y-20423889D01*
X4554039Y-20423889D02*
X4544515Y-20442936D01*
X4544515Y-20442936D02*
X4534991Y-20452460D01*
X4534991Y-20452460D02*
X4515944Y-20461984D01*
X4515944Y-20461984D02*
X4458801Y-20461984D01*
X4458801Y-20461984D02*
X4439753Y-20452460D01*
X4439753Y-20452460D02*
X4430229Y-20442936D01*
X4639753Y-20442936D02*
X4649277Y-20452460D01*
X4649277Y-20452460D02*
X4639753Y-20461984D01*
X4639753Y-20461984D02*
X4630229Y-20452460D01*
X4630229Y-20452460D02*
X4639753Y-20442936D01*
X4639753Y-20442936D02*
X4639753Y-20461984D01*
X4725467Y-20281031D02*
X4734991Y-20271508D01*
X4734991Y-20271508D02*
X4754039Y-20261984D01*
X4754039Y-20261984D02*
X4801658Y-20261984D01*
X4801658Y-20261984D02*
X4820705Y-20271508D01*
X4820705Y-20271508D02*
X4830229Y-20281031D01*
X4830229Y-20281031D02*
X4839753Y-20300079D01*
X4839753Y-20300079D02*
X4839753Y-20319127D01*
X4839753Y-20319127D02*
X4830229Y-20347698D01*
X4830229Y-20347698D02*
X4715944Y-20461984D01*
X4715944Y-20461984D02*
X4839753Y-20461984D01*
X4963563Y-20261984D02*
X4982610Y-20261984D01*
X4982610Y-20261984D02*
X5001658Y-20271508D01*
X5001658Y-20271508D02*
X5011182Y-20281031D01*
X5011182Y-20281031D02*
X5020705Y-20300079D01*
X5020705Y-20300079D02*
X5030229Y-20338174D01*
X5030229Y-20338174D02*
X5030229Y-20385793D01*
X5030229Y-20385793D02*
X5020705Y-20423889D01*
X5020705Y-20423889D02*
X5011182Y-20442936D01*
X5011182Y-20442936D02*
X5001658Y-20452460D01*
X5001658Y-20452460D02*
X4982610Y-20461984D01*
X4982610Y-20461984D02*
X4963563Y-20461984D01*
X4963563Y-20461984D02*
X4944515Y-20452460D01*
X4944515Y-20452460D02*
X4934991Y-20442936D01*
X4934991Y-20442936D02*
X4925467Y-20423889D01*
X4925467Y-20423889D02*
X4915944Y-20385793D01*
X4915944Y-20385793D02*
X4915944Y-20338174D01*
X4915944Y-20338174D02*
X4925467Y-20300079D01*
X4925467Y-20300079D02*
X4934991Y-20281031D01*
X4934991Y-20281031D02*
X4944515Y-20271508D01*
X4944515Y-20271508D02*
X4963563Y-20261984D01*
X5154039Y-20261984D02*
X5173086Y-20261984D01*
X5173086Y-20261984D02*
X5192134Y-20271508D01*
X5192134Y-20271508D02*
X5201658Y-20281031D01*
X5201658Y-20281031D02*
X5211182Y-20300079D01*
X5211182Y-20300079D02*
X5220705Y-20338174D01*
X5220705Y-20338174D02*
X5220705Y-20385793D01*
X5220705Y-20385793D02*
X5211182Y-20423889D01*
X5211182Y-20423889D02*
X5201658Y-20442936D01*
X5201658Y-20442936D02*
X5192134Y-20452460D01*
X5192134Y-20452460D02*
X5173086Y-20461984D01*
X5173086Y-20461984D02*
X5154039Y-20461984D01*
X5154039Y-20461984D02*
X5134991Y-20452460D01*
X5134991Y-20452460D02*
X5125467Y-20442936D01*
X5125467Y-20442936D02*
X5115944Y-20423889D01*
X5115944Y-20423889D02*
X5106420Y-20385793D01*
X5106420Y-20385793D02*
X5106420Y-20338174D01*
X5106420Y-20338174D02*
X5115944Y-20300079D01*
X5115944Y-20300079D02*
X5125467Y-20281031D01*
X5125467Y-20281031D02*
X5134991Y-20271508D01*
X5134991Y-20271508D02*
X5154039Y-20261984D01*
X5306420Y-20461984D02*
X5306420Y-20328650D01*
X5306420Y-20347698D02*
X5315944Y-20338174D01*
X5315944Y-20338174D02*
X5334991Y-20328650D01*
X5334991Y-20328650D02*
X5363563Y-20328650D01*
X5363563Y-20328650D02*
X5382610Y-20338174D01*
X5382610Y-20338174D02*
X5392134Y-20357222D01*
X5392134Y-20357222D02*
X5392134Y-20461984D01*
X5392134Y-20357222D02*
X5401658Y-20338174D01*
X5401658Y-20338174D02*
X5420705Y-20328650D01*
X5420705Y-20328650D02*
X5449277Y-20328650D01*
X5449277Y-20328650D02*
X5468325Y-20338174D01*
X5468325Y-20338174D02*
X5477848Y-20357222D01*
X5477848Y-20357222D02*
X5477848Y-20461984D01*
X5573086Y-20461984D02*
X5573086Y-20328650D01*
X5573086Y-20347698D02*
X5582610Y-20338174D01*
X5582610Y-20338174D02*
X5601658Y-20328650D01*
X5601658Y-20328650D02*
X5630229Y-20328650D01*
X5630229Y-20328650D02*
X5649277Y-20338174D01*
X5649277Y-20338174D02*
X5658801Y-20357222D01*
X5658801Y-20357222D02*
X5658801Y-20461984D01*
X5658801Y-20357222D02*
X5668324Y-20338174D01*
X5668324Y-20338174D02*
X5687372Y-20328650D01*
X5687372Y-20328650D02*
X5715943Y-20328650D01*
X5715943Y-20328650D02*
X5734991Y-20338174D01*
X5734991Y-20338174D02*
X5744515Y-20357222D01*
X5744515Y-20357222D02*
X5744515Y-20461984D01*
X6134991Y-20252460D02*
X5963563Y-20509603D01*
X6392134Y-20261984D02*
X6411182Y-20261984D01*
X6411182Y-20261984D02*
X6430229Y-20271508D01*
X6430229Y-20271508D02*
X6439753Y-20281031D01*
X6439753Y-20281031D02*
X6449277Y-20300079D01*
X6449277Y-20300079D02*
X6458801Y-20338174D01*
X6458801Y-20338174D02*
X6458801Y-20385793D01*
X6458801Y-20385793D02*
X6449277Y-20423889D01*
X6449277Y-20423889D02*
X6439753Y-20442936D01*
X6439753Y-20442936D02*
X6430229Y-20452460D01*
X6430229Y-20452460D02*
X6411182Y-20461984D01*
X6411182Y-20461984D02*
X6392134Y-20461984D01*
X6392134Y-20461984D02*
X6373086Y-20452460D01*
X6373086Y-20452460D02*
X6363563Y-20442936D01*
X6363563Y-20442936D02*
X6354039Y-20423889D01*
X6354039Y-20423889D02*
X6344515Y-20385793D01*
X6344515Y-20385793D02*
X6344515Y-20338174D01*
X6344515Y-20338174D02*
X6354039Y-20300079D01*
X6354039Y-20300079D02*
X6363563Y-20281031D01*
X6363563Y-20281031D02*
X6373086Y-20271508D01*
X6373086Y-20271508D02*
X6392134Y-20261984D01*
X6544515Y-20442936D02*
X6554039Y-20452460D01*
X6554039Y-20452460D02*
X6544515Y-20461984D01*
X6544515Y-20461984D02*
X6534991Y-20452460D01*
X6534991Y-20452460D02*
X6544515Y-20442936D01*
X6544515Y-20442936D02*
X6544515Y-20461984D01*
X6744515Y-20461984D02*
X6630229Y-20461984D01*
X6687372Y-20461984D02*
X6687372Y-20261984D01*
X6687372Y-20261984D02*
X6668325Y-20290555D01*
X6668325Y-20290555D02*
X6649277Y-20309603D01*
X6649277Y-20309603D02*
X6630229Y-20319127D01*
X6820706Y-20281031D02*
X6830229Y-20271508D01*
X6830229Y-20271508D02*
X6849277Y-20261984D01*
X6849277Y-20261984D02*
X6896896Y-20261984D01*
X6896896Y-20261984D02*
X6915944Y-20271508D01*
X6915944Y-20271508D02*
X6925467Y-20281031D01*
X6925467Y-20281031D02*
X6934991Y-20300079D01*
X6934991Y-20300079D02*
X6934991Y-20319127D01*
X6934991Y-20319127D02*
X6925467Y-20347698D01*
X6925467Y-20347698D02*
X6811182Y-20461984D01*
X6811182Y-20461984D02*
X6934991Y-20461984D01*
X7106420Y-20261984D02*
X7068325Y-20261984D01*
X7068325Y-20261984D02*
X7049277Y-20271508D01*
X7049277Y-20271508D02*
X7039753Y-20281031D01*
X7039753Y-20281031D02*
X7020706Y-20309603D01*
X7020706Y-20309603D02*
X7011182Y-20347698D01*
X7011182Y-20347698D02*
X7011182Y-20423889D01*
X7011182Y-20423889D02*
X7020706Y-20442936D01*
X7020706Y-20442936D02*
X7030229Y-20452460D01*
X7030229Y-20452460D02*
X7049277Y-20461984D01*
X7049277Y-20461984D02*
X7087372Y-20461984D01*
X7087372Y-20461984D02*
X7106420Y-20452460D01*
X7106420Y-20452460D02*
X7115944Y-20442936D01*
X7115944Y-20442936D02*
X7125467Y-20423889D01*
X7125467Y-20423889D02*
X7125467Y-20376270D01*
X7125467Y-20376270D02*
X7115944Y-20357222D01*
X7115944Y-20357222D02*
X7106420Y-20347698D01*
X7106420Y-20347698D02*
X7087372Y-20338174D01*
X7087372Y-20338174D02*
X7049277Y-20338174D01*
X7049277Y-20338174D02*
X7030229Y-20347698D01*
X7030229Y-20347698D02*
X7020706Y-20357222D01*
X7020706Y-20357222D02*
X7011182Y-20376270D01*
X7249277Y-20261984D02*
X7268325Y-20261984D01*
X7268325Y-20261984D02*
X7287372Y-20271508D01*
X7287372Y-20271508D02*
X7296896Y-20281031D01*
X7296896Y-20281031D02*
X7306420Y-20300079D01*
X7306420Y-20300079D02*
X7315944Y-20338174D01*
X7315944Y-20338174D02*
X7315944Y-20385793D01*
X7315944Y-20385793D02*
X7306420Y-20423889D01*
X7306420Y-20423889D02*
X7296896Y-20442936D01*
X7296896Y-20442936D02*
X7287372Y-20452460D01*
X7287372Y-20452460D02*
X7268325Y-20461984D01*
X7268325Y-20461984D02*
X7249277Y-20461984D01*
X7249277Y-20461984D02*
X7230229Y-20452460D01*
X7230229Y-20452460D02*
X7220706Y-20442936D01*
X7220706Y-20442936D02*
X7211182Y-20423889D01*
X7211182Y-20423889D02*
X7201658Y-20385793D01*
X7201658Y-20385793D02*
X7201658Y-20338174D01*
X7201658Y-20338174D02*
X7211182Y-20300079D01*
X7211182Y-20300079D02*
X7220706Y-20281031D01*
X7220706Y-20281031D02*
X7230229Y-20271508D01*
X7230229Y-20271508D02*
X7249277Y-20261984D01*
X7392134Y-20261984D02*
X7392134Y-20300079D01*
X7468325Y-20261984D02*
X7468325Y-20300079D01*
X7763563Y-20538174D02*
X7754039Y-20528650D01*
X7754039Y-20528650D02*
X7734991Y-20500079D01*
X7734991Y-20500079D02*
X7725468Y-20481031D01*
X7725468Y-20481031D02*
X7715944Y-20452460D01*
X7715944Y-20452460D02*
X7706420Y-20404841D01*
X7706420Y-20404841D02*
X7706420Y-20366746D01*
X7706420Y-20366746D02*
X7715944Y-20319127D01*
X7715944Y-20319127D02*
X7725468Y-20290555D01*
X7725468Y-20290555D02*
X7734991Y-20271508D01*
X7734991Y-20271508D02*
X7754039Y-20242936D01*
X7754039Y-20242936D02*
X7763563Y-20233412D01*
X7925468Y-20328650D02*
X7925468Y-20461984D01*
X7877848Y-20252460D02*
X7830229Y-20395317D01*
X7830229Y-20395317D02*
X7954039Y-20395317D01*
X8182610Y-20461984D02*
X8182610Y-20261984D01*
X8268325Y-20461984D02*
X8268325Y-20357222D01*
X8268325Y-20357222D02*
X8258801Y-20338174D01*
X8258801Y-20338174D02*
X8239753Y-20328650D01*
X8239753Y-20328650D02*
X8211182Y-20328650D01*
X8211182Y-20328650D02*
X8192134Y-20338174D01*
X8192134Y-20338174D02*
X8182610Y-20347698D01*
X8392134Y-20461984D02*
X8373087Y-20452460D01*
X8373087Y-20452460D02*
X8363563Y-20442936D01*
X8363563Y-20442936D02*
X8354039Y-20423889D01*
X8354039Y-20423889D02*
X8354039Y-20366746D01*
X8354039Y-20366746D02*
X8363563Y-20347698D01*
X8363563Y-20347698D02*
X8373087Y-20338174D01*
X8373087Y-20338174D02*
X8392134Y-20328650D01*
X8392134Y-20328650D02*
X8420706Y-20328650D01*
X8420706Y-20328650D02*
X8439753Y-20338174D01*
X8439753Y-20338174D02*
X8449277Y-20347698D01*
X8449277Y-20347698D02*
X8458801Y-20366746D01*
X8458801Y-20366746D02*
X8458801Y-20423889D01*
X8458801Y-20423889D02*
X8449277Y-20442936D01*
X8449277Y-20442936D02*
X8439753Y-20452460D01*
X8439753Y-20452460D02*
X8420706Y-20461984D01*
X8420706Y-20461984D02*
X8392134Y-20461984D01*
X8573087Y-20461984D02*
X8554039Y-20452460D01*
X8554039Y-20452460D02*
X8544515Y-20433412D01*
X8544515Y-20433412D02*
X8544515Y-20261984D01*
X8725468Y-20452460D02*
X8706420Y-20461984D01*
X8706420Y-20461984D02*
X8668325Y-20461984D01*
X8668325Y-20461984D02*
X8649277Y-20452460D01*
X8649277Y-20452460D02*
X8639753Y-20433412D01*
X8639753Y-20433412D02*
X8639753Y-20357222D01*
X8639753Y-20357222D02*
X8649277Y-20338174D01*
X8649277Y-20338174D02*
X8668325Y-20328650D01*
X8668325Y-20328650D02*
X8706420Y-20328650D01*
X8706420Y-20328650D02*
X8725468Y-20338174D01*
X8725468Y-20338174D02*
X8734992Y-20357222D01*
X8734992Y-20357222D02*
X8734992Y-20376270D01*
X8734992Y-20376270D02*
X8639753Y-20395317D01*
X8811182Y-20452460D02*
X8830230Y-20461984D01*
X8830230Y-20461984D02*
X8868325Y-20461984D01*
X8868325Y-20461984D02*
X8887373Y-20452460D01*
X8887373Y-20452460D02*
X8896896Y-20433412D01*
X8896896Y-20433412D02*
X8896896Y-20423889D01*
X8896896Y-20423889D02*
X8887373Y-20404841D01*
X8887373Y-20404841D02*
X8868325Y-20395317D01*
X8868325Y-20395317D02*
X8839753Y-20395317D01*
X8839753Y-20395317D02*
X8820706Y-20385793D01*
X8820706Y-20385793D02*
X8811182Y-20366746D01*
X8811182Y-20366746D02*
X8811182Y-20357222D01*
X8811182Y-20357222D02*
X8820706Y-20338174D01*
X8820706Y-20338174D02*
X8839753Y-20328650D01*
X8839753Y-20328650D02*
X8868325Y-20328650D01*
X8868325Y-20328650D02*
X8887373Y-20338174D01*
X8963563Y-20538174D02*
X8973087Y-20528650D01*
X8973087Y-20528650D02*
X8992134Y-20500079D01*
X8992134Y-20500079D02*
X9001658Y-20481031D01*
X9001658Y-20481031D02*
X9011182Y-20452460D01*
X9011182Y-20452460D02*
X9020706Y-20404841D01*
X9020706Y-20404841D02*
X9020706Y-20366746D01*
X9020706Y-20366746D02*
X9011182Y-20319127D01*
X9011182Y-20319127D02*
X9001658Y-20290555D01*
X9001658Y-20290555D02*
X8992134Y-20271508D01*
X8992134Y-20271508D02*
X8973087Y-20242936D01*
X8973087Y-20242936D02*
X8963563Y-20233412D01*
M02*
