G04 #@! TF.GenerationSoftware,KiCad,Pcbnew,8.0.7*
G04 #@! TF.CreationDate,2025-01-05T17:22:56+01:00*
G04 #@! TF.ProjectId,12VSupport,31325653-7570-4706-9f72-742e6b696361,1.1*
G04 #@! TF.SameCoordinates,Original*
G04 #@! TF.FileFunction,Legend,Bot*
G04 #@! TF.FilePolarity,Positive*
%FSLAX46Y46*%
G04 Gerber Fmt 4.6, Leading zero omitted, Abs format (unit mm)*
G04 Created by KiCad (PCBNEW 8.0.7) date 2025-01-05 17:22:56*
%MOMM*%
%LPD*%
G01*
G04 APERTURE LIST*
G04 Aperture macros list*
%AMRoundRect*
0 Rectangle with rounded corners*
0 $1 Rounding radius*
0 $2 $3 $4 $5 $6 $7 $8 $9 X,Y pos of 4 corners*
0 Add a 4 corners polygon primitive as box body*
4,1,4,$2,$3,$4,$5,$6,$7,$8,$9,$2,$3,0*
0 Add four circle primitives for the rounded corners*
1,1,$1+$1,$2,$3*
1,1,$1+$1,$4,$5*
1,1,$1+$1,$6,$7*
1,1,$1+$1,$8,$9*
0 Add four rect primitives between the rounded corners*
20,1,$1+$1,$2,$3,$4,$5,0*
20,1,$1+$1,$4,$5,$6,$7,0*
20,1,$1+$1,$6,$7,$8,$9,0*
20,1,$1+$1,$8,$9,$2,$3,0*%
G04 Aperture macros list end*
%ADD10C,3.000000*%
%ADD11RoundRect,0.500000X0.500000X0.500000X-0.500000X0.500000X-0.500000X-0.500000X0.500000X-0.500000X0*%
%ADD12C,2.000000*%
%ADD13C,2.780000*%
%ADD14R,1.700000X1.700000*%
%ADD15O,1.700000X1.700000*%
%ADD16C,0.800000*%
%ADD17C,6.400000*%
%ADD18C,1.500000*%
%ADD19R,1.600000X1.600000*%
%ADD20C,1.600000*%
%ADD21R,3.960000X1.980000*%
%ADD22O,3.960000X1.980000*%
G04 APERTURE END LIST*
%LPC*%
D10*
X90170000Y-153480000D03*
X82550000Y-153480000D03*
X83945000Y-130310000D03*
X99145000Y-121410000D03*
X109285000Y-139210000D03*
X101685000Y-139210000D03*
D11*
X86485000Y-125210000D03*
D12*
X86485000Y-135410000D03*
D13*
X131185000Y-61793000D03*
X131185000Y-65193000D03*
X144393000Y-61793000D03*
X144393000Y-65193000D03*
D14*
X143256000Y-115321000D03*
D15*
X143256000Y-117861000D03*
X143256000Y-120401000D03*
X143256000Y-122941000D03*
X143256000Y-125481000D03*
D16*
X141110000Y-46990000D03*
X141812944Y-45292944D03*
X141812944Y-48687056D03*
X143510000Y-44590000D03*
D17*
X143510000Y-46990000D03*
D16*
X143510000Y-49390000D03*
X145207056Y-45292944D03*
X145207056Y-48687056D03*
X145910000Y-46990000D03*
D10*
X45845000Y-130310000D03*
X61045000Y-121410000D03*
X71185000Y-139210000D03*
X63585000Y-139210000D03*
D11*
X48385000Y-125210000D03*
D12*
X48385000Y-135410000D03*
D10*
X53276000Y-56642000D03*
X53276000Y-49022000D03*
D16*
X141110000Y-160020000D03*
X141812944Y-158322944D03*
X141812944Y-161717056D03*
X143510000Y-157620000D03*
D17*
X143510000Y-160020000D03*
D16*
X143510000Y-162420000D03*
X145207056Y-158322944D03*
X145207056Y-161717056D03*
X145910000Y-160020000D03*
X44590000Y-144526000D03*
X45292944Y-142828944D03*
X45292944Y-146223056D03*
X46990000Y-142126000D03*
D17*
X46990000Y-144526000D03*
D16*
X46990000Y-146926000D03*
X48687056Y-142828944D03*
X48687056Y-146223056D03*
X49390000Y-144526000D03*
X44590000Y-84501056D03*
X45292944Y-82804000D03*
X45292944Y-86198112D03*
X46990000Y-82101056D03*
D17*
X46990000Y-84501056D03*
D16*
X46990000Y-86901056D03*
X48687056Y-82804000D03*
X48687056Y-86198112D03*
X49390000Y-84501056D03*
D10*
X72644000Y-153480000D03*
X65024000Y-153480000D03*
D18*
X119175000Y-126455000D03*
X119175000Y-131355000D03*
D10*
X55118000Y-153480000D03*
X47498000Y-153480000D03*
X83818000Y-99830000D03*
X99018000Y-90930000D03*
X109158000Y-108730000D03*
X101558000Y-108730000D03*
D11*
X86358000Y-94730000D03*
D12*
X86358000Y-104930000D03*
D19*
X136485621Y-109982000D03*
D20*
X138985621Y-109982000D03*
D10*
X45887000Y-100086000D03*
X61087000Y-91186000D03*
X71227000Y-108986000D03*
X63627000Y-108986000D03*
D11*
X48427000Y-94986000D03*
D12*
X48427000Y-105186000D03*
D10*
X107696000Y-153480000D03*
X100076000Y-153480000D03*
X127000000Y-54038000D03*
X134620000Y-54038000D03*
D13*
X60198000Y-56896000D03*
X60198000Y-60296000D03*
X73406000Y-56896000D03*
X73406000Y-60296000D03*
D21*
X48514000Y-77597000D03*
D22*
X48514000Y-72597000D03*
D14*
X46228000Y-65471000D03*
D15*
X48768000Y-65471000D03*
X51308000Y-65471000D03*
%LPD*%
M02*
