M48
; DRILL file {KiCad 8.0.7} date 2025-01-05T17:22:57+0100
; FORMAT={-:-/ absolute / inch / decimal}
; #@! TF.CreationDate,2025-01-05T17:22:57+01:00
; #@! TF.GenerationSoftware,Kicad,Pcbnew,8.0.7
; #@! TF.FileFunction,Plated,1,2,PTH
FMAT,2
INCH
; #@! TA.AperFunction,Plated,PTH,ViaDrill
T1C0.0157
; #@! TA.AperFunction,Plated,PTH,ViaDrill
T2C0.0197
; #@! TA.AperFunction,Plated,PTH,ComponentDrill
T3C0.0197
; #@! TA.AperFunction,Plated,PTH,ViaDrill
T4C0.0236
; #@! TA.AperFunction,Plated,PTH,ViaDrill
T5C0.0315
; #@! TA.AperFunction,Plated,PTH,ComponentDrill
T6C0.0315
; #@! TA.AperFunction,Plated,PTH,ComponentDrill
T7C0.0394
; #@! TA.AperFunction,Plated,PTH,ComponentDrill
T8C0.0433
; #@! TA.AperFunction,Plated,PTH,ComponentDrill
T9C0.0520
; #@! TA.AperFunction,Plated,PTH,ComponentDrill
T10C0.0551
; #@! TA.AperFunction,Plated,PTH,ComponentDrill
T11C0.0630
; #@! TA.AperFunction,Plated,PTH,ComponentDrill
T12C0.0701
; #@! TA.AperFunction,Plated,PTH,ComponentDrill
T13C0.1260
%
G90
G05
T1
X2.39Y-1.85
X2.39Y-1.9
X2.39Y-1.95
X2.39Y-2.0
X3.095Y-2.82
X3.12Y-4.76
X3.3896Y-1.865
X3.49Y-2.48
X3.5196Y-4.7024
X3.5483Y-4.6894
X3.55Y-2.165
X3.5539Y-4.6269
X3.5539Y-4.6584
X3.555Y-1.845
X3.6012Y-2.52
X3.6051Y-1.955
X4.65Y-3.31
X4.77Y-5.19
X4.875Y-5.375
X4.875Y-5.475
X5.04Y-5.25
X5.0524Y-4.6224
X5.075Y-5.3
X5.08Y-4.65
X5.1739Y-5.5516
X5.1816Y-5.05
X5.199Y-5.5706
X5.2052Y-4.99
X5.2288Y-4.94
X5.2288Y-5.5866
X5.2524Y-4.9
X5.2524Y-5.6177
X5.28Y-4.85
X5.28Y-5.64
T2
X2.56Y-1.85
X2.56Y-2.56
X2.6Y-4.52
X3.16Y-4.63
X3.21Y-4.58
X3.36Y-3.245
X3.3816Y-3.8416
T3
X1.7555Y-3.3268
X1.7555Y-5.69
X1.7832Y-3.26
X1.7832Y-3.3936
X1.7832Y-5.6232
X1.7832Y-5.7568
X1.85Y-3.2323
X1.85Y-3.4213
X1.85Y-5.5955
X1.85Y-5.7845
X1.9168Y-3.26
X1.9168Y-3.3936
X1.9168Y-5.6232
X1.9168Y-5.7568
X1.9445Y-3.3268
X1.9445Y-5.69
X5.5555Y-1.85
X5.5555Y-6.3
X5.5832Y-1.7832
X5.5832Y-1.9168
X5.5832Y-6.2332
X5.5832Y-6.3668
X5.65Y-1.7555
X5.65Y-1.9445
X5.65Y-6.2055
X5.65Y-6.3945
X5.7168Y-1.7832
X5.7168Y-1.9168
X5.7168Y-6.2332
X5.7168Y-6.3668
X5.7445Y-1.85
X5.7445Y-6.3
T4
X1.78Y-4.46
X1.78Y-4.58
X1.9Y-4.46
X1.9Y-4.58
X2.23Y-6.4146
X2.595Y-2.8948
X2.595Y-3.0248
X2.7175Y-2.0175
X2.755Y-2.8948
X2.755Y-3.0248
X2.8Y-6.4146
X3.135Y-2.09
X3.26Y-2.565
X3.4044Y-2.0556
X3.64Y-6.4146
X3.6525Y-2.9975
X4.17Y-1.87
X4.18Y-2.74
X4.18Y-2.79
X4.18Y-2.84
X4.27Y-6.4146
X4.42Y-1.825
X4.54Y-3.12
X4.54Y-3.175
X4.6388Y-5.07
X4.6478Y-1.9022
X4.8178Y-2.0722
X4.9Y-5.05
X5.03Y-4.125
X5.03Y-6.4146
X5.09Y-4.125
X5.2329Y-2.2671
X5.29Y-3.31
X5.3Y-4.54
X5.3495Y-3.9095
X5.39Y-4.125
X5.4364Y-2.48
X5.4364Y-2.7508
X5.44Y-5.15
X5.49Y-3.31
X5.5Y-3.43
X5.5Y-3.6
X5.5Y-3.76
X5.535Y-6.105
X5.6428Y-2.9572
X5.65Y-3.43
X5.65Y-3.6
X5.65Y-3.76
X5.7106Y-3.12
X5.7106Y-3.23
X5.7683Y-4.12
X5.7683Y-5.205
X5.7683Y-5.71
X5.77Y-4.54
X5.79Y-3.43
X5.79Y-3.6
X5.79Y-3.76
T5
X2.23Y-2.05
X2.23Y-3.92
X2.275Y-2.005
X2.29Y-4.39
X2.3Y-3.9346
X4.335Y-5.655
T6
X4.6919Y-4.9785
X4.6919Y-5.1715
X5.3734Y-4.33
X5.4719Y-4.33
T7
X1.82Y-2.5776
X1.92Y-2.5776
X2.02Y-2.5776
X5.64Y-4.5402
X5.64Y-4.6402
X5.64Y-4.7402
X5.64Y-4.8402
X5.64Y-4.9402
T8
X1.9049Y-4.9295
X1.9049Y-5.3311
X1.9066Y-3.7396
X1.9066Y-4.1412
X3.3999Y-3.7295
X3.3999Y-4.1311
X3.4049Y-4.9295
X3.4049Y-5.3311
T9
X1.91Y-2.8581
X1.91Y-3.055
T10
X1.87Y-6.0425
X2.0975Y-1.93
X2.0975Y-2.23
X2.17Y-6.0425
X2.56Y-6.0425
X2.86Y-6.0425
X3.25Y-6.0425
X3.55Y-6.0425
X3.94Y-6.0425
X4.24Y-6.0425
X5.0Y-2.1275
X5.3Y-2.1275
T11
X1.8049Y-5.1303
X1.8066Y-3.9404
X2.4033Y-4.7799
X2.405Y-3.59
X2.5033Y-5.4807
X2.505Y-4.2908
X2.8026Y-5.4807
X2.8042Y-4.2908
X3.2999Y-3.9303
X3.3049Y-5.1303
X3.8983Y-3.5799
X3.9033Y-4.7799
X3.9983Y-4.2807
X4.0033Y-5.4807
X4.2976Y-4.2807
X4.3026Y-5.4807
T12
X2.37Y-2.24
X2.37Y-2.3739
X2.89Y-2.24
X2.89Y-2.3739
X5.1648Y-2.4328
X5.1648Y-2.5667
X5.6848Y-2.4328
X5.6848Y-2.5667
T13
X1.85Y-3.3268
X1.85Y-5.69
X5.65Y-1.85
X5.65Y-6.3
M30
