M48
; DRILL file {KiCad 8.0.7} date 2025-02-08T09:32:51+0100
; FORMAT={-:-/ absolute / inch / decimal}
; #@! TF.CreationDate,2025-02-08T09:32:51+01:00
; #@! TF.GenerationSoftware,Kicad,Pcbnew,8.0.7
; #@! TF.FileFunction,Plated,1,2,PTH
FMAT,2
INCH
; #@! TA.AperFunction,Plated,PTH,ViaDrill
T1C0.0157
; #@! TA.AperFunction,Plated,PTH,ViaDrill
T2C0.0197
; #@! TA.AperFunction,Plated,PTH,ComponentDrill
T3C0.0197
; #@! TA.AperFunction,Plated,PTH,ViaDrill
T4C0.0236
; #@! TA.AperFunction,Plated,PTH,ComponentDrill
T5C0.0295
; #@! TA.AperFunction,Plated,PTH,ViaDrill
T6C0.0315
; #@! TA.AperFunction,Plated,PTH,ComponentDrill
T7C0.0315
; #@! TA.AperFunction,Plated,PTH,ComponentDrill
T8C0.0394
; #@! TA.AperFunction,Plated,PTH,ComponentDrill
T9C0.0433
; #@! TA.AperFunction,Plated,PTH,ComponentDrill
T10C0.0472
; #@! TA.AperFunction,Plated,PTH,ComponentDrill
T11C0.0520
; #@! TA.AperFunction,Plated,PTH,ComponentDrill
T12C0.0551
; #@! TA.AperFunction,Plated,PTH,ComponentDrill
T13C0.0630
; #@! TA.AperFunction,Plated,PTH,ComponentDrill
T14C0.0701
; #@! TA.AperFunction,Plated,PTH,ComponentDrill
T15C0.1260
%
G90
G05
T1
X1.795Y-3.515
X2.3652Y-1.8931
X2.4744Y-2.5624
X2.7975Y-4.1225
X2.82Y-2.165
X2.91Y-2.41
X2.93Y-3.47
X2.935Y-2.165
X3.025Y-3.015
X3.0321Y-2.9832
X3.05Y-2.17
X3.065Y-2.54
X3.125Y-2.475
X3.165Y-2.17
X3.195Y-2.595
X3.195Y-3.09
X3.215Y-3.49
X3.22Y-1.8971
X3.28Y-2.17
X3.285Y-4.41
X3.29Y-3.28
X3.42Y-2.785
X3.535Y-2.785
X3.54Y-2.39
X3.59Y-2.475
X3.6626Y-2.6703
X3.6727Y-2.9627
X3.695Y-2.985
X3.72Y-2.0649
X3.7311Y-3.1001
X3.7373Y-2.0913
X3.7653Y-2.1149
X3.785Y-2.1424
X3.7907Y-2.1757
X3.795Y-2.885
X3.8695Y-3.3405
X3.91Y-2.885
X3.92Y-2.535
X3.958Y-1.8774
X4.13Y-2.695
X4.22Y-2.185
X4.335Y-2.4666
X4.4Y-2.205
X4.445Y-3.135
X4.525Y-3.125
X4.53Y-3.09
X4.545Y-2.205
X4.545Y-2.725
X4.5773Y-2.8826
X4.615Y-3.175
X4.645Y-2.49
X4.645Y-3.07
X4.673Y-4.273
X4.741Y-4.313
X4.745Y-2.62
X4.785Y-2.38
X4.8716Y-2.62
X4.8768Y-3.425
X5.2891Y-1.8745
T2
X2.24Y-4.47
X2.5025Y-4.6075
X5.1031Y-3.1499
X5.1531Y-3.1499
X5.3181Y-2.1399
X5.3181Y-2.2649
X5.3181Y-2.3899
X5.4831Y-2.5699
X5.4831Y-2.6099
X5.4931Y-2.1399
X5.4931Y-2.2649
X5.4931Y-2.3899
X5.6131Y-2.5699
X5.6131Y-2.6099
X5.6431Y-2.1399
X5.6431Y-2.2649
X5.6431Y-2.3899
T3
X1.7555Y-3.3268
X1.7555Y-5.69
X1.7832Y-3.26
X1.7832Y-3.3936
X1.7832Y-5.6232
X1.7832Y-5.7568
X1.85Y-3.2323
X1.85Y-3.4213
X1.85Y-5.5955
X1.85Y-5.7845
X1.9168Y-3.26
X1.9168Y-3.3936
X1.9168Y-5.6232
X1.9168Y-5.7568
X1.9445Y-3.3268
X1.9445Y-5.69
X5.5555Y-1.85
X5.5555Y-6.3
X5.5832Y-1.7832
X5.5832Y-1.9168
X5.5832Y-6.2332
X5.5832Y-6.3668
X5.65Y-1.7555
X5.65Y-1.9445
X5.65Y-6.2055
X5.65Y-6.3945
X5.7168Y-1.7832
X5.7168Y-1.9168
X5.7168Y-6.2332
X5.7168Y-6.3668
X5.7445Y-1.85
X5.7445Y-6.3
T4
X1.695Y-3.42
X1.75Y-5.0
X1.8Y-5.9
X1.8Y-6.2
X1.8Y-6.4
X2.0Y-6.2
X2.0Y-6.4
X2.15Y-5.35
X2.2Y-5.7
X2.2Y-6.2
X2.2Y-6.4
X2.4Y-6.2
X2.4Y-6.4
X2.45Y-5.0
X2.5Y-5.7
X2.5033Y-5.5917
X2.6Y-6.2
X2.6Y-6.4
X2.8Y-6.2
X2.8Y-6.4
X3.0Y-6.2
X3.0Y-6.4
X3.02Y-4.73
X3.12Y-4.63
X3.2Y-6.4
X3.35Y-5.0
X3.4Y-5.4
X3.4Y-6.4
X3.45Y-5.8
X3.6Y-6.2
X3.6Y-6.4
X3.75Y-5.0
X3.75Y-5.3
X3.8Y-6.2
X3.8Y-6.4
X3.95Y-5.0
X3.95Y-5.3
X3.95Y-5.8
X4.0Y-6.2
X4.0Y-6.4
X4.03Y-5.62
X4.0875Y-5.5625
X4.15Y-5.0
X4.15Y-5.3
X4.2Y-5.8
X4.2Y-6.2
X4.2Y-6.4
X4.205Y-3.415
X4.2987Y-2.4233
X4.35Y-5.0
X4.35Y-5.3
X4.4Y-5.8
X4.4Y-6.0
X4.4Y-6.2
X4.4Y-6.4
X4.6Y-6.0
X4.6Y-6.2
X4.6Y-6.4
X4.8Y-5.3
X4.8Y-5.8
X4.8Y-6.0
X4.8Y-6.2
X4.8Y-6.4
X5.0Y-5.8
X5.0Y-6.2
X5.0Y-6.4
X5.05Y-5.0
X5.1553Y-4.3171
X5.2Y-5.4
X5.2Y-5.8
X5.2Y-6.2
X5.2Y-6.4
X5.2126Y-2.5974
X5.3Y-5.0
X5.4Y-5.4
X5.4Y-6.2
X5.4Y-6.4
X5.7Y-5.2
X5.7Y-5.4
X5.7Y-5.6
X5.7Y-5.8
X5.7Y-6.0
T5
X1.8667Y-2.0463
X1.8667Y-2.125
X1.8667Y-2.2037
X4.12Y-1.825
X4.12Y-1.9037
X4.12Y-1.9825
T6
X4.365Y-3.5851
X4.605Y-3.585
T7
X3.235Y-2.7471
X3.235Y-2.94
X4.135Y-2.8
X4.135Y-2.8984
X4.135Y-3.049
X4.135Y-3.1474
X4.49Y-1.88
X4.49Y-1.9784
X5.02Y-2.2116
X5.02Y-2.31
X5.02Y-2.49
X5.02Y-2.5884
T8
X1.89Y-2.49
X1.89Y-2.5884
X3.47Y-1.78
X3.57Y-1.78
X3.67Y-1.78
X3.77Y-1.78
X3.87Y-1.78
X4.56Y-5.0064
X4.56Y-5.2032
X5.4331Y-3.72
X5.63Y-3.72
T9
X1.9049Y-4.9295
X1.9049Y-5.3311
X1.9066Y-3.7396
X1.9066Y-4.1412
X3.2599Y-3.7395
X3.2599Y-4.1411
X3.2716Y-4.9295
X3.2716Y-5.3311
T10
X4.59Y-5.5288
X4.59Y-5.7257
X4.61Y-4.1588
X4.61Y-4.3557
T11
X5.57Y-4.242
X5.57Y-4.4389
T12
X1.87Y-6.0425
X2.17Y-6.0425
X2.56Y-6.0425
X2.86Y-6.0425
X3.25Y-6.0425
X3.55Y-6.0425
X3.94Y-6.0425
X4.24Y-6.0425
X5.4025Y-4.87
X5.4025Y-5.17
X5.4025Y-5.61
X5.4025Y-5.91
T13
X1.8049Y-5.1303
X1.8066Y-3.9404
X2.4033Y-4.7799
X2.405Y-3.59
X2.5033Y-5.4807
X2.505Y-4.2908
X2.8026Y-5.4807
X2.8042Y-4.2908
X3.1599Y-3.9403
X3.1716Y-5.1303
X3.7583Y-3.5899
X3.77Y-4.7799
X3.8583Y-4.2907
X3.87Y-5.4807
X4.1576Y-4.2907
X4.1692Y-5.4807
T14
X4.9833Y-4.7148
X4.9833Y-5.2348
X4.9833Y-5.5448
X4.9833Y-6.0648
X5.1172Y-4.7148
X5.1172Y-5.2348
X5.1172Y-5.5448
X5.1172Y-6.0648
T15
X1.85Y-3.3268
X1.85Y-5.69
X5.65Y-1.85
X5.65Y-6.3
M30
