G04 #@! TF.GenerationSoftware,KiCad,Pcbnew,8.0.7*
G04 #@! TF.CreationDate,2025-02-08T09:32:49+01:00*
G04 #@! TF.ProjectId,12VSupport,31325653-7570-4706-9f72-742e6b696361,1.2*
G04 #@! TF.SameCoordinates,Original*
G04 #@! TF.FileFunction,Paste,Top*
G04 #@! TF.FilePolarity,Positive*
%FSLAX46Y46*%
G04 Gerber Fmt 4.6, Leading zero omitted, Abs format (unit mm)*
G04 Created by KiCad (PCBNEW 8.0.7) date 2025-02-08 09:32:49*
%MOMM*%
%LPD*%
G01*
G04 APERTURE LIST*
G04 Aperture macros list*
%AMRoundRect*
0 Rectangle with rounded corners*
0 $1 Rounding radius*
0 $2 $3 $4 $5 $6 $7 $8 $9 X,Y pos of 4 corners*
0 Add a 4 corners polygon primitive as box body*
4,1,4,$2,$3,$4,$5,$6,$7,$8,$9,$2,$3,0*
0 Add four circle primitives for the rounded corners*
1,1,$1+$1,$2,$3*
1,1,$1+$1,$4,$5*
1,1,$1+$1,$6,$7*
1,1,$1+$1,$8,$9*
0 Add four rect primitives between the rounded corners*
20,1,$1+$1,$2,$3,$4,$5,0*
20,1,$1+$1,$4,$5,$6,$7,0*
20,1,$1+$1,$6,$7,$8,$9,0*
20,1,$1+$1,$8,$9,$2,$3,0*%
G04 Aperture macros list end*
%ADD10RoundRect,0.250000X-0.475000X0.250000X-0.475000X-0.250000X0.475000X-0.250000X0.475000X0.250000X0*%
%ADD11R,2.700000X3.600000*%
%ADD12RoundRect,0.250000X0.450000X-0.262500X0.450000X0.262500X-0.450000X0.262500X-0.450000X-0.262500X0*%
%ADD13RoundRect,0.150000X-0.875000X-0.150000X0.875000X-0.150000X0.875000X0.150000X-0.875000X0.150000X0*%
%ADD14RoundRect,0.250000X-0.450000X0.262500X-0.450000X-0.262500X0.450000X-0.262500X0.450000X0.262500X0*%
%ADD15RoundRect,0.250000X-0.262500X-0.450000X0.262500X-0.450000X0.262500X0.450000X-0.262500X0.450000X0*%
%ADD16RoundRect,0.150000X0.587500X0.150000X-0.587500X0.150000X-0.587500X-0.150000X0.587500X-0.150000X0*%
%ADD17RoundRect,0.150000X-0.150000X0.587500X-0.150000X-0.587500X0.150000X-0.587500X0.150000X0.587500X0*%
%ADD18RoundRect,0.243750X-0.243750X-0.456250X0.243750X-0.456250X0.243750X0.456250X-0.243750X0.456250X0*%
%ADD19RoundRect,0.243750X-0.456250X0.243750X-0.456250X-0.243750X0.456250X-0.243750X0.456250X0.243750X0*%
%ADD20RoundRect,0.250000X0.475000X-0.250000X0.475000X0.250000X-0.475000X0.250000X-0.475000X-0.250000X0*%
%ADD21R,2.900000X5.400000*%
%ADD22RoundRect,0.250000X0.262500X0.450000X-0.262500X0.450000X-0.262500X-0.450000X0.262500X-0.450000X0*%
%ADD23R,1.500000X1.500000*%
%ADD24RoundRect,0.250000X-0.650000X0.325000X-0.650000X-0.325000X0.650000X-0.325000X0.650000X0.325000X0*%
%ADD25RoundRect,0.250000X1.000000X0.650000X-1.000000X0.650000X-1.000000X-0.650000X1.000000X-0.650000X0*%
%ADD26RoundRect,0.250000X0.250000X0.475000X-0.250000X0.475000X-0.250000X-0.475000X0.250000X-0.475000X0*%
%ADD27RoundRect,0.250000X-0.650000X1.000000X-0.650000X-1.000000X0.650000X-1.000000X0.650000X1.000000X0*%
%ADD28RoundRect,0.250000X-0.900000X1.000000X-0.900000X-1.000000X0.900000X-1.000000X0.900000X1.000000X0*%
%ADD29RoundRect,0.250000X-0.350000X0.850000X-0.350000X-0.850000X0.350000X-0.850000X0.350000X0.850000X0*%
%ADD30RoundRect,0.250000X-1.125000X1.275000X-1.125000X-1.275000X1.125000X-1.275000X1.125000X1.275000X0*%
%ADD31RoundRect,0.150000X-0.150000X0.825000X-0.150000X-0.825000X0.150000X-0.825000X0.150000X0.825000X0*%
%ADD32RoundRect,0.250000X0.300000X-2.050000X0.300000X2.050000X-0.300000X2.050000X-0.300000X-2.050000X0*%
%ADD33RoundRect,0.250000X2.375000X-2.025000X2.375000X2.025000X-2.375000X2.025000X-2.375000X-2.025000X0*%
%ADD34RoundRect,0.250000X-0.250000X-0.475000X0.250000X-0.475000X0.250000X0.475000X-0.250000X0.475000X0*%
%ADD35O,1.750000X4.500000*%
%ADD36RoundRect,0.150000X0.150000X-0.825000X0.150000X0.825000X-0.150000X0.825000X-0.150000X-0.825000X0*%
%ADD37RoundRect,0.250000X-0.650000X0.412500X-0.650000X-0.412500X0.650000X-0.412500X0.650000X0.412500X0*%
G04 APERTURE END LIST*
D10*
X115824000Y-98364000D03*
X115824000Y-100264000D03*
X100584000Y-71374000D03*
X100584000Y-73274000D03*
D11*
X130134000Y-90424000D03*
X121834000Y-90424000D03*
D12*
X58553167Y-53998500D03*
X58553167Y-52173500D03*
D13*
X88441000Y-61849000D03*
X88441000Y-63119000D03*
X88441000Y-64389000D03*
X88441000Y-65659000D03*
X88441000Y-66929000D03*
X88441000Y-68199000D03*
X88441000Y-69469000D03*
X88441000Y-70739000D03*
X88441000Y-72009000D03*
X88441000Y-73279000D03*
X88441000Y-74549000D03*
X88441000Y-75819000D03*
X88441000Y-77089000D03*
X88441000Y-78359000D03*
X97741000Y-78359000D03*
X97741000Y-77089000D03*
X97741000Y-75819000D03*
X97741000Y-74549000D03*
X97741000Y-73279000D03*
X97741000Y-72009000D03*
X97741000Y-70739000D03*
X97741000Y-69469000D03*
X97741000Y-68199000D03*
X97741000Y-66929000D03*
X97741000Y-65659000D03*
X97741000Y-64389000D03*
X97741000Y-63119000D03*
X97741000Y-61849000D03*
D12*
X115443000Y-58824500D03*
X115443000Y-56999500D03*
X71628000Y-54276000D03*
X71628000Y-52451000D03*
D14*
X115443000Y-66524500D03*
X115443000Y-68349500D03*
D15*
X53062500Y-56007000D03*
X54887500Y-56007000D03*
D16*
X61422500Y-67051000D03*
X61422500Y-65151000D03*
X59547500Y-66101000D03*
D17*
X86548000Y-83215000D03*
X84648000Y-83215000D03*
X85598000Y-85090000D03*
D18*
X125808500Y-100838000D03*
X127683500Y-100838000D03*
D19*
X77470000Y-48186500D03*
X77470000Y-50061500D03*
D10*
X112268000Y-98364000D03*
X112268000Y-100264000D03*
D12*
X74549000Y-54276000D03*
X74549000Y-52451000D03*
D15*
X134192000Y-49390500D03*
X136017000Y-49390500D03*
D12*
X84455000Y-60983500D03*
X84455000Y-59158500D03*
D15*
X53062500Y-51943000D03*
X54887500Y-51943000D03*
D20*
X100965000Y-50414000D03*
X100965000Y-48514000D03*
D12*
X119126000Y-81280000D03*
X119126000Y-79455000D03*
D21*
X135082000Y-78610000D03*
X144982000Y-78610000D03*
D22*
X89939500Y-48895000D03*
X88114500Y-48895000D03*
D20*
X146304000Y-70038000D03*
X146304000Y-68138000D03*
D23*
X81661000Y-60071000D03*
X73861000Y-60071000D03*
D14*
X119126000Y-66548000D03*
X119126000Y-68373000D03*
D19*
X74549000Y-48186500D03*
X74549000Y-50061500D03*
D12*
X61474167Y-53998500D03*
X61474167Y-52173500D03*
D22*
X131849500Y-100838000D03*
X130024500Y-100838000D03*
D14*
X111760000Y-66524500D03*
X111760000Y-68349500D03*
D24*
X53721000Y-63217000D03*
X53721000Y-66167000D03*
D12*
X111760000Y-58848000D03*
X111760000Y-57023000D03*
D20*
X132080000Y-69530000D03*
X132080000Y-67630000D03*
D19*
X58553167Y-48084500D03*
X58553167Y-49959500D03*
D12*
X111760000Y-63523500D03*
X111760000Y-61698500D03*
D17*
X56322000Y-112171000D03*
X54422000Y-112171000D03*
X55372000Y-114046000D03*
D25*
X80518000Y-84328000D03*
X76518000Y-84328000D03*
D15*
X110085500Y-83669500D03*
X111910500Y-83669500D03*
D20*
X115062000Y-85024000D03*
X115062000Y-83124000D03*
D19*
X80391000Y-48186500D03*
X80391000Y-50061500D03*
D26*
X83070000Y-79719000D03*
X81170000Y-79719000D03*
D27*
X87630000Y-112554000D03*
X87630000Y-116554000D03*
X114046000Y-117126000D03*
X114046000Y-121126000D03*
D12*
X83312000Y-54276000D03*
X83312000Y-52451000D03*
D22*
X111910500Y-80621500D03*
X110085500Y-80621500D03*
D17*
X82738000Y-112171000D03*
X80838000Y-112171000D03*
X81788000Y-114046000D03*
D14*
X115443000Y-61722000D03*
X115443000Y-63547000D03*
D26*
X83070000Y-64733000D03*
X81170000Y-64733000D03*
D28*
X130253000Y-74943000D03*
X130253000Y-79243000D03*
D19*
X61474167Y-48084500D03*
X61474167Y-49959500D03*
D29*
X131699000Y-105029000D03*
D30*
X130944000Y-109654000D03*
X127894000Y-109654000D03*
X130944000Y-113004000D03*
X127894000Y-113004000D03*
D29*
X127139000Y-105029000D03*
D12*
X77470000Y-54276000D03*
X77470000Y-52451000D03*
D31*
X115824000Y-91062000D03*
X114554000Y-91062000D03*
X113284000Y-91062000D03*
X112014000Y-91062000D03*
X112014000Y-96012000D03*
X113284000Y-96012000D03*
X114554000Y-96012000D03*
X115824000Y-96012000D03*
D32*
X135870000Y-66805000D03*
X137570000Y-66805000D03*
X139270000Y-66805000D03*
D33*
X136495000Y-60080000D03*
X142045000Y-60080000D03*
X136495000Y-55230000D03*
X142045000Y-55230000D03*
D32*
X140970000Y-66805000D03*
X142670000Y-66805000D03*
D19*
X71628000Y-48186500D03*
X71628000Y-50061500D03*
D34*
X104272000Y-55499000D03*
X106172000Y-55499000D03*
D11*
X120056000Y-47752000D03*
X128356000Y-47752000D03*
D19*
X83312000Y-48186500D03*
X83312000Y-50061500D03*
D12*
X80391000Y-54276000D03*
X80391000Y-52451000D03*
D35*
X106654000Y-66040000D03*
X103404000Y-66040000D03*
D18*
X134167000Y-46088500D03*
X136042000Y-46088500D03*
D25*
X50514000Y-116332000D03*
X46514000Y-116332000D03*
D22*
X116228500Y-80621500D03*
X114403500Y-80621500D03*
D36*
X111633000Y-76578000D03*
X112903000Y-76578000D03*
X114173000Y-76578000D03*
X115443000Y-76578000D03*
X116713000Y-76578000D03*
X117983000Y-76578000D03*
X119253000Y-76578000D03*
X119253000Y-71628000D03*
X117983000Y-71628000D03*
X116713000Y-71628000D03*
X115443000Y-71628000D03*
X114173000Y-71628000D03*
X112903000Y-71628000D03*
X111633000Y-71628000D03*
D20*
X121920000Y-75118000D03*
X121920000Y-73218000D03*
D37*
X119380000Y-60198000D03*
X119380000Y-63323000D03*
D27*
X118618000Y-117126000D03*
X118618000Y-121126000D03*
M02*
