G04 #@! TF.GenerationSoftware,KiCad,Pcbnew,8.0.7*
G04 #@! TF.CreationDate,2025-02-08T09:32:49+01:00*
G04 #@! TF.ProjectId,12VSupport,31325653-7570-4706-9f72-742e6b696361,1.2*
G04 #@! TF.SameCoordinates,Original*
G04 #@! TF.FileFunction,Legend,Bot*
G04 #@! TF.FilePolarity,Positive*
%FSLAX46Y46*%
G04 Gerber Fmt 4.6, Leading zero omitted, Abs format (unit mm)*
G04 Created by KiCad (PCBNEW 8.0.7) date 2025-02-08 09:32:49*
%MOMM*%
%LPD*%
G01*
G04 APERTURE LIST*
G04 Aperture macros list*
%AMRoundRect*
0 Rectangle with rounded corners*
0 $1 Rounding radius*
0 $2 $3 $4 $5 $6 $7 $8 $9 X,Y pos of 4 corners*
0 Add a 4 corners polygon primitive as box body*
4,1,4,$2,$3,$4,$5,$6,$7,$8,$9,$2,$3,0*
0 Add four circle primitives for the rounded corners*
1,1,$1+$1,$2,$3*
1,1,$1+$1,$4,$5*
1,1,$1+$1,$6,$7*
1,1,$1+$1,$8,$9*
0 Add four rect primitives between the rounded corners*
20,1,$1+$1,$2,$3,$4,$5,0*
20,1,$1+$1,$4,$5,$6,$7,0*
20,1,$1+$1,$6,$7,$8,$9,0*
20,1,$1+$1,$8,$9,$2,$3,0*%
G04 Aperture macros list end*
%ADD10C,0.120000*%
%ADD11C,0.150000*%
%ADD12C,0.200000*%
%ADD13C,3.000000*%
%ADD14RoundRect,0.500000X0.500000X0.500000X-0.500000X0.500000X-0.500000X-0.500000X0.500000X-0.500000X0*%
%ADD15C,2.000000*%
%ADD16C,2.780000*%
%ADD17R,1.700000X1.700000*%
%ADD18O,1.700000X1.700000*%
%ADD19C,0.800000*%
%ADD20C,6.400000*%
%ADD21C,1.500000*%
%ADD22R,2.400000X2.400000*%
%ADD23C,2.400000*%
%ADD24R,1.600000X1.600000*%
%ADD25C,1.600000*%
%ADD26R,2.000000X2.000000*%
%ADD27RoundRect,0.250000X-0.625000X0.350000X-0.625000X-0.350000X0.625000X-0.350000X0.625000X0.350000X0*%
%ADD28O,1.750000X1.200000*%
%ADD29RoundRect,0.250000X-0.750000X0.600000X-0.750000X-0.600000X0.750000X-0.600000X0.750000X0.600000X0*%
%ADD30O,2.000000X1.700000*%
%ADD31RoundRect,0.250000X0.625000X-0.350000X0.625000X0.350000X-0.625000X0.350000X-0.625000X-0.350000X0*%
%ADD32R,3.960000X1.980000*%
%ADD33O,3.960000X1.980000*%
G04 APERTURE END LIST*
D10*
X65405000Y-143129000D02*
X99695000Y-143129000D01*
D11*
X85467649Y-142570200D02*
X85562887Y-142617819D01*
X85562887Y-142617819D02*
X85753363Y-142617819D01*
X85753363Y-142617819D02*
X85848601Y-142570200D01*
X85848601Y-142570200D02*
X85896220Y-142522580D01*
X85896220Y-142522580D02*
X85943839Y-142427342D01*
X85943839Y-142427342D02*
X85943839Y-142141628D01*
X85943839Y-142141628D02*
X85896220Y-142046390D01*
X85896220Y-142046390D02*
X85848601Y-141998771D01*
X85848601Y-141998771D02*
X85753363Y-141951152D01*
X85753363Y-141951152D02*
X85562887Y-141951152D01*
X85562887Y-141951152D02*
X85467649Y-141998771D01*
X84896220Y-142617819D02*
X84991458Y-142570200D01*
X84991458Y-142570200D02*
X85039077Y-142522580D01*
X85039077Y-142522580D02*
X85086696Y-142427342D01*
X85086696Y-142427342D02*
X85086696Y-142141628D01*
X85086696Y-142141628D02*
X85039077Y-142046390D01*
X85039077Y-142046390D02*
X84991458Y-141998771D01*
X84991458Y-141998771D02*
X84896220Y-141951152D01*
X84896220Y-141951152D02*
X84753363Y-141951152D01*
X84753363Y-141951152D02*
X84658125Y-141998771D01*
X84658125Y-141998771D02*
X84610506Y-142046390D01*
X84610506Y-142046390D02*
X84562887Y-142141628D01*
X84562887Y-142141628D02*
X84562887Y-142427342D01*
X84562887Y-142427342D02*
X84610506Y-142522580D01*
X84610506Y-142522580D02*
X84658125Y-142570200D01*
X84658125Y-142570200D02*
X84753363Y-142617819D01*
X84753363Y-142617819D02*
X84896220Y-142617819D01*
X84134315Y-141951152D02*
X84134315Y-142617819D01*
X84134315Y-142046390D02*
X84086696Y-141998771D01*
X84086696Y-141998771D02*
X83991458Y-141951152D01*
X83991458Y-141951152D02*
X83848601Y-141951152D01*
X83848601Y-141951152D02*
X83753363Y-141998771D01*
X83753363Y-141998771D02*
X83705744Y-142094009D01*
X83705744Y-142094009D02*
X83705744Y-142617819D01*
X83229553Y-141951152D02*
X83229553Y-142617819D01*
X83229553Y-142046390D02*
X83181934Y-141998771D01*
X83181934Y-141998771D02*
X83086696Y-141951152D01*
X83086696Y-141951152D02*
X82943839Y-141951152D01*
X82943839Y-141951152D02*
X82848601Y-141998771D01*
X82848601Y-141998771D02*
X82800982Y-142094009D01*
X82800982Y-142094009D02*
X82800982Y-142617819D01*
X81943839Y-142570200D02*
X82039077Y-142617819D01*
X82039077Y-142617819D02*
X82229553Y-142617819D01*
X82229553Y-142617819D02*
X82324791Y-142570200D01*
X82324791Y-142570200D02*
X82372410Y-142474961D01*
X82372410Y-142474961D02*
X82372410Y-142094009D01*
X82372410Y-142094009D02*
X82324791Y-141998771D01*
X82324791Y-141998771D02*
X82229553Y-141951152D01*
X82229553Y-141951152D02*
X82039077Y-141951152D01*
X82039077Y-141951152D02*
X81943839Y-141998771D01*
X81943839Y-141998771D02*
X81896220Y-142094009D01*
X81896220Y-142094009D02*
X81896220Y-142189247D01*
X81896220Y-142189247D02*
X82372410Y-142284485D01*
X81039077Y-142570200D02*
X81134315Y-142617819D01*
X81134315Y-142617819D02*
X81324791Y-142617819D01*
X81324791Y-142617819D02*
X81420029Y-142570200D01*
X81420029Y-142570200D02*
X81467648Y-142522580D01*
X81467648Y-142522580D02*
X81515267Y-142427342D01*
X81515267Y-142427342D02*
X81515267Y-142141628D01*
X81515267Y-142141628D02*
X81467648Y-142046390D01*
X81467648Y-142046390D02*
X81420029Y-141998771D01*
X81420029Y-141998771D02*
X81324791Y-141951152D01*
X81324791Y-141951152D02*
X81134315Y-141951152D01*
X81134315Y-141951152D02*
X81039077Y-141998771D01*
X80753362Y-141951152D02*
X80372410Y-141951152D01*
X80610505Y-141617819D02*
X80610505Y-142474961D01*
X80610505Y-142474961D02*
X80562886Y-142570200D01*
X80562886Y-142570200D02*
X80467648Y-142617819D01*
X80467648Y-142617819D02*
X80372410Y-142617819D01*
%LPC*%
D10*
X46235181Y-128348430D02*
X46487879Y-128416141D01*
X46729577Y-128516255D01*
X46956140Y-128647060D01*
X47163692Y-128806321D01*
X47348679Y-128991308D01*
X47507940Y-129198860D01*
X47638745Y-129425423D01*
X47738859Y-129667121D01*
X47806570Y-129919819D01*
X47840718Y-130179194D01*
X47840718Y-130440807D01*
X47806570Y-130700181D01*
X47738859Y-130952879D01*
X47638745Y-131194577D01*
X47507940Y-131421141D01*
X47348679Y-131628692D01*
X47259213Y-131724214D01*
X46345000Y-132638427D01*
X46345000Y-135067056D01*
X47887943Y-136610000D01*
X48710754Y-136610000D01*
X48841560Y-136614282D01*
X49100935Y-136648429D01*
X49353633Y-136716140D01*
X49595331Y-136816255D01*
X49821895Y-136947060D01*
X50029446Y-137106320D01*
X50124968Y-137195786D01*
X53804214Y-140875033D01*
X53893680Y-140970554D01*
X54052940Y-141178106D01*
X54183746Y-141404669D01*
X54283860Y-141646367D01*
X54351571Y-141899065D01*
X54368644Y-142028752D01*
X54385719Y-142158440D01*
X54385719Y-142158470D01*
X54390000Y-142289246D01*
X54390000Y-148588000D01*
X54385719Y-148718775D01*
X54385719Y-148718806D01*
X54368644Y-148848493D01*
X54351571Y-148978181D01*
X54283860Y-149230879D01*
X54183746Y-149472577D01*
X54052940Y-149699140D01*
X53893680Y-149906692D01*
X53804214Y-150002213D01*
X48912214Y-154894214D01*
X48816692Y-154983680D01*
X48609141Y-155142940D01*
X48382577Y-155273745D01*
X48140879Y-155373860D01*
X47888181Y-155441570D01*
X47628806Y-155475718D01*
X47367194Y-155475718D01*
X47107819Y-155441570D01*
X46855121Y-155373860D01*
X46613423Y-155273745D01*
X46386859Y-155142940D01*
X46179308Y-154983680D01*
X45994320Y-154798692D01*
X45835060Y-154591141D01*
X45704255Y-154364577D01*
X45604140Y-154122879D01*
X45536430Y-153870181D01*
X45502282Y-153610806D01*
X45502282Y-153349194D01*
X45536430Y-153089819D01*
X45604140Y-152837121D01*
X45704255Y-152595423D01*
X45835060Y-152368859D01*
X45994320Y-152161308D01*
X46083786Y-152065786D01*
X50390000Y-147759572D01*
X50390000Y-143117673D01*
X47882326Y-140610000D01*
X47059516Y-140610000D01*
X46928710Y-140605718D01*
X46928709Y-140605718D01*
X46898534Y-140601745D01*
X46669335Y-140571571D01*
X46416637Y-140503860D01*
X46174939Y-140403745D01*
X46160461Y-140395386D01*
X45948375Y-140272940D01*
X45815824Y-140171229D01*
X45740824Y-140113680D01*
X45740808Y-140113664D01*
X45645302Y-140024213D01*
X42930786Y-137309698D01*
X42841320Y-137214176D01*
X42682060Y-137006625D01*
X42551255Y-136780061D01*
X42451140Y-136538363D01*
X42383429Y-136285665D01*
X42349282Y-136026290D01*
X42345000Y-135895484D01*
X42345000Y-131810000D01*
X42349282Y-131679194D01*
X42383429Y-131419819D01*
X42451140Y-131167121D01*
X42551255Y-130925423D01*
X42682060Y-130698859D01*
X42841320Y-130491308D01*
X42930786Y-130395786D01*
X44430786Y-128895787D01*
X44526308Y-128806321D01*
X44733859Y-128647060D01*
X44960423Y-128516255D01*
X45202121Y-128416141D01*
X45454819Y-128348430D01*
X45714193Y-128314282D01*
X45975806Y-128314282D01*
X46235181Y-128348430D01*
G36*
X46235181Y-128348430D02*
G01*
X46487879Y-128416141D01*
X46729577Y-128516255D01*
X46956140Y-128647060D01*
X47163692Y-128806321D01*
X47348679Y-128991308D01*
X47507940Y-129198860D01*
X47638745Y-129425423D01*
X47738859Y-129667121D01*
X47806570Y-129919819D01*
X47840718Y-130179194D01*
X47840718Y-130440807D01*
X47806570Y-130700181D01*
X47738859Y-130952879D01*
X47638745Y-131194577D01*
X47507940Y-131421141D01*
X47348679Y-131628692D01*
X47259213Y-131724214D01*
X46345000Y-132638427D01*
X46345000Y-135067056D01*
X47887943Y-136610000D01*
X48710754Y-136610000D01*
X48841560Y-136614282D01*
X49100935Y-136648429D01*
X49353633Y-136716140D01*
X49595331Y-136816255D01*
X49821895Y-136947060D01*
X50029446Y-137106320D01*
X50124968Y-137195786D01*
X53804214Y-140875033D01*
X53893680Y-140970554D01*
X54052940Y-141178106D01*
X54183746Y-141404669D01*
X54283860Y-141646367D01*
X54351571Y-141899065D01*
X54368644Y-142028752D01*
X54385719Y-142158440D01*
X54385719Y-142158470D01*
X54390000Y-142289246D01*
X54390000Y-148588000D01*
X54385719Y-148718775D01*
X54385719Y-148718806D01*
X54368644Y-148848493D01*
X54351571Y-148978181D01*
X54283860Y-149230879D01*
X54183746Y-149472577D01*
X54052940Y-149699140D01*
X53893680Y-149906692D01*
X53804214Y-150002213D01*
X48912214Y-154894214D01*
X48816692Y-154983680D01*
X48609141Y-155142940D01*
X48382577Y-155273745D01*
X48140879Y-155373860D01*
X47888181Y-155441570D01*
X47628806Y-155475718D01*
X47367194Y-155475718D01*
X47107819Y-155441570D01*
X46855121Y-155373860D01*
X46613423Y-155273745D01*
X46386859Y-155142940D01*
X46179308Y-154983680D01*
X45994320Y-154798692D01*
X45835060Y-154591141D01*
X45704255Y-154364577D01*
X45604140Y-154122879D01*
X45536430Y-153870181D01*
X45502282Y-153610806D01*
X45502282Y-153349194D01*
X45536430Y-153089819D01*
X45604140Y-152837121D01*
X45704255Y-152595423D01*
X45835060Y-152368859D01*
X45994320Y-152161308D01*
X46083786Y-152065786D01*
X50390000Y-147759572D01*
X50390000Y-143117673D01*
X47882326Y-140610000D01*
X47059516Y-140610000D01*
X46928710Y-140605718D01*
X46928709Y-140605718D01*
X46898534Y-140601745D01*
X46669335Y-140571571D01*
X46416637Y-140503860D01*
X46174939Y-140403745D01*
X46160461Y-140395386D01*
X45948375Y-140272940D01*
X45815824Y-140171229D01*
X45740824Y-140113680D01*
X45740808Y-140113664D01*
X45645302Y-140024213D01*
X42930786Y-137309698D01*
X42841320Y-137214176D01*
X42682060Y-137006625D01*
X42551255Y-136780061D01*
X42451140Y-136538363D01*
X42383429Y-136285665D01*
X42349282Y-136026290D01*
X42345000Y-135895484D01*
X42345000Y-131810000D01*
X42349282Y-131679194D01*
X42383429Y-131419819D01*
X42451140Y-131167121D01*
X42551255Y-130925423D01*
X42682060Y-130698859D01*
X42841320Y-130491308D01*
X42930786Y-130395786D01*
X44430786Y-128895787D01*
X44526308Y-128806321D01*
X44733859Y-128647060D01*
X44960423Y-128516255D01*
X45202121Y-128416141D01*
X45454819Y-128348430D01*
X45714193Y-128314282D01*
X45975806Y-128314282D01*
X46235181Y-128348430D01*
G37*
D12*
X106288181Y-137248430D02*
X106540879Y-137316140D01*
X106782577Y-137416255D01*
X107009140Y-137547060D01*
X107216692Y-137706321D01*
X107401679Y-137891308D01*
X107560940Y-138098860D01*
X107691745Y-138325423D01*
X107791860Y-138567121D01*
X107859570Y-138819819D01*
X107893718Y-139079194D01*
X107893718Y-139340806D01*
X107859570Y-139600181D01*
X107791860Y-139852879D01*
X107691745Y-140094577D01*
X107560940Y-140321141D01*
X107401679Y-140528692D01*
X107312213Y-140624214D01*
X103776214Y-144160214D01*
X103680692Y-144249680D01*
X103473141Y-144408940D01*
X103246577Y-144539745D01*
X103004879Y-144639860D01*
X102752181Y-144707570D01*
X102492806Y-144741718D01*
X102231194Y-144741718D01*
X101971819Y-144707570D01*
X101719121Y-144639860D01*
X101477423Y-144539745D01*
X101250859Y-144408940D01*
X101043308Y-144249680D01*
X100858320Y-144064692D01*
X100699060Y-143857141D01*
X100568255Y-143630577D01*
X100468140Y-143388879D01*
X100400430Y-143136181D01*
X100366282Y-142876806D01*
X100366282Y-142615194D01*
X100400430Y-142355819D01*
X100468140Y-142103121D01*
X100568255Y-141861423D01*
X100699060Y-141634859D01*
X100858320Y-141427308D01*
X100947786Y-141331786D01*
X104483786Y-137795787D01*
X104579308Y-137706321D01*
X104786859Y-137547060D01*
X105013423Y-137416255D01*
X105255121Y-137316140D01*
X105507819Y-137248430D01*
X105767194Y-137214282D01*
X106028806Y-137214282D01*
X106288181Y-137248430D01*
G36*
X106288181Y-137248430D02*
G01*
X106540879Y-137316140D01*
X106782577Y-137416255D01*
X107009140Y-137547060D01*
X107216692Y-137706321D01*
X107401679Y-137891308D01*
X107560940Y-138098860D01*
X107691745Y-138325423D01*
X107791860Y-138567121D01*
X107859570Y-138819819D01*
X107893718Y-139079194D01*
X107893718Y-139340806D01*
X107859570Y-139600181D01*
X107791860Y-139852879D01*
X107691745Y-140094577D01*
X107560940Y-140321141D01*
X107401679Y-140528692D01*
X107312213Y-140624214D01*
X103776214Y-144160214D01*
X103680692Y-144249680D01*
X103473141Y-144408940D01*
X103246577Y-144539745D01*
X103004879Y-144639860D01*
X102752181Y-144707570D01*
X102492806Y-144741718D01*
X102231194Y-144741718D01*
X101971819Y-144707570D01*
X101719121Y-144639860D01*
X101477423Y-144539745D01*
X101250859Y-144408940D01*
X101043308Y-144249680D01*
X100858320Y-144064692D01*
X100699060Y-143857141D01*
X100568255Y-143630577D01*
X100468140Y-143388879D01*
X100400430Y-143136181D01*
X100366282Y-142876806D01*
X100366282Y-142615194D01*
X100400430Y-142355819D01*
X100468140Y-142103121D01*
X100568255Y-141861423D01*
X100699060Y-141634859D01*
X100858320Y-141427308D01*
X100947786Y-141331786D01*
X104483786Y-137795787D01*
X104579308Y-137706321D01*
X104786859Y-137547060D01*
X105013423Y-137416255D01*
X105255121Y-137316140D01*
X105507819Y-137248430D01*
X105767194Y-137214282D01*
X106028806Y-137214282D01*
X106288181Y-137248430D01*
G37*
D10*
X115494021Y-137214282D02*
X115753396Y-137248429D01*
X116006094Y-137316140D01*
X116247792Y-137416255D01*
X116474356Y-137547060D01*
X116681907Y-137706320D01*
X116777429Y-137795786D01*
X117414427Y-138432785D01*
X126172785Y-138432785D01*
X126303591Y-138437067D01*
X126562966Y-138471214D01*
X126815664Y-138538925D01*
X127057362Y-138639040D01*
X127283926Y-138769845D01*
X127371444Y-138837000D01*
X129977000Y-138837000D01*
X130107806Y-138841282D01*
X130367181Y-138875429D01*
X130619879Y-138943140D01*
X130861577Y-139043255D01*
X131088140Y-139174061D01*
X131295692Y-139333320D01*
X131480680Y-139518308D01*
X131639939Y-139725860D01*
X131770745Y-139952423D01*
X131870860Y-140194121D01*
X131938571Y-140446819D01*
X131972718Y-140706194D01*
X131972718Y-140967806D01*
X131938571Y-141227181D01*
X131870860Y-141479879D01*
X131770745Y-141721577D01*
X131639939Y-141948140D01*
X131480680Y-142155692D01*
X131295692Y-142340680D01*
X131088140Y-142499939D01*
X130861577Y-142630745D01*
X130619879Y-142730860D01*
X130367181Y-142798571D01*
X130107806Y-142832718D01*
X129977000Y-142837000D01*
X126577000Y-142837000D01*
X126446194Y-142832718D01*
X126446193Y-142832718D01*
X126416018Y-142828745D01*
X126186819Y-142798571D01*
X125934121Y-142730860D01*
X125692423Y-142630745D01*
X125465859Y-142499940D01*
X125378342Y-142432785D01*
X116586000Y-142432785D01*
X116455194Y-142428503D01*
X116195819Y-142394356D01*
X115943121Y-142326645D01*
X115701423Y-142226530D01*
X115474859Y-142095725D01*
X115342308Y-141994014D01*
X115267308Y-141936465D01*
X115267292Y-141936449D01*
X115171786Y-141846998D01*
X114534787Y-141210000D01*
X105898000Y-141210000D01*
X105767194Y-141205718D01*
X105507819Y-141171571D01*
X105255121Y-141103860D01*
X105013423Y-141003745D01*
X104786860Y-140872939D01*
X104579308Y-140713680D01*
X104394320Y-140528692D01*
X104235061Y-140321140D01*
X104104255Y-140094577D01*
X104004140Y-139852879D01*
X103936429Y-139600181D01*
X103902282Y-139340806D01*
X103902282Y-139079194D01*
X103936429Y-138819819D01*
X104004140Y-138567121D01*
X104104255Y-138325423D01*
X104235061Y-138098860D01*
X104394320Y-137891308D01*
X104579308Y-137706320D01*
X104786860Y-137547061D01*
X105013423Y-137416255D01*
X105255121Y-137316140D01*
X105507819Y-137248429D01*
X105767194Y-137214282D01*
X105898000Y-137210000D01*
X115363215Y-137210000D01*
X115494021Y-137214282D01*
G36*
X115494021Y-137214282D02*
G01*
X115753396Y-137248429D01*
X116006094Y-137316140D01*
X116247792Y-137416255D01*
X116474356Y-137547060D01*
X116681907Y-137706320D01*
X116777429Y-137795786D01*
X117414427Y-138432785D01*
X126172785Y-138432785D01*
X126303591Y-138437067D01*
X126562966Y-138471214D01*
X126815664Y-138538925D01*
X127057362Y-138639040D01*
X127283926Y-138769845D01*
X127371444Y-138837000D01*
X129977000Y-138837000D01*
X130107806Y-138841282D01*
X130367181Y-138875429D01*
X130619879Y-138943140D01*
X130861577Y-139043255D01*
X131088140Y-139174061D01*
X131295692Y-139333320D01*
X131480680Y-139518308D01*
X131639939Y-139725860D01*
X131770745Y-139952423D01*
X131870860Y-140194121D01*
X131938571Y-140446819D01*
X131972718Y-140706194D01*
X131972718Y-140967806D01*
X131938571Y-141227181D01*
X131870860Y-141479879D01*
X131770745Y-141721577D01*
X131639939Y-141948140D01*
X131480680Y-142155692D01*
X131295692Y-142340680D01*
X131088140Y-142499939D01*
X130861577Y-142630745D01*
X130619879Y-142730860D01*
X130367181Y-142798571D01*
X130107806Y-142832718D01*
X129977000Y-142837000D01*
X126577000Y-142837000D01*
X126446194Y-142832718D01*
X126446193Y-142832718D01*
X126416018Y-142828745D01*
X126186819Y-142798571D01*
X125934121Y-142730860D01*
X125692423Y-142630745D01*
X125465859Y-142499940D01*
X125378342Y-142432785D01*
X116586000Y-142432785D01*
X116455194Y-142428503D01*
X116195819Y-142394356D01*
X115943121Y-142326645D01*
X115701423Y-142226530D01*
X115474859Y-142095725D01*
X115342308Y-141994014D01*
X115267308Y-141936465D01*
X115267292Y-141936449D01*
X115171786Y-141846998D01*
X114534787Y-141210000D01*
X105898000Y-141210000D01*
X105767194Y-141205718D01*
X105507819Y-141171571D01*
X105255121Y-141103860D01*
X105013423Y-141003745D01*
X104786860Y-140872939D01*
X104579308Y-140713680D01*
X104394320Y-140528692D01*
X104235061Y-140321140D01*
X104104255Y-140094577D01*
X104004140Y-139852879D01*
X103936429Y-139600181D01*
X103902282Y-139340806D01*
X103902282Y-139079194D01*
X103936429Y-138819819D01*
X104004140Y-138567121D01*
X104104255Y-138325423D01*
X104235061Y-138098860D01*
X104394320Y-137891308D01*
X104579308Y-137706320D01*
X104786860Y-137547061D01*
X105013423Y-137416255D01*
X105255121Y-137316140D01*
X105507819Y-137248429D01*
X105767194Y-137214282D01*
X105898000Y-137210000D01*
X115363215Y-137210000D01*
X115494021Y-137214282D01*
G37*
D12*
X63958513Y-137654208D02*
X64197293Y-137731793D01*
X64420998Y-137845776D01*
X64624117Y-137993350D01*
X64801650Y-138170883D01*
X64949224Y-138374002D01*
X65063207Y-138597707D01*
X65140792Y-138836487D01*
X65180068Y-139084465D01*
X65185000Y-139210000D01*
X65185000Y-142071000D01*
X65180068Y-142196535D01*
X65140792Y-142444513D01*
X65063207Y-142683293D01*
X64949224Y-142906998D01*
X64801650Y-143110117D01*
X64624117Y-143287650D01*
X64420998Y-143435224D01*
X64197293Y-143549207D01*
X63958513Y-143626792D01*
X63710535Y-143666068D01*
X63459465Y-143666068D01*
X63211487Y-143626792D01*
X62972707Y-143549207D01*
X62749002Y-143435224D01*
X62545883Y-143287650D01*
X62368350Y-143110117D01*
X62220776Y-142906998D01*
X62106793Y-142683293D01*
X62029208Y-142444513D01*
X61989932Y-142196535D01*
X61985000Y-142071000D01*
X61985000Y-139210000D01*
X61989932Y-139084465D01*
X62029208Y-138836487D01*
X62106793Y-138597707D01*
X62220776Y-138374002D01*
X62368350Y-138170883D01*
X62545883Y-137993350D01*
X62749002Y-137845776D01*
X62972707Y-137731793D01*
X63211487Y-137654208D01*
X63459465Y-137614932D01*
X63710535Y-137614932D01*
X63958513Y-137654208D01*
G36*
X63958513Y-137654208D02*
G01*
X64197293Y-137731793D01*
X64420998Y-137845776D01*
X64624117Y-137993350D01*
X64801650Y-138170883D01*
X64949224Y-138374002D01*
X65063207Y-138597707D01*
X65140792Y-138836487D01*
X65180068Y-139084465D01*
X65185000Y-139210000D01*
X65185000Y-142071000D01*
X65180068Y-142196535D01*
X65140792Y-142444513D01*
X65063207Y-142683293D01*
X64949224Y-142906998D01*
X64801650Y-143110117D01*
X64624117Y-143287650D01*
X64420998Y-143435224D01*
X64197293Y-143549207D01*
X63958513Y-143626792D01*
X63710535Y-143666068D01*
X63459465Y-143666068D01*
X63211487Y-143626792D01*
X62972707Y-143549207D01*
X62749002Y-143435224D01*
X62545883Y-143287650D01*
X62368350Y-143110117D01*
X62220776Y-142906998D01*
X62106793Y-142683293D01*
X62029208Y-142444513D01*
X61989932Y-142196535D01*
X61985000Y-142071000D01*
X61985000Y-139210000D01*
X61989932Y-139084465D01*
X62029208Y-138836487D01*
X62106793Y-138597707D01*
X62220776Y-138374002D01*
X62368350Y-138170883D01*
X62545883Y-137993350D01*
X62749002Y-137845776D01*
X62972707Y-137731793D01*
X63211487Y-137654208D01*
X63459465Y-137614932D01*
X63710535Y-137614932D01*
X63958513Y-137654208D01*
G37*
D10*
X137354806Y-148118282D02*
X137614181Y-148152429D01*
X137866879Y-148220140D01*
X138108577Y-148320255D01*
X138335140Y-148451061D01*
X138542692Y-148610320D01*
X138727680Y-148795308D01*
X138886939Y-149002860D01*
X139017745Y-149229423D01*
X139117860Y-149471121D01*
X139185571Y-149723819D01*
X139219718Y-149983194D01*
X139219718Y-150244806D01*
X139185571Y-150504181D01*
X139117860Y-150756879D01*
X139017745Y-150998577D01*
X138886939Y-151225140D01*
X138727680Y-151432692D01*
X138542692Y-151617680D01*
X138335140Y-151776939D01*
X138108577Y-151907745D01*
X137931216Y-151981210D01*
X134453214Y-155459214D01*
X134357692Y-155548680D01*
X134150141Y-155707940D01*
X133923577Y-155838745D01*
X133681879Y-155938860D01*
X133429181Y-156006571D01*
X133169806Y-156040718D01*
X133039000Y-156045000D01*
X126577000Y-156045000D01*
X126446194Y-156040718D01*
X126186819Y-156006571D01*
X125934121Y-155938860D01*
X125692423Y-155838745D01*
X125465860Y-155707939D01*
X125258308Y-155548680D01*
X125073320Y-155363692D01*
X124914061Y-155156140D01*
X124783255Y-154929577D01*
X124683140Y-154687879D01*
X124615429Y-154435181D01*
X124581282Y-154175806D01*
X124581282Y-153914194D01*
X124615429Y-153654819D01*
X124683140Y-153402121D01*
X124783255Y-153160423D01*
X124914061Y-152933860D01*
X125073320Y-152726308D01*
X125258308Y-152541320D01*
X125465860Y-152382061D01*
X125692423Y-152251255D01*
X125934121Y-152151140D01*
X126186819Y-152083429D01*
X126446194Y-152049282D01*
X126577000Y-152045000D01*
X132210572Y-152045000D01*
X135555787Y-148699786D01*
X135651308Y-148610320D01*
X135858860Y-148451060D01*
X136085423Y-148320254D01*
X136327121Y-148220140D01*
X136579819Y-148152429D01*
X136717516Y-148134300D01*
X136839194Y-148118281D01*
X136839225Y-148118281D01*
X136970000Y-148114000D01*
X137224000Y-148114000D01*
X137354806Y-148118282D01*
G36*
X137354806Y-148118282D02*
G01*
X137614181Y-148152429D01*
X137866879Y-148220140D01*
X138108577Y-148320255D01*
X138335140Y-148451061D01*
X138542692Y-148610320D01*
X138727680Y-148795308D01*
X138886939Y-149002860D01*
X139017745Y-149229423D01*
X139117860Y-149471121D01*
X139185571Y-149723819D01*
X139219718Y-149983194D01*
X139219718Y-150244806D01*
X139185571Y-150504181D01*
X139117860Y-150756879D01*
X139017745Y-150998577D01*
X138886939Y-151225140D01*
X138727680Y-151432692D01*
X138542692Y-151617680D01*
X138335140Y-151776939D01*
X138108577Y-151907745D01*
X137931216Y-151981210D01*
X134453214Y-155459214D01*
X134357692Y-155548680D01*
X134150141Y-155707940D01*
X133923577Y-155838745D01*
X133681879Y-155938860D01*
X133429181Y-156006571D01*
X133169806Y-156040718D01*
X133039000Y-156045000D01*
X126577000Y-156045000D01*
X126446194Y-156040718D01*
X126186819Y-156006571D01*
X125934121Y-155938860D01*
X125692423Y-155838745D01*
X125465860Y-155707939D01*
X125258308Y-155548680D01*
X125073320Y-155363692D01*
X124914061Y-155156140D01*
X124783255Y-154929577D01*
X124683140Y-154687879D01*
X124615429Y-154435181D01*
X124581282Y-154175806D01*
X124581282Y-153914194D01*
X124615429Y-153654819D01*
X124683140Y-153402121D01*
X124783255Y-153160423D01*
X124914061Y-152933860D01*
X125073320Y-152726308D01*
X125258308Y-152541320D01*
X125465860Y-152382061D01*
X125692423Y-152251255D01*
X125934121Y-152151140D01*
X126186819Y-152083429D01*
X126446194Y-152049282D01*
X126577000Y-152045000D01*
X132210572Y-152045000D01*
X135555787Y-148699786D01*
X135651308Y-148610320D01*
X135858860Y-148451060D01*
X136085423Y-148320254D01*
X136327121Y-148220140D01*
X136579819Y-148152429D01*
X136717516Y-148134300D01*
X136839194Y-148118281D01*
X136839225Y-148118281D01*
X136970000Y-148114000D01*
X137224000Y-148114000D01*
X137354806Y-148118282D01*
G37*
D13*
X90170000Y-153480000D03*
X82550000Y-153480000D03*
X80558000Y-130310000D03*
X95758000Y-121410000D03*
X105898000Y-139210000D03*
X98298000Y-139210000D03*
D14*
X83098000Y-125210000D03*
D15*
X83098000Y-135410000D03*
D16*
X129977000Y-140837000D03*
X126577000Y-140837000D03*
X129977000Y-154045000D03*
X126577000Y-154045000D03*
D17*
X88138000Y-45212000D03*
D18*
X90678000Y-45212000D03*
X93218000Y-45212000D03*
X95758000Y-45212000D03*
X98298000Y-45212000D03*
D19*
X141110000Y-46990000D03*
X141812944Y-45292944D03*
X141812944Y-48687056D03*
X143510000Y-44590000D03*
D20*
X143510000Y-46990000D03*
D19*
X143510000Y-49390000D03*
X145207056Y-45292944D03*
X145207056Y-48687056D03*
X145910000Y-46990000D03*
D13*
X45845000Y-130310000D03*
X61045000Y-121410000D03*
X71185000Y-139210000D03*
X63585000Y-139210000D03*
D14*
X48385000Y-125210000D03*
D15*
X48385000Y-135410000D03*
D13*
X137224000Y-123698000D03*
X137224000Y-131318000D03*
D19*
X141110000Y-160020000D03*
X141812944Y-158322944D03*
X141812944Y-161717056D03*
X143510000Y-157620000D03*
D20*
X143510000Y-160020000D03*
D19*
X143510000Y-162420000D03*
X145207056Y-158322944D03*
X145207056Y-161717056D03*
X145910000Y-160020000D03*
X44590000Y-144526000D03*
X45292944Y-142828944D03*
X45292944Y-146223056D03*
X46990000Y-142126000D03*
D20*
X46990000Y-144526000D03*
D19*
X46990000Y-146926000D03*
X48687056Y-142828944D03*
X48687056Y-146223056D03*
X49390000Y-144526000D03*
X44590000Y-84501056D03*
X45292944Y-82804000D03*
X45292944Y-86198112D03*
X46990000Y-82101056D03*
D20*
X46990000Y-84501056D03*
D19*
X46990000Y-86901056D03*
X48687056Y-82804000D03*
X48687056Y-86198112D03*
X49390000Y-84501056D03*
D13*
X72644000Y-153480000D03*
X65024000Y-153480000D03*
D21*
X82169000Y-69776000D03*
X82169000Y-74676000D03*
D22*
X117094000Y-105634785D03*
D23*
X117094000Y-110634785D03*
D13*
X55118000Y-153480000D03*
X47498000Y-153480000D03*
D24*
X127508000Y-63246000D03*
D25*
X127508000Y-65746000D03*
D13*
X80262000Y-100084000D03*
X95462000Y-91184000D03*
X105602000Y-108984000D03*
X98002000Y-108984000D03*
D14*
X82802000Y-94984000D03*
D15*
X82802000Y-105184000D03*
D26*
X138002000Y-94488000D03*
D15*
X143002000Y-94488000D03*
D24*
X105029000Y-73620000D03*
D25*
X105029000Y-71120000D03*
D27*
X47413000Y-51975000D03*
D28*
X47413000Y-53975000D03*
X47413000Y-55975000D03*
D24*
X105029000Y-79945113D03*
D25*
X105029000Y-77445113D03*
D24*
X114046000Y-50252000D03*
D25*
X114046000Y-47752000D03*
D29*
X48006000Y-63246000D03*
D30*
X48006000Y-65746000D03*
D24*
X127508000Y-56174000D03*
D25*
X127508000Y-58674000D03*
D13*
X45887000Y-100086000D03*
X61087000Y-91186000D03*
X71227000Y-108986000D03*
X63627000Y-108986000D03*
D14*
X48427000Y-94986000D03*
D15*
X48427000Y-105186000D03*
D22*
X116586000Y-140432785D03*
D23*
X116586000Y-145432785D03*
D13*
X107696000Y-153480000D03*
X100076000Y-153480000D03*
X137224000Y-142494000D03*
X137224000Y-150114000D03*
D31*
X104648000Y-50355000D03*
D28*
X104648000Y-48355000D03*
X104648000Y-46355000D03*
D16*
X129977000Y-119755000D03*
X126577000Y-119755000D03*
X129977000Y-132963000D03*
X126577000Y-132963000D03*
D32*
X141478000Y-112747000D03*
D33*
X141478000Y-107747000D03*
D26*
X115824000Y-132161677D03*
D15*
X115824000Y-127161677D03*
%LPD*%
M02*
