G04 #@! TF.GenerationSoftware,KiCad,Pcbnew,8.0.7*
G04 #@! TF.CreationDate,2025-02-08T09:32:49+01:00*
G04 #@! TF.ProjectId,12VSupport,31325653-7570-4706-9f72-742e6b696361,1.2*
G04 #@! TF.SameCoordinates,Original*
G04 #@! TF.FileFunction,Copper,L1,Top*
G04 #@! TF.FilePolarity,Positive*
%FSLAX46Y46*%
G04 Gerber Fmt 4.6, Leading zero omitted, Abs format (unit mm)*
G04 Created by KiCad (PCBNEW 8.0.7) date 2025-02-08 09:32:49*
%MOMM*%
%LPD*%
G01*
G04 APERTURE LIST*
G04 Aperture macros list*
%AMRoundRect*
0 Rectangle with rounded corners*
0 $1 Rounding radius*
0 $2 $3 $4 $5 $6 $7 $8 $9 X,Y pos of 4 corners*
0 Add a 4 corners polygon primitive as box body*
4,1,4,$2,$3,$4,$5,$6,$7,$8,$9,$2,$3,0*
0 Add four circle primitives for the rounded corners*
1,1,$1+$1,$2,$3*
1,1,$1+$1,$4,$5*
1,1,$1+$1,$6,$7*
1,1,$1+$1,$8,$9*
0 Add four rect primitives between the rounded corners*
20,1,$1+$1,$2,$3,$4,$5,0*
20,1,$1+$1,$4,$5,$6,$7,0*
20,1,$1+$1,$6,$7,$8,$9,0*
20,1,$1+$1,$8,$9,$2,$3,0*%
G04 Aperture macros list end*
G04 #@! TA.AperFunction,ComponentPad*
%ADD10C,3.000000*%
G04 #@! TD*
G04 #@! TA.AperFunction,SMDPad,CuDef*
%ADD11RoundRect,0.250000X-0.475000X0.250000X-0.475000X-0.250000X0.475000X-0.250000X0.475000X0.250000X0*%
G04 #@! TD*
G04 #@! TA.AperFunction,SMDPad,CuDef*
%ADD12R,2.700000X3.600000*%
G04 #@! TD*
G04 #@! TA.AperFunction,SMDPad,CuDef*
%ADD13RoundRect,0.250000X0.450000X-0.262500X0.450000X0.262500X-0.450000X0.262500X-0.450000X-0.262500X0*%
G04 #@! TD*
G04 #@! TA.AperFunction,SMDPad,CuDef*
%ADD14RoundRect,0.150000X-0.875000X-0.150000X0.875000X-0.150000X0.875000X0.150000X-0.875000X0.150000X0*%
G04 #@! TD*
G04 #@! TA.AperFunction,SMDPad,CuDef*
%ADD15RoundRect,0.250000X-0.450000X0.262500X-0.450000X-0.262500X0.450000X-0.262500X0.450000X0.262500X0*%
G04 #@! TD*
G04 #@! TA.AperFunction,SMDPad,CuDef*
%ADD16RoundRect,0.250000X-0.262500X-0.450000X0.262500X-0.450000X0.262500X0.450000X-0.262500X0.450000X0*%
G04 #@! TD*
G04 #@! TA.AperFunction,SMDPad,CuDef*
%ADD17RoundRect,0.150000X0.587500X0.150000X-0.587500X0.150000X-0.587500X-0.150000X0.587500X-0.150000X0*%
G04 #@! TD*
G04 #@! TA.AperFunction,SMDPad,CuDef*
%ADD18RoundRect,0.150000X-0.150000X0.587500X-0.150000X-0.587500X0.150000X-0.587500X0.150000X0.587500X0*%
G04 #@! TD*
G04 #@! TA.AperFunction,SMDPad,CuDef*
%ADD19RoundRect,0.243750X-0.243750X-0.456250X0.243750X-0.456250X0.243750X0.456250X-0.243750X0.456250X0*%
G04 #@! TD*
G04 #@! TA.AperFunction,ComponentPad*
%ADD20RoundRect,0.500000X0.500000X0.500000X-0.500000X0.500000X-0.500000X-0.500000X0.500000X-0.500000X0*%
G04 #@! TD*
G04 #@! TA.AperFunction,ComponentPad*
%ADD21C,2.000000*%
G04 #@! TD*
G04 #@! TA.AperFunction,ComponentPad*
%ADD22C,2.780000*%
G04 #@! TD*
G04 #@! TA.AperFunction,SMDPad,CuDef*
%ADD23RoundRect,0.243750X-0.456250X0.243750X-0.456250X-0.243750X0.456250X-0.243750X0.456250X0.243750X0*%
G04 #@! TD*
G04 #@! TA.AperFunction,ComponentPad*
%ADD24R,1.700000X1.700000*%
G04 #@! TD*
G04 #@! TA.AperFunction,ComponentPad*
%ADD25O,1.700000X1.700000*%
G04 #@! TD*
G04 #@! TA.AperFunction,ComponentPad*
%ADD26C,0.800000*%
G04 #@! TD*
G04 #@! TA.AperFunction,ComponentPad*
%ADD27C,6.400000*%
G04 #@! TD*
G04 #@! TA.AperFunction,SMDPad,CuDef*
%ADD28RoundRect,0.250000X0.475000X-0.250000X0.475000X0.250000X-0.475000X0.250000X-0.475000X-0.250000X0*%
G04 #@! TD*
G04 #@! TA.AperFunction,SMDPad,CuDef*
%ADD29R,2.900000X5.400000*%
G04 #@! TD*
G04 #@! TA.AperFunction,SMDPad,CuDef*
%ADD30RoundRect,0.250000X0.262500X0.450000X-0.262500X0.450000X-0.262500X-0.450000X0.262500X-0.450000X0*%
G04 #@! TD*
G04 #@! TA.AperFunction,SMDPad,CuDef*
%ADD31R,1.500000X1.500000*%
G04 #@! TD*
G04 #@! TA.AperFunction,SMDPad,CuDef*
%ADD32RoundRect,0.250000X-0.650000X0.325000X-0.650000X-0.325000X0.650000X-0.325000X0.650000X0.325000X0*%
G04 #@! TD*
G04 #@! TA.AperFunction,ComponentPad*
%ADD33C,1.500000*%
G04 #@! TD*
G04 #@! TA.AperFunction,SMDPad,CuDef*
%ADD34RoundRect,0.250000X1.000000X0.650000X-1.000000X0.650000X-1.000000X-0.650000X1.000000X-0.650000X0*%
G04 #@! TD*
G04 #@! TA.AperFunction,SMDPad,CuDef*
%ADD35RoundRect,0.250000X0.250000X0.475000X-0.250000X0.475000X-0.250000X-0.475000X0.250000X-0.475000X0*%
G04 #@! TD*
G04 #@! TA.AperFunction,SMDPad,CuDef*
%ADD36RoundRect,0.250000X-0.650000X1.000000X-0.650000X-1.000000X0.650000X-1.000000X0.650000X1.000000X0*%
G04 #@! TD*
G04 #@! TA.AperFunction,ComponentPad*
%ADD37R,2.400000X2.400000*%
G04 #@! TD*
G04 #@! TA.AperFunction,ComponentPad*
%ADD38C,2.400000*%
G04 #@! TD*
G04 #@! TA.AperFunction,ComponentPad*
%ADD39R,1.600000X1.600000*%
G04 #@! TD*
G04 #@! TA.AperFunction,ComponentPad*
%ADD40C,1.600000*%
G04 #@! TD*
G04 #@! TA.AperFunction,ComponentPad*
%ADD41R,2.000000X2.000000*%
G04 #@! TD*
G04 #@! TA.AperFunction,SMDPad,CuDef*
%ADD42RoundRect,0.250000X-0.900000X1.000000X-0.900000X-1.000000X0.900000X-1.000000X0.900000X1.000000X0*%
G04 #@! TD*
G04 #@! TA.AperFunction,SMDPad,CuDef*
%ADD43RoundRect,0.250000X-0.350000X0.850000X-0.350000X-0.850000X0.350000X-0.850000X0.350000X0.850000X0*%
G04 #@! TD*
G04 #@! TA.AperFunction,SMDPad,CuDef*
%ADD44RoundRect,0.250000X-1.125000X1.275000X-1.125000X-1.275000X1.125000X-1.275000X1.125000X1.275000X0*%
G04 #@! TD*
G04 #@! TA.AperFunction,SMDPad,CuDef*
%ADD45RoundRect,0.249997X-2.650003X2.950003X-2.650003X-2.950003X2.650003X-2.950003X2.650003X2.950003X0*%
G04 #@! TD*
G04 #@! TA.AperFunction,SMDPad,CuDef*
%ADD46RoundRect,0.150000X-0.150000X0.825000X-0.150000X-0.825000X0.150000X-0.825000X0.150000X0.825000X0*%
G04 #@! TD*
G04 #@! TA.AperFunction,ComponentPad*
%ADD47RoundRect,0.250000X-0.625000X0.350000X-0.625000X-0.350000X0.625000X-0.350000X0.625000X0.350000X0*%
G04 #@! TD*
G04 #@! TA.AperFunction,ComponentPad*
%ADD48O,1.750000X1.200000*%
G04 #@! TD*
G04 #@! TA.AperFunction,SMDPad,CuDef*
%ADD49RoundRect,0.250000X0.300000X-2.050000X0.300000X2.050000X-0.300000X2.050000X-0.300000X-2.050000X0*%
G04 #@! TD*
G04 #@! TA.AperFunction,SMDPad,CuDef*
%ADD50RoundRect,0.250000X2.375000X-2.025000X2.375000X2.025000X-2.375000X2.025000X-2.375000X-2.025000X0*%
G04 #@! TD*
G04 #@! TA.AperFunction,SMDPad,CuDef*
%ADD51RoundRect,0.250002X5.149998X-4.449998X5.149998X4.449998X-5.149998X4.449998X-5.149998X-4.449998X0*%
G04 #@! TD*
G04 #@! TA.AperFunction,ComponentPad*
%ADD52RoundRect,0.250000X-0.750000X0.600000X-0.750000X-0.600000X0.750000X-0.600000X0.750000X0.600000X0*%
G04 #@! TD*
G04 #@! TA.AperFunction,ComponentPad*
%ADD53O,2.000000X1.700000*%
G04 #@! TD*
G04 #@! TA.AperFunction,SMDPad,CuDef*
%ADD54RoundRect,0.250000X-0.250000X-0.475000X0.250000X-0.475000X0.250000X0.475000X-0.250000X0.475000X0*%
G04 #@! TD*
G04 #@! TA.AperFunction,SMDPad,CuDef*
%ADD55O,1.750000X4.500000*%
G04 #@! TD*
G04 #@! TA.AperFunction,ComponentPad*
%ADD56RoundRect,0.250000X0.625000X-0.350000X0.625000X0.350000X-0.625000X0.350000X-0.625000X-0.350000X0*%
G04 #@! TD*
G04 #@! TA.AperFunction,ComponentPad*
%ADD57R,3.960000X1.980000*%
G04 #@! TD*
G04 #@! TA.AperFunction,ComponentPad*
%ADD58O,3.960000X1.980000*%
G04 #@! TD*
G04 #@! TA.AperFunction,SMDPad,CuDef*
%ADD59RoundRect,0.150000X0.150000X-0.825000X0.150000X0.825000X-0.150000X0.825000X-0.150000X-0.825000X0*%
G04 #@! TD*
G04 #@! TA.AperFunction,SMDPad,CuDef*
%ADD60RoundRect,0.250000X-0.650000X0.412500X-0.650000X-0.412500X0.650000X-0.412500X0.650000X0.412500X0*%
G04 #@! TD*
G04 #@! TA.AperFunction,ViaPad*
%ADD61C,1.000000*%
G04 #@! TD*
G04 #@! TA.AperFunction,ViaPad*
%ADD62C,0.600000*%
G04 #@! TD*
G04 #@! TA.AperFunction,ViaPad*
%ADD63C,0.800000*%
G04 #@! TD*
G04 #@! TA.AperFunction,ViaPad*
%ADD64C,1.200000*%
G04 #@! TD*
G04 #@! TA.AperFunction,Conductor*
%ADD65C,0.800000*%
G04 #@! TD*
G04 #@! TA.AperFunction,Conductor*
%ADD66C,1.200000*%
G04 #@! TD*
G04 #@! TA.AperFunction,Conductor*
%ADD67C,0.400000*%
G04 #@! TD*
G04 #@! TA.AperFunction,Conductor*
%ADD68C,1.800000*%
G04 #@! TD*
G04 #@! TA.AperFunction,Conductor*
%ADD69C,4.000000*%
G04 #@! TD*
G04 #@! TA.AperFunction,Conductor*
%ADD70C,0.500000*%
G04 #@! TD*
G04 APERTURE END LIST*
D10*
X90170000Y-153480000D03*
X82550000Y-153480000D03*
D11*
X115824000Y-98364000D03*
X115824000Y-100264000D03*
X100584000Y-71374000D03*
X100584000Y-73274000D03*
D12*
X130134000Y-90424000D03*
X121834000Y-90424000D03*
D13*
X58553167Y-53998500D03*
X58553167Y-52173500D03*
D14*
X88441000Y-61849000D03*
X88441000Y-63119000D03*
X88441000Y-64389000D03*
X88441000Y-65659000D03*
X88441000Y-66929000D03*
X88441000Y-68199000D03*
X88441000Y-69469000D03*
X88441000Y-70739000D03*
X88441000Y-72009000D03*
X88441000Y-73279000D03*
X88441000Y-74549000D03*
X88441000Y-75819000D03*
X88441000Y-77089000D03*
X88441000Y-78359000D03*
X97741000Y-78359000D03*
X97741000Y-77089000D03*
X97741000Y-75819000D03*
X97741000Y-74549000D03*
X97741000Y-73279000D03*
X97741000Y-72009000D03*
X97741000Y-70739000D03*
X97741000Y-69469000D03*
X97741000Y-68199000D03*
X97741000Y-66929000D03*
X97741000Y-65659000D03*
X97741000Y-64389000D03*
X97741000Y-63119000D03*
X97741000Y-61849000D03*
D13*
X115443000Y-58824500D03*
X115443000Y-56999500D03*
X71628000Y-54276000D03*
X71628000Y-52451000D03*
D15*
X115443000Y-66524500D03*
X115443000Y-68349500D03*
D16*
X53062500Y-56007000D03*
X54887500Y-56007000D03*
D17*
X61422500Y-67051000D03*
X61422500Y-65151000D03*
X59547500Y-66101000D03*
D18*
X86548000Y-83215000D03*
X84648000Y-83215000D03*
X85598000Y-85090000D03*
D19*
X125808500Y-100838000D03*
X127683500Y-100838000D03*
D10*
X80558000Y-130310000D03*
X95758000Y-121410000D03*
X105898000Y-139210000D03*
X98298000Y-139210000D03*
D20*
X83098000Y-125210000D03*
D21*
X83098000Y-135410000D03*
D22*
X129977000Y-140837000D03*
X126577000Y-140837000D03*
X129977000Y-154045000D03*
X126577000Y-154045000D03*
D23*
X77470000Y-48186500D03*
X77470000Y-50061500D03*
D11*
X112268000Y-98364000D03*
X112268000Y-100264000D03*
D13*
X74549000Y-54276000D03*
X74549000Y-52451000D03*
D16*
X134192000Y-49390500D03*
X136017000Y-49390500D03*
D24*
X88138000Y-45212000D03*
D25*
X90678000Y-45212000D03*
X93218000Y-45212000D03*
X95758000Y-45212000D03*
X98298000Y-45212000D03*
D26*
X141110000Y-46990000D03*
X141812944Y-45292944D03*
X141812944Y-48687056D03*
X143510000Y-44590000D03*
D27*
X143510000Y-46990000D03*
D26*
X143510000Y-49390000D03*
X145207056Y-45292944D03*
X145207056Y-48687056D03*
X145910000Y-46990000D03*
D13*
X84455000Y-60983500D03*
X84455000Y-59158500D03*
D10*
X45845000Y-130310000D03*
X61045000Y-121410000D03*
X71185000Y-139210000D03*
X63585000Y-139210000D03*
D20*
X48385000Y-125210000D03*
D21*
X48385000Y-135410000D03*
D16*
X53062500Y-51943000D03*
X54887500Y-51943000D03*
D28*
X100965000Y-50414000D03*
X100965000Y-48514000D03*
D13*
X119126000Y-81280000D03*
X119126000Y-79455000D03*
D29*
X135082000Y-78610000D03*
X144982000Y-78610000D03*
D30*
X89939500Y-48895000D03*
X88114500Y-48895000D03*
D10*
X137224000Y-123698000D03*
X137224000Y-131318000D03*
D28*
X146304000Y-70038000D03*
X146304000Y-68138000D03*
D31*
X81661000Y-60071000D03*
X73861000Y-60071000D03*
D26*
X141110000Y-160020000D03*
X141812944Y-158322944D03*
X141812944Y-161717056D03*
X143510000Y-157620000D03*
D27*
X143510000Y-160020000D03*
D26*
X143510000Y-162420000D03*
X145207056Y-158322944D03*
X145207056Y-161717056D03*
X145910000Y-160020000D03*
D15*
X119126000Y-66548000D03*
X119126000Y-68373000D03*
D26*
X44590000Y-144526000D03*
X45292944Y-142828944D03*
X45292944Y-146223056D03*
X46990000Y-142126000D03*
D27*
X46990000Y-144526000D03*
D26*
X46990000Y-146926000D03*
X48687056Y-142828944D03*
X48687056Y-146223056D03*
X49390000Y-144526000D03*
D23*
X74549000Y-48186500D03*
X74549000Y-50061500D03*
D13*
X61474167Y-53998500D03*
X61474167Y-52173500D03*
D30*
X131849500Y-100838000D03*
X130024500Y-100838000D03*
D15*
X111760000Y-66524500D03*
X111760000Y-68349500D03*
D26*
X44590000Y-84501056D03*
X45292944Y-82804000D03*
X45292944Y-86198112D03*
X46990000Y-82101056D03*
D27*
X46990000Y-84501056D03*
D26*
X46990000Y-86901056D03*
X48687056Y-82804000D03*
X48687056Y-86198112D03*
X49390000Y-84501056D03*
D32*
X53721000Y-63217000D03*
X53721000Y-66167000D03*
D10*
X72644000Y-153480000D03*
X65024000Y-153480000D03*
D13*
X111760000Y-58848000D03*
X111760000Y-57023000D03*
D28*
X132080000Y-69530000D03*
X132080000Y-67630000D03*
D23*
X58553167Y-48084500D03*
X58553167Y-49959500D03*
D13*
X111760000Y-63523500D03*
X111760000Y-61698500D03*
D33*
X82169000Y-69776000D03*
X82169000Y-74676000D03*
D18*
X56322000Y-112171000D03*
X54422000Y-112171000D03*
X55372000Y-114046000D03*
D34*
X80518000Y-84328000D03*
X76518000Y-84328000D03*
D16*
X110085500Y-83669500D03*
X111910500Y-83669500D03*
D28*
X115062000Y-85024000D03*
X115062000Y-83124000D03*
D23*
X80391000Y-48186500D03*
X80391000Y-50061500D03*
D35*
X83070000Y-79719000D03*
X81170000Y-79719000D03*
D36*
X87630000Y-112554000D03*
X87630000Y-116554000D03*
X114046000Y-117126000D03*
X114046000Y-121126000D03*
D13*
X83312000Y-54276000D03*
X83312000Y-52451000D03*
D30*
X111910500Y-80621500D03*
X110085500Y-80621500D03*
D18*
X82738000Y-112171000D03*
X80838000Y-112171000D03*
X81788000Y-114046000D03*
D37*
X117094000Y-105634785D03*
D38*
X117094000Y-110634785D03*
D15*
X115443000Y-61722000D03*
X115443000Y-63547000D03*
D10*
X55118000Y-153480000D03*
X47498000Y-153480000D03*
D35*
X83070000Y-64733000D03*
X81170000Y-64733000D03*
D39*
X127508000Y-63246000D03*
D40*
X127508000Y-65746000D03*
D10*
X80262000Y-100084000D03*
X95462000Y-91184000D03*
X105602000Y-108984000D03*
X98002000Y-108984000D03*
D20*
X82802000Y-94984000D03*
D21*
X82802000Y-105184000D03*
D41*
X138002000Y-94488000D03*
D21*
X143002000Y-94488000D03*
D42*
X130253000Y-74943000D03*
X130253000Y-79243000D03*
D23*
X61474167Y-48084500D03*
X61474167Y-49959500D03*
D39*
X105029000Y-73620000D03*
D40*
X105029000Y-71120000D03*
D43*
X131699000Y-105029000D03*
D44*
X130944000Y-109654000D03*
X127894000Y-109654000D03*
D45*
X129419000Y-111329000D03*
D44*
X130944000Y-113004000D03*
X127894000Y-113004000D03*
D43*
X127139000Y-105029000D03*
D13*
X77470000Y-54276000D03*
X77470000Y-52451000D03*
D46*
X115824000Y-91062000D03*
X114554000Y-91062000D03*
X113284000Y-91062000D03*
X112014000Y-91062000D03*
X112014000Y-96012000D03*
X113284000Y-96012000D03*
X114554000Y-96012000D03*
X115824000Y-96012000D03*
D47*
X47413000Y-51975000D03*
D48*
X47413000Y-53975000D03*
X47413000Y-55975000D03*
D39*
X105029000Y-79945113D03*
D40*
X105029000Y-77445113D03*
D49*
X135870000Y-66805000D03*
X137570000Y-66805000D03*
X139270000Y-66805000D03*
D50*
X136495000Y-60080000D03*
X142045000Y-60080000D03*
D51*
X139270000Y-57655000D03*
D50*
X136495000Y-55230000D03*
X142045000Y-55230000D03*
D49*
X140970000Y-66805000D03*
X142670000Y-66805000D03*
D39*
X114046000Y-50252000D03*
D40*
X114046000Y-47752000D03*
D52*
X48006000Y-63246000D03*
D53*
X48006000Y-65746000D03*
D39*
X127508000Y-56174000D03*
D40*
X127508000Y-58674000D03*
D23*
X71628000Y-48186500D03*
X71628000Y-50061500D03*
D10*
X45887000Y-100086000D03*
X61087000Y-91186000D03*
X71227000Y-108986000D03*
X63627000Y-108986000D03*
D20*
X48427000Y-94986000D03*
D21*
X48427000Y-105186000D03*
D37*
X116586000Y-140432785D03*
D38*
X116586000Y-145432785D03*
D54*
X104272000Y-55499000D03*
X106172000Y-55499000D03*
D12*
X120056000Y-47752000D03*
X128356000Y-47752000D03*
D23*
X83312000Y-48186500D03*
X83312000Y-50061500D03*
D10*
X107696000Y-153480000D03*
X100076000Y-153480000D03*
D13*
X80391000Y-54276000D03*
X80391000Y-52451000D03*
D55*
X106654000Y-66040000D03*
X103404000Y-66040000D03*
D10*
X137224000Y-142494000D03*
X137224000Y-150114000D03*
D56*
X104648000Y-50355000D03*
D48*
X104648000Y-48355000D03*
X104648000Y-46355000D03*
D19*
X134167000Y-46088500D03*
X136042000Y-46088500D03*
D22*
X129977000Y-119755000D03*
X126577000Y-119755000D03*
X129977000Y-132963000D03*
X126577000Y-132963000D03*
D34*
X50514000Y-116332000D03*
X46514000Y-116332000D03*
D57*
X141478000Y-112747000D03*
D58*
X141478000Y-107747000D03*
D30*
X116228500Y-80621500D03*
X114403500Y-80621500D03*
D41*
X115824000Y-132161677D03*
D21*
X115824000Y-127161677D03*
D59*
X111633000Y-76578000D03*
X112903000Y-76578000D03*
X114173000Y-76578000D03*
X115443000Y-76578000D03*
X116713000Y-76578000D03*
X117983000Y-76578000D03*
X119253000Y-76578000D03*
X119253000Y-71628000D03*
X117983000Y-71628000D03*
X116713000Y-71628000D03*
X115443000Y-71628000D03*
X114173000Y-71628000D03*
X112903000Y-71628000D03*
X111633000Y-71628000D03*
D28*
X121920000Y-75118000D03*
X121920000Y-73218000D03*
D60*
X119380000Y-60198000D03*
X119380000Y-63323000D03*
D36*
X118618000Y-117126000D03*
X118618000Y-121126000D03*
D61*
X132080000Y-157480000D03*
X66040000Y-157480000D03*
X110490000Y-127000000D03*
D62*
X115443000Y-69215000D03*
X60077167Y-48084500D03*
D63*
X139524000Y-54353000D03*
X135079000Y-57528000D03*
D61*
X106680000Y-147320000D03*
X116840000Y-152400000D03*
X76200000Y-157480000D03*
D62*
X107188000Y-55499000D03*
X123871200Y-86995000D03*
D61*
X45720000Y-149860000D03*
D62*
X99314000Y-73279000D03*
D61*
X137160000Y-162560000D03*
X95250000Y-127000000D03*
D62*
X81788000Y-48186500D03*
X117983000Y-63246000D03*
D61*
X66040000Y-162560000D03*
D63*
X130888000Y-80007000D03*
D61*
X144780000Y-152400000D03*
D63*
X143334000Y-60703000D03*
D62*
X62849500Y-65085000D03*
D61*
X91440000Y-157480000D03*
X111760000Y-147320000D03*
X100330000Y-134620000D03*
X81280000Y-162560000D03*
X55880000Y-162560000D03*
X85090000Y-127000000D03*
X100330000Y-147320000D03*
D63*
X139270000Y-65275000D03*
D61*
X55880000Y-157480000D03*
X43053000Y-86868000D03*
X144780000Y-132080000D03*
D62*
X81153000Y-78486000D03*
D61*
X132080000Y-137160000D03*
X91440000Y-162560000D03*
X116840000Y-157480000D03*
D62*
X115443000Y-56007000D03*
D61*
X128270000Y-127000000D03*
D62*
X134342500Y-47612500D03*
X86868000Y-70739000D03*
D61*
X132080000Y-147320000D03*
D63*
X135079000Y-54353000D03*
D61*
X111760000Y-152400000D03*
X96520000Y-162560000D03*
X111760000Y-162560000D03*
X54610000Y-135890000D03*
X60960000Y-157480000D03*
X106680000Y-157480000D03*
X121920000Y-134620000D03*
X144780000Y-137160000D03*
D62*
X111760000Y-56007000D03*
D61*
X101600000Y-157480000D03*
X105410000Y-127000000D03*
X106680000Y-162560000D03*
D63*
X139524000Y-60703000D03*
D61*
X121920000Y-152400000D03*
X144780000Y-142240000D03*
X121920000Y-157480000D03*
X71120000Y-157480000D03*
D63*
X143334000Y-54353000D03*
D62*
X117221000Y-80645000D03*
X83566000Y-83312000D03*
X81153000Y-65913000D03*
D61*
X105410000Y-134620000D03*
X101600000Y-162560000D03*
D62*
X89789000Y-70739000D03*
D63*
X139270000Y-66291000D03*
X129618000Y-80007000D03*
D61*
X111760000Y-157480000D03*
X106807000Y-86741000D03*
X44450000Y-127000000D03*
X45720000Y-162560000D03*
X50800000Y-162560000D03*
X60960000Y-162560000D03*
D62*
X117983000Y-77978000D03*
D61*
X127000000Y-157480000D03*
X45720000Y-157480000D03*
X87630000Y-147320000D03*
X50800000Y-157480000D03*
X100330000Y-127000000D03*
X132400000Y-65974000D03*
X86360000Y-162560000D03*
D63*
X135079000Y-60703000D03*
X142572000Y-65275000D03*
D61*
X121920000Y-147320000D03*
X127000000Y-162560000D03*
X116840000Y-162560000D03*
X63500000Y-144780000D03*
X96520000Y-157480000D03*
X62230000Y-127000000D03*
D63*
X139524000Y-57528000D03*
D61*
X144780000Y-147320000D03*
D62*
X100533200Y-47686000D03*
D61*
X132080000Y-162560000D03*
D62*
X96393000Y-73279000D03*
D61*
X137160000Y-157480000D03*
X76200000Y-162560000D03*
X110490000Y-134620000D03*
D63*
X142572000Y-66291000D03*
D61*
X86360000Y-137160000D03*
X127000000Y-147320000D03*
D62*
X116263184Y-73218000D03*
D61*
X71120000Y-162560000D03*
X95250000Y-134620000D03*
X121920000Y-162560000D03*
D63*
X143334000Y-57528000D03*
D61*
X55880000Y-144780000D03*
X134620000Y-127000000D03*
D62*
X73914000Y-61214000D03*
D61*
X137160000Y-137160000D03*
D62*
X79375000Y-62865000D03*
D61*
X109186179Y-61552621D03*
D63*
X63563500Y-117030500D03*
D62*
X74422000Y-88138000D03*
D61*
X103821500Y-141286500D03*
X102361000Y-142747000D03*
X63585000Y-142028000D03*
D62*
X120523000Y-66548000D03*
X123739000Y-66548000D03*
D61*
X79248000Y-117602000D03*
X76708000Y-120142000D03*
X130944000Y-109654000D03*
D62*
X71056500Y-104711500D03*
X83439000Y-112014000D03*
D63*
X56896000Y-113538000D03*
D62*
X45593000Y-89281000D03*
X98284975Y-84849025D03*
X81661000Y-88646000D03*
X115062000Y-78486000D03*
X94771081Y-78743032D03*
X110109000Y-62652621D03*
X91186000Y-62865000D03*
X76835000Y-76581000D03*
X93853000Y-75819000D03*
X77016189Y-75772238D03*
X93287313Y-75253313D03*
X71628000Y-54991000D03*
X94487019Y-52449508D03*
X74549000Y-54991000D03*
X94926478Y-53118000D03*
X95637800Y-53718000D03*
X77470000Y-55118000D03*
X96139000Y-54418000D03*
X80391000Y-55118000D03*
X83312000Y-55118000D03*
X96283975Y-55262975D03*
X121539000Y-60452000D03*
X89916000Y-60706000D03*
X104902000Y-68453000D03*
X93030096Y-67824618D03*
X114935000Y-79375000D03*
X112903000Y-79629000D03*
X99568000Y-64389000D03*
X77851000Y-64516000D03*
D64*
X110871000Y-91062000D03*
D62*
X118694000Y-108534200D03*
D64*
X116967000Y-91059000D03*
D62*
X120421400Y-109550200D03*
D65*
X84648000Y-83215000D02*
X83663000Y-83215000D01*
D66*
X43053000Y-86868000D02*
X43053000Y-104521000D01*
D67*
X81170000Y-79719000D02*
X81170000Y-78503000D01*
D66*
X53553520Y-110633500D02*
X62021808Y-110633500D01*
D67*
X81170000Y-64733000D02*
X81170000Y-65896000D01*
D68*
X124087000Y-108081000D02*
X124087000Y-126611000D01*
D67*
X83312000Y-48186500D02*
X81788000Y-48186500D01*
X81170000Y-78503000D02*
X81153000Y-78486000D01*
D65*
X88441000Y-70739000D02*
X89789000Y-70739000D01*
X97741000Y-73279000D02*
X96393000Y-73279000D01*
D67*
X100533200Y-48514000D02*
X100533200Y-47686000D01*
X134167000Y-47437000D02*
X134342500Y-47612500D01*
X71628000Y-48186500D02*
X74549000Y-48186500D01*
D66*
X144911000Y-66745000D02*
X142730000Y-66745000D01*
D67*
X81170000Y-65896000D02*
X81153000Y-65913000D01*
D66*
X146304000Y-68138000D02*
X144911000Y-66745000D01*
X132080000Y-66294000D02*
X132080000Y-67630000D01*
D65*
X116263184Y-73218000D02*
X115443000Y-72397816D01*
X112268000Y-100264000D02*
X111543000Y-100264000D01*
X106807000Y-91656320D02*
X106807000Y-86741000D01*
X111543000Y-100264000D02*
X110943000Y-99664000D01*
D67*
X74549000Y-48186500D02*
X77470000Y-48186500D01*
D69*
X146304000Y-97790000D02*
X146304000Y-126492000D01*
D67*
X116713000Y-76578000D02*
X117983000Y-76578000D01*
X125857000Y-91613056D02*
X125857000Y-100789500D01*
X106172000Y-55499000D02*
X107188000Y-55499000D01*
X134167000Y-46088500D02*
X134167000Y-47437000D01*
X77470000Y-48186500D02*
X80391000Y-48186500D01*
D66*
X142730000Y-66745000D02*
X142670000Y-66805000D01*
D65*
X121920000Y-73218000D02*
X116263184Y-73218000D01*
X115443000Y-72397816D02*
X115443000Y-71628000D01*
D66*
X53219010Y-110968010D02*
X53553520Y-110633500D01*
D69*
X143002000Y-94488000D02*
X146304000Y-97790000D01*
D67*
X123971200Y-87095000D02*
X123971200Y-89727256D01*
D65*
X110943000Y-97083000D02*
X112014000Y-96012000D01*
D68*
X124087000Y-126611000D02*
X124079000Y-126619000D01*
D67*
X117983000Y-76578000D02*
X117983000Y-77978000D01*
D65*
X61422500Y-65151000D02*
X62783500Y-65151000D01*
D66*
X132400000Y-65974000D02*
X132080000Y-66294000D01*
D70*
X118060000Y-63323000D02*
X117983000Y-63246000D01*
D68*
X127139000Y-105029000D02*
X124087000Y-108081000D01*
D67*
X123871200Y-86995000D02*
X123971200Y-87095000D01*
X58553167Y-48084500D02*
X60077167Y-48084500D01*
X116228500Y-80621500D02*
X117197500Y-80621500D01*
D65*
X62783500Y-65151000D02*
X62849500Y-65085000D01*
D66*
X53219010Y-110968010D02*
X54422000Y-112171000D01*
D67*
X80391000Y-48186500D02*
X81788000Y-48186500D01*
X115443000Y-56999500D02*
X115443000Y-56007000D01*
D65*
X83663000Y-83215000D02*
X83566000Y-83312000D01*
D67*
X123971200Y-89727256D02*
X125857000Y-91613056D01*
D66*
X43053000Y-104521000D02*
X49500010Y-110968010D01*
D67*
X111760000Y-57023000D02*
X111760000Y-56007000D01*
D70*
X119380000Y-63323000D02*
X118060000Y-63323000D01*
D65*
X112014000Y-96012000D02*
X111887000Y-96139000D01*
D67*
X73861000Y-61161000D02*
X73914000Y-61214000D01*
D65*
X111887000Y-96139000D02*
X111289680Y-96139000D01*
X112268000Y-100264000D02*
X115824000Y-100264000D01*
D66*
X62021808Y-110633500D02*
X63559308Y-112171000D01*
D65*
X97741000Y-73279000D02*
X99314000Y-73279000D01*
D66*
X63559308Y-112171000D02*
X80838000Y-112171000D01*
D65*
X111289680Y-96139000D02*
X106807000Y-91656320D01*
X110943000Y-99664000D02*
X110943000Y-97083000D01*
D67*
X61474167Y-48084500D02*
X60077167Y-48084500D01*
D65*
X88441000Y-70739000D02*
X86868000Y-70739000D01*
X100579000Y-73279000D02*
X100584000Y-73274000D01*
D66*
X49500010Y-110968010D02*
X53219010Y-110968010D01*
D67*
X115443000Y-68349500D02*
X115443000Y-69215000D01*
X125857000Y-100789500D02*
X125808500Y-100838000D01*
D65*
X99314000Y-73279000D02*
X100579000Y-73279000D01*
D67*
X117197500Y-80621500D02*
X117221000Y-80645000D01*
X73861000Y-60071000D02*
X73861000Y-61161000D01*
D65*
X49540000Y-106299000D02*
X48427000Y-105186000D01*
X79018000Y-82828000D02*
X80518000Y-84328000D01*
D67*
X132842000Y-50740500D02*
X134192000Y-49390500D01*
D65*
X87630000Y-112554000D02*
X87630000Y-110012000D01*
D67*
X132842000Y-53672000D02*
X130340000Y-56174000D01*
D66*
X109186179Y-61552621D02*
X106654000Y-64084800D01*
X78232000Y-66167000D02*
X78232000Y-82042000D01*
X78994000Y-63246000D02*
X48006000Y-63246000D01*
D65*
X74422000Y-88138000D02*
X74422000Y-83564990D01*
D66*
X146304000Y-70038000D02*
X146171000Y-69905000D01*
X140970000Y-69847000D02*
X140970000Y-74598000D01*
X129108000Y-57774000D02*
X127508000Y-56174000D01*
X127508000Y-63246000D02*
X127508000Y-62738000D01*
X127508000Y-62738000D02*
X129108000Y-61138000D01*
D65*
X62865000Y-116332000D02*
X63563500Y-117030500D01*
X81687000Y-106299000D02*
X49540000Y-106299000D01*
X89130000Y-114054000D02*
X87630000Y-112554000D01*
D66*
X146171000Y-69905000D02*
X141028000Y-69905000D01*
D65*
X82802000Y-105184000D02*
X81687000Y-106299000D01*
D66*
X140970000Y-66805000D02*
X140970000Y-63673000D01*
D65*
X89130000Y-129378000D02*
X89130000Y-114054000D01*
X87630000Y-110012000D02*
X82802000Y-105184000D01*
D66*
X131311379Y-63246000D02*
X127508000Y-63246000D01*
X78232000Y-82042000D02*
X80518000Y-84328000D01*
X141028000Y-69905000D02*
X140970000Y-69847000D01*
X79375000Y-62865000D02*
X79375000Y-65024000D01*
D67*
X132842000Y-53672000D02*
X132842000Y-50740500D01*
D66*
X106654000Y-64084800D02*
X106654000Y-66040000D01*
D65*
X75158990Y-82828000D02*
X79018000Y-82828000D01*
D67*
X130340000Y-56174000D02*
X127508000Y-56174000D01*
D66*
X140970000Y-74598000D02*
X144982000Y-78610000D01*
D65*
X74422000Y-83564990D02*
X75158990Y-82828000D01*
D66*
X79375000Y-62865000D02*
X78994000Y-63246000D01*
X129108000Y-61138000D02*
X129108000Y-57774000D01*
X131738379Y-63673000D02*
X131311379Y-63246000D01*
X79375000Y-65024000D02*
X78232000Y-66167000D01*
D65*
X50514000Y-116332000D02*
X62865000Y-116332000D01*
X83098000Y-135410000D02*
X89130000Y-129378000D01*
D66*
X140970000Y-66805000D02*
X140970000Y-69847000D01*
X140970000Y-63673000D02*
X131738379Y-63673000D01*
D68*
X132467000Y-116758000D02*
X141478000Y-107747000D01*
X118618000Y-121126000D02*
X118618000Y-129367677D01*
D69*
X102198000Y-142910000D02*
X105898000Y-139210000D01*
X67285000Y-142910000D02*
X102198000Y-142910000D01*
X63585000Y-139210000D02*
X67285000Y-142910000D01*
D68*
X118618000Y-129367677D02*
X115824000Y-132161677D01*
X129977000Y-140837000D02*
X129977000Y-137000258D01*
X129977000Y-137000258D02*
X132467000Y-134510258D01*
X132467000Y-134510258D02*
X132467000Y-116758000D01*
D67*
X104272000Y-53716000D02*
X106045000Y-51943000D01*
X106045000Y-51943000D02*
X106045000Y-49752000D01*
X115443000Y-58824500D02*
X114970834Y-58824500D01*
X114173000Y-71628000D02*
X114173000Y-59622334D01*
X105941500Y-57935500D02*
X104272000Y-56266000D01*
X104272000Y-55499000D02*
X104272000Y-53716000D01*
X112486166Y-57935500D02*
X105941500Y-57935500D01*
X104272000Y-56266000D02*
X104272000Y-55499000D01*
X114970834Y-58824500D02*
X114173000Y-59622334D01*
X106045000Y-49752000D02*
X104648000Y-48355000D01*
X114173000Y-59622334D02*
X112486166Y-57935500D01*
D66*
X120056000Y-56937000D02*
X120056000Y-50546000D01*
X119762000Y-50252000D02*
X114046000Y-50252000D01*
X120056000Y-50546000D02*
X119762000Y-50252000D01*
X122639000Y-59520000D02*
X122639000Y-71453000D01*
X123445000Y-72259000D02*
X123445000Y-73909852D01*
D65*
X115443000Y-75692000D02*
X115443000Y-76578000D01*
X116516938Y-74618062D02*
X115443000Y-75692000D01*
X121920000Y-75118000D02*
X121420062Y-74618062D01*
D66*
X122639000Y-71453000D02*
X123445000Y-72259000D01*
X122639000Y-59520000D02*
X120056000Y-56937000D01*
X122236852Y-75118000D02*
X121920000Y-75118000D01*
X120056000Y-50546000D02*
X120056000Y-47752000D01*
D65*
X121420062Y-74618062D02*
X116516938Y-74618062D01*
D66*
X123445000Y-73909852D02*
X122236852Y-75118000D01*
D67*
X113284000Y-97348000D02*
X113284000Y-96012000D01*
X112268000Y-98364000D02*
X113284000Y-97348000D01*
X83566000Y-73279000D02*
X82169000Y-74676000D01*
X88441000Y-73279000D02*
X83566000Y-73279000D01*
X83070000Y-75577000D02*
X82169000Y-74676000D01*
X83070000Y-79719000D02*
X83070000Y-75577000D01*
X114403500Y-80621500D02*
X114173000Y-80391000D01*
X111910500Y-83669500D02*
X114403500Y-81176500D01*
X114173000Y-80391000D02*
X114173000Y-76578000D01*
X114403500Y-81176500D02*
X114403500Y-80621500D01*
X88441000Y-72009000D02*
X84402000Y-72009000D01*
X84402000Y-72009000D02*
X82169000Y-69776000D01*
X82169000Y-69776000D02*
X83070000Y-68875000D01*
X83070000Y-68875000D02*
X83070000Y-64733000D01*
D68*
X135082000Y-78610000D02*
X133920000Y-78610000D01*
D66*
X137570000Y-76122000D02*
X135082000Y-78610000D01*
D68*
X133920000Y-78610000D02*
X130253000Y-74943000D01*
D66*
X137570000Y-66805000D02*
X137570000Y-76122000D01*
D65*
X82802000Y-88900000D02*
X82802000Y-86080000D01*
X82802000Y-94984000D02*
X82802000Y-88900000D01*
X78018000Y-85828000D02*
X76518000Y-84328000D01*
X48437000Y-94996000D02*
X82802000Y-94996000D01*
X82802000Y-86080000D02*
X82550000Y-85828000D01*
X82550000Y-85828000D02*
X78018000Y-85828000D01*
X48427000Y-94986000D02*
X48437000Y-94996000D01*
X85598000Y-85090000D02*
X84860000Y-85828000D01*
X82802000Y-94996000D02*
X82802000Y-88900000D01*
X84860000Y-85828000D02*
X82550000Y-85828000D01*
X46514000Y-123339000D02*
X48385000Y-125210000D01*
X46514000Y-116332000D02*
X46514000Y-123339000D01*
X48800000Y-114046000D02*
X55372000Y-114046000D01*
X46514000Y-116332000D02*
X48800000Y-114046000D01*
X83098000Y-116332000D02*
X83098000Y-115356000D01*
X83098000Y-115356000D02*
X81788000Y-114046000D01*
X83320000Y-116554000D02*
X83098000Y-116332000D01*
X83098000Y-125210000D02*
X83098000Y-116332000D01*
X87630000Y-116554000D02*
X83320000Y-116554000D01*
D67*
X61474167Y-52173500D02*
X61474167Y-49959500D01*
X58553167Y-52173500D02*
X58553167Y-49959500D01*
X127683500Y-100838000D02*
X130024500Y-100838000D01*
X71628000Y-52451000D02*
X71628000Y-50061500D01*
X74549000Y-52451000D02*
X74549000Y-50061500D01*
X77470000Y-52451000D02*
X77470000Y-50061500D01*
X80391000Y-52451000D02*
X80391000Y-50061500D01*
X83312000Y-52451000D02*
X83312000Y-50061500D01*
X141351000Y-105410000D02*
X142900400Y-105410000D01*
X120523000Y-66548000D02*
X119126000Y-66548000D01*
X125171200Y-89230200D02*
X141351000Y-105410000D01*
X123698000Y-70104000D02*
X125171200Y-71577200D01*
X125171200Y-71577200D02*
X125171200Y-89230200D01*
X143858000Y-114137000D02*
X141097000Y-116898000D01*
X123698000Y-66589000D02*
X123698000Y-70104000D01*
X143858000Y-106367600D02*
X143858000Y-114137000D01*
X123739000Y-66548000D02*
X123698000Y-66589000D01*
X142900400Y-105410000D02*
X143858000Y-106367600D01*
X141097000Y-116898000D02*
X141097000Y-146241000D01*
X141097000Y-146241000D02*
X137224000Y-150114000D01*
D68*
X114046000Y-121126000D02*
X113762000Y-121410000D01*
X113762000Y-121410000D02*
X95758000Y-121410000D01*
D69*
X65024000Y-153480000D02*
X59385000Y-147841000D01*
X59385000Y-147841000D02*
X59385000Y-137465000D01*
X79248000Y-117602000D02*
X79502000Y-117602000D01*
X59385000Y-137465000D02*
X76708000Y-120142000D01*
X76708000Y-120142000D02*
X79248000Y-117602000D01*
D67*
X88441000Y-61849000D02*
X88138000Y-61546000D01*
X88138000Y-61546000D02*
X88138000Y-45212000D01*
X97741000Y-47195000D02*
X95758000Y-45212000D01*
X97741000Y-61849000D02*
X97741000Y-47195000D01*
X99187000Y-62697999D02*
X99187000Y-60790000D01*
X98765999Y-63119000D02*
X99187000Y-62697999D01*
X99187000Y-60790000D02*
X98341000Y-59944000D01*
X98341000Y-45255000D02*
X98298000Y-45212000D01*
X98341000Y-59944000D02*
X98341000Y-45255000D01*
X97741000Y-63119000D02*
X98765999Y-63119000D01*
X80645000Y-103886000D02*
X87630000Y-96901000D01*
X87630000Y-77089000D02*
X88441000Y-77089000D01*
X82895000Y-112014000D02*
X82738000Y-112171000D01*
X71056500Y-104711500D02*
X71882000Y-103886000D01*
X86995000Y-81711263D02*
X86995000Y-77724000D01*
X86995000Y-77724000D02*
X87630000Y-77089000D01*
X83439000Y-112014000D02*
X82895000Y-112014000D01*
X87630000Y-82346263D02*
X86995000Y-81711263D01*
X71882000Y-103886000D02*
X80645000Y-103886000D01*
X87630000Y-96901000D02*
X87630000Y-82346263D01*
X97741000Y-84305050D02*
X97741000Y-78359000D01*
X98284975Y-84849025D02*
X97741000Y-84305050D01*
X56896000Y-112745000D02*
X56322000Y-112171000D01*
X81026000Y-89281000D02*
X81661000Y-88646000D01*
X56896000Y-113538000D02*
X56896000Y-112745000D01*
X45593000Y-89281000D02*
X81026000Y-89281000D01*
X88441000Y-74549000D02*
X87416001Y-74549000D01*
X85852000Y-82519000D02*
X86548000Y-83215000D01*
X85852000Y-76113001D02*
X85852000Y-82519000D01*
X87416001Y-74549000D02*
X85852000Y-76113001D01*
X132969000Y-100965000D02*
X132969000Y-97876528D01*
X124571200Y-89478728D02*
X124571200Y-83261534D01*
X115254000Y-78678000D02*
X115062000Y-78486000D01*
X119846141Y-78536475D02*
X118414475Y-78536475D01*
X132969000Y-103759000D02*
X132969000Y-100965000D01*
X132842000Y-100838000D02*
X132969000Y-100965000D01*
X131699000Y-105029000D02*
X132969000Y-103759000D01*
X94771081Y-78743032D02*
X94387049Y-78359000D01*
X118272950Y-78678000D02*
X115254000Y-78678000D01*
X118414475Y-78536475D02*
X118272950Y-78678000D01*
X131849500Y-100838000D02*
X132842000Y-100838000D01*
X124571200Y-83261534D02*
X119846141Y-78536475D01*
X132969000Y-97876528D02*
X124571200Y-89478728D01*
X94387049Y-78359000D02*
X88441000Y-78359000D01*
X89465999Y-64389000D02*
X88441000Y-64389000D01*
X111760000Y-66524500D02*
X110660000Y-67624500D01*
X91186000Y-62865000D02*
X90989999Y-62865000D01*
X110109000Y-64873500D02*
X111760000Y-66524500D01*
X90989999Y-62865000D02*
X89465999Y-64389000D01*
X110660000Y-67624500D02*
X110660000Y-70655000D01*
X110660000Y-70655000D02*
X111633000Y-71628000D01*
X110109000Y-62652621D02*
X110109000Y-64873500D01*
X111760000Y-61698500D02*
X111760000Y-58848000D01*
X115443000Y-66524500D02*
X115443000Y-63547000D01*
X61474167Y-53998500D02*
X59465667Y-56007000D01*
X76835000Y-76581000D02*
X76073000Y-75819000D01*
X44450000Y-62103000D02*
X49446000Y-57107000D01*
X53787500Y-57107000D02*
X54887500Y-56007000D01*
X76073000Y-75819000D02*
X46482000Y-75819000D01*
X44450000Y-73787000D02*
X44450000Y-62103000D01*
X49446000Y-57107000D02*
X53787500Y-57107000D01*
X59465667Y-56007000D02*
X54887500Y-56007000D01*
X93853000Y-75819000D02*
X97741000Y-75819000D01*
X46482000Y-75819000D02*
X44450000Y-73787000D01*
X46736000Y-75219000D02*
X45050000Y-73533000D01*
X62574167Y-54537166D02*
X62574167Y-53459834D01*
X97741000Y-74549000D02*
X93991626Y-74549000D01*
X62574167Y-53459834D02*
X62200333Y-53086000D01*
X59465667Y-53086000D02*
X58553167Y-53998500D01*
X77016189Y-75772238D02*
X76462951Y-75219000D01*
X56943000Y-53998500D02*
X54887500Y-51943000D01*
X76462951Y-75219000D02*
X46736000Y-75219000D01*
X59346569Y-57764764D02*
X62574167Y-54537166D01*
X93991626Y-74549000D02*
X93287313Y-75253313D01*
X62200333Y-53086000D02*
X59465667Y-53086000D01*
X45050000Y-73533000D02*
X45050000Y-62351528D01*
X59346569Y-57764764D02*
X49636764Y-57764764D01*
X45050000Y-62351528D02*
X49636764Y-57764764D01*
X58553167Y-53998500D02*
X56943000Y-53998500D01*
X93726000Y-54356000D02*
X93726000Y-53210527D01*
X71628000Y-54991000D02*
X71628000Y-54276000D01*
X93726000Y-67748999D02*
X93726000Y-54356000D01*
X93726000Y-53210527D02*
X94487019Y-52449508D01*
X97741000Y-70739000D02*
X96716001Y-70739000D01*
X96716001Y-70739000D02*
X93726000Y-67748999D01*
X74549000Y-54991000D02*
X74549000Y-54276000D01*
X94339000Y-56007000D02*
X94339000Y-53997000D01*
X94926478Y-53409522D02*
X94926478Y-53118000D01*
X96716001Y-69469000D02*
X94339000Y-67091999D01*
X94615000Y-53721000D02*
X94926478Y-53409522D01*
X94339000Y-67091999D02*
X94339000Y-56007000D01*
X94339000Y-53997000D02*
X94615000Y-53721000D01*
X97741000Y-69469000D02*
X96716001Y-69469000D01*
X94939000Y-66421999D02*
X96716001Y-68199000D01*
X95637800Y-53718000D02*
X94939000Y-54416800D01*
X94939000Y-54416800D02*
X94939000Y-66421999D01*
X77470000Y-55118000D02*
X77470000Y-54276000D01*
X96716001Y-68199000D02*
X97741000Y-68199000D01*
X80391000Y-55118000D02*
X80391000Y-54276000D01*
X95539000Y-55018000D02*
X95539000Y-65751999D01*
X96139000Y-54418000D02*
X95539000Y-55018000D01*
X96716001Y-66929000D02*
X97741000Y-66929000D01*
X95539000Y-65751999D02*
X96716001Y-66929000D01*
X96283975Y-55262975D02*
X96139000Y-55407950D01*
X96139000Y-65081999D02*
X96716001Y-65659000D01*
X96716001Y-65659000D02*
X97741000Y-65659000D01*
X96139000Y-55407950D02*
X96139000Y-65081999D01*
X83312000Y-55118000D02*
X83312000Y-54276000D01*
D65*
X48006000Y-65746000D02*
X48427000Y-66167000D01*
X48427000Y-66167000D02*
X53721000Y-66167000D01*
X59481500Y-66167000D02*
X59547500Y-66101000D01*
X53721000Y-66167000D02*
X59481500Y-66167000D01*
D67*
X89916000Y-60706000D02*
X89916000Y-62180974D01*
X117983000Y-71628000D02*
X119253000Y-71628000D01*
X121539000Y-60452000D02*
X121539000Y-67598666D01*
X88977974Y-63119000D02*
X88441000Y-63119000D01*
X121539000Y-67598666D02*
X119253000Y-69884666D01*
X119253000Y-69884666D02*
X119253000Y-71628000D01*
X89916000Y-62180974D02*
X88977974Y-63119000D01*
X110085500Y-80621500D02*
X110085500Y-78125500D01*
X89281000Y-65659000D02*
X88441000Y-65659000D01*
X108712000Y-72263000D02*
X108712000Y-76752000D01*
X108712000Y-76752000D02*
X110085500Y-78125500D01*
X110085500Y-78125500D02*
X111633000Y-76578000D01*
X93030096Y-67824618D02*
X91446618Y-67824618D01*
X91446618Y-67824618D02*
X89281000Y-65659000D01*
X104902000Y-68453000D02*
X108712000Y-72263000D01*
X111020000Y-94637000D02*
X113814000Y-94637000D01*
X89465999Y-66929000D02*
X91694000Y-69157001D01*
X107950000Y-91567000D02*
X111020000Y-94637000D01*
X96647000Y-84201000D02*
X98171000Y-85725000D01*
X107950000Y-86360000D02*
X107950000Y-91567000D01*
X114554000Y-95377000D02*
X114554000Y-96012000D01*
X98171000Y-85725000D02*
X107315000Y-85725000D01*
X91694000Y-69157001D02*
X91694000Y-74676001D01*
X113814000Y-94637000D02*
X114554000Y-95377000D01*
X91694000Y-74676001D02*
X96647000Y-79629001D01*
X107315000Y-85725000D02*
X107950000Y-86360000D01*
X96647000Y-79629001D02*
X96647000Y-84201000D01*
X88441000Y-66929000D02*
X89465999Y-66929000D01*
X115015000Y-79455000D02*
X114935000Y-79375000D01*
X111910500Y-80621500D02*
X112903000Y-79629000D01*
X112903000Y-79629000D02*
X112903000Y-76578000D01*
X119126000Y-79455000D02*
X115015000Y-79455000D01*
D70*
X117856000Y-61722000D02*
X119380000Y-60198000D01*
D67*
X119126000Y-68373000D02*
X117283000Y-66530000D01*
X116713000Y-71628000D02*
X116713000Y-70786000D01*
X117283000Y-66530000D02*
X117283000Y-61787000D01*
X117283000Y-61787000D02*
X117348000Y-61722000D01*
D70*
X117348000Y-61722000D02*
X117856000Y-61722000D01*
D67*
X116713000Y-70786000D02*
X119126000Y-68373000D01*
D70*
X115443000Y-61722000D02*
X117348000Y-61722000D01*
D67*
X112903000Y-64666500D02*
X111760000Y-63523500D01*
X112903000Y-69492500D02*
X111760000Y-68349500D01*
X112903000Y-71628000D02*
X112903000Y-69492500D01*
X112903000Y-69492500D02*
X112903000Y-64666500D01*
D68*
X127508000Y-80899000D02*
X127508000Y-72374000D01*
X131826000Y-82804000D02*
X129413000Y-82804000D01*
D66*
X125222000Y-50886000D02*
X128356000Y-47752000D01*
D68*
X133938000Y-90424000D02*
X138002000Y-94488000D01*
X138002000Y-94488000D02*
X138002000Y-88980000D01*
D66*
X125222000Y-69098000D02*
X125222000Y-50886000D01*
D68*
X129413000Y-82804000D02*
X127508000Y-80899000D01*
X127508000Y-72374000D02*
X128003000Y-71879000D01*
D66*
X135445000Y-69530000D02*
X132080000Y-69530000D01*
D68*
X135870000Y-69616000D02*
X135870000Y-69105000D01*
D66*
X135870000Y-69105000D02*
X135445000Y-69530000D01*
X135870000Y-66805000D02*
X135870000Y-69105000D01*
D68*
X133858000Y-71628000D02*
X135870000Y-69616000D01*
X128254000Y-71628000D02*
X133858000Y-71628000D01*
X138002000Y-88980000D02*
X131826000Y-82804000D01*
X130134000Y-90424000D02*
X133938000Y-90424000D01*
X128003000Y-71879000D02*
X128254000Y-71628000D01*
D66*
X128003000Y-71879000D02*
X125222000Y-69098000D01*
D67*
X136017000Y-46113500D02*
X136042000Y-46088500D01*
X136017000Y-49390500D02*
X136017000Y-46113500D01*
X61422500Y-67051000D02*
X75316000Y-67051000D01*
X99568000Y-64389000D02*
X97741000Y-64389000D01*
X75316000Y-67051000D02*
X77851000Y-64516000D01*
X47413000Y-51975000D02*
X53030500Y-51975000D01*
X53030500Y-51975000D02*
X53062500Y-51943000D01*
X53030500Y-55975000D02*
X53062500Y-56007000D01*
X47413000Y-55975000D02*
X53030500Y-55975000D01*
D68*
X110871000Y-91062000D02*
X112014000Y-91062000D01*
D65*
X113284000Y-91062000D02*
X112014000Y-91062000D01*
D67*
X118694000Y-108534200D02*
X118694000Y-88656000D01*
X118694000Y-88656000D02*
X115062000Y-85024000D01*
D68*
X116967000Y-91059000D02*
X116964000Y-91062000D01*
X116964000Y-91062000D02*
X115824000Y-91062000D01*
D67*
X110085500Y-83669500D02*
X111440000Y-85024000D01*
X111440000Y-85024000D02*
X115062000Y-85024000D01*
D65*
X114554000Y-91062000D02*
X115824000Y-91062000D01*
D67*
X119599000Y-108727800D02*
X119599000Y-85441000D01*
X119599000Y-85441000D02*
X117282000Y-83124000D01*
X117282000Y-83124000D02*
X119126000Y-81280000D01*
X120421400Y-109550200D02*
X119599000Y-108727800D01*
X115062000Y-83124000D02*
X117282000Y-83124000D01*
X81661000Y-60071000D02*
X83542500Y-60071000D01*
X83970000Y-64752999D02*
X83970000Y-62380000D01*
X88441000Y-68199000D02*
X87416001Y-68199000D01*
X83970000Y-62380000D02*
X81661000Y-60071000D01*
X83542500Y-60071000D02*
X84455000Y-59158500D01*
X87416001Y-68199000D02*
X83970000Y-64752999D01*
X84455000Y-60983500D02*
X85555000Y-59883500D01*
X85555000Y-59883500D02*
X85555000Y-45509000D01*
X115824000Y-96012000D02*
X115824000Y-95037001D01*
D65*
X92128000Y-43762000D02*
X98898610Y-43762000D01*
D66*
X103404000Y-71995000D02*
X105029000Y-73620000D01*
D65*
X102783000Y-71374000D02*
X103404000Y-71995000D01*
X102362000Y-47225390D02*
X102362000Y-50414000D01*
D67*
X90678000Y-48156500D02*
X89939500Y-48895000D01*
X108550000Y-83466113D02*
X105029000Y-79945113D01*
D65*
X98898610Y-43762000D02*
X102362000Y-47225390D01*
D67*
X85555000Y-45509000D02*
X87102000Y-43962000D01*
D65*
X90678000Y-45212000D02*
X92128000Y-43762000D01*
D67*
X113496999Y-92710000D02*
X110074000Y-92710000D01*
D65*
X115824000Y-98364000D02*
X115824000Y-96012000D01*
X102362000Y-50414000D02*
X104589000Y-50414000D01*
D67*
X90678000Y-45212000D02*
X90678000Y-48156500D01*
X115824000Y-95037001D02*
X113496999Y-92710000D01*
D65*
X103404000Y-66040000D02*
X103172000Y-65808000D01*
D67*
X110074000Y-92710000D02*
X108550000Y-91186000D01*
D66*
X103404000Y-66040000D02*
X103404000Y-71995000D01*
D65*
X104589000Y-50414000D02*
X104648000Y-50355000D01*
D70*
X103322000Y-65958000D02*
X103404000Y-66040000D01*
D65*
X100076000Y-71374000D02*
X102783000Y-71374000D01*
X103172000Y-51831000D02*
X104648000Y-50355000D01*
D66*
X103429000Y-75220000D02*
X103429000Y-78345113D01*
D67*
X89428000Y-43962000D02*
X90678000Y-45212000D01*
X108550000Y-91186000D02*
X108550000Y-83466113D01*
D65*
X100965000Y-50414000D02*
X102362000Y-50414000D01*
D66*
X105029000Y-73620000D02*
X103429000Y-75220000D01*
D67*
X87102000Y-43962000D02*
X89428000Y-43962000D01*
D65*
X99441000Y-72009000D02*
X100076000Y-71374000D01*
X97741000Y-72009000D02*
X99441000Y-72009000D01*
X103172000Y-65808000D02*
X103172000Y-51831000D01*
D66*
X103429000Y-78345113D02*
X105029000Y-79945113D01*
D68*
X121834000Y-90424000D02*
X121834000Y-113910000D01*
X121834000Y-113910000D02*
X118618000Y-117126000D01*
X114046000Y-117126000D02*
X118618000Y-117126000D01*
G04 #@! TA.AperFunction,Conductor*
G36*
X47077540Y-125495685D02*
G01*
X47123295Y-125548489D01*
X47134501Y-125600000D01*
X47134501Y-125760018D01*
X47145000Y-125862796D01*
X47145001Y-125862799D01*
X47200185Y-126029331D01*
X47200186Y-126029334D01*
X47292288Y-126178656D01*
X47416344Y-126302712D01*
X47565666Y-126394814D01*
X47732203Y-126449999D01*
X47834991Y-126460500D01*
X48935008Y-126460499D01*
X48935016Y-126460498D01*
X48935019Y-126460498D01*
X48991302Y-126454748D01*
X49037797Y-126449999D01*
X49204334Y-126394814D01*
X49353656Y-126302712D01*
X49477712Y-126178656D01*
X49569814Y-126029334D01*
X49624999Y-125862797D01*
X49635500Y-125760009D01*
X49635500Y-125600000D01*
X49655185Y-125532961D01*
X49707989Y-125487206D01*
X49759500Y-125476000D01*
X67891950Y-125476000D01*
X67958989Y-125495685D01*
X68004744Y-125548489D01*
X68014688Y-125617647D01*
X67985663Y-125681203D01*
X67979631Y-125687681D01*
X57897958Y-135769354D01*
X57689357Y-135977953D01*
X57689352Y-135977959D01*
X57509761Y-136212006D01*
X57362258Y-136467489D01*
X57362251Y-136467504D01*
X57253173Y-136730846D01*
X57253171Y-136730851D01*
X57249365Y-136740038D01*
X57249360Y-136740050D01*
X57173005Y-137025010D01*
X57151646Y-137187257D01*
X57134501Y-137317484D01*
X57134500Y-137317500D01*
X57134500Y-147988505D01*
X57173005Y-148280991D01*
X57233225Y-148505732D01*
X57249361Y-148565952D01*
X57362251Y-148838495D01*
X57362258Y-148838510D01*
X57509761Y-149093993D01*
X57689352Y-149328040D01*
X57689358Y-149328047D01*
X57901054Y-149539743D01*
X57901084Y-149539771D01*
X63536952Y-155175641D01*
X63536959Y-155175647D01*
X63703603Y-155303516D01*
X63771007Y-155355237D01*
X64026493Y-155502743D01*
X64026496Y-155502744D01*
X64026501Y-155502747D01*
X64173540Y-155563652D01*
X64299048Y-155615639D01*
X64584007Y-155691994D01*
X64803373Y-155720873D01*
X64876494Y-155730500D01*
X64876495Y-155730500D01*
X65171506Y-155730500D01*
X65230002Y-155722798D01*
X65463993Y-155691994D01*
X65748951Y-155615639D01*
X66001046Y-155511218D01*
X66021497Y-155502747D01*
X66021500Y-155502745D01*
X66021506Y-155502743D01*
X66276993Y-155355237D01*
X66511041Y-155175646D01*
X66719646Y-154967041D01*
X66899237Y-154732993D01*
X67046743Y-154477506D01*
X67159639Y-154204951D01*
X67235994Y-153919993D01*
X67274500Y-153627505D01*
X67274500Y-153479995D01*
X70888592Y-153479995D01*
X70888592Y-153480004D01*
X70908196Y-153741620D01*
X70908197Y-153741625D01*
X70966576Y-153997402D01*
X70966578Y-153997411D01*
X70966580Y-153997416D01*
X71062432Y-154241643D01*
X71193614Y-154468857D01*
X71269519Y-154564039D01*
X71357198Y-154673985D01*
X71484465Y-154792070D01*
X71549521Y-154852433D01*
X71766296Y-155000228D01*
X71766301Y-155000230D01*
X71766302Y-155000231D01*
X71766303Y-155000232D01*
X71891843Y-155060688D01*
X72002673Y-155114061D01*
X72002674Y-155114061D01*
X72002677Y-155114063D01*
X72253385Y-155191396D01*
X72512818Y-155230500D01*
X72775182Y-155230500D01*
X73034615Y-155191396D01*
X73285323Y-155114063D01*
X73472111Y-155024110D01*
X73521696Y-155000232D01*
X73521696Y-155000231D01*
X73521704Y-155000228D01*
X73738479Y-154852433D01*
X73930805Y-154673981D01*
X74094386Y-154468857D01*
X74225568Y-154241643D01*
X74321420Y-153997416D01*
X74379802Y-153741630D01*
X74386142Y-153657033D01*
X74399408Y-153480004D01*
X74399408Y-153479995D01*
X80794592Y-153479995D01*
X80794592Y-153480004D01*
X80814196Y-153741620D01*
X80814197Y-153741625D01*
X80872576Y-153997402D01*
X80872578Y-153997411D01*
X80872580Y-153997416D01*
X80968432Y-154241643D01*
X81099614Y-154468857D01*
X81175519Y-154564039D01*
X81263198Y-154673985D01*
X81390465Y-154792070D01*
X81455521Y-154852433D01*
X81672296Y-155000228D01*
X81672301Y-155000230D01*
X81672302Y-155000231D01*
X81672303Y-155000232D01*
X81797843Y-155060688D01*
X81908673Y-155114061D01*
X81908674Y-155114061D01*
X81908677Y-155114063D01*
X82159385Y-155191396D01*
X82418818Y-155230500D01*
X82681182Y-155230500D01*
X82940615Y-155191396D01*
X83191323Y-155114063D01*
X83378111Y-155024110D01*
X83427696Y-155000232D01*
X83427696Y-155000231D01*
X83427704Y-155000228D01*
X83644479Y-154852433D01*
X83836805Y-154673981D01*
X84000386Y-154468857D01*
X84131568Y-154241643D01*
X84227420Y-153997416D01*
X84285802Y-153741630D01*
X84292142Y-153657033D01*
X84305408Y-153480004D01*
X84305408Y-153479995D01*
X88414592Y-153479995D01*
X88414592Y-153480004D01*
X88434196Y-153741620D01*
X88434197Y-153741625D01*
X88492576Y-153997402D01*
X88492578Y-153997411D01*
X88492580Y-153997416D01*
X88588432Y-154241643D01*
X88719614Y-154468857D01*
X88795519Y-154564039D01*
X88883198Y-154673985D01*
X89010465Y-154792070D01*
X89075521Y-154852433D01*
X89292296Y-155000228D01*
X89292301Y-155000230D01*
X89292302Y-155000231D01*
X89292303Y-155000232D01*
X89417843Y-155060688D01*
X89528673Y-155114061D01*
X89528674Y-155114061D01*
X89528677Y-155114063D01*
X89779385Y-155191396D01*
X90038818Y-155230500D01*
X90301182Y-155230500D01*
X90560615Y-155191396D01*
X90811323Y-155114063D01*
X90998111Y-155024110D01*
X91047696Y-155000232D01*
X91047696Y-155000231D01*
X91047704Y-155000228D01*
X91264479Y-154852433D01*
X91456805Y-154673981D01*
X91620386Y-154468857D01*
X91751568Y-154241643D01*
X91847420Y-153997416D01*
X91905802Y-153741630D01*
X91912142Y-153657033D01*
X91925408Y-153480004D01*
X91925408Y-153479995D01*
X98320592Y-153479995D01*
X98320592Y-153480004D01*
X98340196Y-153741620D01*
X98340197Y-153741625D01*
X98398576Y-153997402D01*
X98398578Y-153997411D01*
X98398580Y-153997416D01*
X98494432Y-154241643D01*
X98625614Y-154468857D01*
X98701519Y-154564039D01*
X98789198Y-154673985D01*
X98916465Y-154792070D01*
X98981521Y-154852433D01*
X99198296Y-155000228D01*
X99198301Y-155000230D01*
X99198302Y-155000231D01*
X99198303Y-155000232D01*
X99323843Y-155060688D01*
X99434673Y-155114061D01*
X99434674Y-155114061D01*
X99434677Y-155114063D01*
X99685385Y-155191396D01*
X99944818Y-155230500D01*
X100207182Y-155230500D01*
X100466615Y-155191396D01*
X100717323Y-155114063D01*
X100904111Y-155024110D01*
X100953696Y-155000232D01*
X100953696Y-155000231D01*
X100953704Y-155000228D01*
X101170479Y-154852433D01*
X101362805Y-154673981D01*
X101526386Y-154468857D01*
X101657568Y-154241643D01*
X101753420Y-153997416D01*
X101811802Y-153741630D01*
X101818142Y-153657033D01*
X101831408Y-153480004D01*
X101831408Y-153479998D01*
X105690891Y-153479998D01*
X105690891Y-153480001D01*
X105711300Y-153765362D01*
X105772109Y-154044895D01*
X105872091Y-154312958D01*
X106009196Y-154564045D01*
X106025066Y-154585247D01*
X107006845Y-153603468D01*
X107022901Y-153684182D01*
X107075668Y-153811574D01*
X107152274Y-153926224D01*
X107249776Y-154023726D01*
X107364426Y-154100332D01*
X107491818Y-154153099D01*
X107572530Y-154169154D01*
X106590751Y-155150931D01*
X106590752Y-155150932D01*
X106611953Y-155166803D01*
X106611961Y-155166808D01*
X106863042Y-155303908D01*
X106863041Y-155303908D01*
X107131104Y-155403890D01*
X107410637Y-155464699D01*
X107695999Y-155485109D01*
X107696001Y-155485109D01*
X107981362Y-155464699D01*
X108260895Y-155403890D01*
X108528958Y-155303908D01*
X108780039Y-155166807D01*
X108780045Y-155166804D01*
X108801247Y-155150932D01*
X107819469Y-154169154D01*
X107900182Y-154153099D01*
X108027574Y-154100332D01*
X108142224Y-154023726D01*
X108239726Y-153926224D01*
X108316332Y-153811574D01*
X108369099Y-153684182D01*
X108385154Y-153603469D01*
X109366932Y-154585247D01*
X109382804Y-154564045D01*
X109382807Y-154564039D01*
X109519908Y-154312958D01*
X109619851Y-154045000D01*
X124931427Y-154045000D01*
X124951687Y-154302427D01*
X125011964Y-154553500D01*
X125011968Y-154553512D01*
X125110781Y-154792070D01*
X125110783Y-154792074D01*
X125110784Y-154792075D01*
X125245703Y-155012244D01*
X125413404Y-155208596D01*
X125609756Y-155376297D01*
X125829925Y-155511216D01*
X125829927Y-155511216D01*
X125829929Y-155511218D01*
X125904312Y-155542028D01*
X126068490Y-155610033D01*
X126319576Y-155670313D01*
X126577000Y-155690573D01*
X126834424Y-155670313D01*
X127085510Y-155610033D01*
X127324075Y-155511216D01*
X127544244Y-155376297D01*
X127740596Y-155208596D01*
X127908297Y-155012244D01*
X128043216Y-154792075D01*
X128142033Y-154553510D01*
X128156426Y-154493559D01*
X128191216Y-154432966D01*
X128253242Y-154400802D01*
X128322811Y-154407278D01*
X128377835Y-154450337D01*
X128397574Y-154493559D01*
X128411963Y-154553497D01*
X128411968Y-154553512D01*
X128510781Y-154792070D01*
X128510783Y-154792074D01*
X128510784Y-154792075D01*
X128645703Y-155012244D01*
X128813404Y-155208596D01*
X129009756Y-155376297D01*
X129229925Y-155511216D01*
X129229927Y-155511216D01*
X129229929Y-155511218D01*
X129304312Y-155542028D01*
X129468490Y-155610033D01*
X129719576Y-155670313D01*
X129977000Y-155690573D01*
X130234424Y-155670313D01*
X130485510Y-155610033D01*
X130724075Y-155511216D01*
X130944244Y-155376297D01*
X131140596Y-155208596D01*
X131308297Y-155012244D01*
X131443216Y-154792075D01*
X131542033Y-154553510D01*
X131602313Y-154302424D01*
X131622573Y-154045000D01*
X131602313Y-153787576D01*
X131542033Y-153536490D01*
X131474028Y-153372312D01*
X131443218Y-153297929D01*
X131429668Y-153275818D01*
X131308297Y-153077756D01*
X131140596Y-152881404D01*
X130944244Y-152713703D01*
X130724075Y-152578784D01*
X130724074Y-152578783D01*
X130724070Y-152578781D01*
X130512491Y-152491143D01*
X130485510Y-152479967D01*
X130485506Y-152479966D01*
X130485500Y-152479964D01*
X130234427Y-152419687D01*
X129977000Y-152399427D01*
X129719572Y-152419687D01*
X129468499Y-152479964D01*
X129468487Y-152479968D01*
X129229929Y-152578781D01*
X129009755Y-152713703D01*
X128813404Y-152881404D01*
X128645703Y-153077755D01*
X128510781Y-153297929D01*
X128411968Y-153536487D01*
X128411964Y-153536499D01*
X128397574Y-153596441D01*
X128362783Y-153657033D01*
X128300757Y-153689197D01*
X128231188Y-153682721D01*
X128176164Y-153639662D01*
X128156426Y-153596441D01*
X128142035Y-153536499D01*
X128142033Y-153536490D01*
X128074028Y-153372312D01*
X128043218Y-153297929D01*
X128029668Y-153275818D01*
X127908297Y-153077756D01*
X127740596Y-152881404D01*
X127544244Y-152713703D01*
X127324075Y-152578784D01*
X127324074Y-152578783D01*
X127324070Y-152578781D01*
X127112491Y-152491143D01*
X127085510Y-152479967D01*
X127085506Y-152479966D01*
X127085500Y-152479964D01*
X126834427Y-152419687D01*
X126577000Y-152399427D01*
X126319572Y-152419687D01*
X126068499Y-152479964D01*
X126068487Y-152479968D01*
X125829929Y-152578781D01*
X125609755Y-152713703D01*
X125413404Y-152881404D01*
X125245703Y-153077755D01*
X125110781Y-153297929D01*
X125011968Y-153536487D01*
X125011964Y-153536499D01*
X124951687Y-153787572D01*
X124931427Y-154045000D01*
X109619851Y-154045000D01*
X109619890Y-154044895D01*
X109680699Y-153765362D01*
X109701109Y-153480001D01*
X109701109Y-153479998D01*
X109680699Y-153194637D01*
X109619890Y-152915104D01*
X109519908Y-152647041D01*
X109382808Y-152395961D01*
X109382803Y-152395953D01*
X109366932Y-152374752D01*
X109366931Y-152374751D01*
X108385153Y-153356529D01*
X108369099Y-153275818D01*
X108316332Y-153148426D01*
X108239726Y-153033776D01*
X108142224Y-152936274D01*
X108027574Y-152859668D01*
X107900182Y-152806901D01*
X107819467Y-152790845D01*
X108801247Y-151809066D01*
X108780045Y-151793196D01*
X108528957Y-151656091D01*
X108528958Y-151656091D01*
X108260895Y-151556109D01*
X107981362Y-151495300D01*
X107696001Y-151474891D01*
X107695999Y-151474891D01*
X107410637Y-151495300D01*
X107131104Y-151556109D01*
X106863041Y-151656091D01*
X106611963Y-151793190D01*
X106611953Y-151793197D01*
X106590751Y-151809067D01*
X107572530Y-152790845D01*
X107491818Y-152806901D01*
X107364426Y-152859668D01*
X107249776Y-152936274D01*
X107152274Y-153033776D01*
X107075668Y-153148426D01*
X107022901Y-153275818D01*
X107006846Y-153356530D01*
X106025067Y-152374751D01*
X106009197Y-152395953D01*
X106009190Y-152395963D01*
X105872091Y-152647041D01*
X105772109Y-152915104D01*
X105711300Y-153194637D01*
X105690891Y-153479998D01*
X101831408Y-153479998D01*
X101831408Y-153479995D01*
X101811803Y-153218379D01*
X101811802Y-153218374D01*
X101811802Y-153218370D01*
X101753420Y-152962584D01*
X101657568Y-152718357D01*
X101526386Y-152491143D01*
X101362805Y-152286019D01*
X101362804Y-152286018D01*
X101362801Y-152286014D01*
X101170479Y-152107567D01*
X100953704Y-151959772D01*
X100953700Y-151959770D01*
X100953697Y-151959768D01*
X100953696Y-151959767D01*
X100717325Y-151845938D01*
X100717327Y-151845938D01*
X100466623Y-151768606D01*
X100466619Y-151768605D01*
X100466615Y-151768604D01*
X100330324Y-151748061D01*
X100207187Y-151729500D01*
X100207182Y-151729500D01*
X99944818Y-151729500D01*
X99944812Y-151729500D01*
X99783247Y-151753853D01*
X99685385Y-151768604D01*
X99685382Y-151768605D01*
X99685376Y-151768606D01*
X99434673Y-151845938D01*
X99198303Y-151959767D01*
X99198302Y-151959768D01*
X98981520Y-152107567D01*
X98789198Y-152286014D01*
X98625614Y-152491143D01*
X98494432Y-152718356D01*
X98398582Y-152962578D01*
X98398576Y-152962597D01*
X98340197Y-153218374D01*
X98340196Y-153218379D01*
X98320592Y-153479995D01*
X91925408Y-153479995D01*
X91905803Y-153218379D01*
X91905802Y-153218374D01*
X91905802Y-153218370D01*
X91847420Y-152962584D01*
X91751568Y-152718357D01*
X91620386Y-152491143D01*
X91456805Y-152286019D01*
X91456804Y-152286018D01*
X91456801Y-152286014D01*
X91264479Y-152107567D01*
X91047704Y-151959772D01*
X91047700Y-151959770D01*
X91047697Y-151959768D01*
X91047696Y-151959767D01*
X90811325Y-151845938D01*
X90811327Y-151845938D01*
X90560623Y-151768606D01*
X90560619Y-151768605D01*
X90560615Y-151768604D01*
X90424324Y-151748061D01*
X90301187Y-151729500D01*
X90301182Y-151729500D01*
X90038818Y-151729500D01*
X90038812Y-151729500D01*
X89877247Y-151753853D01*
X89779385Y-151768604D01*
X89779382Y-151768605D01*
X89779376Y-151768606D01*
X89528673Y-151845938D01*
X89292303Y-151959767D01*
X89292302Y-151959768D01*
X89075520Y-152107567D01*
X88883198Y-152286014D01*
X88719614Y-152491143D01*
X88588432Y-152718356D01*
X88492582Y-152962578D01*
X88492576Y-152962597D01*
X88434197Y-153218374D01*
X88434196Y-153218379D01*
X88414592Y-153479995D01*
X84305408Y-153479995D01*
X84285803Y-153218379D01*
X84285802Y-153218374D01*
X84285802Y-153218370D01*
X84227420Y-152962584D01*
X84131568Y-152718357D01*
X84000386Y-152491143D01*
X83836805Y-152286019D01*
X83836804Y-152286018D01*
X83836801Y-152286014D01*
X83644479Y-152107567D01*
X83427704Y-151959772D01*
X83427700Y-151959770D01*
X83427697Y-151959768D01*
X83427696Y-151959767D01*
X83191325Y-151845938D01*
X83191327Y-151845938D01*
X82940623Y-151768606D01*
X82940619Y-151768605D01*
X82940615Y-151768604D01*
X82804324Y-151748061D01*
X82681187Y-151729500D01*
X82681182Y-151729500D01*
X82418818Y-151729500D01*
X82418812Y-151729500D01*
X82257247Y-151753853D01*
X82159385Y-151768604D01*
X82159382Y-151768605D01*
X82159376Y-151768606D01*
X81908673Y-151845938D01*
X81672303Y-151959767D01*
X81672302Y-151959768D01*
X81455520Y-152107567D01*
X81263198Y-152286014D01*
X81099614Y-152491143D01*
X80968432Y-152718356D01*
X80872582Y-152962578D01*
X80872576Y-152962597D01*
X80814197Y-153218374D01*
X80814196Y-153218379D01*
X80794592Y-153479995D01*
X74399408Y-153479995D01*
X74379803Y-153218379D01*
X74379802Y-153218374D01*
X74379802Y-153218370D01*
X74321420Y-152962584D01*
X74225568Y-152718357D01*
X74094386Y-152491143D01*
X73930805Y-152286019D01*
X73930804Y-152286018D01*
X73930801Y-152286014D01*
X73738479Y-152107567D01*
X73521704Y-151959772D01*
X73521700Y-151959770D01*
X73521697Y-151959768D01*
X73521696Y-151959767D01*
X73285325Y-151845938D01*
X73285327Y-151845938D01*
X73034623Y-151768606D01*
X73034619Y-151768605D01*
X73034615Y-151768604D01*
X72898324Y-151748061D01*
X72775187Y-151729500D01*
X72775182Y-151729500D01*
X72512818Y-151729500D01*
X72512812Y-151729500D01*
X72351247Y-151753853D01*
X72253385Y-151768604D01*
X72253382Y-151768605D01*
X72253376Y-151768606D01*
X72002673Y-151845938D01*
X71766303Y-151959767D01*
X71766302Y-151959768D01*
X71549520Y-152107567D01*
X71357198Y-152286014D01*
X71193614Y-152491143D01*
X71062432Y-152718356D01*
X70966582Y-152962578D01*
X70966576Y-152962597D01*
X70908197Y-153218374D01*
X70908196Y-153218379D01*
X70888592Y-153479995D01*
X67274500Y-153479995D01*
X67274500Y-153332495D01*
X67267038Y-153275818D01*
X67250267Y-153148426D01*
X67235994Y-153040007D01*
X67159639Y-152755048D01*
X67086627Y-152578781D01*
X67046747Y-152482501D01*
X67046742Y-152482492D01*
X67045285Y-152479968D01*
X66899237Y-152227007D01*
X66719646Y-151992958D01*
X66719641Y-151992952D01*
X61671819Y-146945130D01*
X61638334Y-146883807D01*
X61635500Y-146857449D01*
X61635500Y-145432780D01*
X114881233Y-145432780D01*
X114881233Y-145432789D01*
X114900273Y-145686864D01*
X114956968Y-145935262D01*
X114956973Y-145935279D01*
X115050058Y-146172456D01*
X115050057Y-146172456D01*
X115134458Y-146318640D01*
X115134459Y-146318641D01*
X115986000Y-145467100D01*
X115986000Y-145511776D01*
X116026889Y-145664376D01*
X116105881Y-145801193D01*
X116217592Y-145912904D01*
X116354409Y-145991896D01*
X116507009Y-146032785D01*
X116551685Y-146032785D01*
X115698949Y-146885519D01*
X115733618Y-146909158D01*
X115963176Y-147019706D01*
X115963174Y-147019706D01*
X116206652Y-147094809D01*
X116206658Y-147094811D01*
X116458595Y-147132784D01*
X116458604Y-147132785D01*
X116713396Y-147132785D01*
X116713404Y-147132784D01*
X116965341Y-147094811D01*
X116965347Y-147094809D01*
X117208824Y-147019706D01*
X117438381Y-146909158D01*
X117473051Y-146885520D01*
X116620315Y-146032785D01*
X116664991Y-146032785D01*
X116817591Y-145991896D01*
X116954408Y-145912904D01*
X117066119Y-145801193D01*
X117145111Y-145664376D01*
X117186000Y-145511776D01*
X117186000Y-145467100D01*
X118037540Y-146318641D01*
X118037541Y-146318641D01*
X118121941Y-146172456D01*
X118215026Y-145935279D01*
X118215031Y-145935262D01*
X118271726Y-145686864D01*
X118290767Y-145432789D01*
X118290767Y-145432780D01*
X118271726Y-145178705D01*
X118215031Y-144930307D01*
X118215026Y-144930290D01*
X118121941Y-144693113D01*
X118121942Y-144693113D01*
X118037540Y-144546927D01*
X117186000Y-145398468D01*
X117186000Y-145353794D01*
X117145111Y-145201194D01*
X117066119Y-145064377D01*
X116954408Y-144952666D01*
X116817591Y-144873674D01*
X116664991Y-144832785D01*
X116620313Y-144832785D01*
X117473051Y-143980048D01*
X117438390Y-143956417D01*
X117438377Y-143956410D01*
X117208823Y-143845863D01*
X117208825Y-143845863D01*
X116965347Y-143770760D01*
X116965341Y-143770758D01*
X116713404Y-143732785D01*
X116458595Y-143732785D01*
X116206658Y-143770758D01*
X116206652Y-143770760D01*
X115963175Y-143845863D01*
X115733622Y-143956410D01*
X115733616Y-143956413D01*
X115698948Y-143980049D01*
X116551685Y-144832785D01*
X116507009Y-144832785D01*
X116354409Y-144873674D01*
X116217592Y-144952666D01*
X116105881Y-145064377D01*
X116026889Y-145201194D01*
X115986000Y-145353794D01*
X115986000Y-145398470D01*
X115134458Y-144546928D01*
X115050058Y-144693113D01*
X114956973Y-144930290D01*
X114956968Y-144930307D01*
X114900273Y-145178705D01*
X114881233Y-145432780D01*
X61635500Y-145432780D01*
X61635500Y-140731504D01*
X61655185Y-140664465D01*
X61707989Y-140618710D01*
X61777147Y-140608766D01*
X61840703Y-140637791D01*
X61857876Y-140656018D01*
X61889352Y-140697039D01*
X61889358Y-140697046D01*
X62846359Y-141654046D01*
X62879844Y-141715369D01*
X62875720Y-141782680D01*
X62848686Y-141859941D01*
X62829751Y-142027997D01*
X62829751Y-142028002D01*
X62848685Y-142196056D01*
X62904545Y-142355694D01*
X62904547Y-142355697D01*
X62994518Y-142498884D01*
X62994523Y-142498890D01*
X63114109Y-142618476D01*
X63114115Y-142618481D01*
X63257302Y-142708452D01*
X63257305Y-142708454D01*
X63257309Y-142708455D01*
X63257310Y-142708456D01*
X63266141Y-142711546D01*
X63416943Y-142764314D01*
X63584997Y-142783249D01*
X63585000Y-142783249D01*
X63585003Y-142783249D01*
X63753059Y-142764313D01*
X63753061Y-142764313D01*
X63830317Y-142737280D01*
X63900096Y-142733718D01*
X63958953Y-142766640D01*
X65586909Y-144394596D01*
X65586946Y-144394635D01*
X65797952Y-144605641D01*
X65797959Y-144605647D01*
X66032006Y-144785238D01*
X66287489Y-144932741D01*
X66287490Y-144932741D01*
X66287493Y-144932743D01*
X66560048Y-145045639D01*
X66620267Y-145061774D01*
X66845007Y-145121994D01*
X67103467Y-145156020D01*
X67137494Y-145160500D01*
X102345500Y-145160500D01*
X102345505Y-145160500D01*
X102345506Y-145160500D01*
X102379532Y-145156020D01*
X102637993Y-145121994D01*
X102862732Y-145061774D01*
X102922952Y-145045639D01*
X103195507Y-144932743D01*
X103450994Y-144785238D01*
X103685042Y-144605646D01*
X103893646Y-144397042D01*
X103899010Y-144391678D01*
X103899025Y-144391660D01*
X105796688Y-142493998D01*
X135218891Y-142493998D01*
X135218891Y-142494001D01*
X135239300Y-142779362D01*
X135300109Y-143058895D01*
X135400091Y-143326958D01*
X135537196Y-143578045D01*
X135553066Y-143599247D01*
X136534845Y-142617468D01*
X136550901Y-142698182D01*
X136603668Y-142825574D01*
X136680274Y-142940224D01*
X136777776Y-143037726D01*
X136892426Y-143114332D01*
X137019818Y-143167099D01*
X137100530Y-143183154D01*
X136118751Y-144164931D01*
X136118752Y-144164932D01*
X136139953Y-144180803D01*
X136139961Y-144180808D01*
X136391042Y-144317908D01*
X136391041Y-144317908D01*
X136659104Y-144417890D01*
X136938637Y-144478699D01*
X137223999Y-144499109D01*
X137224001Y-144499109D01*
X137509362Y-144478699D01*
X137788895Y-144417890D01*
X138056958Y-144317908D01*
X138308039Y-144180807D01*
X138308045Y-144180804D01*
X138329247Y-144164932D01*
X137347469Y-143183154D01*
X137428182Y-143167099D01*
X137555574Y-143114332D01*
X137670224Y-143037726D01*
X137767726Y-142940224D01*
X137844332Y-142825574D01*
X137897099Y-142698182D01*
X137913154Y-142617469D01*
X138894932Y-143599247D01*
X138910804Y-143578045D01*
X138910807Y-143578039D01*
X139047908Y-143326958D01*
X139147890Y-143058895D01*
X139208699Y-142779362D01*
X139229109Y-142494001D01*
X139229109Y-142493998D01*
X139208699Y-142208637D01*
X139147890Y-141929104D01*
X139047908Y-141661041D01*
X138910808Y-141409961D01*
X138910803Y-141409953D01*
X138894932Y-141388752D01*
X138894931Y-141388751D01*
X137913153Y-142370529D01*
X137897099Y-142289818D01*
X137844332Y-142162426D01*
X137767726Y-142047776D01*
X137670224Y-141950274D01*
X137555574Y-141873668D01*
X137428182Y-141820901D01*
X137347467Y-141804845D01*
X138329247Y-140823066D01*
X138308045Y-140807196D01*
X138056957Y-140670091D01*
X138056958Y-140670091D01*
X137788895Y-140570109D01*
X137509362Y-140509300D01*
X137224001Y-140488891D01*
X137223999Y-140488891D01*
X136938637Y-140509300D01*
X136659104Y-140570109D01*
X136391041Y-140670091D01*
X136139963Y-140807190D01*
X136139953Y-140807197D01*
X136118751Y-140823067D01*
X137100530Y-141804845D01*
X137019818Y-141820901D01*
X136892426Y-141873668D01*
X136777776Y-141950274D01*
X136680274Y-142047776D01*
X136603668Y-142162426D01*
X136550901Y-142289818D01*
X136534845Y-142370530D01*
X135553067Y-141388751D01*
X135537197Y-141409953D01*
X135537190Y-141409963D01*
X135400091Y-141661041D01*
X135300109Y-141929104D01*
X135239300Y-142208637D01*
X135218891Y-142493998D01*
X105796688Y-142493998D01*
X107593646Y-140697041D01*
X107773237Y-140462993D01*
X107920743Y-140207506D01*
X108033639Y-139934951D01*
X108109994Y-139649993D01*
X108148500Y-139357505D01*
X108148500Y-139208106D01*
X115135500Y-139208106D01*
X115135500Y-141657463D01*
X115150032Y-141730520D01*
X115150033Y-141730524D01*
X115150034Y-141730525D01*
X115205399Y-141813386D01*
X115275075Y-141859941D01*
X115288260Y-141868751D01*
X115288264Y-141868752D01*
X115361321Y-141883284D01*
X115361324Y-141883285D01*
X115361326Y-141883285D01*
X117810676Y-141883285D01*
X117810677Y-141883284D01*
X117883740Y-141868751D01*
X117966601Y-141813386D01*
X118021966Y-141730525D01*
X118036500Y-141657459D01*
X118036500Y-139208111D01*
X118036500Y-139208108D01*
X118036499Y-139208106D01*
X118021967Y-139135049D01*
X118021966Y-139135045D01*
X117973490Y-139062495D01*
X117966601Y-139052184D01*
X117883740Y-138996819D01*
X117883739Y-138996818D01*
X117883735Y-138996817D01*
X117810677Y-138982285D01*
X117810674Y-138982285D01*
X115361326Y-138982285D01*
X115361323Y-138982285D01*
X115288264Y-138996817D01*
X115288260Y-138996818D01*
X115205399Y-139052184D01*
X115150033Y-139135045D01*
X115150032Y-139135049D01*
X115135500Y-139208106D01*
X108148500Y-139208106D01*
X108148500Y-139062495D01*
X108109994Y-138770007D01*
X108033639Y-138485049D01*
X107924326Y-138221143D01*
X107920747Y-138212502D01*
X107920739Y-138212486D01*
X107773241Y-137957014D01*
X107773237Y-137957007D01*
X107593646Y-137722959D01*
X107593641Y-137722953D01*
X107385046Y-137514358D01*
X107385039Y-137514352D01*
X107151001Y-137334769D01*
X107150999Y-137334767D01*
X107150993Y-137334763D01*
X107150988Y-137334760D01*
X107150985Y-137334758D01*
X106895513Y-137187260D01*
X106895497Y-137187252D01*
X106622951Y-137074361D01*
X106337989Y-136998005D01*
X106045506Y-136959500D01*
X106045505Y-136959500D01*
X105750495Y-136959500D01*
X105750494Y-136959500D01*
X105458010Y-136998005D01*
X105173048Y-137074361D01*
X104900502Y-137187252D01*
X104900486Y-137187260D01*
X104645014Y-137334758D01*
X104644998Y-137334769D01*
X104410960Y-137514352D01*
X104410953Y-137514358D01*
X101302132Y-140623181D01*
X101240809Y-140656666D01*
X101214451Y-140659500D01*
X99625368Y-140659500D01*
X99558329Y-140639815D01*
X99512574Y-140587011D01*
X99502630Y-140517853D01*
X99531655Y-140454297D01*
X99541027Y-140444601D01*
X99584801Y-140403985D01*
X99584801Y-140403983D01*
X99584805Y-140403981D01*
X99748386Y-140198857D01*
X99879568Y-139971643D01*
X99975420Y-139727416D01*
X100033802Y-139471630D01*
X100041359Y-139370784D01*
X100053408Y-139210004D01*
X100053408Y-139209995D01*
X100033803Y-138948379D01*
X100033802Y-138948374D01*
X100033802Y-138948370D01*
X99975420Y-138692584D01*
X99879568Y-138448357D01*
X99748386Y-138221143D01*
X99584805Y-138016019D01*
X99584804Y-138016018D01*
X99584801Y-138016014D01*
X99392479Y-137837567D01*
X99175704Y-137689772D01*
X99175700Y-137689770D01*
X99175697Y-137689768D01*
X99175696Y-137689767D01*
X98939325Y-137575938D01*
X98939327Y-137575938D01*
X98688623Y-137498606D01*
X98688619Y-137498605D01*
X98688615Y-137498604D01*
X98563823Y-137479794D01*
X98429187Y-137459500D01*
X98429182Y-137459500D01*
X98166818Y-137459500D01*
X98166812Y-137459500D01*
X98005247Y-137483853D01*
X97907385Y-137498604D01*
X97907382Y-137498605D01*
X97907376Y-137498606D01*
X97656673Y-137575938D01*
X97420303Y-137689767D01*
X97420302Y-137689768D01*
X97203520Y-137837567D01*
X97011198Y-138016014D01*
X96847614Y-138221143D01*
X96716432Y-138448356D01*
X96620582Y-138692578D01*
X96620576Y-138692597D01*
X96562197Y-138948374D01*
X96562196Y-138948379D01*
X96542592Y-139209995D01*
X96542592Y-139210004D01*
X96562196Y-139471620D01*
X96562197Y-139471625D01*
X96620576Y-139727402D01*
X96620578Y-139727411D01*
X96620580Y-139727416D01*
X96716432Y-139971643D01*
X96847614Y-140198857D01*
X96950991Y-140328487D01*
X97011198Y-140403985D01*
X97054973Y-140444601D01*
X97090728Y-140504629D01*
X97088353Y-140574458D01*
X97048603Y-140631919D01*
X96984097Y-140658767D01*
X96970632Y-140659500D01*
X72512368Y-140659500D01*
X72445329Y-140639815D01*
X72399574Y-140587011D01*
X72389630Y-140517853D01*
X72418655Y-140454297D01*
X72428027Y-140444601D01*
X72471801Y-140403985D01*
X72471801Y-140403983D01*
X72471805Y-140403981D01*
X72635386Y-140198857D01*
X72766568Y-139971643D01*
X72862420Y-139727416D01*
X72920802Y-139471630D01*
X72928359Y-139370784D01*
X72940408Y-139210004D01*
X72940408Y-139209995D01*
X72920803Y-138948379D01*
X72920802Y-138948374D01*
X72920802Y-138948370D01*
X72862420Y-138692584D01*
X72766568Y-138448357D01*
X72635386Y-138221143D01*
X72471805Y-138016019D01*
X72471804Y-138016018D01*
X72471801Y-138016014D01*
X72279479Y-137837567D01*
X72062704Y-137689772D01*
X72062700Y-137689770D01*
X72062697Y-137689768D01*
X72062696Y-137689767D01*
X71826325Y-137575938D01*
X71826327Y-137575938D01*
X71575623Y-137498606D01*
X71575619Y-137498605D01*
X71575615Y-137498604D01*
X71450823Y-137479794D01*
X71316187Y-137459500D01*
X71316182Y-137459500D01*
X71053818Y-137459500D01*
X71053812Y-137459500D01*
X70892247Y-137483853D01*
X70794385Y-137498604D01*
X70794382Y-137498605D01*
X70794376Y-137498606D01*
X70543673Y-137575938D01*
X70307303Y-137689767D01*
X70307302Y-137689768D01*
X70090520Y-137837567D01*
X69898198Y-138016014D01*
X69734614Y-138221143D01*
X69603432Y-138448356D01*
X69507582Y-138692578D01*
X69507576Y-138692597D01*
X69449197Y-138948374D01*
X69449196Y-138948379D01*
X69429592Y-139209995D01*
X69429592Y-139210004D01*
X69449196Y-139471620D01*
X69449197Y-139471625D01*
X69507576Y-139727402D01*
X69507578Y-139727411D01*
X69507580Y-139727416D01*
X69603432Y-139971643D01*
X69734614Y-140198857D01*
X69837991Y-140328487D01*
X69898198Y-140403985D01*
X69941973Y-140444601D01*
X69977728Y-140504629D01*
X69975353Y-140574458D01*
X69935603Y-140631919D01*
X69871097Y-140658767D01*
X69857632Y-140659500D01*
X68268549Y-140659500D01*
X68201510Y-140639815D01*
X68180868Y-140623181D01*
X65072046Y-137514358D01*
X65072039Y-137514352D01*
X64838001Y-137334769D01*
X64837999Y-137334767D01*
X64837993Y-137334763D01*
X64837988Y-137334760D01*
X64837985Y-137334758D01*
X64582513Y-137187260D01*
X64582497Y-137187252D01*
X64309951Y-137074361D01*
X64024989Y-136998005D01*
X63732506Y-136959500D01*
X63732505Y-136959500D01*
X63437495Y-136959500D01*
X63437493Y-136959500D01*
X63380117Y-136967053D01*
X63311082Y-136956287D01*
X63258826Y-136909906D01*
X63239942Y-136842637D01*
X63260423Y-136775837D01*
X63276247Y-136756438D01*
X69722691Y-130309995D01*
X78802592Y-130309995D01*
X78802592Y-130310004D01*
X78822196Y-130571620D01*
X78822197Y-130571625D01*
X78880576Y-130827402D01*
X78880578Y-130827411D01*
X78880580Y-130827416D01*
X78976432Y-131071643D01*
X79107614Y-131298857D01*
X79239736Y-131464533D01*
X79271198Y-131503985D01*
X79352725Y-131579630D01*
X79463521Y-131682433D01*
X79680296Y-131830228D01*
X79680301Y-131830230D01*
X79680302Y-131830231D01*
X79680303Y-131830232D01*
X79805843Y-131890688D01*
X79916673Y-131944061D01*
X79916674Y-131944061D01*
X79916677Y-131944063D01*
X80167385Y-132021396D01*
X80426818Y-132060500D01*
X80689182Y-132060500D01*
X80948615Y-132021396D01*
X81199323Y-131944063D01*
X81435704Y-131830228D01*
X81652479Y-131682433D01*
X81844805Y-131503981D01*
X82008386Y-131298857D01*
X82139568Y-131071643D01*
X82235420Y-130827416D01*
X82293802Y-130571630D01*
X82294947Y-130556356D01*
X82313408Y-130310004D01*
X82313408Y-130309995D01*
X82293803Y-130048379D01*
X82293802Y-130048374D01*
X82293802Y-130048370D01*
X82235420Y-129792584D01*
X82139568Y-129548357D01*
X82008386Y-129321143D01*
X81844805Y-129116019D01*
X81844804Y-129116018D01*
X81844801Y-129116014D01*
X81652479Y-128937567D01*
X81637630Y-128927443D01*
X81435704Y-128789772D01*
X81435700Y-128789770D01*
X81435697Y-128789768D01*
X81435696Y-128789767D01*
X81199325Y-128675938D01*
X81199327Y-128675938D01*
X80948623Y-128598606D01*
X80948619Y-128598605D01*
X80948615Y-128598604D01*
X80823823Y-128579794D01*
X80689187Y-128559500D01*
X80689182Y-128559500D01*
X80426818Y-128559500D01*
X80426812Y-128559500D01*
X80265247Y-128583853D01*
X80167385Y-128598604D01*
X80167382Y-128598605D01*
X80167376Y-128598606D01*
X79916673Y-128675938D01*
X79680303Y-128789767D01*
X79680302Y-128789768D01*
X79463520Y-128937567D01*
X79271198Y-129116014D01*
X79107614Y-129321143D01*
X78976432Y-129548356D01*
X78880582Y-129792578D01*
X78880576Y-129792597D01*
X78822197Y-130048374D01*
X78822196Y-130048379D01*
X78802592Y-130309995D01*
X69722691Y-130309995D01*
X72623281Y-127409406D01*
X74520369Y-125512319D01*
X74581692Y-125478834D01*
X74608050Y-125476000D01*
X81723501Y-125476000D01*
X81790540Y-125495685D01*
X81836295Y-125548489D01*
X81847501Y-125600000D01*
X81847501Y-125760018D01*
X81858000Y-125862796D01*
X81858001Y-125862799D01*
X81913185Y-126029331D01*
X81913186Y-126029334D01*
X82005288Y-126178656D01*
X82129344Y-126302712D01*
X82278666Y-126394814D01*
X82445203Y-126449999D01*
X82547991Y-126460500D01*
X83648008Y-126460499D01*
X83648016Y-126460498D01*
X83648019Y-126460498D01*
X83704302Y-126454748D01*
X83750797Y-126449999D01*
X83917334Y-126394814D01*
X84066656Y-126302712D01*
X84190712Y-126178656D01*
X84282814Y-126029334D01*
X84337999Y-125862797D01*
X84348500Y-125760009D01*
X84348500Y-125600000D01*
X84368185Y-125532961D01*
X84420989Y-125487206D01*
X84472500Y-125476000D01*
X88355500Y-125476000D01*
X88422539Y-125495685D01*
X88468294Y-125548489D01*
X88479500Y-125600000D01*
X88479500Y-129057191D01*
X88459815Y-129124230D01*
X88443181Y-129144872D01*
X83444113Y-134143939D01*
X83382790Y-134177424D01*
X83324346Y-134176035D01*
X83315983Y-134173794D01*
X83315970Y-134173792D01*
X83098002Y-134154723D01*
X83097998Y-134154723D01*
X82952682Y-134167436D01*
X82880023Y-134173793D01*
X82880020Y-134173793D01*
X82668677Y-134230422D01*
X82668668Y-134230426D01*
X82470361Y-134322898D01*
X82470357Y-134322900D01*
X82291121Y-134448402D01*
X82136402Y-134603121D01*
X82010900Y-134782357D01*
X82010898Y-134782361D01*
X81918426Y-134980668D01*
X81918422Y-134980677D01*
X81861793Y-135192020D01*
X81861793Y-135192024D01*
X81842723Y-135409997D01*
X81842723Y-135410002D01*
X81861793Y-135627975D01*
X81861793Y-135627979D01*
X81918422Y-135839322D01*
X81918424Y-135839326D01*
X81918425Y-135839330D01*
X81964661Y-135938484D01*
X82010897Y-136037638D01*
X82010898Y-136037639D01*
X82136402Y-136216877D01*
X82291123Y-136371598D01*
X82470361Y-136497102D01*
X82668670Y-136589575D01*
X82880023Y-136646207D01*
X83062926Y-136662208D01*
X83097998Y-136665277D01*
X83098000Y-136665277D01*
X83098002Y-136665277D01*
X83126254Y-136662805D01*
X83315977Y-136646207D01*
X83527330Y-136589575D01*
X83725639Y-136497102D01*
X83904877Y-136371598D01*
X84059598Y-136216877D01*
X84185102Y-136037639D01*
X84277575Y-135839330D01*
X84334207Y-135627977D01*
X84353277Y-135410000D01*
X84334207Y-135192023D01*
X84331967Y-135183663D01*
X84333626Y-135113816D01*
X84364057Y-135063887D01*
X89635276Y-129792669D01*
X89635277Y-129792668D01*
X89635278Y-129792667D01*
X89706461Y-129686133D01*
X89706461Y-129686132D01*
X89706465Y-129686127D01*
X89755501Y-129567744D01*
X89770165Y-129494023D01*
X89780500Y-129442069D01*
X89780500Y-128466980D01*
X115084381Y-128466980D01*
X115219390Y-128540044D01*
X115219396Y-128540046D01*
X115454506Y-128620760D01*
X115699707Y-128661677D01*
X115948293Y-128661677D01*
X116193493Y-128620760D01*
X116428600Y-128540047D01*
X116428608Y-128540044D01*
X116563617Y-128466980D01*
X115824000Y-127727363D01*
X115084381Y-128466980D01*
X89780500Y-128466980D01*
X89780500Y-127161671D01*
X114318859Y-127161671D01*
X114318859Y-127161682D01*
X114339385Y-127409406D01*
X114339387Y-127409415D01*
X114400412Y-127650394D01*
X114500265Y-127878039D01*
X114500267Y-127878043D01*
X114516737Y-127903252D01*
X115258314Y-127161677D01*
X115258314Y-127161676D01*
X115192489Y-127095851D01*
X115324000Y-127095851D01*
X115324000Y-127227503D01*
X115358075Y-127354670D01*
X115423901Y-127468684D01*
X115516993Y-127561776D01*
X115631007Y-127627602D01*
X115758174Y-127661677D01*
X115889826Y-127661677D01*
X116016993Y-127627602D01*
X116131007Y-127561776D01*
X116224099Y-127468684D01*
X116289925Y-127354670D01*
X116324000Y-127227503D01*
X116324000Y-127095851D01*
X116289925Y-126968684D01*
X116224099Y-126854670D01*
X116131007Y-126761578D01*
X116016993Y-126695752D01*
X115889826Y-126661677D01*
X115758174Y-126661677D01*
X115631007Y-126695752D01*
X115516993Y-126761578D01*
X115423901Y-126854670D01*
X115358075Y-126968684D01*
X115324000Y-127095851D01*
X115192489Y-127095851D01*
X114516737Y-126420099D01*
X114516736Y-126420099D01*
X114500272Y-126445301D01*
X114500267Y-126445311D01*
X114400411Y-126672959D01*
X114339387Y-126913938D01*
X114339385Y-126913947D01*
X114318859Y-127161671D01*
X89780500Y-127161671D01*
X89780500Y-125600000D01*
X89800185Y-125532961D01*
X89852989Y-125487206D01*
X89904500Y-125476000D01*
X115371461Y-125476000D01*
X115438500Y-125495685D01*
X115484255Y-125548489D01*
X115494199Y-125617647D01*
X115465174Y-125681203D01*
X115411724Y-125717281D01*
X115219400Y-125783306D01*
X115219386Y-125783312D01*
X115084380Y-125856372D01*
X115824000Y-126595991D01*
X115824001Y-126595991D01*
X116563618Y-125856372D01*
X116428614Y-125783312D01*
X116428603Y-125783307D01*
X116236276Y-125717281D01*
X116179261Y-125676896D01*
X116153130Y-125612096D01*
X116166181Y-125543456D01*
X116214270Y-125492768D01*
X116276539Y-125476000D01*
X117343500Y-125476000D01*
X117410539Y-125495685D01*
X117456294Y-125548489D01*
X117467500Y-125600000D01*
X117467500Y-126582924D01*
X117447815Y-126649963D01*
X117395011Y-126695718D01*
X117325853Y-126705662D01*
X117262297Y-126676637D01*
X117229944Y-126632734D01*
X117147733Y-126445310D01*
X117131261Y-126420099D01*
X116389686Y-127161676D01*
X116389686Y-127161677D01*
X117131261Y-127903252D01*
X117131262Y-127903252D01*
X117147731Y-127878046D01*
X117147732Y-127878045D01*
X117229944Y-127690619D01*
X117274900Y-127637133D01*
X117341636Y-127616443D01*
X117408963Y-127635117D01*
X117455507Y-127687227D01*
X117467500Y-127740429D01*
X117467500Y-128839762D01*
X117447815Y-128906801D01*
X117431181Y-128927443D01*
X115483766Y-130874858D01*
X115422443Y-130908343D01*
X115396085Y-130911177D01*
X114799323Y-130911177D01*
X114726264Y-130925709D01*
X114726260Y-130925710D01*
X114643399Y-130981076D01*
X114588033Y-131063937D01*
X114588032Y-131063941D01*
X114573500Y-131136998D01*
X114573500Y-133186355D01*
X114588032Y-133259412D01*
X114588033Y-133259416D01*
X114588034Y-133259417D01*
X114643399Y-133342278D01*
X114726260Y-133397643D01*
X114726264Y-133397644D01*
X114799321Y-133412176D01*
X114799324Y-133412177D01*
X114799326Y-133412177D01*
X116848676Y-133412177D01*
X116848677Y-133412176D01*
X116921740Y-133397643D01*
X117004601Y-133342278D01*
X117059966Y-133259417D01*
X117074500Y-133186351D01*
X117074500Y-132589590D01*
X117094185Y-132522551D01*
X117110814Y-132501914D01*
X119362518Y-130250209D01*
X119362537Y-130250193D01*
X119367498Y-130245231D01*
X119367501Y-130245230D01*
X119495553Y-130117178D01*
X119601996Y-129970671D01*
X119684211Y-129809316D01*
X119689620Y-129792669D01*
X119740172Y-129637086D01*
X119751156Y-129567736D01*
X119768501Y-129458228D01*
X119768501Y-129272729D01*
X119768500Y-129272714D01*
X119768500Y-125600000D01*
X119788185Y-125532961D01*
X119840989Y-125487206D01*
X119892500Y-125476000D01*
X131192500Y-125476000D01*
X131259539Y-125495685D01*
X131305294Y-125548489D01*
X131316500Y-125600000D01*
X131316500Y-131680663D01*
X131296815Y-131747702D01*
X131244011Y-131793457D01*
X131174853Y-131803401D01*
X131111969Y-131774953D01*
X130944247Y-131631705D01*
X130735819Y-131503981D01*
X130724075Y-131496784D01*
X130724074Y-131496783D01*
X130724070Y-131496781D01*
X130485512Y-131397968D01*
X130485514Y-131397968D01*
X130485510Y-131397967D01*
X130485506Y-131397966D01*
X130485500Y-131397964D01*
X130234427Y-131337687D01*
X129977000Y-131317427D01*
X129719572Y-131337687D01*
X129468499Y-131397964D01*
X129468487Y-131397968D01*
X129229929Y-131496781D01*
X129009755Y-131631703D01*
X128813404Y-131799404D01*
X128645703Y-131995755D01*
X128510781Y-132215929D01*
X128411968Y-132454487D01*
X128411964Y-132454499D01*
X128397574Y-132514441D01*
X128362783Y-132575033D01*
X128300757Y-132607197D01*
X128231188Y-132600721D01*
X128176164Y-132557662D01*
X128156426Y-132514441D01*
X128142035Y-132454499D01*
X128142033Y-132454490D01*
X128043216Y-132215925D01*
X127908297Y-131995756D01*
X127740596Y-131799404D01*
X127544244Y-131631703D01*
X127324075Y-131496784D01*
X127324074Y-131496783D01*
X127324070Y-131496781D01*
X127085512Y-131397968D01*
X127085514Y-131397968D01*
X127085510Y-131397967D01*
X127085506Y-131397966D01*
X127085500Y-131397964D01*
X126834427Y-131337687D01*
X126577000Y-131317427D01*
X126319572Y-131337687D01*
X126068499Y-131397964D01*
X126068487Y-131397968D01*
X125829929Y-131496781D01*
X125609755Y-131631703D01*
X125413404Y-131799404D01*
X125245703Y-131995755D01*
X125110781Y-132215929D01*
X125011968Y-132454487D01*
X125011964Y-132454499D01*
X124951687Y-132705572D01*
X124931427Y-132963000D01*
X124951687Y-133220427D01*
X125011964Y-133471500D01*
X125011968Y-133471512D01*
X125110781Y-133710070D01*
X125110783Y-133710074D01*
X125110784Y-133710075D01*
X125245703Y-133930244D01*
X125413404Y-134126596D01*
X125609756Y-134294297D01*
X125829925Y-134429216D01*
X125829927Y-134429216D01*
X125829929Y-134429218D01*
X125876244Y-134448402D01*
X126068490Y-134528033D01*
X126319576Y-134588313D01*
X126577000Y-134608573D01*
X126834424Y-134588313D01*
X127085510Y-134528033D01*
X127324075Y-134429216D01*
X127544244Y-134294297D01*
X127740596Y-134126596D01*
X127908297Y-133930244D01*
X128043216Y-133710075D01*
X128142033Y-133471510D01*
X128148772Y-133443437D01*
X128156426Y-133411559D01*
X128191216Y-133350966D01*
X128253242Y-133318802D01*
X128322811Y-133325278D01*
X128377835Y-133368337D01*
X128397574Y-133411559D01*
X128411963Y-133471497D01*
X128411968Y-133471512D01*
X128510781Y-133710070D01*
X128510783Y-133710074D01*
X128510784Y-133710075D01*
X128645703Y-133930244D01*
X128813404Y-134126596D01*
X129009756Y-134294297D01*
X129229925Y-134429216D01*
X129229927Y-134429216D01*
X129229929Y-134429218D01*
X129276244Y-134448402D01*
X129468490Y-134528033D01*
X129719576Y-134588313D01*
X129977000Y-134608573D01*
X130234424Y-134588313D01*
X130485510Y-134528033D01*
X130485523Y-134528027D01*
X130490136Y-134526529D01*
X130490570Y-134527866D01*
X130553743Y-134521065D01*
X130616227Y-134552331D01*
X130651888Y-134612415D01*
X130649404Y-134682240D01*
X130619425Y-134730779D01*
X129099445Y-136250758D01*
X129099441Y-136250763D01*
X128993006Y-136397260D01*
X128910788Y-136558618D01*
X128910787Y-136558621D01*
X128854829Y-136730847D01*
X128826499Y-136909713D01*
X128826499Y-137095914D01*
X128826500Y-137095939D01*
X128826500Y-139612324D01*
X128806815Y-139679363D01*
X128796790Y-139692855D01*
X128645705Y-139869752D01*
X128510781Y-140089929D01*
X128411968Y-140328487D01*
X128411964Y-140328499D01*
X128397574Y-140388441D01*
X128362783Y-140449033D01*
X128300757Y-140481197D01*
X128231188Y-140474721D01*
X128176164Y-140431662D01*
X128156426Y-140388441D01*
X128142035Y-140328499D01*
X128142033Y-140328490D01*
X128043216Y-140089925D01*
X127908297Y-139869756D01*
X127740596Y-139673404D01*
X127544244Y-139505703D01*
X127324075Y-139370784D01*
X127324074Y-139370783D01*
X127324070Y-139370781D01*
X127085512Y-139271968D01*
X127085514Y-139271968D01*
X127085510Y-139271967D01*
X127085506Y-139271966D01*
X127085500Y-139271964D01*
X126834427Y-139211687D01*
X126577000Y-139191427D01*
X126319572Y-139211687D01*
X126068499Y-139271964D01*
X126068487Y-139271968D01*
X125829929Y-139370781D01*
X125609755Y-139505703D01*
X125413404Y-139673404D01*
X125245703Y-139869755D01*
X125110781Y-140089929D01*
X125011968Y-140328487D01*
X125011964Y-140328499D01*
X124951687Y-140579572D01*
X124931427Y-140837000D01*
X124951687Y-141094427D01*
X125011964Y-141345500D01*
X125011968Y-141345512D01*
X125110781Y-141584070D01*
X125110783Y-141584074D01*
X125110784Y-141584075D01*
X125245703Y-141804244D01*
X125413404Y-142000596D01*
X125609756Y-142168297D01*
X125829925Y-142303216D01*
X125829927Y-142303216D01*
X125829929Y-142303218D01*
X125904312Y-142334028D01*
X126068490Y-142402033D01*
X126319576Y-142462313D01*
X126577000Y-142482573D01*
X126834424Y-142462313D01*
X127085510Y-142402033D01*
X127324075Y-142303216D01*
X127544244Y-142168297D01*
X127740596Y-142000596D01*
X127908297Y-141804244D01*
X128043216Y-141584075D01*
X128142033Y-141345510D01*
X128156426Y-141285559D01*
X128191216Y-141224966D01*
X128253242Y-141192802D01*
X128322811Y-141199278D01*
X128377835Y-141242337D01*
X128397574Y-141285559D01*
X128411963Y-141345497D01*
X128411968Y-141345512D01*
X128510781Y-141584070D01*
X128510783Y-141584074D01*
X128510784Y-141584075D01*
X128645703Y-141804244D01*
X128813404Y-142000596D01*
X129009756Y-142168297D01*
X129229925Y-142303216D01*
X129229927Y-142303216D01*
X129229929Y-142303218D01*
X129304312Y-142334028D01*
X129468490Y-142402033D01*
X129719576Y-142462313D01*
X129977000Y-142482573D01*
X130234424Y-142462313D01*
X130485510Y-142402033D01*
X130724075Y-142303216D01*
X130944244Y-142168297D01*
X131140596Y-142000596D01*
X131308297Y-141804244D01*
X131443216Y-141584075D01*
X131542033Y-141345510D01*
X131602313Y-141094424D01*
X131622573Y-140837000D01*
X131602313Y-140579576D01*
X131542033Y-140328490D01*
X131443216Y-140089925D01*
X131308297Y-139869756D01*
X131308294Y-139869752D01*
X131157210Y-139692855D01*
X131128639Y-139629094D01*
X131127500Y-139612324D01*
X131127500Y-137528171D01*
X131147185Y-137461132D01*
X131163814Y-137440495D01*
X133211518Y-135392790D01*
X133211537Y-135392774D01*
X133216498Y-135387812D01*
X133216501Y-135387811D01*
X133344553Y-135259759D01*
X133450996Y-135113252D01*
X133533211Y-134951897D01*
X133550167Y-134899711D01*
X133589172Y-134779667D01*
X133604603Y-134682240D01*
X133617501Y-134600809D01*
X133617501Y-134415310D01*
X133617500Y-134415295D01*
X133617500Y-131317995D01*
X135468592Y-131317995D01*
X135468592Y-131318004D01*
X135488196Y-131579620D01*
X135488197Y-131579625D01*
X135546576Y-131835402D01*
X135546578Y-131835411D01*
X135546580Y-131835416D01*
X135642432Y-132079643D01*
X135773614Y-132306857D01*
X135891355Y-132454499D01*
X135937198Y-132511985D01*
X136118753Y-132680441D01*
X136129521Y-132690433D01*
X136346296Y-132838228D01*
X136346301Y-132838230D01*
X136346302Y-132838231D01*
X136346303Y-132838232D01*
X136471843Y-132898688D01*
X136582673Y-132952061D01*
X136582674Y-132952061D01*
X136582677Y-132952063D01*
X136833385Y-133029396D01*
X137092818Y-133068500D01*
X137355182Y-133068500D01*
X137614615Y-133029396D01*
X137865323Y-132952063D01*
X138101704Y-132838228D01*
X138318479Y-132690433D01*
X138510805Y-132511981D01*
X138674386Y-132306857D01*
X138805568Y-132079643D01*
X138901420Y-131835416D01*
X138959802Y-131579630D01*
X138965471Y-131503981D01*
X138979408Y-131318004D01*
X138979408Y-131317995D01*
X138959803Y-131056379D01*
X138959802Y-131056374D01*
X138959802Y-131056370D01*
X138901420Y-130800584D01*
X138805568Y-130556357D01*
X138674386Y-130329143D01*
X138510805Y-130124019D01*
X138510804Y-130124018D01*
X138510801Y-130124014D01*
X138318479Y-129945567D01*
X138101704Y-129797772D01*
X138101700Y-129797770D01*
X138101697Y-129797768D01*
X138101696Y-129797767D01*
X137865325Y-129683938D01*
X137865327Y-129683938D01*
X137614623Y-129606606D01*
X137614619Y-129606605D01*
X137614615Y-129606604D01*
X137489823Y-129587794D01*
X137355187Y-129567500D01*
X137355182Y-129567500D01*
X137092818Y-129567500D01*
X137092812Y-129567500D01*
X136931247Y-129591853D01*
X136833385Y-129606604D01*
X136833382Y-129606605D01*
X136833376Y-129606606D01*
X136582673Y-129683938D01*
X136346303Y-129797767D01*
X136346302Y-129797768D01*
X136129520Y-129945567D01*
X135937198Y-130124014D01*
X135773614Y-130329143D01*
X135642432Y-130556356D01*
X135546582Y-130800578D01*
X135546576Y-130800597D01*
X135488197Y-131056374D01*
X135488196Y-131056379D01*
X135468592Y-131317995D01*
X133617500Y-131317995D01*
X133617500Y-125600000D01*
X133637185Y-125532961D01*
X133689989Y-125487206D01*
X133741500Y-125476000D01*
X140522500Y-125476000D01*
X140589539Y-125495685D01*
X140635294Y-125548489D01*
X140646500Y-125600000D01*
X140646500Y-146003034D01*
X140626815Y-146070073D01*
X140610181Y-146090715D01*
X138167575Y-148533320D01*
X138106252Y-148566805D01*
X138036560Y-148561821D01*
X138026093Y-148557359D01*
X137865325Y-148479938D01*
X137865327Y-148479938D01*
X137614623Y-148402606D01*
X137614619Y-148402605D01*
X137614615Y-148402604D01*
X137489823Y-148383794D01*
X137355187Y-148363500D01*
X137355182Y-148363500D01*
X137092818Y-148363500D01*
X137092812Y-148363500D01*
X136931247Y-148387853D01*
X136833385Y-148402604D01*
X136833382Y-148402605D01*
X136833376Y-148402606D01*
X136582673Y-148479938D01*
X136346303Y-148593767D01*
X136346302Y-148593768D01*
X136129520Y-148741567D01*
X135937198Y-148920014D01*
X135773614Y-149125143D01*
X135642432Y-149352356D01*
X135546582Y-149596578D01*
X135546576Y-149596597D01*
X135488197Y-149852374D01*
X135488196Y-149852379D01*
X135468592Y-150113995D01*
X135468592Y-150114004D01*
X135488196Y-150375620D01*
X135488197Y-150375625D01*
X135546576Y-150631402D01*
X135546578Y-150631411D01*
X135546580Y-150631416D01*
X135642432Y-150875643D01*
X135773614Y-151102857D01*
X135905736Y-151268533D01*
X135937198Y-151307985D01*
X136117082Y-151474891D01*
X136129521Y-151486433D01*
X136346296Y-151634228D01*
X136346301Y-151634230D01*
X136346302Y-151634231D01*
X136346303Y-151634232D01*
X136471843Y-151694688D01*
X136582673Y-151748061D01*
X136582674Y-151748061D01*
X136582677Y-151748063D01*
X136833385Y-151825396D01*
X137092818Y-151864500D01*
X137355182Y-151864500D01*
X137614615Y-151825396D01*
X137865323Y-151748063D01*
X138101704Y-151634228D01*
X138318479Y-151486433D01*
X138510805Y-151307981D01*
X138674386Y-151102857D01*
X138805568Y-150875643D01*
X138901420Y-150631416D01*
X138959802Y-150375630D01*
X138979408Y-150114000D01*
X138959802Y-149852370D01*
X138901420Y-149596584D01*
X138805568Y-149352357D01*
X138805567Y-149352356D01*
X138805568Y-149352356D01*
X138786224Y-149318852D01*
X138769751Y-149250952D01*
X138792603Y-149184925D01*
X138805924Y-149169177D01*
X141457489Y-146517614D01*
X141516799Y-146414887D01*
X141526180Y-146379874D01*
X141547500Y-146300309D01*
X141547500Y-125600000D01*
X141567185Y-125532961D01*
X141619989Y-125487206D01*
X141671500Y-125476000D01*
X148390500Y-125476000D01*
X148457539Y-125495685D01*
X148503294Y-125548489D01*
X148514500Y-125600000D01*
X148514500Y-162556249D01*
X148514274Y-162563736D01*
X148496983Y-162849576D01*
X148495178Y-162864441D01*
X148444236Y-163142421D01*
X148440652Y-163156959D01*
X148356577Y-163426769D01*
X148351270Y-163440762D01*
X148235285Y-163698468D01*
X148228327Y-163711726D01*
X148082124Y-163953577D01*
X148073618Y-163965900D01*
X147899328Y-164188364D01*
X147889398Y-164199572D01*
X147689572Y-164399398D01*
X147678364Y-164409328D01*
X147455900Y-164583618D01*
X147443577Y-164592124D01*
X147201726Y-164738327D01*
X147188468Y-164745285D01*
X146988965Y-164835075D01*
X146938073Y-164846000D01*
X43561927Y-164846000D01*
X43511036Y-164835075D01*
X43311532Y-164745285D01*
X43298273Y-164738327D01*
X43056422Y-164592124D01*
X43044099Y-164583618D01*
X42821635Y-164409328D01*
X42810427Y-164399398D01*
X42610601Y-164199572D01*
X42600671Y-164188364D01*
X42426381Y-163965900D01*
X42417879Y-163953584D01*
X42271668Y-163711718D01*
X42264721Y-163698482D01*
X42174923Y-163498962D01*
X42164000Y-163448073D01*
X42164000Y-160019997D01*
X140054432Y-160019997D01*
X140054432Y-160020002D01*
X140074688Y-160393610D01*
X140135222Y-160762850D01*
X140135223Y-160762853D01*
X140235317Y-161123362D01*
X140235318Y-161123364D01*
X140373806Y-161470945D01*
X140373815Y-161470963D01*
X140549073Y-161801534D01*
X140759045Y-162111219D01*
X140759052Y-162111229D01*
X141001272Y-162396391D01*
X141001273Y-162396392D01*
X141272913Y-162653703D01*
X141570780Y-162880136D01*
X141570785Y-162880139D01*
X141570789Y-162880142D01*
X141570794Y-162880146D01*
X141891378Y-163073033D01*
X141891383Y-163073036D01*
X141891387Y-163073037D01*
X141891391Y-163073040D01*
X142230951Y-163230137D01*
X142230962Y-163230142D01*
X142585538Y-163349613D01*
X142950951Y-163430046D01*
X143322919Y-163470500D01*
X143322925Y-163470500D01*
X143697075Y-163470500D01*
X143697081Y-163470500D01*
X144069049Y-163430046D01*
X144434462Y-163349613D01*
X144789038Y-163230142D01*
X145128617Y-163073036D01*
X145251993Y-162998803D01*
X145449205Y-162880146D01*
X145449210Y-162880142D01*
X145449209Y-162880142D01*
X145449220Y-162880136D01*
X145747087Y-162653703D01*
X146018727Y-162396392D01*
X146260954Y-162111221D01*
X146470928Y-161801531D01*
X146646189Y-161470955D01*
X146784680Y-161123368D01*
X146884779Y-160762845D01*
X146945311Y-160393613D01*
X146965568Y-160020000D01*
X146945311Y-159646387D01*
X146884779Y-159277155D01*
X146839702Y-159114804D01*
X146784682Y-158916637D01*
X146784681Y-158916635D01*
X146646193Y-158569054D01*
X146646184Y-158569036D01*
X146470926Y-158238465D01*
X146363369Y-158079830D01*
X146260954Y-157928779D01*
X146260950Y-157928774D01*
X146260947Y-157928770D01*
X146018727Y-157643608D01*
X145747087Y-157386297D01*
X145747086Y-157386296D01*
X145662208Y-157321773D01*
X145449220Y-157159864D01*
X145449216Y-157159861D01*
X145449210Y-157159857D01*
X145449205Y-157159853D01*
X145128621Y-156966966D01*
X145128608Y-156966959D01*
X144789048Y-156809862D01*
X144789043Y-156809860D01*
X144789038Y-156809858D01*
X144616203Y-156751623D01*
X144434461Y-156690386D01*
X144069047Y-156609953D01*
X143697082Y-156569500D01*
X143697081Y-156569500D01*
X143322919Y-156569500D01*
X143322917Y-156569500D01*
X142950952Y-156609953D01*
X142585538Y-156690386D01*
X142311440Y-156782741D01*
X142230962Y-156809858D01*
X142230959Y-156809859D01*
X142230951Y-156809862D01*
X141891391Y-156966959D01*
X141891378Y-156966966D01*
X141570794Y-157159853D01*
X141570789Y-157159857D01*
X141272913Y-157386296D01*
X141272912Y-157386297D01*
X141001272Y-157643608D01*
X140759052Y-157928770D01*
X140759045Y-157928780D01*
X140549073Y-158238465D01*
X140373815Y-158569036D01*
X140373806Y-158569054D01*
X140235318Y-158916635D01*
X140235317Y-158916637D01*
X140135223Y-159277146D01*
X140135222Y-159277149D01*
X140074688Y-159646389D01*
X140054432Y-160019997D01*
X42164000Y-160019997D01*
X42164000Y-153479995D01*
X45742592Y-153479995D01*
X45742592Y-153480004D01*
X45762196Y-153741620D01*
X45762197Y-153741625D01*
X45820576Y-153997402D01*
X45820578Y-153997411D01*
X45820580Y-153997416D01*
X45916432Y-154241643D01*
X46047614Y-154468857D01*
X46123519Y-154564039D01*
X46211198Y-154673985D01*
X46338465Y-154792070D01*
X46403521Y-154852433D01*
X46620296Y-155000228D01*
X46620301Y-155000230D01*
X46620302Y-155000231D01*
X46620303Y-155000232D01*
X46745843Y-155060688D01*
X46856673Y-155114061D01*
X46856674Y-155114061D01*
X46856677Y-155114063D01*
X47107385Y-155191396D01*
X47366818Y-155230500D01*
X47629182Y-155230500D01*
X47888615Y-155191396D01*
X48139323Y-155114063D01*
X48326111Y-155024110D01*
X48375696Y-155000232D01*
X48375696Y-155000231D01*
X48375704Y-155000228D01*
X48592479Y-154852433D01*
X48784805Y-154673981D01*
X48948386Y-154468857D01*
X49079568Y-154241643D01*
X49175420Y-153997416D01*
X49233802Y-153741630D01*
X49240142Y-153657033D01*
X49253408Y-153480004D01*
X49253408Y-153479998D01*
X53112891Y-153479998D01*
X53112891Y-153480001D01*
X53133300Y-153765362D01*
X53194109Y-154044895D01*
X53294091Y-154312958D01*
X53431196Y-154564045D01*
X53447066Y-154585247D01*
X54428845Y-153603468D01*
X54444901Y-153684182D01*
X54497668Y-153811574D01*
X54574274Y-153926224D01*
X54671776Y-154023726D01*
X54786426Y-154100332D01*
X54913818Y-154153099D01*
X54994530Y-154169154D01*
X54012751Y-155150931D01*
X54012752Y-155150932D01*
X54033953Y-155166803D01*
X54033961Y-155166808D01*
X54285042Y-155303908D01*
X54285041Y-155303908D01*
X54553104Y-155403890D01*
X54832637Y-155464699D01*
X55117999Y-155485109D01*
X55118001Y-155485109D01*
X55403362Y-155464699D01*
X55682895Y-155403890D01*
X55950958Y-155303908D01*
X56202039Y-155166807D01*
X56202045Y-155166804D01*
X56223247Y-155150932D01*
X55241469Y-154169154D01*
X55322182Y-154153099D01*
X55449574Y-154100332D01*
X55564224Y-154023726D01*
X55661726Y-153926224D01*
X55738332Y-153811574D01*
X55791099Y-153684182D01*
X55807154Y-153603469D01*
X56788932Y-154585247D01*
X56804804Y-154564045D01*
X56804807Y-154564039D01*
X56941908Y-154312958D01*
X57041890Y-154044895D01*
X57102699Y-153765362D01*
X57123109Y-153480001D01*
X57123109Y-153479998D01*
X57102699Y-153194637D01*
X57041890Y-152915104D01*
X56941908Y-152647041D01*
X56804808Y-152395961D01*
X56804803Y-152395953D01*
X56788932Y-152374752D01*
X56788931Y-152374751D01*
X55807153Y-153356529D01*
X55791099Y-153275818D01*
X55738332Y-153148426D01*
X55661726Y-153033776D01*
X55564224Y-152936274D01*
X55449574Y-152859668D01*
X55322182Y-152806901D01*
X55241467Y-152790845D01*
X56223247Y-151809066D01*
X56202045Y-151793196D01*
X55950957Y-151656091D01*
X55950958Y-151656091D01*
X55682895Y-151556109D01*
X55403362Y-151495300D01*
X55118001Y-151474891D01*
X55117999Y-151474891D01*
X54832637Y-151495300D01*
X54553104Y-151556109D01*
X54285041Y-151656091D01*
X54033963Y-151793190D01*
X54033953Y-151793197D01*
X54012751Y-151809067D01*
X54994530Y-152790845D01*
X54913818Y-152806901D01*
X54786426Y-152859668D01*
X54671776Y-152936274D01*
X54574274Y-153033776D01*
X54497668Y-153148426D01*
X54444901Y-153275818D01*
X54428845Y-153356530D01*
X53447067Y-152374751D01*
X53431197Y-152395953D01*
X53431190Y-152395963D01*
X53294091Y-152647041D01*
X53194109Y-152915104D01*
X53133300Y-153194637D01*
X53112891Y-153479998D01*
X49253408Y-153479998D01*
X49253408Y-153479995D01*
X49233803Y-153218379D01*
X49233802Y-153218374D01*
X49233802Y-153218370D01*
X49175420Y-152962584D01*
X49079568Y-152718357D01*
X48948386Y-152491143D01*
X48784805Y-152286019D01*
X48784804Y-152286018D01*
X48784801Y-152286014D01*
X48592479Y-152107567D01*
X48375704Y-151959772D01*
X48375700Y-151959770D01*
X48375697Y-151959768D01*
X48375696Y-151959767D01*
X48139325Y-151845938D01*
X48139327Y-151845938D01*
X47888623Y-151768606D01*
X47888619Y-151768605D01*
X47888615Y-151768604D01*
X47752324Y-151748061D01*
X47629187Y-151729500D01*
X47629182Y-151729500D01*
X47366818Y-151729500D01*
X47366812Y-151729500D01*
X47205247Y-151753853D01*
X47107385Y-151768604D01*
X47107382Y-151768605D01*
X47107376Y-151768606D01*
X46856673Y-151845938D01*
X46620303Y-151959767D01*
X46620302Y-151959768D01*
X46403520Y-152107567D01*
X46211198Y-152286014D01*
X46047614Y-152491143D01*
X45916432Y-152718356D01*
X45820582Y-152962578D01*
X45820576Y-152962597D01*
X45762197Y-153218374D01*
X45762196Y-153218379D01*
X45742592Y-153479995D01*
X42164000Y-153479995D01*
X42164000Y-144525997D01*
X43534432Y-144525997D01*
X43534432Y-144526002D01*
X43554688Y-144899610D01*
X43615222Y-145268850D01*
X43615223Y-145268853D01*
X43715317Y-145629362D01*
X43715318Y-145629364D01*
X43853806Y-145976945D01*
X43853815Y-145976963D01*
X44029073Y-146307534D01*
X44239045Y-146617219D01*
X44239052Y-146617229D01*
X44443098Y-146857449D01*
X44481273Y-146902392D01*
X44752913Y-147159703D01*
X45050780Y-147386136D01*
X45050785Y-147386139D01*
X45050789Y-147386142D01*
X45050794Y-147386146D01*
X45371378Y-147579033D01*
X45371383Y-147579036D01*
X45371387Y-147579037D01*
X45371391Y-147579040D01*
X45618782Y-147693495D01*
X45710962Y-147736142D01*
X46065538Y-147855613D01*
X46430951Y-147936046D01*
X46802919Y-147976500D01*
X46802925Y-147976500D01*
X47177075Y-147976500D01*
X47177081Y-147976500D01*
X47549049Y-147936046D01*
X47914462Y-147855613D01*
X48269038Y-147736142D01*
X48608617Y-147579036D01*
X48729912Y-147506055D01*
X48929205Y-147386146D01*
X48929210Y-147386142D01*
X48929209Y-147386142D01*
X48929220Y-147386136D01*
X49227087Y-147159703D01*
X49498727Y-146902392D01*
X49740954Y-146617221D01*
X49950928Y-146307531D01*
X50126189Y-145976955D01*
X50264680Y-145629368D01*
X50364779Y-145268845D01*
X50425311Y-144899613D01*
X50445568Y-144526000D01*
X50443003Y-144478699D01*
X50425311Y-144152389D01*
X50425311Y-144152387D01*
X50364779Y-143783155D01*
X50307829Y-143578039D01*
X50264682Y-143422637D01*
X50264681Y-143422635D01*
X50126193Y-143075054D01*
X50126184Y-143075036D01*
X50118045Y-143059685D01*
X49950928Y-142744469D01*
X49950926Y-142744465D01*
X49843369Y-142585830D01*
X49740954Y-142434779D01*
X49740950Y-142434774D01*
X49740947Y-142434770D01*
X49498727Y-142149608D01*
X49227087Y-141892297D01*
X49227086Y-141892296D01*
X49133167Y-141820901D01*
X48929220Y-141665864D01*
X48929216Y-141665861D01*
X48929210Y-141665857D01*
X48929205Y-141665853D01*
X48608621Y-141472966D01*
X48608608Y-141472959D01*
X48269048Y-141315862D01*
X48269043Y-141315860D01*
X48269038Y-141315858D01*
X48096203Y-141257623D01*
X47914461Y-141196386D01*
X47549047Y-141115953D01*
X47177082Y-141075500D01*
X47177081Y-141075500D01*
X46802919Y-141075500D01*
X46802917Y-141075500D01*
X46430952Y-141115953D01*
X46065538Y-141196386D01*
X45800886Y-141285559D01*
X45710962Y-141315858D01*
X45710959Y-141315859D01*
X45710951Y-141315862D01*
X45371391Y-141472959D01*
X45371378Y-141472966D01*
X45050794Y-141665853D01*
X45050789Y-141665857D01*
X44752913Y-141892296D01*
X44752912Y-141892297D01*
X44481272Y-142149608D01*
X44239052Y-142434770D01*
X44239045Y-142434780D01*
X44029073Y-142744465D01*
X43853815Y-143075036D01*
X43853806Y-143075054D01*
X43715318Y-143422635D01*
X43715317Y-143422637D01*
X43615223Y-143783146D01*
X43615222Y-143783149D01*
X43554688Y-144152389D01*
X43534432Y-144525997D01*
X42164000Y-144525997D01*
X42164000Y-135409997D01*
X47129723Y-135409997D01*
X47129723Y-135410002D01*
X47148793Y-135627975D01*
X47148793Y-135627979D01*
X47205422Y-135839322D01*
X47205424Y-135839326D01*
X47205425Y-135839330D01*
X47251661Y-135938484D01*
X47297897Y-136037638D01*
X47297898Y-136037639D01*
X47423402Y-136216877D01*
X47578123Y-136371598D01*
X47757361Y-136497102D01*
X47955670Y-136589575D01*
X48167023Y-136646207D01*
X48349926Y-136662208D01*
X48384998Y-136665277D01*
X48385000Y-136665277D01*
X48385002Y-136665277D01*
X48413254Y-136662805D01*
X48602977Y-136646207D01*
X48814330Y-136589575D01*
X49012639Y-136497102D01*
X49191877Y-136371598D01*
X49346598Y-136216877D01*
X49472102Y-136037639D01*
X49564575Y-135839330D01*
X49621207Y-135627977D01*
X49640277Y-135410000D01*
X49621207Y-135192023D01*
X49564575Y-134980670D01*
X49472102Y-134782362D01*
X49472100Y-134782359D01*
X49472099Y-134782357D01*
X49346599Y-134603124D01*
X49270004Y-134526529D01*
X49191877Y-134448402D01*
X49012639Y-134322898D01*
X49012640Y-134322898D01*
X49012638Y-134322897D01*
X48913484Y-134276661D01*
X48814330Y-134230425D01*
X48814326Y-134230424D01*
X48814322Y-134230422D01*
X48602977Y-134173793D01*
X48385002Y-134154723D01*
X48384998Y-134154723D01*
X48239682Y-134167436D01*
X48167023Y-134173793D01*
X48167020Y-134173793D01*
X47955677Y-134230422D01*
X47955668Y-134230426D01*
X47757361Y-134322898D01*
X47757357Y-134322900D01*
X47578121Y-134448402D01*
X47423402Y-134603121D01*
X47297900Y-134782357D01*
X47297898Y-134782361D01*
X47205426Y-134980668D01*
X47205422Y-134980677D01*
X47148793Y-135192020D01*
X47148793Y-135192024D01*
X47129723Y-135409997D01*
X42164000Y-135409997D01*
X42164000Y-130309995D01*
X44089592Y-130309995D01*
X44089592Y-130310004D01*
X44109196Y-130571620D01*
X44109197Y-130571625D01*
X44167576Y-130827402D01*
X44167578Y-130827411D01*
X44167580Y-130827416D01*
X44263432Y-131071643D01*
X44394614Y-131298857D01*
X44526736Y-131464533D01*
X44558198Y-131503985D01*
X44639725Y-131579630D01*
X44750521Y-131682433D01*
X44967296Y-131830228D01*
X44967301Y-131830230D01*
X44967302Y-131830231D01*
X44967303Y-131830232D01*
X45092843Y-131890688D01*
X45203673Y-131944061D01*
X45203674Y-131944061D01*
X45203677Y-131944063D01*
X45454385Y-132021396D01*
X45713818Y-132060500D01*
X45976182Y-132060500D01*
X46235615Y-132021396D01*
X46486323Y-131944063D01*
X46722704Y-131830228D01*
X46939479Y-131682433D01*
X47131805Y-131503981D01*
X47295386Y-131298857D01*
X47426568Y-131071643D01*
X47522420Y-130827416D01*
X47580802Y-130571630D01*
X47581947Y-130556356D01*
X47600408Y-130310004D01*
X47600408Y-130309995D01*
X47580803Y-130048379D01*
X47580802Y-130048374D01*
X47580802Y-130048370D01*
X47522420Y-129792584D01*
X47426568Y-129548357D01*
X47295386Y-129321143D01*
X47131805Y-129116019D01*
X47131804Y-129116018D01*
X47131801Y-129116014D01*
X46939479Y-128937567D01*
X46924630Y-128927443D01*
X46722704Y-128789772D01*
X46722700Y-128789770D01*
X46722697Y-128789768D01*
X46722696Y-128789767D01*
X46486325Y-128675938D01*
X46486327Y-128675938D01*
X46235623Y-128598606D01*
X46235619Y-128598605D01*
X46235615Y-128598604D01*
X46110823Y-128579794D01*
X45976187Y-128559500D01*
X45976182Y-128559500D01*
X45713818Y-128559500D01*
X45713812Y-128559500D01*
X45552247Y-128583853D01*
X45454385Y-128598604D01*
X45454382Y-128598605D01*
X45454376Y-128598606D01*
X45203673Y-128675938D01*
X44967303Y-128789767D01*
X44967302Y-128789768D01*
X44750520Y-128937567D01*
X44558198Y-129116014D01*
X44394614Y-129321143D01*
X44263432Y-129548356D01*
X44167582Y-129792578D01*
X44167576Y-129792597D01*
X44109197Y-130048374D01*
X44109196Y-130048379D01*
X44089592Y-130309995D01*
X42164000Y-130309995D01*
X42164000Y-125600000D01*
X42183685Y-125532961D01*
X42236489Y-125487206D01*
X42288000Y-125476000D01*
X47010501Y-125476000D01*
X47077540Y-125495685D01*
G37*
G04 #@! TD.AperFunction*
M02*
