%TF.GenerationSoftware,KiCad,Pcbnew,8.0.5*%
%TF.CreationDate,2024-12-11T17:18:18+01:00*%
%TF.ProjectId,12VSupport,31325653-7570-4706-9f72-742e6b696361,1.0*%
%TF.SameCoordinates,Original*%
%TF.FileFunction,Drillmap*%
%TF.FilePolarity,Positive*%
%FSLAX45Y45*%
G04 Gerber Fmt 4.5, Leading zero omitted, Abs format (unit mm)*
G04 Created by KiCad (PCBNEW 8.0.5) date 2024-12-11 17:18:18*
%MOMM*%
%LPD*%
G01*
G04 APERTURE LIST*
%ADD10C,0.050000*%
%ADD11C,0.200000*%
G04 APERTURE END LIST*
D10*
X4191000Y-4191000D02*
X4191000Y-16510000D01*
X14859000Y-4191000D02*
X4191000Y-4191000D01*
X14859000Y-4191000D02*
X14859000Y-16510000D01*
X14859000Y-16510000D02*
X4191000Y-16510000D01*
D11*
X4449277Y-16823984D02*
X4449277Y-16623984D01*
X4449277Y-16623984D02*
X4496896Y-16623984D01*
X4496896Y-16623984D02*
X4525467Y-16633508D01*
X4525467Y-16633508D02*
X4544515Y-16652555D01*
X4544515Y-16652555D02*
X4554039Y-16671603D01*
X4554039Y-16671603D02*
X4563563Y-16709698D01*
X4563563Y-16709698D02*
X4563563Y-16738269D01*
X4563563Y-16738269D02*
X4554039Y-16776365D01*
X4554039Y-16776365D02*
X4544515Y-16795412D01*
X4544515Y-16795412D02*
X4525467Y-16814460D01*
X4525467Y-16814460D02*
X4496896Y-16823984D01*
X4496896Y-16823984D02*
X4449277Y-16823984D01*
X4649277Y-16823984D02*
X4649277Y-16690650D01*
X4649277Y-16728746D02*
X4658801Y-16709698D01*
X4658801Y-16709698D02*
X4668324Y-16700174D01*
X4668324Y-16700174D02*
X4687372Y-16690650D01*
X4687372Y-16690650D02*
X4706420Y-16690650D01*
X4773086Y-16823984D02*
X4773086Y-16690650D01*
X4773086Y-16623984D02*
X4763563Y-16633508D01*
X4763563Y-16633508D02*
X4773086Y-16643031D01*
X4773086Y-16643031D02*
X4782610Y-16633508D01*
X4782610Y-16633508D02*
X4773086Y-16623984D01*
X4773086Y-16623984D02*
X4773086Y-16643031D01*
X4896896Y-16823984D02*
X4877848Y-16814460D01*
X4877848Y-16814460D02*
X4868324Y-16795412D01*
X4868324Y-16795412D02*
X4868324Y-16623984D01*
X5001658Y-16823984D02*
X4982610Y-16814460D01*
X4982610Y-16814460D02*
X4973086Y-16795412D01*
X4973086Y-16795412D02*
X4973086Y-16623984D01*
X5230229Y-16823984D02*
X5230229Y-16623984D01*
X5230229Y-16623984D02*
X5296896Y-16766841D01*
X5296896Y-16766841D02*
X5363563Y-16623984D01*
X5363563Y-16623984D02*
X5363563Y-16823984D01*
X5544515Y-16823984D02*
X5544515Y-16719222D01*
X5544515Y-16719222D02*
X5534991Y-16700174D01*
X5534991Y-16700174D02*
X5515944Y-16690650D01*
X5515944Y-16690650D02*
X5477848Y-16690650D01*
X5477848Y-16690650D02*
X5458801Y-16700174D01*
X5544515Y-16814460D02*
X5525467Y-16823984D01*
X5525467Y-16823984D02*
X5477848Y-16823984D01*
X5477848Y-16823984D02*
X5458801Y-16814460D01*
X5458801Y-16814460D02*
X5449277Y-16795412D01*
X5449277Y-16795412D02*
X5449277Y-16776365D01*
X5449277Y-16776365D02*
X5458801Y-16757317D01*
X5458801Y-16757317D02*
X5477848Y-16747793D01*
X5477848Y-16747793D02*
X5525467Y-16747793D01*
X5525467Y-16747793D02*
X5544515Y-16738269D01*
X5639753Y-16690650D02*
X5639753Y-16890650D01*
X5639753Y-16700174D02*
X5658801Y-16690650D01*
X5658801Y-16690650D02*
X5696896Y-16690650D01*
X5696896Y-16690650D02*
X5715943Y-16700174D01*
X5715943Y-16700174D02*
X5725467Y-16709698D01*
X5725467Y-16709698D02*
X5734991Y-16728746D01*
X5734991Y-16728746D02*
X5734991Y-16785889D01*
X5734991Y-16785889D02*
X5725467Y-16804936D01*
X5725467Y-16804936D02*
X5715943Y-16814460D01*
X5715943Y-16814460D02*
X5696896Y-16823984D01*
X5696896Y-16823984D02*
X5658801Y-16823984D01*
X5658801Y-16823984D02*
X5639753Y-16814460D01*
X5820705Y-16804936D02*
X5830229Y-16814460D01*
X5830229Y-16814460D02*
X5820705Y-16823984D01*
X5820705Y-16823984D02*
X5811182Y-16814460D01*
X5811182Y-16814460D02*
X5820705Y-16804936D01*
X5820705Y-16804936D02*
X5820705Y-16823984D01*
X5820705Y-16700174D02*
X5830229Y-16709698D01*
X5830229Y-16709698D02*
X5820705Y-16719222D01*
X5820705Y-16719222D02*
X5811182Y-16709698D01*
X5811182Y-16709698D02*
X5820705Y-16700174D01*
X5820705Y-16700174D02*
X5820705Y-16719222D01*
M02*
