M48
; DRILL file {KiCad 8.0.5} date 2024-12-11T17:18:18+0100
; FORMAT={-:-/ absolute / inch / decimal}
; #@! TF.CreationDate,2024-12-11T17:18:18+01:00
; #@! TF.GenerationSoftware,Kicad,Pcbnew,8.0.5
; #@! TF.FileFunction,Plated,1,2,PTH
FMAT,2
INCH
; #@! TA.AperFunction,Plated,PTH,ViaDrill
T1C0.0157
; #@! TA.AperFunction,Plated,PTH,ComponentDrill
T2C0.0197
; #@! TA.AperFunction,Plated,PTH,ViaDrill
T3C0.0236
; #@! TA.AperFunction,Plated,PTH,ViaDrill
T4C0.0315
; #@! TA.AperFunction,Plated,PTH,ComponentDrill
T5C0.0315
; #@! TA.AperFunction,Plated,PTH,ComponentDrill
T6C0.0394
; #@! TA.AperFunction,Plated,PTH,ComponentDrill
T7C0.0433
; #@! TA.AperFunction,Plated,PTH,ComponentDrill
T8C0.0520
; #@! TA.AperFunction,Plated,PTH,ComponentDrill
T9C0.0630
; #@! TA.AperFunction,Plated,PTH,ComponentDrill
T10C0.0701
; #@! TA.AperFunction,Plated,PTH,ComponentDrill
T11C0.1260
%
G90
G05
T1
X2.39Y-1.85
X2.39Y-1.9
X2.39Y-1.95
X2.39Y-2.0
X2.56Y-1.85
X2.56Y-2.56
X2.93Y-1.81
X2.9976Y-2.75
X3.005Y-5.595
X3.04Y-2.2059
X3.175Y-1.915
X3.18Y-2.26
X3.31Y-3.14
X3.36Y-2.58
X3.36Y-2.86
X3.365Y-1.865
X3.3999Y-3.8416
X3.41Y-2.9
X3.415Y-2.76
X3.45Y-4.6
X3.5Y-4.895
X3.53Y-4.925
X3.535Y-4.88
X3.5493Y-2.3107
X3.55Y-2.915
X3.59Y-4.915
X3.595Y-1.88
X3.595Y-2.065
X3.595Y-2.165
X3.78Y-1.875
X3.78Y-2.195
X4.47Y-3.3031
X4.795Y-5.365
X5.05Y-5.41
X5.0524Y-4.83
X5.075Y-5.46
X5.08Y-4.81
X5.17Y-5.7
X5.1816Y-5.21
X5.185Y-5.735
X5.2012Y-5.762
X5.2052Y-5.15
X5.2243Y-5.7842
X5.2288Y-5.1
X5.2326Y-5.8146
X5.2524Y-5.06
X5.28Y-5.01
T2
X1.7455Y-5.7
X1.7505Y-3.305
X1.7732Y-5.6332
X1.7732Y-5.7668
X1.7782Y-3.2382
X1.7782Y-3.3718
X1.84Y-5.6055
X1.84Y-5.7945
X1.845Y-3.2105
X1.845Y-3.3995
X1.9068Y-5.6332
X1.9068Y-5.7668
X1.9118Y-3.2382
X1.9118Y-3.3718
X1.9345Y-5.7
X1.9395Y-3.305
X5.5705Y-6.315
X5.5723Y-1.8268
X5.5982Y-6.2482
X5.5982Y-6.3818
X5.6Y-1.76
X5.6Y-1.8936
X5.665Y-6.2205
X5.665Y-6.4095
X5.6668Y-1.7323
X5.6668Y-1.9213
X5.7318Y-6.2482
X5.7318Y-6.3818
X5.7336Y-1.76
X5.7336Y-1.8936
X5.7595Y-6.315
X5.7613Y-1.8268
T3
X1.87Y-4.42
X2.1469Y-6.4131
X2.595Y-2.795
X2.595Y-2.925
X2.755Y-2.795
X2.755Y-2.925
X2.8Y-4.5131
X2.8Y-6.4146
X2.92Y-1.7288
X3.1Y-2.9819
X3.215Y-2.015
X3.2325Y-2.2675
X3.25Y-4.5131
X3.26Y-2.37
X3.35Y-2.385
X3.365Y-2.9819
X3.42Y-1.7288
X3.425Y-1.9884
X3.49Y-2.2477
X3.64Y-2.3884
X3.64Y-2.71
X3.64Y-6.4146
X3.85Y-2.9819
X3.93Y-1.7288
X4.18Y-2.74
X4.18Y-2.79
X4.18Y-2.84
X4.2Y-1.7288
X4.27Y-6.4146
X4.36Y-2.9819
X4.54Y-1.8543
X4.6388Y-5.23
X4.71Y-2.9819
X4.9Y-5.21
X4.94Y-1.925
X5.0Y-2.985
X5.03Y-4.125
X5.03Y-6.4146
X5.09Y-4.125
X5.1311Y-2.1
X5.28Y-2.28
X5.29Y-3.31
X5.3Y-4.74
X5.3495Y-3.9095
X5.4364Y-2.48
X5.44Y-5.31
X5.4703Y-2.7847
X5.49Y-3.31
X5.5Y-3.43
X5.5Y-3.6
X5.5Y-3.76
X5.535Y-6.105
X5.6428Y-2.9572
X5.65Y-3.43
X5.65Y-3.6
X5.65Y-3.76
X5.7106Y-3.12
X5.7106Y-3.23
X5.7683Y-4.12
X5.7683Y-5.205
X5.7683Y-5.71
X5.77Y-4.54
X5.79Y-3.43
X5.79Y-3.6
X5.79Y-3.76
T4
X2.275Y-2.005
X2.29Y-4.39
X2.36Y-3.94
X2.6884Y-4.1884
T5
X3.96Y-2.02
X3.96Y-2.12
X3.96Y-2.22
X4.6919Y-5.1385
X4.6919Y-5.3315
X5.2934Y-4.44
X5.3919Y-4.44
T6
X1.82Y-2.475
X1.92Y-2.475
X2.02Y-2.475
X4.16Y-2.18
X5.64Y-4.7002
X5.64Y-4.8002
X5.64Y-4.9002
X5.64Y-5.0002
X5.64Y-5.1002
T7
X1.9049Y-4.9295
X1.9049Y-5.3311
X1.9066Y-3.7396
X1.9066Y-4.1412
X3.3999Y-3.7295
X3.3999Y-4.1311
X3.4049Y-4.9295
X3.4049Y-5.3311
T8
X1.8852Y-6.25
X1.9059Y-1.975
X1.9059Y-2.1719
X1.9059Y-2.8031
X1.9059Y-3.0
X2.082Y-6.25
X2.3852Y-6.25
X2.582Y-6.25
X2.8852Y-6.25
X3.082Y-6.25
X3.3731Y-6.25
X3.57Y-6.25
X5.1311Y-1.925
X5.328Y-1.925
T9
X1.8049Y-5.1303
X1.8066Y-3.9404
X2.4033Y-4.7799
X2.405Y-3.59
X2.5033Y-5.4807
X2.505Y-4.2908
X2.8026Y-5.4807
X2.8042Y-4.2908
X3.2999Y-3.9303
X3.3049Y-5.1303
X3.8983Y-3.5799
X3.9033Y-4.7799
X3.9983Y-4.2807
X4.0033Y-5.4807
X4.2976Y-4.2807
X4.3026Y-5.4807
T10
X2.37Y-2.24
X2.37Y-2.3739
X2.89Y-2.24
X2.89Y-2.3739
X5.1648Y-2.4328
X5.1648Y-2.5667
X5.6848Y-2.4328
X5.6848Y-2.5667
T11
X1.84Y-5.7
X1.845Y-3.305
X5.665Y-6.315
X5.6668Y-1.8268
M30
